<?xml version="1.0" encoding="UTF-8"?>
<svg width="1367px" height="663px" viewBox="0 0 1367 663" version="1.1" xmlns="http://www.w3.org/2000/svg" xmlns:xlink="http://www.w3.org/1999/xlink">
    <title>img/claimcharity05</title>
    <defs>
        <rect id="path-1" x="0" y="0" width="814" height="547" rx="3.24"></rect>
        <filter x="-2.7%" y="-3.7%" width="105.4%" height="108.0%" filterUnits="objectBoundingBox" id="filter-2">
            <feOffset dx="0" dy="2" in="SourceAlpha" result="shadowOffsetOuter1"></feOffset>
            <feGaussianBlur stdDeviation="7" in="shadowOffsetOuter1" result="shadowBlurOuter1"></feGaussianBlur>
            <feColorMatrix values="0 0 0 0 0   0 0 0 0 0   0 0 0 0 0  0 0 0 0.120602054 0" type="matrix" in="shadowBlurOuter1"></feColorMatrix>
        </filter>
        <polygon id="path-3" points="0 21.6056578 106.770879 21.6056578 106.770879 0.120114982 0 0.120114982"></polygon>
        <rect id="path-5" x="0" y="0" width="196" height="181" rx="3.6"></rect>
        <filter x="-12.0%" y="-11.9%" width="124.0%" height="126.0%" filterUnits="objectBoundingBox" id="filter-6">
            <feOffset dx="0" dy="2" in="SourceAlpha" result="shadowOffsetOuter1"></feOffset>
            <feGaussianBlur stdDeviation="7.5" in="shadowOffsetOuter1" result="shadowBlurOuter1"></feGaussianBlur>
            <feComposite in="shadowBlurOuter1" in2="SourceAlpha" operator="out" result="shadowBlurOuter1"></feComposite>
            <feColorMatrix values="0 0 0 0 0   0 0 0 0 0   0 0 0 0 0  0 0 0 0.0899530157 0" type="matrix" in="shadowBlurOuter1"></feColorMatrix>
        </filter>
        <rect id="path-7" x="0" y="0" width="388" height="420" rx="3.6"></rect>
        <filter x="-6.1%" y="-5.1%" width="112.1%" height="111.2%" filterUnits="objectBoundingBox" id="filter-8">
            <feOffset dx="0" dy="2" in="SourceAlpha" result="shadowOffsetOuter1"></feOffset>
            <feGaussianBlur stdDeviation="7.5" in="shadowOffsetOuter1" result="shadowBlurOuter1"></feGaussianBlur>
            <feComposite in="shadowBlurOuter1" in2="SourceAlpha" operator="out" result="shadowBlurOuter1"></feComposite>
            <feColorMatrix values="0 0 0 0 0   0 0 0 0 0   0 0 0 0 0  0 0 0 0.0899530157 0" type="matrix" in="shadowBlurOuter1"></feColorMatrix>
        </filter>
        <path d="M0.862381678,139.945053 L1.58111655,139.358148 L2.27361491,140.027538 C3.48057203,141.206816 4.37616836,142.155913 5.50600783,143.427074 L6.92399731,145.038923 C7.79719711,146.019338 8.14519902,146.320246 8.51544344,146.441442 C8.89541195,146.565822 9.36472327,146.451082 10.430046,145.933327 L11.1295181,145.580519 C11.736345,145.269033 12.6541753,144.794175 12.9262736,144.655659 C13.8492578,144.1858 14.7364932,143.750747 15.6875841,143.307212 L16.4144314,142.972294 L16.8623817,143.741351 C15.8847926,144.186525 14.9950476,144.612558 14.093936,145.06262 L13.4144209,145.405346 C13.0498142,145.590955 11.4723347,146.408219 11.1171146,146.585167 C9.65898575,147.311513 8.94832689,147.505581 8.17577555,147.252692 L8.00991803,147.192524 C7.41629011,146.953905 6.95487102,146.494909 5.71913054,145.078577 L4.74050981,143.965807 C3.52022381,142.592787 2.57937393,141.602972 1.21319522,140.282479 L0.862381678,139.945053 Z" id="path-9"></path>
        <filter x="-56.9%" y="-136.1%" width="219.8%" height="348.8%" filterUnits="objectBoundingBox" id="filter-10">
            <feMorphology radius="2" operator="dilate" in="SourceAlpha" result="shadowSpreadOuter1"></feMorphology>
            <feOffset dx="0" dy="0" in="shadowSpreadOuter1" result="shadowOffsetOuter1"></feOffset>
            <feGaussianBlur stdDeviation="2" in="shadowOffsetOuter1" result="shadowBlurOuter1"></feGaussianBlur>
            <feComposite in="shadowBlurOuter1" in2="SourceAlpha" operator="out" result="shadowBlurOuter1"></feComposite>
            <feColorMatrix values="0 0 0 0 1   0 0 0 0 1   0 0 0 0 1  0 0 0 0.258167614 0" type="matrix" in="shadowBlurOuter1"></feColorMatrix>
        </filter>
    </defs>
    <g id="Claim-Charity" stroke="none" stroke-width="1" fill="none" fill-rule="evenodd">
        <g id="claim_charity-(2)" transform="translate(0.000000, -1236.000000)">
            <g id="cbock-2/2" transform="translate(0.000000, 1106.000000)">
                <g id="img/claimcharity05" transform="translate(0.000000, 142.000000)">
                    <g id="fees/section-3/dots" transform="translate(1243.000000, 281.500000) rotate(90.000000) translate(-1243.000000, -281.500000) translate(1174.000000, 158.000000)" fill="#C799D1">
                        <polygon id="Fill-1" points="0.5 3.5 3.5 3.5 3.5 0.5 0.5 0.5"></polygon>
                        <polygon id="Fill-2" points="19.5 3.5 22.5 3.5 22.5 0.5 19.5 0.5"></polygon>
                        <polygon id="Fill-3" points="39.5 3.5 42.5 3.5 42.5 0.5 39.5 0.5"></polygon>
                        <polygon id="Fill-4" points="58.5 3.5 61.5 3.5 61.5 0.5 58.5 0.5"></polygon>
                        <polygon id="Fill-5" points="76.5 3.5 79.5 3.5 79.5 0.5 76.5 0.5"></polygon>
                        <polygon id="Fill-6" points="95.5 3.5 98.5 3.5 98.5 0.5 95.5 0.5"></polygon>
                        <polygon id="Fill-7" points="115.5 3.5 118.5 3.5 118.5 0.5 115.5 0.5"></polygon>
                        <polygon id="Fill-8" points="134.5 3.5 137.5 3.5 137.5 0.5 134.5 0.5"></polygon>
                        <polygon id="Fill-9" points="0.5 22.5 3.5 22.5 3.5 19.5 0.5 19.5"></polygon>
                        <polygon id="Fill-10" points="19.5 22.5 22.5 22.5 22.5 19.5 19.5 19.5"></polygon>
                        <polygon id="Fill-11" points="39.5 22.5 42.5 22.5 42.5 19.5 39.5 19.5"></polygon>
                        <polygon id="Fill-12" points="58.5 22.5 61.5 22.5 61.5 19.5 58.5 19.5"></polygon>
                        <polygon id="Fill-13" points="76.5 22.5 79.5 22.5 79.5 19.5 76.5 19.5"></polygon>
                        <polygon id="Fill-14" points="95.5 22.5 98.5 22.5 98.5 19.5 95.5 19.5"></polygon>
                        <polygon id="Fill-15" points="115.5 22.5 118.5 22.5 118.5 19.5 115.5 19.5"></polygon>
                        <polygon id="Fill-16" points="134.5 22.5 137.5 22.5 137.5 19.5 134.5 19.5"></polygon>
                        <polygon id="Fill-17" points="0.5 41.5 3.5 41.5 3.5 38.5 0.5 38.5"></polygon>
                        <polygon id="Fill-18" points="19.5 41.5 22.5 41.5 22.5 38.5 19.5 38.5"></polygon>
                        <polygon id="Fill-19" points="39.5 41.5 42.5 41.5 42.5 38.5 39.5 38.5"></polygon>
                        <polygon id="Fill-20" points="58.5 41.5 61.5 41.5 61.5 38.5 58.5 38.5"></polygon>
                        <polygon id="Fill-21" points="76.5 41.5 79.5 41.5 79.5 38.5 76.5 38.5"></polygon>
                        <polygon id="Fill-22" points="95.5 41.5 98.5 41.5 98.5 38.5 95.5 38.5"></polygon>
                        <polygon id="Fill-23" points="115.5 41.5 118.5 41.5 118.5 38.5 115.5 38.5"></polygon>
                        <polygon id="Fill-24" points="134.5 41.5 137.5 41.5 137.5 38.5 134.5 38.5"></polygon>
                        <polygon id="Fill-25" points="0.5 59.5 3.5 59.5 3.5 56.5 0.5 56.5"></polygon>
                        <polygon id="Fill-26" points="19.5 59.5 22.5 59.5 22.5 56.5 19.5 56.5"></polygon>
                        <polygon id="Fill-27" points="39.5 59.5 42.5 59.5 42.5 56.5 39.5 56.5"></polygon>
                        <polygon id="Fill-28" points="58.5 59.5 61.5 59.5 61.5 56.5 58.5 56.5"></polygon>
                        <polygon id="Fill-29" points="76.5 59.5 79.5 59.5 79.5 56.5 76.5 56.5"></polygon>
                        <polygon id="Fill-30" points="95.5 59.5 98.5 59.5 98.5 56.5 95.5 56.5"></polygon>
                        <polygon id="Fill-31" points="115.5 59.5 118.5 59.5 118.5 56.5 115.5 56.5"></polygon>
                        <polygon id="Fill-32" points="134.5 59.5 137.5 59.5 137.5 56.5 134.5 56.5"></polygon>
                        <polygon id="Fill-33" points="0.5 77.5 3.5 77.5 3.5 74.5 0.5 74.5"></polygon>
                        <polygon id="Fill-34" points="19.5 77.5 22.5 77.5 22.5 74.5 19.5 74.5"></polygon>
                        <polygon id="Fill-35" points="39.5 77.5 42.5 77.5 42.5 74.5 39.5 74.5"></polygon>
                        <polygon id="Fill-36" points="58.5 77.5 61.5 77.5 61.5 74.5 58.5 74.5"></polygon>
                        <polygon id="Fill-37" points="76.5 77.5 79.5 77.5 79.5 74.5 76.5 74.5"></polygon>
                        <polygon id="Fill-38" points="95.5 77.5 98.5 77.5 98.5 74.5 95.5 74.5"></polygon>
                        <polygon id="Fill-39" points="115.5 77.5 118.5 77.5 118.5 74.5 115.5 74.5"></polygon>
                        <polygon id="Fill-40" points="134.5 77.5 137.5 77.5 137.5 74.5 134.5 74.5"></polygon>
                        <polygon id="Fill-41" points="0.5 97.5 3.5 97.5 3.5 94.5 0.5 94.5"></polygon>
                        <polygon id="Fill-42" points="19.5 97.5 22.5 97.5 22.5 94.5 19.5 94.5"></polygon>
                        <polygon id="Fill-43" points="39.5 97.5 42.5 97.5 42.5 94.5 39.5 94.5"></polygon>
                        <polygon id="Fill-44" points="58.5 97.5 61.5 97.5 61.5 94.5 58.5 94.5"></polygon>
                        <polygon id="Fill-45" points="76.5 97.5 79.5 97.5 79.5 94.5 76.5 94.5"></polygon>
                        <polygon id="Fill-46" points="95.5 97.5 98.5 97.5 98.5 94.5 95.5 94.5"></polygon>
                        <polygon id="Fill-47" points="115.5 97.5 118.5 97.5 118.5 94.5 115.5 94.5"></polygon>
                        <polygon id="Fill-48" points="134.5 97.5 137.5 97.5 137.5 94.5 134.5 94.5"></polygon>
                        <polygon id="Fill-49" points="0.5 116.5 3.5 116.5 3.5 113.5 0.5 113.5"></polygon>
                        <polygon id="Fill-50" points="19.5 116.5 22.5 116.5 22.5 113.5 19.5 113.5"></polygon>
                        <polygon id="Fill-51" points="39.5 116.5 42.5 116.5 42.5 113.5 39.5 113.5"></polygon>
                        <polygon id="Fill-52" points="58.5 116.5 61.5 116.5 61.5 113.5 58.5 113.5"></polygon>
                        <polygon id="Fill-53" points="76.5 116.5 79.5 116.5 79.5 113.5 76.5 113.5"></polygon>
                        <polygon id="Fill-54" points="95.5 116.5 98.5 116.5 98.5 113.5 95.5 113.5"></polygon>
                        <polygon id="Fill-55" points="115.5 116.5 118.5 116.5 118.5 113.5 115.5 113.5"></polygon>
                        <polygon id="Fill-56" points="134.5 116.5 137.5 116.5 137.5 113.5 134.5 113.5"></polygon>
                        <polygon id="Fill-57" points="0.5 133.5 3.5 133.5 3.5 130.5 0.5 130.5"></polygon>
                        <polygon id="Fill-58" points="19.5 133.5 22.5 133.5 22.5 130.5 19.5 130.5"></polygon>
                        <polygon id="Fill-59" points="39.5 133.5 42.5 133.5 42.5 130.5 39.5 130.5"></polygon>
                        <polygon id="Fill-60" points="58.5 133.5 61.5 133.5 61.5 130.5 58.5 130.5"></polygon>
                        <polygon id="Fill-61" points="76.5 133.5 79.5 133.5 79.5 130.5 76.5 130.5"></polygon>
                        <polygon id="Fill-62" points="95.5 133.5 98.5 133.5 98.5 130.5 95.5 130.5"></polygon>
                        <polygon id="Fill-63" points="115.5 133.5 118.5 133.5 118.5 130.5 115.5 130.5"></polygon>
                        <polygon id="Fill-64" points="134.5 133.5 137.5 133.5 137.5 130.5 134.5 130.5"></polygon>
                        <polygon id="Fill-65" points="0.5 152.5 3.5 152.5 3.5 149.5 0.5 149.5"></polygon>
                        <polygon id="Fill-66" points="19.5 152.5 22.5 152.5 22.5 149.5 19.5 149.5"></polygon>
                        <polygon id="Fill-67" points="39.5 152.5 42.5 152.5 42.5 149.5 39.5 149.5"></polygon>
                        <polygon id="Fill-68" points="58.5 152.5 61.5 152.5 61.5 149.5 58.5 149.5"></polygon>
                        <polygon id="Fill-69" points="76.5 152.5 79.5 152.5 79.5 149.5 76.5 149.5"></polygon>
                        <polygon id="Fill-70" points="95.5 152.5 98.5 152.5 98.5 149.5 95.5 149.5"></polygon>
                        <polygon id="Fill-71" points="115.5 152.5 118.5 152.5 118.5 149.5 115.5 149.5"></polygon>
                        <polygon id="Fill-72" points="134.5 152.5 137.5 152.5 137.5 149.5 134.5 149.5"></polygon>
                        <polygon id="Fill-73" points="0.5 172.5 3.5 172.5 3.5 169.5 0.5 169.5"></polygon>
                        <polygon id="Fill-74" points="19.5 172.5 22.5 172.5 22.5 169.5 19.5 169.5"></polygon>
                        <polygon id="Fill-75" points="39.5 172.5 42.5 172.5 42.5 169.5 39.5 169.5"></polygon>
                        <polygon id="Fill-76" points="58.5 172.5 61.5 172.5 61.5 169.5 58.5 169.5"></polygon>
                        <polygon id="Fill-77" points="76.5 172.5 79.5 172.5 79.5 169.5 76.5 169.5"></polygon>
                        <polygon id="Fill-78" points="95.5 172.5 98.5 172.5 98.5 169.5 95.5 169.5"></polygon>
                        <polygon id="Fill-79" points="115.5 172.5 118.5 172.5 118.5 169.5 115.5 169.5"></polygon>
                        <polygon id="Fill-80" points="134.5 172.5 137.5 172.5 137.5 169.5 134.5 169.5"></polygon>
                        <polygon id="Fill-81" points="0.5 189.5 3.5 189.5 3.5 186.5 0.5 186.5"></polygon>
                        <polygon id="Fill-82" points="19.5 189.5 22.5 189.5 22.5 186.5 19.5 186.5"></polygon>
                        <polygon id="Fill-83" points="39.5 189.5 42.5 189.5 42.5 186.5 39.5 186.5"></polygon>
                        <polygon id="Fill-84" points="58.5 189.5 61.5 189.5 61.5 186.5 58.5 186.5"></polygon>
                        <polygon id="Fill-85" points="76.5 189.5 79.5 189.5 79.5 186.5 76.5 186.5"></polygon>
                        <polygon id="Fill-86" points="95.5 189.5 98.5 189.5 98.5 186.5 95.5 186.5"></polygon>
                        <polygon id="Fill-87" points="115.5 189.5 118.5 189.5 118.5 186.5 115.5 186.5"></polygon>
                        <polygon id="Fill-88" points="134.5 189.5 137.5 189.5 137.5 186.5 134.5 186.5"></polygon>
                        <polygon id="Fill-89" points="0.5 208.5 3.5 208.5 3.5 205.5 0.5 205.5"></polygon>
                        <polygon id="Fill-90" points="19.5 208.5 22.5 208.5 22.5 205.5 19.5 205.5"></polygon>
                        <polygon id="Fill-91" points="39.5 208.5 42.5 208.5 42.5 205.5 39.5 205.5"></polygon>
                        <polygon id="Fill-92" points="58.5 208.5 61.5 208.5 61.5 205.5 58.5 205.5"></polygon>
                        <polygon id="Fill-93" points="76.5 208.5 79.5 208.5 79.5 205.5 76.5 205.5"></polygon>
                        <polygon id="Fill-94" points="95.5 208.5 98.5 208.5 98.5 205.5 95.5 205.5"></polygon>
                        <polygon id="Fill-95" points="115.5 208.5 118.5 208.5 118.5 205.5 115.5 205.5"></polygon>
                        <polygon id="Fill-96" points="134.5 208.5 137.5 208.5 137.5 205.5 134.5 205.5"></polygon>
                        <polygon id="Fill-97" points="0.5 227.5 3.5 227.5 3.5 224.5 0.5 224.5"></polygon>
                        <polygon id="Fill-98" points="19.5 227.5 22.5 227.5 22.5 224.5 19.5 224.5"></polygon>
                        <polygon id="Fill-99" points="39.5 227.5 42.5 227.5 42.5 224.5 39.5 224.5"></polygon>
                        <polygon id="Fill-100" points="58.5 227.5 61.5 227.5 61.5 224.5 58.5 224.5"></polygon>
                        <polygon id="Fill-101" points="76.5 227.5 79.5 227.5 79.5 224.5 76.5 224.5"></polygon>
                        <polygon id="Fill-102" points="95.5 227.5 98.5 227.5 98.5 224.5 95.5 224.5"></polygon>
                        <polygon id="Fill-103" points="115.5 227.5 118.5 227.5 118.5 224.5 115.5 224.5"></polygon>
                        <polygon id="Fill-104" points="134.5 227.5 137.5 227.5 137.5 224.5 134.5 224.5"></polygon>
                        <polygon id="Fill-105" points="0.5 246.5 3.5 246.5 3.5 243.5 0.5 243.5"></polygon>
                        <polygon id="Fill-106" points="19.5 246.5 22.5 246.5 22.5 243.5 19.5 243.5"></polygon>
                        <polygon id="Fill-107" points="39.5 246.5 42.5 246.5 42.5 243.5 39.5 243.5"></polygon>
                        <polygon id="Fill-108" points="58.5 246.5 61.5 246.5 61.5 243.5 58.5 243.5"></polygon>
                        <polygon id="Fill-109" points="76.5 246.5 79.5 246.5 79.5 243.5 76.5 243.5"></polygon>
                        <polygon id="Fill-110" points="95.5 246.5 98.5 246.5 98.5 243.5 95.5 243.5"></polygon>
                        <polygon id="Fill-111" points="115.5 246.5 118.5 246.5 118.5 243.5 115.5 243.5"></polygon>
                        <polygon id="Fill-112" points="134.5 246.5 137.5 246.5 137.5 243.5 134.5 243.5"></polygon>
                    </g>
                    <path d="M163,329 L219,329 L219,368 L202,368 C180.460895,368 163,350.539105 163,329 L163,329 L163,329 Z" id="charitableimpactforcharities/section-4/bar-2" fill="#ED803B"></path>
                    <rect id="charitableimpactforcharities/section-4/bar-1" fill="#F7BA4A" x="0" y="39" width="444" height="282"></rect>
                    <g id="Group-10" transform="translate(304.000000, 0.000000)">
                        <g id="Rectangle">
                            <use fill="black" fill-opacity="1" filter="url(#filter-2)" xlink:href="#path-1"></use>
                            <use fill="#FFFFFF" fill-rule="evenodd" xlink:href="#path-1"></use>
                        </g>
                        <rect id="Rectangle" stroke="#F2F2F2" x="0" y="44" width="815" height="82"></rect>
                        <g id="Group-46-Copy-4" transform="translate(49.000000, 73.000000)">
                            <polygon id="Fill-1" fill="#F24040" points="0 7.33333333 6.4017094 7.33333333 6.4017094 0.916666667 0 0.916666667"></polygon>
                            <polygon id="Fill-2" fill="#C799D1" points="7.31623932 7.33333333 12.8034188 7.33333333 12.8034188 0.916666667 7.31623932 0.916666667"></polygon>
                            <polygon id="Fill-3" fill="#9142A1" points="15.5470085 7.33333333 21.9487179 7.33333333 21.9487179 0.916666667 15.5470085 0.916666667"></polygon>
                            <polygon id="Fill-4" fill="#663387" points="22.8632479 7.33333333 28.3504274 7.33333333 28.3504274 0.916666667 22.8632479 0.916666667"></polygon>
                            <polygon id="Fill-5" fill="#009EA1" points="29.7953846 7.33333333 30.5635897 7.33333333 30.5635897 0.916666667 29.7953846 0.916666667"></polygon>
                            <polygon id="Fill-6" fill="#29CCD1" points="31.0940171 7.33333333 36.5811966 7.33333333 36.5811966 0.916666667 31.0940171 0.916666667"></polygon>
                            <polygon id="Fill-7" fill="#82E3E0" points="38.4102564 7.33333333 44.8119658 7.33333333 44.8119658 0.916666667 38.4102564 0.916666667"></polygon>
                            <polygon id="Fill-8" fill="#FFDE03" points="44.8119658 7.33333333 50.2991453 7.33333333 50.2991453 0.916666667 44.8119658 0.916666667"></polygon>
                            <polygon id="Fill-9" fill="#FCC7AD" points="52.1282051 7.33333333 56.7008547 7.33333333 56.7008547 0.916666667 52.1282051 0.916666667"></polygon>
                            <polygon id="Fill-10" fill="#F7BA4A" points="57.6153846 7.33333333 62.1880342 7.33333333 62.1880342 0.916666667 57.6153846 0.916666667"></polygon>
                            <polygon id="Fill-11" fill="#ED803B" points="67.9175641 7.33333333 69.2619231 7.33333333 69.2619231 0.916666667 67.9175641 0.916666667"></polygon>
                            <polygon id="Fill-12" fill="#DB0063" points="71.3333333 7.33333333 77.7350427 7.33333333 77.7350427 0.916666667 71.3333333 0.916666667"></polygon>
                            <polygon id="Fill-13" fill="#94EBB2" points="80.4786325 7.33333333 85.965812 7.33333333 85.965812 0.916666667 80.4786325 0.916666667"></polygon>
                            <polygon id="Fill-14" fill="#A1C4FF" points="87.7948718 7.33333333 94.1965812 7.33333333 94.1965812 0.916666667 87.7948718 0.916666667"></polygon>
                            <polygon id="Fill-15" fill="#6194E5" points="94.1965812 7.33333333 100.598291 7.33333333 100.598291 0.916666667 94.1965812 0.916666667"></polygon>
                            <polygon id="Fill-16" fill="#0336FF" points="101.512821 7.33333333 107 7.33333333 107 0.916666667 101.512821 0.916666667"></polygon>
                            <g id="Group-45">
                                <path d="M0.000142143218,17.5746471 C0.000142143218,15.1797664 1.56087468,13.5415551 3.51960824,13.5415551 C4.50323931,13.5415551 5.28929131,13.9503647 5.88629283,14.6520305 C5.93746439,14.7114937 5.95878587,14.7932556 5.95878587,14.8750175 C5.95878587,15.0623266 5.83369984,15.2020651 5.66597084,15.2020651 C5.58210634,15.2020651 5.49824184,15.1678738 5.44564885,15.096518 C4.9751548,14.512292 4.28433875,14.1495664 3.51960824,14.1495664 C1.89633268,14.1495664 0.62841517,15.5410054 0.62841517,17.5746471 C0.62841517,19.5845034 1.89633268,20.9982411 3.51960824,20.9982411 C4.28433875,20.9982411 4.98510482,20.6370021 5.45702031,20.0393969 C5.50819186,19.9695277 5.58210634,19.9353363 5.66597084,19.9353363 C5.83369984,19.9353363 5.97015733,20.0854809 5.97015733,20.2623839 C5.97015733,20.3560385 5.93746439,20.4378004 5.88629283,20.485371 C5.26796983,21.2078489 4.50323931,21.6062524 3.51960824,21.6062524 C1.56087468,21.6062524 0.000142143218,19.9695277 0.000142143218,17.5746471" id="Fill-17" fill="#262626"></path>
                                <path d="M12.8207497,21.1619136 L12.8207497,17.7606182 L8.39014562,17.7606182 L8.39014562,21.1619136 C8.39014562,21.33733 8.26505959,21.5023404 8.09733059,21.5023404 C7.92960159,21.5023404 7.7931441,21.33733 7.7931441,21.1619136 L7.7931441,13.9757852 C7.7931441,13.7869895 7.92960159,13.6368449 8.09733059,13.6368449 C8.26505959,13.6368449 8.39014562,13.7869895 8.39014562,13.9757852 L8.39014562,17.1540935 L12.8207497,17.1540935 L12.8207497,13.9757852 C12.8207497,13.7869895 12.9572072,13.6368449 13.1249362,13.6368449 C13.2926652,13.6368449 13.4277013,13.7869895 13.4277013,13.9757852 L13.4277013,21.1619136 C13.4277013,21.33733 13.2926652,21.5023404 13.1249362,21.5023404 C12.9572072,21.5023404 12.8207497,21.33733 12.8207497,21.1619136" id="Fill-20" fill="#262626"></path>
                                <path d="M21.2951863,21.1501696 C21.2951863,21.3374787 21.1587288,21.5010025 20.9810498,21.5010025 C20.8460137,21.5010025 20.7294563,21.407348 20.6868133,21.2795021 L20.0699118,19.5506094 L16.3315451,19.5506094 L15.7132221,21.2795021 C15.6705791,21.407348 15.5454931,21.5010025 15.4204071,21.5010025 C15.2413066,21.5010025 15.1062706,21.3374787 15.1062706,21.1501696 C15.1062706,21.1159783 15.1162206,21.0684077 15.1361206,21.0104311 L17.7131772,13.9982325 C17.7870917,13.7886247 17.9860922,13.6340204 18.1950427,13.6340204 C18.4153647,13.6340204 18.6029937,13.7886247 18.6882797,13.9982325 L21.2639148,21.0104311 C21.2752862,21.046109 21.2951863,21.092193 21.2951863,21.1501696 L21.2951863,21.1501696 Z M19.8495898,18.9425981 L18.1950427,14.3252802 L16.5504457,18.9425981 L19.8495898,18.9425981 Z" id="Fill-22" fill="#262626"></path>
                                <path d="M27.6646239,20.9630092 C27.6958954,21.0105797 27.7172169,21.0789624 27.7172169,21.1741035 C27.7172169,21.3376274 27.6020809,21.5011512 27.4343519,21.5011512 C27.3291659,21.5011512 27.2353514,21.4535806 27.1728084,21.3614126 L25.2240249,18.2410809 L23.5808493,18.2410809 L23.5808493,21.1622109 C23.5808493,21.3376274 23.4543418,21.5011512 23.2866128,21.5011512 C23.1188838,21.5011512 22.9838477,21.3376274 22.9838477,21.1622109 L22.9838477,14.0325725 C22.9838477,13.800666 23.0989837,13.6713336 23.3079343,13.6713336 L25.5921758,13.6713336 C26.7947074,13.6713336 27.7172169,14.523144 27.7172169,15.9502609 C27.7172169,17.3179147 26.8799934,18.0998558 25.8849908,18.1816177 L27.6646239,20.9630092 Z M23.5808493,17.6330697 L25.5381614,17.6330697 C26.4606709,17.6330697 27.0889439,16.9314038 27.0889439,15.9502609 C27.0889439,14.969118 26.4606709,14.2778583 25.5381614,14.2778583 L23.5808493,14.2778583 L23.5808493,17.6330697 Z" id="Fill-24" fill="#262626"></path>
                                <path d="M29.730107,21.1619136 L29.730107,13.9757852 C29.730107,13.7869895 29.8665645,13.6368449 30.0328721,13.6368449 C30.2020225,13.6368449 30.3271086,13.7869895 30.3271086,13.9757852 L30.3271086,21.1619136 C30.3271086,21.33733 30.2020225,21.5023404 30.0328721,21.5023404 C29.8665645,21.5023404 29.730107,21.33733 29.730107,21.1619136" id="Fill-26" fill="#262626"></path>
                                <path d="M34.369946,21.1619136 L34.369946,14.277561 L32.3273479,14.277561 C32.1809404,14.277561 32.0558544,14.139309 32.0558544,13.9757852 C32.0558544,13.8122614 32.1809404,13.6710363 32.3273479,13.6710363 L37.030867,13.6710363 C37.1772745,13.6710363 37.3023606,13.8122614 37.3023606,13.9757852 C37.3023606,14.139309 37.1772745,14.277561 37.030867,14.277561 L34.9768975,14.277561 L34.9768975,21.1619136 C34.9768975,21.33733 34.8418615,21.5023404 34.6741325,21.5023404 C34.5064035,21.5023404 34.369946,21.33733 34.369946,21.1619136" id="Fill-28" fill="#262626"></path>
                                <path d="M44.059707,21.1501696 C44.059707,21.3374787 43.9232496,21.5010025 43.7455705,21.5010025 C43.6105345,21.5010025 43.493977,21.407348 43.4513341,21.2795021 L42.8344325,19.5506094 L39.0946444,19.5506094 L38.4777429,21.2795021 C38.4350999,21.407348 38.3100139,21.5010025 38.1849278,21.5010025 C38.0058274,21.5010025 37.8707913,21.3374787 37.8707913,21.1501696 C37.8707913,21.1159783 37.8807413,21.0684077 37.9006414,21.0104311 L40.4776979,13.9982325 C40.5516124,13.7886247 40.7506129,13.6340204 40.9595634,13.6340204 C41.1798854,13.6340204 41.3675145,13.7886247 41.4528004,13.9982325 L44.0284355,21.0104311 C44.0383856,21.046109 44.059707,21.092193 44.059707,21.1501696 L44.059707,21.1501696 Z M42.6141105,18.9425981 L40.9595634,14.3252802 L39.3149664,18.9425981 L42.6141105,18.9425981 Z" id="Fill-30" fill="#262626"></path>
                                <path d="M45.7476578,21.1037883 L45.7476578,14.0336132 C45.7476578,13.8002201 45.8627938,13.6708876 46.0731657,13.6708876 L48.6175294,13.6708876 C49.7902109,13.6708876 50.5449914,14.4320166 50.5449914,15.6569587 C50.5449914,16.6395881 49.9479899,17.305576 49.3197169,17.4453146 C50.0617045,17.5746471 50.6814489,18.4383501 50.6814489,19.3615164 C50.6814489,20.6593008 49.9266684,21.4650273 48.6800724,21.4650273 L46.0731657,21.4650273 C45.8627938,21.4650273 45.7476578,21.3252887 45.7476578,21.1037883 L45.7476578,21.1037883 Z M48.5436149,17.1658375 C49.4448029,17.1658375 49.9167184,16.534041 49.9167184,15.7283145 C49.9167184,14.9344807 49.4448029,14.2788989 48.5436149,14.2788989 L46.3446593,14.2788989 L46.3446593,17.1658375 L48.5436149,17.1658375 Z M48.5862578,20.8585026 C49.5073459,20.8585026 50.0517544,20.2623839 50.0517544,19.3154324 C50.0517544,18.520112 49.5599389,17.7723622 48.5862578,17.7723622 L46.3446593,17.7723622 L46.3446593,20.8585026 L48.5862578,20.8585026 Z" id="Fill-32" fill="#262626"></path>
                                <path d="M52.7034362,21.1037883 L52.7034362,13.9741499 C52.7034362,13.7868409 52.8398937,13.6366963 53.0076227,13.6366963 C53.1753517,13.6366963 53.3004377,13.7868409 53.3004377,13.9741499 L53.3004377,20.8585026 L56.4418028,20.8585026 C56.5882103,20.8585026 56.7132964,20.9997277 56.7132964,21.1632515 C56.7132964,21.3252887 56.5882103,21.4650273 56.4418028,21.4650273 L53.0289441,21.4650273 C52.8185722,21.4650273 52.7034362,21.3252887 52.7034362,21.1037883" id="Fill-34" fill="#262626"></path>
                                <path d="M58.5071438,21.1037883 L58.5071438,14.0336132 C58.5071438,13.8002201 58.6222798,13.6708876 58.8312303,13.6708876 L62.6961044,13.6708876 C62.842512,13.6708876 62.9690194,13.8121127 62.9690194,13.9741499 C62.9690194,14.1376738 62.842512,14.2788989 62.6961044,14.2788989 L59.1041453,14.2788989 L59.1041453,17.1658375 L62.62219,17.1658375 C62.7700189,17.1658375 62.8951049,17.305576 62.8951049,17.4705864 C62.8951049,17.6326237 62.7700189,17.7723622 62.62219,17.7723622 L59.1041453,17.7723622 L59.1041453,20.8585026 L62.6961044,20.8585026 C62.842512,20.8585026 62.9690194,20.9997277 62.9690194,21.1632515 C62.9690194,21.3252887 62.842512,21.4650273 62.6961044,21.4650273 L58.8312303,21.4650273 C58.6222798,21.4650273 58.5071438,21.3252887 58.5071438,21.1037883" id="Fill-36" fill="#262626"></path>
                                <mask id="mask-4" fill="white">
                                    <use xlink:href="#path-3"></use>
                                </mask>
                                <g id="Clip-39"></g>
                                <polygon id="Fill-38" fill="#262626" mask="url(#mask-4)" points="68.0723874 21.4659192 69.1199829 21.4659192 69.1199829 13.6717795 68.0723874 13.6717795"></polygon>
                                <polygon id="Fill-40" fill="#262626" mask="url(#mask-4)" points="77.078866 15.2720831 74.815946 21.4666625 74.3767234 21.4666625 72.1138034 15.2720831 72.1138034 21.4666625 71.0676293 21.4666625 71.0676293 13.6710363 72.5643974 13.6710363 74.595624 19.2680105 76.628272 13.6710363 78.1250401 13.6710363 78.1250401 21.4666625 77.078866 21.4666625"></polygon>
                                <path d="M80.0660058,13.6708876 L83.0083704,13.6708876 C84.4440169,13.6708876 85.2400189,14.7694703 85.2400189,16.0657682 C85.2400189,17.3635527 84.4326454,18.4621354 83.0083704,18.4621354 L81.1121798,18.4621354 L81.1121798,21.4650273 L80.0660058,21.4650273 L80.0660058,13.6708876 Z M82.8733343,14.6981145 L81.1121798,14.6981145 L81.1121798,17.4334219 L82.8733343,17.4334219 C83.6266934,17.4334219 84.1597305,16.8848739 84.1597305,16.0657682 C84.1597305,15.2496357 83.6266934,14.6981145 82.8733343,14.6981145 L82.8733343,14.6981145 Z" id="Fill-41" fill="#262626" mask="url(#mask-4)"></path>
                                <path d="M91.3570102,19.8538717 L87.93278,19.8538717 L87.36705,21.4668112 L86.2142685,21.4668112 L88.9903256,13.6711849 L90.2994646,13.6711849 L93.0741003,21.4668112 L91.9227402,21.4668112 L91.3570102,19.8538717 Z M88.2355451,18.8132656 L91.0528237,18.8132656 L89.6399201,14.6880057 L88.2355451,18.8132656 Z" id="Fill-42" fill="#262626" mask="url(#mask-4)"></path>
                                <path d="M94.0638435,17.5746471 C94.0638435,15.1797664 95.6558475,13.5415551 97.6458526,13.5415551 C99.0175347,13.5415551 99.8760797,14.2774123 100.42191,15.1901725 L99.5306717,15.7164219 C99.1639422,15.0623266 98.4731261,14.5821612 97.6458526,14.5821612 C96.2315276,14.5821612 95.1427105,15.8204825 95.1427105,17.5746471 C95.1427105,19.316919 96.2315276,20.5671329 97.6458526,20.5671329 C98.4731261,20.5671329 99.1639422,20.0854809 99.5306717,19.4328722 L100.42191,19.957635 C99.8661297,20.8703952 99.0175347,21.6062524 97.6458526,21.6062524 C95.6558475,21.6062524 94.0638435,19.9695277 94.0638435,17.5746471" id="Fill-43" fill="#262626" mask="url(#mask-4)"></path>
                                <polygon id="Fill-44" fill="#262626" mask="url(#mask-4)" points="103.564838 14.6987091 101.397154 14.6987091 101.397154 13.6714822 106.768747 13.6714822 106.768747 14.6987091 104.611012 14.6987091 104.611012 21.4656219 103.564838 21.4656219"></polygon>
                            </g>
                        </g>
                        <circle id="Oval" fill="#FFFFFF" cx="660" cy="87" r="19"></circle>
                        <path d="M661,67 C649.955,67 641,75.955 641,87 C641,98.045 649.955,107 661,107 C672.045,107 681,98.045 681,87 C680.988333,75.96 672.04,67.0116667 661,67 Z M670.805354,96.4381676 C670.575192,96.7881089 670.171987,97 669.740222,97 L651.260014,97 C650.564486,97 650,96.4606409 650,95.7960735 C650,95.6178923 650.042,95.4413164 650.122641,95.2791877 C652.835872,89.8037297 659.680269,87.4649018 665.412494,90.0573569 C667.811561,91.1424961 669.741902,92.9869115 670.877595,95.2791877 C671.064077,95.6516023 671.035517,96.0898315 670.805354,96.4381676 Z M661,74 C664.312973,74 667,76.687027 667,80 C667,83.312973 664.312973,86 661,86 C657.687027,86 655,83.312973 655,80 L655,80 C655,76.687027 657.687027,74 661,74 Z" id="Shape" fill="#ED803B" fill-rule="nonzero"></path>
                        <g id="Group-3" transform="translate(702.000000, 71.000000)">
                            <rect id="Rectangle-Copy-51" fill="#055CE5" x="0" y="0" width="82" height="33" rx="16.5"></rect>
                            <path d="M34.301,20.143 C35.577,20.143 36.6,19.615 37.326,18.812 L37.326,16.062 L33.85,16.062 L33.85,17.195 L36.039,17.195 L36.039,18.339 C35.709,18.647 35.049,18.999 34.301,18.999 C32.849,18.999 31.771,17.877 31.771,16.337 C31.771,14.797 32.849,13.686 34.301,13.686 C35.126,13.686 35.819,14.115 36.204,14.665 L37.26,14.071 C36.666,13.224 35.731,12.542 34.301,12.542 C32.178,12.542 30.451,14.038 30.451,16.337 C30.451,18.636 32.178,20.143 34.301,20.143 Z M39.207,13.807 C39.603,13.807 39.922,13.488 39.922,13.092 C39.922,12.696 39.603,12.377 39.207,12.377 C38.822,12.377 38.492,12.696 38.492,13.092 C38.492,13.488 38.822,13.807 39.207,13.807 Z M39.79,20 L39.79,14.687 L38.635,14.687 L38.635,20 L39.79,20 Z M43.926,20 L46.093,14.687 L44.85,14.687 L43.299,18.669 L41.748,14.687 L40.516,14.687 L42.683,20 L43.926,20 Z M49.272,20.132 C50.119,20.132 50.9,19.868 51.428,19.362 L50.9,18.603 C50.526,18.977 49.91,19.186 49.393,19.186 C48.392,19.186 47.787,18.526 47.699,17.723 L51.802,17.723 L51.802,17.448 C51.802,15.776 50.779,14.555 49.184,14.555 C47.611,14.555 46.489,15.798 46.489,17.338 C46.489,19.021 47.677,20.132 49.272,20.132 Z M50.68,16.909 L47.688,16.909 C47.743,16.26 48.194,15.501 49.184,15.501 C50.229,15.501 50.658,16.282 50.68,16.909 Z" id="Give" fill="#FFFFFF" fill-rule="nonzero"></path>
                        </g>
                        <rect id="Rectangle" fill="#055CE5" x="49" y="214" width="346" height="112" rx="8"></rect>
                        <rect id="Rectangle" fill="#F24040" x="430" y="214" width="346" height="112" rx="8"></rect>
                        <path d="M54.4288,169 L54.4288,165.0112 L58.144,159.3952 L56.2144,159.3952 L53.5936,163.5136 L50.944,159.3952 L49.0144,159.3952 L52.744,165.0112 L52.744,169 L54.4288,169 Z M60.4912,169.1728 C62.7232,169.1728 64.0768,167.5168 64.0768,165.5152 C64.0768,163.528 62.7232,161.872 60.4912,161.872 C58.288,161.872 56.92,163.528 56.92,165.5152 C56.92,167.5168 58.288,169.1728 60.4912,169.1728 Z M60.4912,167.8336 C59.2096,167.8336 58.4896,166.7536 58.4896,165.5152 C58.4896,164.2912 59.2096,163.2112 60.4912,163.2112 C61.7872,163.2112 62.5072,164.2912 62.5072,165.5152 C62.5072,166.7536 61.7872,167.8336 60.4912,167.8336 Z M67.8352,169.1728 C68.9296,169.1728 69.7936,168.64 70.2976,168.0784 L70.2976,169 L71.8096,169 L71.8096,162.0448 L70.2976,162.0448 L70.2976,166.9264 C69.9376,167.4016 69.2752,167.8336 68.512,167.8336 C67.6624,167.8336 67.1152,167.5024 67.1152,166.4224 L67.1152,162.0448 L65.6032,162.0448 L65.6032,166.9696 C65.6032,168.3952 66.3376,169.1728 67.8352,169.1728 Z M75.28,169 L75.28,164.2624 C75.5824,163.7728 76.432,163.3408 77.0656,163.3408 C77.2528,163.3408 77.4112,163.3552 77.5408,163.384 L77.5408,161.8864 C76.6336,161.8864 75.7984,162.4048 75.28,163.0672 L75.28,162.0448 L73.768,162.0448 L73.768,169 L75.28,169 Z M84.1936,169 L84.1936,159.3952 L82.5088,159.3952 L82.5088,169 L84.1936,169 Z M87.7072,169 L87.7072,164.1472 C88.024,163.6864 88.6432,163.2112 89.3056,163.2112 C90.1264,163.2112 90.4576,163.7152 90.4576,164.464 L90.4576,169 L91.9696,169 L91.9696,164.1328 C92.272,163.6864 92.9056,163.2112 93.5824,163.2112 C94.3888,163.2112 94.72,163.7152 94.72,164.464 L94.72,169 L96.232,169 L96.232,163.9744 C96.232,162.5632 95.512,161.872 94.2304,161.872 C93.1936,161.872 92.272,162.52 91.8688,163.1536 C91.6384,162.3904 91.0048,161.872 89.968,161.872 C88.9168,161.872 87.9952,162.5632 87.7072,162.9952 L87.7072,162.0448 L86.1952,162.0448 L86.1952,169 L87.7072,169 Z M99.7024,171.6496 L99.7024,168.0352 C100.264,168.784 101.056,169.1728 101.9344,169.1728 C103.7344,169.1728 105.016,167.8048 105.016,165.5152 C105.016,163.2256 103.7344,161.872 101.9344,161.872 C101.0272,161.872 100.2208,162.304 99.7024,162.9952 L99.7024,162.0448 L98.1904,162.0448 L98.1904,171.6496 L99.7024,171.6496 Z M101.488,167.8336 C100.7824,167.8336 100.0336,167.4016 99.7024,166.8976 L99.7024,164.1472 C100.0336,163.6288 100.7824,163.2112 101.488,163.2112 C102.6832,163.2112 103.4464,164.176 103.4464,165.5152 C103.4464,166.8688 102.6832,167.8336 101.488,167.8336 Z M108.544,169.1728 C109.4656,169.1728 110.272,168.8416 110.7904,168.2512 L110.7904,169 L112.3024,169 L112.3024,164.392 C112.3024,162.52 110.9488,161.872 109.408,161.872 C108.2992,161.872 107.2912,162.232 106.4848,162.9952 L107.104,164.0464 C107.7088,163.456 108.3856,163.168 109.1632,163.168 C110.128,163.168 110.7904,163.6576 110.7904,164.464 L110.7904,165.5008 C110.2864,164.9104 109.48,164.608 108.544,164.608 C107.4064,164.608 106.1248,165.2704 106.1248,166.8688 C106.1248,168.4096 107.4064,169.1728 108.544,169.1728 Z M109.1344,168.136 C108.2848,168.136 107.6512,167.6464 107.6512,166.8976 C107.6512,166.1344 108.2848,165.6448 109.1344,165.6448 C109.7968,165.6448 110.4448,165.8896 110.7904,166.3648 L110.7904,167.416 C110.4448,167.8912 109.7968,168.136 109.1344,168.136 Z M117.4288,169.1728 C118.7824,169.1728 119.6032,168.5968 120.0928,167.9344 L119.0992,167.0128 C118.7104,167.5456 118.1776,167.8336 117.5008,167.8336 C116.2336,167.8336 115.3984,166.8688 115.3984,165.5152 C115.3984,164.1616 116.2336,163.2112 117.5008,163.2112 C118.1776,163.2112 118.7104,163.4848 119.0992,164.032 L120.0928,163.1104 C119.6032,162.448 118.7824,161.872 117.4288,161.872 C115.312,161.872 113.8288,163.4128 113.8288,165.5152 C113.8288,167.632 115.312,169.1728 117.4288,169.1728 Z M123.5056,169.1728 C124.2112,169.1728 124.6576,168.9856 124.9312,168.7264 L124.5712,167.5888 C124.456,167.7184 124.1824,167.8336 123.8944,167.8336 C123.4624,167.8336 123.232,167.488 123.232,167.0128 L123.232,163.3696 L124.6432,163.3696 L124.6432,162.0448 L123.232,162.0448 L123.232,160.144 L121.72,160.144 L121.72,162.0448 L120.568,162.0448 L120.568,163.3696 L121.72,163.3696 L121.72,167.3872 C121.72,168.5392 122.3392,169.1728 123.5056,169.1728 Z M130.5904,169 L131.296,167.1568 L135.8464,167.1568 L136.552,169 L138.3952,169 L134.6224,159.3952 L132.52,159.3952 L128.7472,169 L130.5904,169 Z M135.3712,165.6736 L131.7712,165.6736 L133.5712,160.8208 L135.3712,165.6736 Z M142.5712,169.1728 C143.9248,169.1728 144.7456,168.5968 145.2352,167.9344 L144.2416,167.0128 C143.8528,167.5456 143.32,167.8336 142.6432,167.8336 C141.376,167.8336 140.5408,166.8688 140.5408,165.5152 C140.5408,164.1616 141.376,163.2112 142.6432,163.2112 C143.32,163.2112 143.8528,163.4848 144.2416,164.032 L145.2352,163.1104 C144.7456,162.448 143.9248,161.872 142.5712,161.872 C140.4544,161.872 138.9712,163.4128 138.9712,165.5152 C138.9712,167.632 140.4544,169.1728 142.5712,169.1728 Z M149.728,169.1728 C151.0816,169.1728 151.9024,168.5968 152.392,167.9344 L151.3984,167.0128 C151.0096,167.5456 150.4768,167.8336 149.8,167.8336 C148.5328,167.8336 147.6976,166.8688 147.6976,165.5152 C147.6976,164.1616 148.5328,163.2112 149.8,163.2112 C150.4768,163.2112 151.0096,163.4848 151.3984,164.032 L152.392,163.1104 C151.9024,162.448 151.0816,161.872 149.728,161.872 C147.6112,161.872 146.128,163.4128 146.128,165.5152 C146.128,167.632 147.6112,169.1728 149.728,169.1728 Z M156.856,169.1728 C159.088,169.1728 160.4416,167.5168 160.4416,165.5152 C160.4416,163.528 159.088,161.872 156.856,161.872 C154.6528,161.872 153.2848,163.528 153.2848,165.5152 C153.2848,167.5168 154.6528,169.1728 156.856,169.1728 Z M156.856,167.8336 C155.5744,167.8336 154.8544,166.7536 154.8544,165.5152 C154.8544,164.2912 155.5744,163.2112 156.856,163.2112 C158.152,163.2112 158.872,164.2912 158.872,165.5152 C158.872,166.7536 158.152,167.8336 156.856,167.8336 Z M164.2,169.1728 C165.2944,169.1728 166.1584,168.64 166.6624,168.0784 L166.6624,169 L168.1744,169 L168.1744,162.0448 L166.6624,162.0448 L166.6624,166.9264 C166.3024,167.4016 165.64,167.8336 164.8768,167.8336 C164.0272,167.8336 163.48,167.5024 163.48,166.4224 L163.48,162.0448 L161.968,162.0448 L161.968,166.9696 C161.968,168.3952 162.7024,169.1728 164.2,169.1728 Z M171.6448,169 L171.6448,164.1472 C171.9904,163.672 172.6528,163.2112 173.4304,163.2112 C174.28,163.2112 174.8272,163.5712 174.8272,164.6512 L174.8272,169 L176.3392,169 L176.3392,164.104 C176.3392,162.6784 175.5904,161.872 174.0928,161.872 C172.9984,161.872 172.1056,162.448 171.6448,162.9952 L171.6448,162.0448 L170.1328,162.0448 L170.1328,169 L171.6448,169 Z M180.3856,169.1728 C181.0912,169.1728 181.5376,168.9856 181.8112,168.7264 L181.4512,167.5888 C181.336,167.7184 181.0624,167.8336 180.7744,167.8336 C180.3424,167.8336 180.112,167.488 180.112,167.0128 L180.112,163.3696 L181.5232,163.3696 L181.5232,162.0448 L180.112,162.0448 L180.112,160.144 L178.6,160.144 L178.6,162.0448 L177.448,162.0448 L177.448,163.3696 L178.6,163.3696 L178.6,167.3872 C178.6,168.5392 179.2192,169.1728 180.3856,169.1728 Z" id="YourImpactAccount" fill="#383838" fill-rule="nonzero" opacity="0.375255766"></path>
                        <circle id="Oval" fill="#DB0163" cx="29.5" cy="24.5" r="5.5"></circle>
                        <circle id="Oval" fill="#F7BA4A" cx="52.5" cy="24.5" r="5.5"></circle>
                        <circle id="Oval" fill="#27CCD1" cx="74.5" cy="24.5" r="5.5"></circle>
                    </g>
                    <g id="Group-6" opacity="0.445405506" transform="translate(356.000000, 413.000000)" fill="#DDDDDD">
                        <rect id="Rectangle" x="0" y="0" width="556" height="13"></rect>
                        <rect id="Rectangle" x="0" y="25" width="317" height="13"></rect>
                        <rect id="Rectangle" x="577" y="0" width="145" height="13"></rect>
                    </g>
                    <g id="Group-6" opacity="0.445405506" transform="translate(356.000000, 474.000000)" fill="#DDDDDD">
                        <rect id="Rectangle" x="0" y="0" width="556" height="13"></rect>
                        <rect id="Rectangle" x="0" y="25" width="317" height="13"></rect>
                        <rect id="Rectangle" x="577" y="0" width="145" height="13"></rect>
                    </g>
                    <g id="Group-9" transform="translate(796.000000, 116.000000)">
                        <g id="Rectangle">
                            <use fill="black" fill-opacity="1" filter="url(#filter-6)" xlink:href="#path-5"></use>
                            <rect stroke="#E4E4E4" stroke-width="0.9" stroke-linejoin="square" fill="#FFFFFF" fill-rule="evenodd" x="0.45" y="0.45" width="195.1" height="180.1" rx="3.6"></rect>
                        </g>
                        <path d="M25.632,37 L25.632,32.926 L30.49,32.926 L30.49,37 L32.128,37 L32.128,27.662 L30.49,27.662 L30.49,31.484 L25.632,31.484 L25.632,27.662 L23.994,27.662 L23.994,37 L25.632,37 Z M37.196,37.168 C38.274,37.168 39.268,36.832 39.94,36.188 L39.268,35.222 C38.792,35.698 38.008,35.964 37.35,35.964 C36.076,35.964 35.306,35.124 35.194,34.102 L40.416,34.102 L40.416,33.752 C40.416,31.624 39.114,30.07 37.084,30.07 C35.082,30.07 33.654,31.652 33.654,33.612 C33.654,35.754 35.166,37.168 37.196,37.168 Z M38.988,33.066 L35.18,33.066 C35.25,32.24 35.824,31.274 37.084,31.274 C38.414,31.274 38.96,32.268 38.988,33.066 Z M43.342,37 L43.342,27.662 L41.872,27.662 L41.872,37 L43.342,37 Z M46.716,37 L46.716,27.662 L45.246,27.662 L45.246,37 L46.716,37 Z M51.672,37.168 C53.842,37.168 55.158,35.558 55.158,33.612 C55.158,31.68 53.842,30.07 51.672,30.07 C49.53,30.07 48.2,31.68 48.2,33.612 C48.2,35.558 49.53,37.168 51.672,37.168 Z M51.672,35.866 C50.426,35.866 49.726,34.816 49.726,33.612 C49.726,32.422 50.426,31.372 51.672,31.372 C52.932,31.372 53.632,32.422 53.632,33.612 C53.632,34.816 52.932,35.866 51.672,35.866 Z M58.042,34.144 L58.294,27.662 L56.502,27.662 L56.768,34.144 L58.042,34.144 Z M57.398,37.14 C57.93,37.14 58.378,36.692 58.378,36.174 C58.378,35.642 57.93,35.194 57.398,35.194 C56.866,35.194 56.432,35.642 56.432,36.174 C56.432,36.692 56.866,37.14 57.398,37.14 Z" id="Hello!" fill="#353535" fill-rule="nonzero"></path>
                        <path d="M24.414,78 L25.24,75.928 L29.972,75.928 L30.798,78 L32.086,78 L28.32,68.662 L26.878,68.662 L23.126,78 L24.414,78 Z M29.622,74.892 L25.576,74.892 L27.606,69.698 L29.622,74.892 Z M36.244,78.168 C37.476,78.168 38.204,77.664 38.722,76.992 L38.022,76.348 C37.574,76.95 37,77.23 36.3,77.23 C34.858,77.23 33.962,76.11 33.962,74.612 C33.962,73.114 34.858,72.008 36.3,72.008 C37,72.008 37.574,72.274 38.022,72.89 L38.722,72.246 C38.204,71.574 37.476,71.07 36.244,71.07 C34.228,71.07 32.87,72.61 32.87,74.612 C32.87,76.628 34.228,78.168 36.244,78.168 Z M43.174,78.168 C44.406,78.168 45.134,77.664 45.652,76.992 L44.952,76.348 C44.504,76.95 43.93,77.23 43.23,77.23 C41.788,77.23 40.892,76.11 40.892,74.612 C40.892,73.114 41.788,72.008 43.23,72.008 C43.93,72.008 44.504,72.274 44.952,72.89 L45.652,72.246 C45.134,71.574 44.406,71.07 43.174,71.07 C41.158,71.07 39.8,72.61 39.8,74.612 C39.8,76.628 41.158,78.168 43.174,78.168 Z M50.076,78.168 C52.134,78.168 53.422,76.572 53.422,74.612 C53.422,72.652 52.134,71.07 50.076,71.07 C48.018,71.07 46.73,72.652 46.73,74.612 C46.73,76.572 48.018,78.168 50.076,78.168 Z M50.076,77.23 C48.634,77.23 47.822,75.998 47.822,74.612 C47.822,73.24 48.634,72.008 50.076,72.008 C51.518,72.008 52.316,73.24 52.316,74.612 C52.316,75.998 51.518,77.23 50.076,77.23 Z M57.286,78.168 C58.294,78.168 59.176,77.636 59.694,77.048 L59.694,78 L60.744,78 L60.744,71.238 L59.694,71.238 L59.694,76.208 C59.302,76.754 58.518,77.23 57.692,77.23 C56.782,77.23 56.18,76.88 56.18,75.69 L56.18,71.238 L55.13,71.238 L55.13,76.012 C55.13,77.482 55.872,78.168 57.286,78.168 Z M63.894,78 L63.894,73.058 C64.286,72.512 65.07,72.008 65.896,72.008 C66.806,72.008 67.408,72.386 67.408,73.576 L67.408,78 L68.458,78 L68.458,73.254 C68.458,71.784 67.716,71.07 66.302,71.07 C65.294,71.07 64.37,71.658 63.894,72.218 L63.894,71.238 L62.844,71.238 L62.844,78 L63.894,78 Z M72.266,78.168 C72.882,78.168 73.26,77.986 73.526,77.734 L73.218,76.95 C73.078,77.104 72.798,77.23 72.504,77.23 C72.042,77.23 71.818,76.866 71.818,76.362 L71.818,72.162 L73.19,72.162 L73.19,71.238 L71.818,71.238 L71.818,69.39 L70.768,69.39 L70.768,71.238 L69.648,71.238 L69.648,72.162 L70.768,72.162 L70.768,76.586 C70.768,77.594 71.272,78.168 72.266,78.168 Z M81.352,78.168 C83.872,78.168 84.796,76.782 84.796,75.424 C84.796,73.464 83.06,72.988 81.534,72.582 C80.344,72.26 79.266,71.98 79.266,71.042 C79.266,70.16 80.064,69.558 81.184,69.558 C82.206,69.558 83.186,69.908 83.886,70.678 L84.586,69.824 C83.802,68.998 82.696,68.522 81.268,68.522 C79.434,68.522 78.062,69.572 78.062,71.112 C78.062,72.946 79.728,73.366 81.226,73.758 C82.458,74.094 83.592,74.402 83.592,75.522 C83.592,76.236 83.06,77.132 81.394,77.132 C80.078,77.132 79.07,76.488 78.454,75.802 L77.768,76.684 C78.538,77.552 79.728,78.168 81.352,78.168 Z M89.542,78.168 C90.648,78.168 91.558,77.804 92.23,77.132 L91.726,76.446 C91.194,76.992 90.41,77.3 89.64,77.3 C88.184,77.3 87.288,76.236 87.204,74.962 L92.678,74.962 L92.678,74.696 C92.678,72.666 91.474,71.07 89.43,71.07 C87.498,71.07 86.098,72.652 86.098,74.612 C86.098,76.726 87.54,78.168 89.542,78.168 Z M91.642,74.192 L87.204,74.192 C87.26,73.156 87.974,71.938 89.416,71.938 C90.956,71.938 91.628,73.184 91.642,74.192 Z M96.08,78.168 C96.696,78.168 97.074,77.986 97.34,77.734 L97.032,76.95 C96.892,77.104 96.612,77.23 96.318,77.23 C95.856,77.23 95.632,76.866 95.632,76.362 L95.632,72.162 L97.004,72.162 L97.004,71.238 L95.632,71.238 L95.632,69.39 L94.582,69.39 L94.582,71.238 L93.462,71.238 L93.462,72.162 L94.582,72.162 L94.582,76.586 C94.582,77.594 95.086,78.168 96.08,78.168 Z M100.196,78.168 C100.812,78.168 101.19,77.986 101.456,77.734 L101.148,76.95 C101.008,77.104 100.728,77.23 100.434,77.23 C99.972,77.23 99.748,76.866 99.748,76.362 L99.748,72.162 L101.12,72.162 L101.12,71.238 L99.748,71.238 L99.748,69.39 L98.698,69.39 L98.698,71.238 L97.578,71.238 L97.578,72.162 L98.698,72.162 L98.698,76.586 C98.698,77.594 99.202,78.168 100.196,78.168 Z M103.122,70.104 C103.514,70.104 103.836,69.782 103.836,69.39 C103.836,68.998 103.514,68.69 103.122,68.69 C102.744,68.69 102.422,68.998 102.422,69.39 C102.422,69.782 102.744,70.104 103.122,70.104 Z M103.654,78 L103.654,71.238 L102.604,71.238 L102.604,78 L103.654,78 Z M106.804,78 L106.804,73.058 C107.196,72.512 107.98,72.008 108.806,72.008 C109.716,72.008 110.318,72.386 110.318,73.576 L110.318,78 L111.368,78 L111.368,73.254 C111.368,71.784 110.626,71.07 109.212,71.07 C108.204,71.07 107.28,71.658 106.804,72.218 L106.804,71.238 L105.754,71.238 L105.754,78 L106.804,78 Z M116.184,80.744 C117.836,80.744 119.404,80.044 119.404,77.804 L119.404,71.238 L118.354,71.238 L118.354,72.26 C117.808,71.518 116.996,71.07 116.086,71.07 C114.308,71.07 113.076,72.414 113.076,74.584 C113.076,76.768 114.322,78.084 116.086,78.084 C117.038,78.084 117.864,77.566 118.354,76.88 L118.354,77.846 C118.354,79.33 117.304,79.876 116.184,79.876 C115.218,79.876 114.546,79.624 113.986,78.952 L113.454,79.736 C114.252,80.52 115.036,80.744 116.184,80.744 Z M116.338,77.16 C114.98,77.16 114.168,76.068 114.168,74.584 C114.168,73.086 114.98,72.008 116.338,72.008 C117.178,72.008 117.99,72.512 118.354,73.1 L118.354,76.054 C117.99,76.642 117.178,77.16 116.338,77.16 Z M123.646,78.168 C125.396,78.168 126.306,77.258 126.306,76.124 C126.306,74.626 124.948,74.29 123.772,74.024 C122.89,73.814 122.12,73.604 122.12,72.946 C122.12,72.344 122.694,71.924 123.618,71.924 C124.486,71.924 125.228,72.288 125.634,72.778 L126.124,72.05 C125.578,71.504 124.766,71.07 123.618,71.07 C122.008,71.07 121.098,71.966 121.098,73.016 C121.098,74.416 122.4,74.724 123.548,74.99 C124.458,75.214 125.284,75.452 125.284,76.194 C125.284,76.852 124.724,77.314 123.688,77.314 C122.764,77.314 121.91,76.866 121.462,76.348 L120.916,77.104 C121.602,77.832 122.54,78.168 123.646,78.168 Z M27.116,109.168 C29.636,109.168 30.56,107.782 30.56,106.424 C30.56,104.464 28.824,103.988 27.298,103.582 C26.108,103.26 25.03,102.98 25.03,102.042 C25.03,101.16 25.828,100.558 26.948,100.558 C27.97,100.558 28.95,100.908 29.65,101.678 L30.35,100.824 C29.566,99.998 28.46,99.522 27.032,99.522 C25.198,99.522 23.826,100.572 23.826,102.112 C23.826,103.946 25.492,104.366 26.99,104.758 C28.222,105.094 29.356,105.402 29.356,106.522 C29.356,107.236 28.824,108.132 27.158,108.132 C25.842,108.132 24.834,107.488 24.218,106.802 L23.532,107.684 C24.302,108.552 25.492,109.168 27.116,109.168 Z M34.536,109 L36.3,103.568 L38.064,109 L39.114,109 L41.27,102.238 L40.178,102.238 L38.526,107.628 L36.748,102.238 L35.852,102.238 L34.074,107.628 L32.422,102.238 L31.33,102.238 L33.486,109 L34.536,109 Z M43.006,101.104 C43.398,101.104 43.72,100.782 43.72,100.39 C43.72,99.998 43.398,99.69 43.006,99.69 C42.628,99.69 42.306,99.998 42.306,100.39 C42.306,100.782 42.628,101.104 43.006,101.104 Z M43.538,109 L43.538,102.238 L42.488,102.238 L42.488,109 L43.538,109 Z M47.346,109.168 C47.962,109.168 48.34,108.986 48.606,108.734 L48.298,107.95 C48.158,108.104 47.878,108.23 47.584,108.23 C47.122,108.23 46.898,107.866 46.898,107.362 L46.898,103.162 L48.27,103.162 L48.27,102.238 L46.898,102.238 L46.898,100.39 L45.848,100.39 L45.848,102.238 L44.728,102.238 L44.728,103.162 L45.848,103.162 L45.848,107.586 C45.848,108.594 46.352,109.168 47.346,109.168 Z M52.736,109.168 C53.968,109.168 54.696,108.664 55.214,107.992 L54.514,107.348 C54.066,107.95 53.492,108.23 52.792,108.23 C51.35,108.23 50.454,107.11 50.454,105.612 C50.454,104.114 51.35,103.008 52.792,103.008 C53.492,103.008 54.066,103.274 54.514,103.89 L55.214,103.246 C54.696,102.574 53.968,102.07 52.736,102.07 C50.72,102.07 49.362,103.61 49.362,105.612 C49.362,107.628 50.72,109.168 52.736,109.168 Z M57.734,109 L57.734,104.058 C58.14,103.512 58.924,103.008 59.736,103.008 C60.646,103.008 61.262,103.358 61.262,104.548 L61.262,109 L62.312,109 L62.312,104.226 C62.312,102.756 61.57,102.07 60.156,102.07 C59.134,102.07 58.21,102.658 57.734,103.218 L57.734,99.662 L56.684,99.662 L56.684,109 L57.734,109 Z M68.388,109 L69.214,106.928 L73.946,106.928 L74.772,109 L76.06,109 L72.294,99.662 L70.852,99.662 L67.1,109 L68.388,109 Z M73.596,105.892 L69.55,105.892 L71.58,100.698 L73.596,105.892 Z M80.218,109.168 C81.45,109.168 82.178,108.664 82.696,107.992 L81.996,107.348 C81.548,107.95 80.974,108.23 80.274,108.23 C78.832,108.23 77.936,107.11 77.936,105.612 C77.936,104.114 78.832,103.008 80.274,103.008 C80.974,103.008 81.548,103.274 81.996,103.89 L82.696,103.246 C82.178,102.574 81.45,102.07 80.218,102.07 C78.202,102.07 76.844,103.61 76.844,105.612 C76.844,107.628 78.202,109.168 80.218,109.168 Z M87.148,109.168 C88.38,109.168 89.108,108.664 89.626,107.992 L88.926,107.348 C88.478,107.95 87.904,108.23 87.204,108.23 C85.762,108.23 84.866,107.11 84.866,105.612 C84.866,104.114 85.762,103.008 87.204,103.008 C87.904,103.008 88.478,103.274 88.926,103.89 L89.626,103.246 C89.108,102.574 88.38,102.07 87.148,102.07 C85.132,102.07 83.774,103.61 83.774,105.612 C83.774,107.628 85.132,109.168 87.148,109.168 Z M94.05,109.168 C96.108,109.168 97.396,107.572 97.396,105.612 C97.396,103.652 96.108,102.07 94.05,102.07 C91.992,102.07 90.704,103.652 90.704,105.612 C90.704,107.572 91.992,109.168 94.05,109.168 Z M94.05,108.23 C92.608,108.23 91.796,106.998 91.796,105.612 C91.796,104.24 92.608,103.008 94.05,103.008 C95.492,103.008 96.29,104.24 96.29,105.612 C96.29,106.998 95.492,108.23 94.05,108.23 Z M101.26,109.168 C102.268,109.168 103.15,108.636 103.668,108.048 L103.668,109 L104.718,109 L104.718,102.238 L103.668,102.238 L103.668,107.208 C103.276,107.754 102.492,108.23 101.666,108.23 C100.756,108.23 100.154,107.88 100.154,106.69 L100.154,102.238 L99.104,102.238 L99.104,107.012 C99.104,108.482 99.846,109.168 101.26,109.168 Z M107.868,109 L107.868,104.058 C108.26,103.512 109.044,103.008 109.87,103.008 C110.78,103.008 111.382,103.386 111.382,104.576 L111.382,109 L112.432,109 L112.432,104.254 C112.432,102.784 111.69,102.07 110.276,102.07 C109.268,102.07 108.344,102.658 107.868,103.218 L107.868,102.238 L106.818,102.238 L106.818,109 L107.868,109 Z M116.24,109.168 C116.856,109.168 117.234,108.986 117.5,108.734 L117.192,107.95 C117.052,108.104 116.772,108.23 116.478,108.23 C116.016,108.23 115.792,107.866 115.792,107.362 L115.792,103.162 L117.164,103.162 L117.164,102.238 L115.792,102.238 L115.792,100.39 L114.742,100.39 L114.742,102.238 L113.622,102.238 L113.622,103.162 L114.742,103.162 L114.742,107.586 C114.742,108.594 115.246,109.168 116.24,109.168 Z M120.79,109.168 C122.54,109.168 123.45,108.258 123.45,107.124 C123.45,105.626 122.092,105.29 120.916,105.024 C120.034,104.814 119.264,104.604 119.264,103.946 C119.264,103.344 119.838,102.924 120.762,102.924 C121.63,102.924 122.372,103.288 122.778,103.778 L123.268,103.05 C122.722,102.504 121.91,102.07 120.762,102.07 C119.152,102.07 118.242,102.966 118.242,104.016 C118.242,105.416 119.544,105.724 120.692,105.99 C121.602,106.214 122.428,106.452 122.428,107.194 C122.428,107.852 121.868,108.314 120.832,108.314 C119.908,108.314 119.054,107.866 118.606,107.348 L118.06,108.104 C118.746,108.832 119.684,109.168 120.79,109.168 Z" id="AccountSettingsSwitchAccounts" fill="#353535" fill-rule="nonzero"></path>
                        <path d="M29.594,162 L29.594,160.964 L25.254,160.964 L25.254,152.662 L24.092,152.662 L24.092,162 L29.594,162 Z M33.85,162.168 C35.908,162.168 37.196,160.572 37.196,158.612 C37.196,156.652 35.908,155.07 33.85,155.07 C31.792,155.07 30.504,156.652 30.504,158.612 C30.504,160.572 31.792,162.168 33.85,162.168 Z M33.85,161.23 C32.408,161.23 31.596,159.998 31.596,158.612 C31.596,157.24 32.408,156.008 33.85,156.008 C35.292,156.008 36.09,157.24 36.09,158.612 C36.09,159.998 35.292,161.23 33.85,161.23 Z M41.62,164.744 C43.272,164.744 44.84,164.044 44.84,161.804 L44.84,155.238 L43.79,155.238 L43.79,156.26 C43.244,155.518 42.432,155.07 41.522,155.07 C39.744,155.07 38.512,156.414 38.512,158.584 C38.512,160.768 39.758,162.084 41.522,162.084 C42.474,162.084 43.3,161.566 43.79,160.88 L43.79,161.846 C43.79,163.33 42.74,163.876 41.62,163.876 C40.654,163.876 39.982,163.624 39.422,162.952 L38.89,163.736 C39.688,164.52 40.472,164.744 41.62,164.744 Z M41.774,161.16 C40.416,161.16 39.604,160.068 39.604,158.584 C39.604,157.086 40.416,156.008 41.774,156.008 C42.614,156.008 43.426,156.512 43.79,157.1 L43.79,160.054 C43.426,160.642 42.614,161.16 41.774,161.16 Z M49.894,162.168 C51.952,162.168 53.24,160.572 53.24,158.612 C53.24,156.652 51.952,155.07 49.894,155.07 C47.836,155.07 46.548,156.652 46.548,158.612 C46.548,160.572 47.836,162.168 49.894,162.168 Z M49.894,161.23 C48.452,161.23 47.64,159.998 47.64,158.612 C47.64,157.24 48.452,156.008 49.894,156.008 C51.336,156.008 52.134,157.24 52.134,158.612 C52.134,159.998 51.336,161.23 49.894,161.23 Z M57.104,162.168 C58.112,162.168 58.994,161.636 59.512,161.048 L59.512,162 L60.562,162 L60.562,155.238 L59.512,155.238 L59.512,160.208 C59.12,160.754 58.336,161.23 57.51,161.23 C56.6,161.23 55.998,160.88 55.998,159.69 L55.998,155.238 L54.948,155.238 L54.948,160.012 C54.948,161.482 55.69,162.168 57.104,162.168 Z M64.37,162.168 C64.986,162.168 65.364,161.986 65.63,161.734 L65.322,160.95 C65.182,161.104 64.902,161.23 64.608,161.23 C64.146,161.23 63.922,160.866 63.922,160.362 L63.922,156.162 L65.294,156.162 L65.294,155.238 L63.922,155.238 L63.922,153.39 L62.872,153.39 L62.872,155.238 L61.752,155.238 L61.752,156.162 L62.872,156.162 L62.872,160.586 C62.872,161.594 63.376,162.168 64.37,162.168 Z" id="Logout" fill="#353535" fill-rule="nonzero"></path>
                        <line x1="3.5" y1="133.5" x2="193.5" y2="133.5" id="Line" stroke="#F1F1F1" stroke-linecap="square"></line>
                    </g>
                    <g id="Group-2" transform="translate(257.000000, 214.000000)">
                        <g id="Rectangle">
                            <use fill="black" fill-opacity="1" filter="url(#filter-8)" xlink:href="#path-7"></use>
                            <rect stroke="#E4E4E4" stroke-width="0.9" stroke-linejoin="square" fill="#FFFFFF" fill-rule="evenodd" x="0.45" y="0.45" width="387.1" height="419.1" rx="3.6"></rect>
                        </g>
                        <g id="Group-5" transform="translate(40.000000, 166.000000)">
                            <g id="Group-3" transform="translate(250.000000, 0.000000)">
                                <rect id="Rectangle-Copy-51" fill="#055CE5" x="0" y="0" width="67" height="27" rx="13.5"></rect>
                                <path d="M22.289,17.132 C24.269,17.132 25.127,16.087 25.127,14.866 C25.127,13.271 23.686,12.897 22.476,12.589 C21.607,12.369 20.859,12.182 20.859,11.61 C20.859,11.06 21.343,10.697 22.102,10.697 C22.872,10.697 23.653,10.961 24.225,11.533 L24.962,10.576 C24.28,9.916 23.356,9.553 22.212,9.553 C20.606,9.553 19.539,10.488 19.539,11.698 C19.539,13.249 20.947,13.601 22.146,13.898 C23.037,14.129 23.818,14.327 23.818,14.987 C23.818,15.471 23.4,15.988 22.344,15.988 C21.321,15.988 20.529,15.515 20.023,14.976 L19.308,15.966 C19.957,16.659 20.936,17.132 22.289,17.132 Z M28.735,17.132 C29.582,17.132 30.363,16.868 30.891,16.362 L30.363,15.603 C29.989,15.977 29.373,16.186 28.856,16.186 C27.855,16.186 27.25,15.526 27.162,14.723 L31.265,14.723 L31.265,14.448 C31.265,12.776 30.242,11.555 28.647,11.555 C27.074,11.555 25.952,12.798 25.952,14.338 C25.952,16.021 27.14,17.132 28.735,17.132 Z M30.143,13.909 L27.151,13.909 C27.206,13.26 27.657,12.501 28.647,12.501 C29.692,12.501 30.121,13.282 30.143,13.909 Z M33.564,17 L33.564,9.663 L32.409,9.663 L32.409,17 L33.564,17 Z M37.513,17.132 C38.36,17.132 39.141,16.868 39.669,16.362 L39.141,15.603 C38.767,15.977 38.151,16.186 37.634,16.186 C36.633,16.186 36.028,15.526 35.94,14.723 L40.043,14.723 L40.043,14.448 C40.043,12.776 39.02,11.555 37.425,11.555 C35.852,11.555 34.73,12.798 34.73,14.338 C34.73,16.021 35.918,17.132 37.513,17.132 Z M38.921,13.909 L35.929,13.909 C35.984,13.26 36.435,12.501 37.425,12.501 C38.47,12.501 38.899,13.282 38.921,13.909 Z M43.607,17.132 C44.641,17.132 45.268,16.692 45.642,16.186 L44.883,15.482 C44.586,15.889 44.179,16.109 43.662,16.109 C42.694,16.109 42.056,15.372 42.056,14.338 C42.056,13.304 42.694,12.578 43.662,12.578 C44.179,12.578 44.586,12.787 44.883,13.205 L45.642,12.501 C45.268,11.995 44.641,11.555 43.607,11.555 C41.99,11.555 40.857,12.732 40.857,14.338 C40.857,15.955 41.99,17.132 43.607,17.132 Z M48.249,17.132 C48.788,17.132 49.129,16.989 49.338,16.791 L49.063,15.922 C48.975,16.021 48.766,16.109 48.546,16.109 C48.216,16.109 48.04,15.845 48.04,15.482 L48.04,12.699 L49.118,12.699 L49.118,11.687 L48.04,11.687 L48.04,10.235 L46.885,10.235 L46.885,11.687 L46.005,11.687 L46.005,12.699 L46.885,12.699 L46.885,15.768 C46.885,16.648 47.358,17.132 48.249,17.132 Z" id="Select" fill="#FFFFFF" fill-rule="nonzero"></path>
                            </g>
                            <rect id="Rectangle" fill="#DADADA" x="46" y="0" width="180" height="11"></rect>
                            <circle id="Oval" fill="#ED803B" cx="15" cy="15" r="15"></circle>
                            <rect id="Rectangle" fill="#DADADA" x="46" y="19" width="65" height="11"></rect>
                        </g>
                        <g id="Group-5" transform="translate(40.000000, 230.000000)">
                            <g id="Group-3" transform="translate(250.000000, 0.000000)">
                                <rect id="Rectangle-Copy-51" fill="#055CE5" x="0" y="0" width="67" height="27" rx="13.5"></rect>
                                <path d="M22.289,17.132 C24.269,17.132 25.127,16.087 25.127,14.866 C25.127,13.271 23.686,12.897 22.476,12.589 C21.607,12.369 20.859,12.182 20.859,11.61 C20.859,11.06 21.343,10.697 22.102,10.697 C22.872,10.697 23.653,10.961 24.225,11.533 L24.962,10.576 C24.28,9.916 23.356,9.553 22.212,9.553 C20.606,9.553 19.539,10.488 19.539,11.698 C19.539,13.249 20.947,13.601 22.146,13.898 C23.037,14.129 23.818,14.327 23.818,14.987 C23.818,15.471 23.4,15.988 22.344,15.988 C21.321,15.988 20.529,15.515 20.023,14.976 L19.308,15.966 C19.957,16.659 20.936,17.132 22.289,17.132 Z M28.735,17.132 C29.582,17.132 30.363,16.868 30.891,16.362 L30.363,15.603 C29.989,15.977 29.373,16.186 28.856,16.186 C27.855,16.186 27.25,15.526 27.162,14.723 L31.265,14.723 L31.265,14.448 C31.265,12.776 30.242,11.555 28.647,11.555 C27.074,11.555 25.952,12.798 25.952,14.338 C25.952,16.021 27.14,17.132 28.735,17.132 Z M30.143,13.909 L27.151,13.909 C27.206,13.26 27.657,12.501 28.647,12.501 C29.692,12.501 30.121,13.282 30.143,13.909 Z M33.564,17 L33.564,9.663 L32.409,9.663 L32.409,17 L33.564,17 Z M37.513,17.132 C38.36,17.132 39.141,16.868 39.669,16.362 L39.141,15.603 C38.767,15.977 38.151,16.186 37.634,16.186 C36.633,16.186 36.028,15.526 35.94,14.723 L40.043,14.723 L40.043,14.448 C40.043,12.776 39.02,11.555 37.425,11.555 C35.852,11.555 34.73,12.798 34.73,14.338 C34.73,16.021 35.918,17.132 37.513,17.132 Z M38.921,13.909 L35.929,13.909 C35.984,13.26 36.435,12.501 37.425,12.501 C38.47,12.501 38.899,13.282 38.921,13.909 Z M43.607,17.132 C44.641,17.132 45.268,16.692 45.642,16.186 L44.883,15.482 C44.586,15.889 44.179,16.109 43.662,16.109 C42.694,16.109 42.056,15.372 42.056,14.338 C42.056,13.304 42.694,12.578 43.662,12.578 C44.179,12.578 44.586,12.787 44.883,13.205 L45.642,12.501 C45.268,11.995 44.641,11.555 43.607,11.555 C41.99,11.555 40.857,12.732 40.857,14.338 C40.857,15.955 41.99,17.132 43.607,17.132 Z M48.249,17.132 C48.788,17.132 49.129,16.989 49.338,16.791 L49.063,15.922 C48.975,16.021 48.766,16.109 48.546,16.109 C48.216,16.109 48.04,15.845 48.04,15.482 L48.04,12.699 L49.118,12.699 L49.118,11.687 L48.04,11.687 L48.04,10.235 L46.885,10.235 L46.885,11.687 L46.005,11.687 L46.005,12.699 L46.885,12.699 L46.885,15.768 C46.885,16.648 47.358,17.132 48.249,17.132 Z" id="Select" fill="#FFFFFF" fill-rule="nonzero"></path>
                            </g>
                            <rect id="Rectangle" fill="#DADADA" x="46" y="0" width="180" height="11"></rect>
                            <circle id="Oval" fill="#ED803B" cx="15" cy="15" r="15"></circle>
                            <rect id="Rectangle" fill="#DADADA" x="46" y="19" width="65" height="11"></rect>
                        </g>
                        <g id="Group-5" transform="translate(40.000000, 294.000000)">
                            <g id="Group-3" transform="translate(250.000000, 0.000000)">
                                <rect id="Rectangle-Copy-51" fill="#055CE5" x="0" y="0" width="67" height="27" rx="13.5"></rect>
                                <path d="M22.289,17.132 C24.269,17.132 25.127,16.087 25.127,14.866 C25.127,13.271 23.686,12.897 22.476,12.589 C21.607,12.369 20.859,12.182 20.859,11.61 C20.859,11.06 21.343,10.697 22.102,10.697 C22.872,10.697 23.653,10.961 24.225,11.533 L24.962,10.576 C24.28,9.916 23.356,9.553 22.212,9.553 C20.606,9.553 19.539,10.488 19.539,11.698 C19.539,13.249 20.947,13.601 22.146,13.898 C23.037,14.129 23.818,14.327 23.818,14.987 C23.818,15.471 23.4,15.988 22.344,15.988 C21.321,15.988 20.529,15.515 20.023,14.976 L19.308,15.966 C19.957,16.659 20.936,17.132 22.289,17.132 Z M28.735,17.132 C29.582,17.132 30.363,16.868 30.891,16.362 L30.363,15.603 C29.989,15.977 29.373,16.186 28.856,16.186 C27.855,16.186 27.25,15.526 27.162,14.723 L31.265,14.723 L31.265,14.448 C31.265,12.776 30.242,11.555 28.647,11.555 C27.074,11.555 25.952,12.798 25.952,14.338 C25.952,16.021 27.14,17.132 28.735,17.132 Z M30.143,13.909 L27.151,13.909 C27.206,13.26 27.657,12.501 28.647,12.501 C29.692,12.501 30.121,13.282 30.143,13.909 Z M33.564,17 L33.564,9.663 L32.409,9.663 L32.409,17 L33.564,17 Z M37.513,17.132 C38.36,17.132 39.141,16.868 39.669,16.362 L39.141,15.603 C38.767,15.977 38.151,16.186 37.634,16.186 C36.633,16.186 36.028,15.526 35.94,14.723 L40.043,14.723 L40.043,14.448 C40.043,12.776 39.02,11.555 37.425,11.555 C35.852,11.555 34.73,12.798 34.73,14.338 C34.73,16.021 35.918,17.132 37.513,17.132 Z M38.921,13.909 L35.929,13.909 C35.984,13.26 36.435,12.501 37.425,12.501 C38.47,12.501 38.899,13.282 38.921,13.909 Z M43.607,17.132 C44.641,17.132 45.268,16.692 45.642,16.186 L44.883,15.482 C44.586,15.889 44.179,16.109 43.662,16.109 C42.694,16.109 42.056,15.372 42.056,14.338 C42.056,13.304 42.694,12.578 43.662,12.578 C44.179,12.578 44.586,12.787 44.883,13.205 L45.642,12.501 C45.268,11.995 44.641,11.555 43.607,11.555 C41.99,11.555 40.857,12.732 40.857,14.338 C40.857,15.955 41.99,17.132 43.607,17.132 Z M48.249,17.132 C48.788,17.132 49.129,16.989 49.338,16.791 L49.063,15.922 C48.975,16.021 48.766,16.109 48.546,16.109 C48.216,16.109 48.04,15.845 48.04,15.482 L48.04,12.699 L49.118,12.699 L49.118,11.687 L48.04,11.687 L48.04,10.235 L46.885,10.235 L46.885,11.687 L46.005,11.687 L46.005,12.699 L46.885,12.699 L46.885,15.768 C46.885,16.648 47.358,17.132 48.249,17.132 Z" id="Select" fill="#FFFFFF" fill-rule="nonzero"></path>
                            </g>
                            <rect id="Rectangle" fill="#DADADA" x="46" y="0" width="180" height="11"></rect>
                            <circle id="Oval" fill="#ED803B" cx="15" cy="15" r="15"></circle>
                            <rect id="Rectangle" fill="#DADADA" x="46" y="19" width="65" height="11"></rect>
                        </g>
                        <g id="Group-5" transform="translate(40.000000, 358.000000)">
                            <g id="Group-3" transform="translate(250.000000, 0.000000)">
                                <rect id="Rectangle-Copy-51" fill="#055CE5" x="0" y="0" width="67" height="27" rx="13.5"></rect>
                                <path d="M22.289,17.132 C24.269,17.132 25.127,16.087 25.127,14.866 C25.127,13.271 23.686,12.897 22.476,12.589 C21.607,12.369 20.859,12.182 20.859,11.61 C20.859,11.06 21.343,10.697 22.102,10.697 C22.872,10.697 23.653,10.961 24.225,11.533 L24.962,10.576 C24.28,9.916 23.356,9.553 22.212,9.553 C20.606,9.553 19.539,10.488 19.539,11.698 C19.539,13.249 20.947,13.601 22.146,13.898 C23.037,14.129 23.818,14.327 23.818,14.987 C23.818,15.471 23.4,15.988 22.344,15.988 C21.321,15.988 20.529,15.515 20.023,14.976 L19.308,15.966 C19.957,16.659 20.936,17.132 22.289,17.132 Z M28.735,17.132 C29.582,17.132 30.363,16.868 30.891,16.362 L30.363,15.603 C29.989,15.977 29.373,16.186 28.856,16.186 C27.855,16.186 27.25,15.526 27.162,14.723 L31.265,14.723 L31.265,14.448 C31.265,12.776 30.242,11.555 28.647,11.555 C27.074,11.555 25.952,12.798 25.952,14.338 C25.952,16.021 27.14,17.132 28.735,17.132 Z M30.143,13.909 L27.151,13.909 C27.206,13.26 27.657,12.501 28.647,12.501 C29.692,12.501 30.121,13.282 30.143,13.909 Z M33.564,17 L33.564,9.663 L32.409,9.663 L32.409,17 L33.564,17 Z M37.513,17.132 C38.36,17.132 39.141,16.868 39.669,16.362 L39.141,15.603 C38.767,15.977 38.151,16.186 37.634,16.186 C36.633,16.186 36.028,15.526 35.94,14.723 L40.043,14.723 L40.043,14.448 C40.043,12.776 39.02,11.555 37.425,11.555 C35.852,11.555 34.73,12.798 34.73,14.338 C34.73,16.021 35.918,17.132 37.513,17.132 Z M38.921,13.909 L35.929,13.909 C35.984,13.26 36.435,12.501 37.425,12.501 C38.47,12.501 38.899,13.282 38.921,13.909 Z M43.607,17.132 C44.641,17.132 45.268,16.692 45.642,16.186 L44.883,15.482 C44.586,15.889 44.179,16.109 43.662,16.109 C42.694,16.109 42.056,15.372 42.056,14.338 C42.056,13.304 42.694,12.578 43.662,12.578 C44.179,12.578 44.586,12.787 44.883,13.205 L45.642,12.501 C45.268,11.995 44.641,11.555 43.607,11.555 C41.99,11.555 40.857,12.732 40.857,14.338 C40.857,15.955 41.99,17.132 43.607,17.132 Z M48.249,17.132 C48.788,17.132 49.129,16.989 49.338,16.791 L49.063,15.922 C48.975,16.021 48.766,16.109 48.546,16.109 C48.216,16.109 48.04,15.845 48.04,15.482 L48.04,12.699 L49.118,12.699 L49.118,11.687 L48.04,11.687 L48.04,10.235 L46.885,10.235 L46.885,11.687 L46.005,11.687 L46.005,12.699 L46.885,12.699 L46.885,15.768 C46.885,16.648 47.358,17.132 48.249,17.132 Z" id="Select" fill="#FFFFFF" fill-rule="nonzero"></path>
                            </g>
                            <rect id="Rectangle" fill="#DADADA" x="46" y="0" width="180" height="11"></rect>
                            <circle id="Oval" fill="#ED803B" cx="15" cy="15" r="15"></circle>
                            <rect id="Rectangle" fill="#DADADA" x="46" y="19" width="65" height="11"></rect>
                        </g>
                        <g id="Group-4" transform="translate(40.000000, 93.000000)">
                            <rect id="Rectangle-Copy-9" stroke="#C6C6C6" stroke-width="0.9" fill="#FFFFFF" x="0.45" y="0.45" width="316.1" height="28.1" rx="14.05"></rect>
                            <path d="M38.116,19.168 C40.636,19.168 41.56,17.782 41.56,16.424 C41.56,14.464 39.824,13.988 38.298,13.582 C37.108,13.26 36.03,12.98 36.03,12.042 C36.03,11.16 36.828,10.558 37.948,10.558 C38.97,10.558 39.95,10.908 40.65,11.678 L41.35,10.824 C40.566,9.998 39.46,9.522 38.032,9.522 C36.198,9.522 34.826,10.572 34.826,12.112 C34.826,13.946 36.492,14.366 37.99,14.758 C39.222,15.094 40.356,15.402 40.356,16.522 C40.356,17.236 39.824,18.132 38.158,18.132 C36.842,18.132 35.834,17.488 35.218,16.802 L34.532,17.684 C35.302,18.552 36.492,19.168 38.116,19.168 Z M46.306,19.168 C47.412,19.168 48.322,18.804 48.994,18.132 L48.49,17.446 C47.958,17.992 47.174,18.3 46.404,18.3 C44.948,18.3 44.052,17.236 43.968,15.962 L49.442,15.962 L49.442,15.696 C49.442,13.666 48.238,12.07 46.194,12.07 C44.262,12.07 42.862,13.652 42.862,15.612 C42.862,17.726 44.304,19.168 46.306,19.168 Z M48.406,15.192 L43.968,15.192 C44.024,14.156 44.738,12.938 46.18,12.938 C47.72,12.938 48.392,14.184 48.406,15.192 Z M53.124,19.168 C54.034,19.168 54.804,18.846 55.364,18.23 L55.364,19 L56.414,19 L56.414,14.352 C56.414,12.714 55.224,12.07 53.796,12.07 C52.69,12.07 51.822,12.434 51.094,13.19 L51.584,13.918 C52.186,13.274 52.844,12.98 53.656,12.98 C54.636,12.98 55.364,13.498 55.364,14.408 L55.364,15.626 C54.818,14.996 54.048,14.702 53.124,14.702 C51.976,14.702 50.758,15.416 50.758,16.928 C50.758,18.398 51.976,19.168 53.124,19.168 Z M53.502,18.412 C52.522,18.412 51.836,17.796 51.836,16.942 C51.836,16.074 52.522,15.458 53.502,15.458 C54.244,15.458 54.958,15.738 55.364,16.298 L55.364,17.572 C54.958,18.132 54.244,18.412 53.502,18.412 Z M59.564,19 L59.564,14.212 C59.872,13.666 60.754,13.134 61.398,13.134 C61.566,13.134 61.692,13.148 61.818,13.176 L61.818,12.098 C60.894,12.098 60.11,12.616 59.564,13.33 L59.564,12.238 L58.514,12.238 L58.514,19 L59.564,19 Z M66.116,19.168 C67.348,19.168 68.076,18.664 68.594,17.992 L67.894,17.348 C67.446,17.95 66.872,18.23 66.172,18.23 C64.73,18.23 63.834,17.11 63.834,15.612 C63.834,14.114 64.73,13.008 66.172,13.008 C66.872,13.008 67.446,13.274 67.894,13.89 L68.594,13.246 C68.076,12.574 67.348,12.07 66.116,12.07 C64.1,12.07 62.742,13.61 62.742,15.612 C62.742,17.628 64.1,19.168 66.116,19.168 Z M71.114,19 L71.114,14.058 C71.52,13.512 72.304,13.008 73.116,13.008 C74.026,13.008 74.642,13.358 74.642,14.548 L74.642,19 L75.692,19 L75.692,14.226 C75.692,12.756 74.95,12.07 73.536,12.07 C72.514,12.07 71.59,12.658 71.114,13.218 L71.114,9.662 L70.064,9.662 L70.064,19 L71.114,19 Z M78.338,19.14 C78.758,19.14 79.108,18.776 79.108,18.37 C79.108,17.95 78.758,17.6 78.338,17.6 C77.918,17.6 77.582,17.95 77.582,18.37 C77.582,18.776 77.918,19.14 78.338,19.14 Z M81.558,19.14 C81.978,19.14 82.342,18.776 82.342,18.37 C82.342,17.95 81.978,17.6 81.558,17.6 C81.138,17.6 80.802,17.95 80.802,18.37 C80.802,18.776 81.138,19.14 81.558,19.14 Z M84.792,19.14 C85.212,19.14 85.562,18.776 85.562,18.37 C85.562,17.95 85.212,17.6 84.792,17.6 C84.372,17.6 84.022,17.95 84.022,18.37 C84.022,18.776 84.372,19.14 84.792,19.14 Z" id="Search" fill="#7F7F7F" fill-rule="nonzero"></path>
                            <path d="M17.2836421,18.5672843 C20.2017171,18.5672843 22.5672843,16.2017171 22.5672843,13.2836421 C22.5672843,10.3655672 20.2017171,8 17.2836421,8 C14.3655672,8 12,10.3655672 12,13.2836421 C12,16.2017171 14.3655672,18.5672843 17.2836421,18.5672843 Z M21.2342457,17.1090817 C21.8124783,17.8124783 23.849107,19.723943 23.849107,19.723943" id="Combined-Shape" stroke="#663387" stroke-width="0.9"></path>
                        </g>
                        <path d="M44.292,49.216 C47.532,49.216 48.72,47.434 48.72,45.688 C48.72,43.168 46.488,42.556 44.526,42.034 C42.996,41.62 41.61,41.26 41.61,40.054 C41.61,38.92 42.636,38.146 44.076,38.146 C45.39,38.146 46.65,38.596 47.55,39.586 L48.45,38.488 C47.442,37.426 46.02,36.814 44.184,36.814 C41.826,36.814 40.062,38.164 40.062,40.144 C40.062,42.502 42.204,43.042 44.13,43.546 C45.714,43.978 47.172,44.374 47.172,45.814 C47.172,46.732 46.488,47.884 44.346,47.884 C42.654,47.884 41.358,47.056 40.566,46.174 L39.684,47.308 C40.674,48.424 42.204,49.216 44.292,49.216 Z M53.832,49 L56.1,42.016 L58.368,49 L59.718,49 L62.49,40.306 L61.086,40.306 L58.962,47.236 L56.676,40.306 L55.524,40.306 L53.238,47.236 L51.114,40.306 L49.71,40.306 L52.482,49 L53.832,49 Z M64.722,38.848 C65.226,38.848 65.64,38.434 65.64,37.93 C65.64,37.426 65.226,37.03 64.722,37.03 C64.236,37.03 63.822,37.426 63.822,37.93 C63.822,38.434 64.236,38.848 64.722,38.848 Z M65.406,49 L65.406,40.306 L64.056,40.306 L64.056,49 L65.406,49 Z M70.302,49.216 C71.094,49.216 71.58,48.982 71.922,48.658 L71.526,47.65 C71.346,47.848 70.986,48.01 70.608,48.01 C70.014,48.01 69.726,47.542 69.726,46.894 L69.726,41.494 L71.49,41.494 L71.49,40.306 L69.726,40.306 L69.726,37.93 L68.376,37.93 L68.376,40.306 L66.936,40.306 L66.936,41.494 L68.376,41.494 L68.376,47.182 C68.376,48.478 69.024,49.216 70.302,49.216 Z M77.232,49.216 C78.816,49.216 79.752,48.568 80.418,47.704 L79.518,46.876 C78.942,47.65 78.204,48.01 77.304,48.01 C75.45,48.01 74.298,46.57 74.298,44.644 C74.298,42.718 75.45,41.296 77.304,41.296 C78.204,41.296 78.942,41.638 79.518,42.43 L80.418,41.602 C79.752,40.738 78.816,40.09 77.232,40.09 C74.64,40.09 72.894,42.07 72.894,44.644 C72.894,47.236 74.64,49.216 77.232,49.216 Z M83.658,49 L83.658,42.646 C84.18,41.944 85.188,41.296 86.232,41.296 C87.402,41.296 88.194,41.746 88.194,43.276 L88.194,49 L89.544,49 L89.544,42.862 C89.544,40.972 88.59,40.09 86.772,40.09 C85.458,40.09 84.27,40.846 83.658,41.566 L83.658,36.994 L82.308,36.994 L82.308,49 L83.658,49 Z M97.356,49 L98.418,46.336 L104.502,46.336 L105.564,49 L107.22,49 L102.378,36.994 L100.524,36.994 L95.7,49 L97.356,49 Z M104.052,45.004 L98.85,45.004 L101.46,38.326 L104.052,45.004 Z M112.566,49.216 C114.15,49.216 115.086,48.568 115.752,47.704 L114.852,46.876 C114.276,47.65 113.538,48.01 112.638,48.01 C110.784,48.01 109.632,46.57 109.632,44.644 C109.632,42.718 110.784,41.296 112.638,41.296 C113.538,41.296 114.276,41.638 114.852,42.43 L115.752,41.602 C115.086,40.738 114.15,40.09 112.566,40.09 C109.974,40.09 108.228,42.07 108.228,44.644 C108.228,47.236 109.974,49.216 112.566,49.216 Z M121.476,49.216 C123.06,49.216 123.996,48.568 124.662,47.704 L123.762,46.876 C123.186,47.65 122.448,48.01 121.548,48.01 C119.694,48.01 118.542,46.57 118.542,44.644 C118.542,42.718 119.694,41.296 121.548,41.296 C122.448,41.296 123.186,41.638 123.762,42.43 L124.662,41.602 C123.996,40.738 123.06,40.09 121.476,40.09 C118.884,40.09 117.138,42.07 117.138,44.644 C117.138,47.236 118.884,49.216 121.476,49.216 Z M130.35,49.216 C132.996,49.216 134.652,47.164 134.652,44.644 C134.652,42.124 132.996,40.09 130.35,40.09 C127.704,40.09 126.048,42.124 126.048,44.644 C126.048,47.164 127.704,49.216 130.35,49.216 Z M130.35,48.01 C128.496,48.01 127.452,46.426 127.452,44.644 C127.452,42.88 128.496,41.296 130.35,41.296 C132.204,41.296 133.23,42.88 133.23,44.644 C133.23,46.426 132.204,48.01 130.35,48.01 Z M139.62,49.216 C140.916,49.216 142.05,48.532 142.716,47.776 L142.716,49 L144.066,49 L144.066,40.306 L142.716,40.306 L142.716,46.696 C142.212,47.398 141.204,48.01 140.142,48.01 C138.972,48.01 138.198,47.56 138.198,46.03 L138.198,40.306 L136.848,40.306 L136.848,46.444 C136.848,48.334 137.802,49.216 139.62,49.216 Z M148.116,49 L148.116,42.646 C148.62,41.944 149.628,41.296 150.69,41.296 C151.86,41.296 152.634,41.782 152.634,43.312 L152.634,49 L153.984,49 L153.984,42.898 C153.984,41.008 153.03,40.09 151.212,40.09 C149.916,40.09 148.728,40.846 148.116,41.566 L148.116,40.306 L146.766,40.306 L146.766,49 L148.116,49 Z M158.88,49.216 C159.672,49.216 160.158,48.982 160.5,48.658 L160.104,47.65 C159.924,47.848 159.564,48.01 159.186,48.01 C158.592,48.01 158.304,47.542 158.304,46.894 L158.304,41.494 L160.068,41.494 L160.068,40.306 L158.304,40.306 L158.304,37.93 L156.954,37.93 L156.954,40.306 L155.514,40.306 L155.514,41.494 L156.954,41.494 L156.954,47.182 C156.954,48.478 157.602,49.216 158.88,49.216 Z" id="SwitchAccount" fill="#353535" fill-rule="nonzero"></path>
                    </g>
                    <g id="Group-11" transform="translate(703.911748, 291.887321) rotate(-1.000000) translate(-703.911748, -291.887321) translate(593.911748, 217.887321)" fill-rule="nonzero">
                        <path d="M80.1413476,28.0458821 C116.762532,3.37231494 163.513556,-6.065963 215.428908,3.11207449 L215.428908,3.11207449 L218.956034,3.75980231 L220.62824,6.20718583 L220.300678,7.90711128 L217.862121,9.56147968 C167.273725,-0.167223193 121.603465,8.16149517 85.685178,31.4550859 C49.8568756,54.6903198 23.7499096,92.8040449 12.114219,142.643848 L12.114219,142.643848 L11.3268305,146.120299 L8.85137806,147.697048 L7.15872429,147.329606 L5.56399813,144.844035 C16.8954388,92.8157545 43.4398395,52.7735678 80.1413476,28.0458821 Z" id="Path-6" stroke="#FFFFFF" stroke-width="2" fill="#ED803B"></path>
                        <g id="Path-9" stroke-linejoin="bevel">
                            <use fill="black" fill-opacity="1" filter="url(#filter-10)" xlink:href="#path-9"></use>
                            <use stroke="#ED803B" stroke-width="3" fill="#979797" xlink:href="#path-9"></use>
                        </g>
                    </g>
                </g>
            </g>
        </g>
    </g>
</svg>