<?xml version="1.0" encoding="UTF-8"?>
<svg width="1367px" height="663px" viewBox="0 0 1367 663" version="1.1" xmlns="http://www.w3.org/2000/svg" xmlns:xlink="http://www.w3.org/1999/xlink">
    <title>27CFFC28-1F3D-46E9-8BBE-B29889F46235</title>
    <defs>
        <rect id="path-1" x="0" y="0" width="814" height="547" rx="3.24"></rect>
        <filter x="-2.7%" y="-3.7%" width="105.4%" height="108.0%" filterUnits="objectBoundingBox" id="filter-2">
            <feOffset dx="0" dy="2" in="SourceAlpha" result="shadowOffsetOuter1"></feOffset>
            <feGaussianBlur stdDeviation="7" in="shadowOffsetOuter1" result="shadowBlurOuter1"></feGaussianBlur>
            <feColorMatrix values="0 0 0 0 0   0 0 0 0 0   0 0 0 0 0  0 0 0 0.120602054 0" type="matrix" in="shadowBlurOuter1"></feColorMatrix>
        </filter>
        <polygon id="path-3" points="0 21.6056578 106.770879 21.6056578 106.770879 0.120114982 0 0.120114982"></polygon>
        <rect id="path-5" x="0" y="0" width="196" height="181" rx="3.6"></rect>
        <filter x="-12.0%" y="-11.9%" width="124.0%" height="126.0%" filterUnits="objectBoundingBox" id="filter-6">
            <feOffset dx="0" dy="2" in="SourceAlpha" result="shadowOffsetOuter1"></feOffset>
            <feGaussianBlur stdDeviation="7.5" in="shadowOffsetOuter1" result="shadowBlurOuter1"></feGaussianBlur>
            <feComposite in="shadowBlurOuter1" in2="SourceAlpha" operator="out" result="shadowBlurOuter1"></feComposite>
            <feColorMatrix values="0 0 0 0 0   0 0 0 0 0   0 0 0 0 0  0 0 0 0.0899530157 0" type="matrix" in="shadowBlurOuter1"></feColorMatrix>
        </filter>
        <rect id="path-7" x="0" y="0" width="388" height="420" rx="3.6"></rect>
        <filter x="-6.1%" y="-5.1%" width="112.1%" height="111.2%" filterUnits="objectBoundingBox" id="filter-8">
            <feOffset dx="0" dy="2" in="SourceAlpha" result="shadowOffsetOuter1"></feOffset>
            <feGaussianBlur stdDeviation="7.5" in="shadowOffsetOuter1" result="shadowBlurOuter1"></feGaussianBlur>
            <feComposite in="shadowBlurOuter1" in2="SourceAlpha" operator="out" result="shadowBlurOuter1"></feComposite>
            <feColorMatrix values="0 0 0 0 0   0 0 0 0 0   0 0 0 0 0  0 0 0 0.0899530157 0" type="matrix" in="shadowBlurOuter1"></feColorMatrix>
        </filter>
        <path d="M8.09454134,142.974527 C30.584696,40.5497395 112.64685,-14.5198233 214.987154,3.5727222 L218.094541,4.14340203 L217.924094,5.02795933 C115.656936,-14.4540305 33.2549742,39.0940266 9.6759761,140.091605 L8.97950635,143.166636 L8.09454134,142.974527 Z" id="path-9"></path>
        <filter x="-3.2%" y="-4.2%" width="106.5%" height="109.0%" filterUnits="objectBoundingBox" id="filter-10">
            <feMorphology radius="3" operator="dilate" in="SourceAlpha" result="shadowSpreadOuter1"></feMorphology>
            <feOffset dx="0" dy="0" in="shadowSpreadOuter1" result="shadowOffsetOuter1"></feOffset>
            <feComposite in="shadowOffsetOuter1" in2="SourceAlpha" operator="out" result="shadowOffsetOuter1"></feComposite>
            <feColorMatrix values="0 0 0 0 1   0 0 0 0 1   0 0 0 0 1  0 0 0 0.427584135 0" type="matrix" in="shadowOffsetOuter1"></feColorMatrix>
        </filter>
        <path d="M0.862381678,137.945053 L1.58111655,137.358148 L2.27361491,138.027538 C3.48057203,139.206816 4.37616836,140.155913 5.50600783,141.427074 L6.92399731,143.038923 C7.79719711,144.019338 8.14519902,144.320246 8.51544344,144.441442 C8.89541195,144.565822 9.36472327,144.451082 10.430046,143.933327 L11.1295181,143.580519 C11.736345,143.269033 12.6541753,142.794175 12.9262736,142.655659 C13.8492578,142.1858 14.7364932,141.750747 15.6875841,141.307212 L16.4144314,140.972294 L16.8623817,141.741351 C15.8847926,142.186525 14.9950476,142.612558 14.093936,143.06262 L13.4144209,143.405346 C13.0498142,143.590955 11.4723347,144.408219 11.1171146,144.585167 C9.65898575,145.311513 8.94832689,145.505581 8.17577555,145.252692 L8.00991803,145.192524 C7.41629011,144.953905 6.95487102,144.494909 5.71913054,143.078577 L4.74050981,141.965807 C3.52022381,140.592787 2.57937393,139.602972 1.21319522,138.282479 L0.862381678,137.945053 Z" id="path-11"></path>
        <filter x="-56.9%" y="-136.1%" width="219.8%" height="348.8%" filterUnits="objectBoundingBox" id="filter-12">
            <feMorphology radius="2" operator="dilate" in="SourceAlpha" result="shadowSpreadOuter1"></feMorphology>
            <feOffset dx="0" dy="0" in="shadowSpreadOuter1" result="shadowOffsetOuter1"></feOffset>
            <feGaussianBlur stdDeviation="2" in="shadowOffsetOuter1" result="shadowBlurOuter1"></feGaussianBlur>
            <feComposite in="shadowBlurOuter1" in2="SourceAlpha" operator="out" result="shadowBlurOuter1"></feComposite>
            <feColorMatrix values="0 0 0 0 1   0 0 0 0 1   0 0 0 0 1  0 0 0 0.258167614 0" type="matrix" in="shadowBlurOuter1"></feColorMatrix>
        </filter>
    </defs>
    <g id="Claim-Charity" stroke="none" stroke-width="1" fill="none" fill-rule="evenodd">
        <g id="claim_charity-(2)" transform="translate(0.000000, -1236.000000)">
            <g id="cbock-2/2" transform="translate(0.000000, 1106.000000)">
                <g id="img/claimcharity05" transform="translate(0.000000, 142.000000)">
                    <g id="fees/section-3/dots" transform="translate(1243.000000, 281.500000) rotate(90.000000) translate(-1243.000000, -281.500000) translate(1174.000000, 158.000000)" fill="#C799D1">
                        <polygon id="Fill-1" points="0.5 3.5 3.5 3.5 3.5 0.5 0.5 0.5"></polygon>
                        <polygon id="Fill-2" points="19.5 3.5 22.5 3.5 22.5 0.5 19.5 0.5"></polygon>
                        <polygon id="Fill-3" points="39.5 3.5 42.5 3.5 42.5 0.5 39.5 0.5"></polygon>
                        <polygon id="Fill-4" points="58.5 3.5 61.5 3.5 61.5 0.5 58.5 0.5"></polygon>
                        <polygon id="Fill-5" points="76.5 3.5 79.5 3.5 79.5 0.5 76.5 0.5"></polygon>
                        <polygon id="Fill-6" points="95.5 3.5 98.5 3.5 98.5 0.5 95.5 0.5"></polygon>
                        <polygon id="Fill-7" points="115.5 3.5 118.5 3.5 118.5 0.5 115.5 0.5"></polygon>
                        <polygon id="Fill-8" points="134.5 3.5 137.5 3.5 137.5 0.5 134.5 0.5"></polygon>
                        <polygon id="Fill-9" points="0.5 22.5 3.5 22.5 3.5 19.5 0.5 19.5"></polygon>
                        <polygon id="Fill-10" points="19.5 22.5 22.5 22.5 22.5 19.5 19.5 19.5"></polygon>
                        <polygon id="Fill-11" points="39.5 22.5 42.5 22.5 42.5 19.5 39.5 19.5"></polygon>
                        <polygon id="Fill-12" points="58.5 22.5 61.5 22.5 61.5 19.5 58.5 19.5"></polygon>
                        <polygon id="Fill-13" points="76.5 22.5 79.5 22.5 79.5 19.5 76.5 19.5"></polygon>
                        <polygon id="Fill-14" points="95.5 22.5 98.5 22.5 98.5 19.5 95.5 19.5"></polygon>
                        <polygon id="Fill-15" points="115.5 22.5 118.5 22.5 118.5 19.5 115.5 19.5"></polygon>
                        <polygon id="Fill-16" points="134.5 22.5 137.5 22.5 137.5 19.5 134.5 19.5"></polygon>
                        <polygon id="Fill-17" points="0.5 41.5 3.5 41.5 3.5 38.5 0.5 38.5"></polygon>
                        <polygon id="Fill-18" points="19.5 41.5 22.5 41.5 22.5 38.5 19.5 38.5"></polygon>
                        <polygon id="Fill-19" points="39.5 41.5 42.5 41.5 42.5 38.5 39.5 38.5"></polygon>
                        <polygon id="Fill-20" points="58.5 41.5 61.5 41.5 61.5 38.5 58.5 38.5"></polygon>
                        <polygon id="Fill-21" points="76.5 41.5 79.5 41.5 79.5 38.5 76.5 38.5"></polygon>
                        <polygon id="Fill-22" points="95.5 41.5 98.5 41.5 98.5 38.5 95.5 38.5"></polygon>
                        <polygon id="Fill-23" points="115.5 41.5 118.5 41.5 118.5 38.5 115.5 38.5"></polygon>
                        <polygon id="Fill-24" points="134.5 41.5 137.5 41.5 137.5 38.5 134.5 38.5"></polygon>
                        <polygon id="Fill-25" points="0.5 59.5 3.5 59.5 3.5 56.5 0.5 56.5"></polygon>
                        <polygon id="Fill-26" points="19.5 59.5 22.5 59.5 22.5 56.5 19.5 56.5"></polygon>
                        <polygon id="Fill-27" points="39.5 59.5 42.5 59.5 42.5 56.5 39.5 56.5"></polygon>
                        <polygon id="Fill-28" points="58.5 59.5 61.5 59.5 61.5 56.5 58.5 56.5"></polygon>
                        <polygon id="Fill-29" points="76.5 59.5 79.5 59.5 79.5 56.5 76.5 56.5"></polygon>
                        <polygon id="Fill-30" points="95.5 59.5 98.5 59.5 98.5 56.5 95.5 56.5"></polygon>
                        <polygon id="Fill-31" points="115.5 59.5 118.5 59.5 118.5 56.5 115.5 56.5"></polygon>
                        <polygon id="Fill-32" points="134.5 59.5 137.5 59.5 137.5 56.5 134.5 56.5"></polygon>
                        <polygon id="Fill-33" points="0.5 77.5 3.5 77.5 3.5 74.5 0.5 74.5"></polygon>
                        <polygon id="Fill-34" points="19.5 77.5 22.5 77.5 22.5 74.5 19.5 74.5"></polygon>
                        <polygon id="Fill-35" points="39.5 77.5 42.5 77.5 42.5 74.5 39.5 74.5"></polygon>
                        <polygon id="Fill-36" points="58.5 77.5 61.5 77.5 61.5 74.5 58.5 74.5"></polygon>
                        <polygon id="Fill-37" points="76.5 77.5 79.5 77.5 79.5 74.5 76.5 74.5"></polygon>
                        <polygon id="Fill-38" points="95.5 77.5 98.5 77.5 98.5 74.5 95.5 74.5"></polygon>
                        <polygon id="Fill-39" points="115.5 77.5 118.5 77.5 118.5 74.5 115.5 74.5"></polygon>
                        <polygon id="Fill-40" points="134.5 77.5 137.5 77.5 137.5 74.5 134.5 74.5"></polygon>
                        <polygon id="Fill-41" points="0.5 97.5 3.5 97.5 3.5 94.5 0.5 94.5"></polygon>
                        <polygon id="Fill-42" points="19.5 97.5 22.5 97.5 22.5 94.5 19.5 94.5"></polygon>
                        <polygon id="Fill-43" points="39.5 97.5 42.5 97.5 42.5 94.5 39.5 94.5"></polygon>
                        <polygon id="Fill-44" points="58.5 97.5 61.5 97.5 61.5 94.5 58.5 94.5"></polygon>
                        <polygon id="Fill-45" points="76.5 97.5 79.5 97.5 79.5 94.5 76.5 94.5"></polygon>
                        <polygon id="Fill-46" points="95.5 97.5 98.5 97.5 98.5 94.5 95.5 94.5"></polygon>
                        <polygon id="Fill-47" points="115.5 97.5 118.5 97.5 118.5 94.5 115.5 94.5"></polygon>
                        <polygon id="Fill-48" points="134.5 97.5 137.5 97.5 137.5 94.5 134.5 94.5"></polygon>
                        <polygon id="Fill-49" points="0.5 116.5 3.5 116.5 3.5 113.5 0.5 113.5"></polygon>
                        <polygon id="Fill-50" points="19.5 116.5 22.5 116.5 22.5 113.5 19.5 113.5"></polygon>
                        <polygon id="Fill-51" points="39.5 116.5 42.5 116.5 42.5 113.5 39.5 113.5"></polygon>
                        <polygon id="Fill-52" points="58.5 116.5 61.5 116.5 61.5 113.5 58.5 113.5"></polygon>
                        <polygon id="Fill-53" points="76.5 116.5 79.5 116.5 79.5 113.5 76.5 113.5"></polygon>
                        <polygon id="Fill-54" points="95.5 116.5 98.5 116.5 98.5 113.5 95.5 113.5"></polygon>
                        <polygon id="Fill-55" points="115.5 116.5 118.5 116.5 118.5 113.5 115.5 113.5"></polygon>
                        <polygon id="Fill-56" points="134.5 116.5 137.5 116.5 137.5 113.5 134.5 113.5"></polygon>
                        <polygon id="Fill-57" points="0.5 133.5 3.5 133.5 3.5 130.5 0.5 130.5"></polygon>
                        <polygon id="Fill-58" points="19.5 133.5 22.5 133.5 22.5 130.5 19.5 130.5"></polygon>
                        <polygon id="Fill-59" points="39.5 133.5 42.5 133.5 42.5 130.5 39.5 130.5"></polygon>
                        <polygon id="Fill-60" points="58.5 133.5 61.5 133.5 61.5 130.5 58.5 130.5"></polygon>
                        <polygon id="Fill-61" points="76.5 133.5 79.5 133.5 79.5 130.5 76.5 130.5"></polygon>
                        <polygon id="Fill-62" points="95.5 133.5 98.5 133.5 98.5 130.5 95.5 130.5"></polygon>
                        <polygon id="Fill-63" points="115.5 133.5 118.5 133.5 118.5 130.5 115.5 130.5"></polygon>
                        <polygon id="Fill-64" points="134.5 133.5 137.5 133.5 137.5 130.5 134.5 130.5"></polygon>
                        <polygon id="Fill-65" points="0.5 152.5 3.5 152.5 3.5 149.5 0.5 149.5"></polygon>
                        <polygon id="Fill-66" points="19.5 152.5 22.5 152.5 22.5 149.5 19.5 149.5"></polygon>
                        <polygon id="Fill-67" points="39.5 152.5 42.5 152.5 42.5 149.5 39.5 149.5"></polygon>
                        <polygon id="Fill-68" points="58.5 152.5 61.5 152.5 61.5 149.5 58.5 149.5"></polygon>
                        <polygon id="Fill-69" points="76.5 152.5 79.5 152.5 79.5 149.5 76.5 149.5"></polygon>
                        <polygon id="Fill-70" points="95.5 152.5 98.5 152.5 98.5 149.5 95.5 149.5"></polygon>
                        <polygon id="Fill-71" points="115.5 152.5 118.5 152.5 118.5 149.5 115.5 149.5"></polygon>
                        <polygon id="Fill-72" points="134.5 152.5 137.5 152.5 137.5 149.5 134.5 149.5"></polygon>
                        <polygon id="Fill-73" points="0.5 172.5 3.5 172.5 3.5 169.5 0.5 169.5"></polygon>
                        <polygon id="Fill-74" points="19.5 172.5 22.5 172.5 22.5 169.5 19.5 169.5"></polygon>
                        <polygon id="Fill-75" points="39.5 172.5 42.5 172.5 42.5 169.5 39.5 169.5"></polygon>
                        <polygon id="Fill-76" points="58.5 172.5 61.5 172.5 61.5 169.5 58.5 169.5"></polygon>
                        <polygon id="Fill-77" points="76.5 172.5 79.5 172.5 79.5 169.5 76.5 169.5"></polygon>
                        <polygon id="Fill-78" points="95.5 172.5 98.5 172.5 98.5 169.5 95.5 169.5"></polygon>
                        <polygon id="Fill-79" points="115.5 172.5 118.5 172.5 118.5 169.5 115.5 169.5"></polygon>
                        <polygon id="Fill-80" points="134.5 172.5 137.5 172.5 137.5 169.5 134.5 169.5"></polygon>
                        <polygon id="Fill-81" points="0.5 189.5 3.5 189.5 3.5 186.5 0.5 186.5"></polygon>
                        <polygon id="Fill-82" points="19.5 189.5 22.5 189.5 22.5 186.5 19.5 186.5"></polygon>
                        <polygon id="Fill-83" points="39.5 189.5 42.5 189.5 42.5 186.5 39.5 186.5"></polygon>
                        <polygon id="Fill-84" points="58.5 189.5 61.5 189.5 61.5 186.5 58.5 186.5"></polygon>
                        <polygon id="Fill-85" points="76.5 189.5 79.5 189.5 79.5 186.5 76.5 186.5"></polygon>
                        <polygon id="Fill-86" points="95.5 189.5 98.5 189.5 98.5 186.5 95.5 186.5"></polygon>
                        <polygon id="Fill-87" points="115.5 189.5 118.5 189.5 118.5 186.5 115.5 186.5"></polygon>
                        <polygon id="Fill-88" points="134.5 189.5 137.5 189.5 137.5 186.5 134.5 186.5"></polygon>
                        <polygon id="Fill-89" points="0.5 208.5 3.5 208.5 3.5 205.5 0.5 205.5"></polygon>
                        <polygon id="Fill-90" points="19.5 208.5 22.5 208.5 22.5 205.5 19.5 205.5"></polygon>
                        <polygon id="Fill-91" points="39.5 208.5 42.5 208.5 42.5 205.5 39.5 205.5"></polygon>
                        <polygon id="Fill-92" points="58.5 208.5 61.5 208.5 61.5 205.5 58.5 205.5"></polygon>
                        <polygon id="Fill-93" points="76.5 208.5 79.5 208.5 79.5 205.5 76.5 205.5"></polygon>
                        <polygon id="Fill-94" points="95.5 208.5 98.5 208.5 98.5 205.5 95.5 205.5"></polygon>
                        <polygon id="Fill-95" points="115.5 208.5 118.5 208.5 118.5 205.5 115.5 205.5"></polygon>
                        <polygon id="Fill-96" points="134.5 208.5 137.5 208.5 137.5 205.5 134.5 205.5"></polygon>
                        <polygon id="Fill-97" points="0.5 227.5 3.5 227.5 3.5 224.5 0.5 224.5"></polygon>
                        <polygon id="Fill-98" points="19.5 227.5 22.5 227.5 22.5 224.5 19.5 224.5"></polygon>
                        <polygon id="Fill-99" points="39.5 227.5 42.5 227.5 42.5 224.5 39.5 224.5"></polygon>
                        <polygon id="Fill-100" points="58.5 227.5 61.5 227.5 61.5 224.5 58.5 224.5"></polygon>
                        <polygon id="Fill-101" points="76.5 227.5 79.5 227.5 79.5 224.5 76.5 224.5"></polygon>
                        <polygon id="Fill-102" points="95.5 227.5 98.5 227.5 98.5 224.5 95.5 224.5"></polygon>
                        <polygon id="Fill-103" points="115.5 227.5 118.5 227.5 118.5 224.5 115.5 224.5"></polygon>
                        <polygon id="Fill-104" points="134.5 227.5 137.5 227.5 137.5 224.5 134.5 224.5"></polygon>
                        <polygon id="Fill-105" points="0.5 246.5 3.5 246.5 3.5 243.5 0.5 243.5"></polygon>
                        <polygon id="Fill-106" points="19.5 246.5 22.5 246.5 22.5 243.5 19.5 243.5"></polygon>
                        <polygon id="Fill-107" points="39.5 246.5 42.5 246.5 42.5 243.5 39.5 243.5"></polygon>
                        <polygon id="Fill-108" points="58.5 246.5 61.5 246.5 61.5 243.5 58.5 243.5"></polygon>
                        <polygon id="Fill-109" points="76.5 246.5 79.5 246.5 79.5 243.5 76.5 243.5"></polygon>
                        <polygon id="Fill-110" points="95.5 246.5 98.5 246.5 98.5 243.5 95.5 243.5"></polygon>
                        <polygon id="Fill-111" points="115.5 246.5 118.5 246.5 118.5 243.5 115.5 243.5"></polygon>
                        <polygon id="Fill-112" points="134.5 246.5 137.5 246.5 137.5 243.5 134.5 243.5"></polygon>
                    </g>
                    <path d="M163,329 L219,329 L219,368 L202,368 C180.460895,368 163,350.539105 163,329 L163,329 L163,329 Z" id="charitableimpactforcharities/section-4/bar-2" fill="#ED803B"></path>
                    <rect id="charitableimpactforcharities/section-4/bar-1" fill="#F7BA4A" x="0" y="39" width="444" height="282"></rect>
                    <g id="Group-10" transform="translate(304.000000, 0.000000)">
                        <g id="Rectangle">
                            <use fill="black" fill-opacity="1" filter="url(#filter-2)" xlink:href="#path-1"></use>
                            <use fill="#FFFFFF" fill-rule="evenodd" xlink:href="#path-1"></use>
                        </g>
                        <rect id="Rectangle" stroke="#F2F2F2" x="0" y="44" width="815" height="82"></rect>
                        <g id="logo/black" transform="translate(49.000000, 73.000000)">
                            <g id="Group-46-Copy-4">
                                <polygon id="Fill-1" fill="#F24040" points="0 7.33333333 6.4017094 7.33333333 6.4017094 0.916666667 0 0.916666667"></polygon>
                                <polygon id="Fill-2" fill="#C799D1" points="7.31623932 7.33333333 12.8034188 7.33333333 12.8034188 0.916666667 7.31623932 0.916666667"></polygon>
                                <polygon id="Fill-3" fill="#9142A1" points="15.5470085 7.33333333 21.9487179 7.33333333 21.9487179 0.916666667 15.5470085 0.916666667"></polygon>
                                <polygon id="Fill-4" fill="#663387" points="22.8632479 7.33333333 28.3504274 7.33333333 28.3504274 0.916666667 22.8632479 0.916666667"></polygon>
                                <polygon id="Fill-5" fill="#009EA1" points="29.7953846 7.33333333 30.5635897 7.33333333 30.5635897 0.916666667 29.7953846 0.916666667"></polygon>
                                <polygon id="Fill-6" fill="#29CCD1" points="31.0940171 7.33333333 36.5811966 7.33333333 36.5811966 0.916666667 31.0940171 0.916666667"></polygon>
                                <polygon id="Fill-7" fill="#82E3E0" points="38.4102564 7.33333333 44.8119658 7.33333333 44.8119658 0.916666667 38.4102564 0.916666667"></polygon>
                                <polygon id="Fill-8" fill="#FFDE03" points="44.8119658 7.33333333 50.2991453 7.33333333 50.2991453 0.916666667 44.8119658 0.916666667"></polygon>
                                <polygon id="Fill-9" fill="#FCC7AD" points="52.1282051 7.33333333 56.7008547 7.33333333 56.7008547 0.916666667 52.1282051 0.916666667"></polygon>
                                <polygon id="Fill-10" fill="#F7BA4A" points="57.6153846 7.33333333 62.1880342 7.33333333 62.1880342 0.916666667 57.6153846 0.916666667"></polygon>
                                <polygon id="Fill-11" fill="#ED803B" points="67.9175641 7.33333333 69.2619231 7.33333333 69.2619231 0.916666667 67.9175641 0.916666667"></polygon>
                                <polygon id="Fill-12" fill="#DB0063" points="71.3333333 7.33333333 77.7350427 7.33333333 77.7350427 0.916666667 71.3333333 0.916666667"></polygon>
                                <polygon id="Fill-13" fill="#94EBB2" points="80.4786325 7.33333333 85.965812 7.33333333 85.965812 0.916666667 80.4786325 0.916666667"></polygon>
                                <polygon id="Fill-14" fill="#A1C4FF" points="87.7948718 7.33333333 94.1965812 7.33333333 94.1965812 0.916666667 87.7948718 0.916666667"></polygon>
                                <polygon id="Fill-15" fill="#6194E5" points="94.1965812 7.33333333 100.598291 7.33333333 100.598291 0.916666667 94.1965812 0.916666667"></polygon>
                                <polygon id="Fill-16" fill="#0336FF" points="101.512821 7.33333333 107 7.33333333 107 0.916666667 101.512821 0.916666667"></polygon>
                                <g id="Group-45">
                                    <path d="M0.000142143218,17.5746471 C0.000142143218,15.1797664 1.56087468,13.5415551 3.51960824,13.5415551 C4.50323931,13.5415551 5.28929131,13.9503647 5.88629283,14.6520305 C5.93746439,14.7114937 5.95878587,14.7932556 5.95878587,14.8750175 C5.95878587,15.0623266 5.83369984,15.2020651 5.66597084,15.2020651 C5.58210634,15.2020651 5.49824184,15.1678738 5.44564885,15.096518 C4.9751548,14.512292 4.28433875,14.1495664 3.51960824,14.1495664 C1.89633268,14.1495664 0.62841517,15.5410054 0.62841517,17.5746471 C0.62841517,19.5845034 1.89633268,20.9982411 3.51960824,20.9982411 C4.28433875,20.9982411 4.98510482,20.6370021 5.45702031,20.0393969 C5.50819186,19.9695277 5.58210634,19.9353363 5.66597084,19.9353363 C5.83369984,19.9353363 5.97015733,20.0854809 5.97015733,20.2623839 C5.97015733,20.3560385 5.93746439,20.4378004 5.88629283,20.485371 C5.26796983,21.2078489 4.50323931,21.6062524 3.51960824,21.6062524 C1.56087468,21.6062524 0.000142143218,19.9695277 0.000142143218,17.5746471" id="Fill-17" fill="#262626"></path>
                                    <path d="M12.8207497,21.1619136 L12.8207497,17.7606182 L8.39014562,17.7606182 L8.39014562,21.1619136 C8.39014562,21.33733 8.26505959,21.5023404 8.09733059,21.5023404 C7.92960159,21.5023404 7.7931441,21.33733 7.7931441,21.1619136 L7.7931441,13.9757852 C7.7931441,13.7869895 7.92960159,13.6368449 8.09733059,13.6368449 C8.26505959,13.6368449 8.39014562,13.7869895 8.39014562,13.9757852 L8.39014562,17.1540935 L12.8207497,17.1540935 L12.8207497,13.9757852 C12.8207497,13.7869895 12.9572072,13.6368449 13.1249362,13.6368449 C13.2926652,13.6368449 13.4277013,13.7869895 13.4277013,13.9757852 L13.4277013,21.1619136 C13.4277013,21.33733 13.2926652,21.5023404 13.1249362,21.5023404 C12.9572072,21.5023404 12.8207497,21.33733 12.8207497,21.1619136" id="Fill-20" fill="#262626"></path>
                                    <path d="M21.2951863,21.1501696 C21.2951863,21.3374787 21.1587288,21.5010025 20.9810498,21.5010025 C20.8460137,21.5010025 20.7294563,21.407348 20.6868133,21.2795021 L20.0699118,19.5506094 L16.3315451,19.5506094 L15.7132221,21.2795021 C15.6705791,21.407348 15.5454931,21.5010025 15.4204071,21.5010025 C15.2413066,21.5010025 15.1062706,21.3374787 15.1062706,21.1501696 C15.1062706,21.1159783 15.1162206,21.0684077 15.1361206,21.0104311 L17.7131772,13.9982325 C17.7870917,13.7886247 17.9860922,13.6340204 18.1950427,13.6340204 C18.4153647,13.6340204 18.6029937,13.7886247 18.6882797,13.9982325 L21.2639148,21.0104311 C21.2752862,21.046109 21.2951863,21.092193 21.2951863,21.1501696 L21.2951863,21.1501696 Z M19.8495898,18.9425981 L18.1950427,14.3252802 L16.5504457,18.9425981 L19.8495898,18.9425981 Z" id="Fill-22" fill="#262626"></path>
                                    <path d="M27.6646239,20.9630092 C27.6958954,21.0105797 27.7172169,21.0789624 27.7172169,21.1741035 C27.7172169,21.3376274 27.6020809,21.5011512 27.4343519,21.5011512 C27.3291659,21.5011512 27.2353514,21.4535806 27.1728084,21.3614126 L25.2240249,18.2410809 L23.5808493,18.2410809 L23.5808493,21.1622109 C23.5808493,21.3376274 23.4543418,21.5011512 23.2866128,21.5011512 C23.1188838,21.5011512 22.9838477,21.3376274 22.9838477,21.1622109 L22.9838477,14.0325725 C22.9838477,13.800666 23.0989837,13.6713336 23.3079343,13.6713336 L25.5921758,13.6713336 C26.7947074,13.6713336 27.7172169,14.523144 27.7172169,15.9502609 C27.7172169,17.3179147 26.8799934,18.0998558 25.8849908,18.1816177 L27.6646239,20.9630092 Z M23.5808493,17.6330697 L25.5381614,17.6330697 C26.4606709,17.6330697 27.0889439,16.9314038 27.0889439,15.9502609 C27.0889439,14.969118 26.4606709,14.2778583 25.5381614,14.2778583 L23.5808493,14.2778583 L23.5808493,17.6330697 Z" id="Fill-24" fill="#262626"></path>
                                    <path d="M29.730107,21.1619136 L29.730107,13.9757852 C29.730107,13.7869895 29.8665645,13.6368449 30.0328721,13.6368449 C30.2020225,13.6368449 30.3271086,13.7869895 30.3271086,13.9757852 L30.3271086,21.1619136 C30.3271086,21.33733 30.2020225,21.5023404 30.0328721,21.5023404 C29.8665645,21.5023404 29.730107,21.33733 29.730107,21.1619136" id="Fill-26" fill="#262626"></path>
                                    <path d="M34.369946,21.1619136 L34.369946,14.277561 L32.3273479,14.277561 C32.1809404,14.277561 32.0558544,14.139309 32.0558544,13.9757852 C32.0558544,13.8122614 32.1809404,13.6710363 32.3273479,13.6710363 L37.030867,13.6710363 C37.1772745,13.6710363 37.3023606,13.8122614 37.3023606,13.9757852 C37.3023606,14.139309 37.1772745,14.277561 37.030867,14.277561 L34.9768975,14.277561 L34.9768975,21.1619136 C34.9768975,21.33733 34.8418615,21.5023404 34.6741325,21.5023404 C34.5064035,21.5023404 34.369946,21.33733 34.369946,21.1619136" id="Fill-28" fill="#262626"></path>
                                    <path d="M44.059707,21.1501696 C44.059707,21.3374787 43.9232496,21.5010025 43.7455705,21.5010025 C43.6105345,21.5010025 43.493977,21.407348 43.4513341,21.2795021 L42.8344325,19.5506094 L39.0946444,19.5506094 L38.4777429,21.2795021 C38.4350999,21.407348 38.3100139,21.5010025 38.1849278,21.5010025 C38.0058274,21.5010025 37.8707913,21.3374787 37.8707913,21.1501696 C37.8707913,21.1159783 37.8807413,21.0684077 37.9006414,21.0104311 L40.4776979,13.9982325 C40.5516124,13.7886247 40.7506129,13.6340204 40.9595634,13.6340204 C41.1798854,13.6340204 41.3675145,13.7886247 41.4528004,13.9982325 L44.0284355,21.0104311 C44.0383856,21.046109 44.059707,21.092193 44.059707,21.1501696 L44.059707,21.1501696 Z M42.6141105,18.9425981 L40.9595634,14.3252802 L39.3149664,18.9425981 L42.6141105,18.9425981 Z" id="Fill-30" fill="#262626"></path>
                                    <path d="M45.7476578,21.1037883 L45.7476578,14.0336132 C45.7476578,13.8002201 45.8627938,13.6708876 46.0731657,13.6708876 L48.6175294,13.6708876 C49.7902109,13.6708876 50.5449914,14.4320166 50.5449914,15.6569587 C50.5449914,16.6395881 49.9479899,17.305576 49.3197169,17.4453146 C50.0617045,17.5746471 50.6814489,18.4383501 50.6814489,19.3615164 C50.6814489,20.6593008 49.9266684,21.4650273 48.6800724,21.4650273 L46.0731657,21.4650273 C45.8627938,21.4650273 45.7476578,21.3252887 45.7476578,21.1037883 L45.7476578,21.1037883 Z M48.5436149,17.1658375 C49.4448029,17.1658375 49.9167184,16.534041 49.9167184,15.7283145 C49.9167184,14.9344807 49.4448029,14.2788989 48.5436149,14.2788989 L46.3446593,14.2788989 L46.3446593,17.1658375 L48.5436149,17.1658375 Z M48.5862578,20.8585026 C49.5073459,20.8585026 50.0517544,20.2623839 50.0517544,19.3154324 C50.0517544,18.520112 49.5599389,17.7723622 48.5862578,17.7723622 L46.3446593,17.7723622 L46.3446593,20.8585026 L48.5862578,20.8585026 Z" id="Fill-32" fill="#262626"></path>
                                    <path d="M52.7034362,21.1037883 L52.7034362,13.9741499 C52.7034362,13.7868409 52.8398937,13.6366963 53.0076227,13.6366963 C53.1753517,13.6366963 53.3004377,13.7868409 53.3004377,13.9741499 L53.3004377,20.8585026 L56.4418028,20.8585026 C56.5882103,20.8585026 56.7132964,20.9997277 56.7132964,21.1632515 C56.7132964,21.3252887 56.5882103,21.4650273 56.4418028,21.4650273 L53.0289441,21.4650273 C52.8185722,21.4650273 52.7034362,21.3252887 52.7034362,21.1037883" id="Fill-34" fill="#262626"></path>
                                    <path d="M58.5071438,21.1037883 L58.5071438,14.0336132 C58.5071438,13.8002201 58.6222798,13.6708876 58.8312303,13.6708876 L62.6961044,13.6708876 C62.842512,13.6708876 62.9690194,13.8121127 62.9690194,13.9741499 C62.9690194,14.1376738 62.842512,14.2788989 62.6961044,14.2788989 L59.1041453,14.2788989 L59.1041453,17.1658375 L62.62219,17.1658375 C62.7700189,17.1658375 62.8951049,17.305576 62.8951049,17.4705864 C62.8951049,17.6326237 62.7700189,17.7723622 62.62219,17.7723622 L59.1041453,17.7723622 L59.1041453,20.8585026 L62.6961044,20.8585026 C62.842512,20.8585026 62.9690194,20.9997277 62.9690194,21.1632515 C62.9690194,21.3252887 62.842512,21.4650273 62.6961044,21.4650273 L58.8312303,21.4650273 C58.6222798,21.4650273 58.5071438,21.3252887 58.5071438,21.1037883" id="Fill-36" fill="#262626"></path>
                                    <mask id="mask-4" fill="white">
                                        <use xlink:href="#path-3"></use>
                                    </mask>
                                    <g id="Clip-39"></g>
                                    <polygon id="Fill-38" fill="#262626" mask="url(#mask-4)" points="68.0723874 21.4659192 69.1199829 21.4659192 69.1199829 13.6717795 68.0723874 13.6717795"></polygon>
                                    <polygon id="Fill-40" fill="#262626" mask="url(#mask-4)" points="77.078866 15.2720831 74.815946 21.4666625 74.3767234 21.4666625 72.1138034 15.2720831 72.1138034 21.4666625 71.0676293 21.4666625 71.0676293 13.6710363 72.5643974 13.6710363 74.595624 19.2680105 76.628272 13.6710363 78.1250401 13.6710363 78.1250401 21.4666625 77.078866 21.4666625"></polygon>
                                    <path d="M80.0660058,13.6708876 L83.0083704,13.6708876 C84.4440169,13.6708876 85.2400189,14.7694703 85.2400189,16.0657682 C85.2400189,17.3635527 84.4326454,18.4621354 83.0083704,18.4621354 L81.1121798,18.4621354 L81.1121798,21.4650273 L80.0660058,21.4650273 L80.0660058,13.6708876 Z M82.8733343,14.6981145 L81.1121798,14.6981145 L81.1121798,17.4334219 L82.8733343,17.4334219 C83.6266934,17.4334219 84.1597305,16.8848739 84.1597305,16.0657682 C84.1597305,15.2496357 83.6266934,14.6981145 82.8733343,14.6981145 L82.8733343,14.6981145 Z" id="Fill-41" fill="#262626" mask="url(#mask-4)"></path>
                                    <path d="M91.3570102,19.8538717 L87.93278,19.8538717 L87.36705,21.4668112 L86.2142685,21.4668112 L88.9903256,13.6711849 L90.2994646,13.6711849 L93.0741003,21.4668112 L91.9227402,21.4668112 L91.3570102,19.8538717 Z M88.2355451,18.8132656 L91.0528237,18.8132656 L89.6399201,14.6880057 L88.2355451,18.8132656 Z" id="Fill-42" fill="#262626" mask="url(#mask-4)"></path>
                                    <path d="M94.0638435,17.5746471 C94.0638435,15.1797664 95.6558475,13.5415551 97.6458526,13.5415551 C99.0175347,13.5415551 99.8760797,14.2774123 100.42191,15.1901725 L99.5306717,15.7164219 C99.1639422,15.0623266 98.4731261,14.5821612 97.6458526,14.5821612 C96.2315276,14.5821612 95.1427105,15.8204825 95.1427105,17.5746471 C95.1427105,19.316919 96.2315276,20.5671329 97.6458526,20.5671329 C98.4731261,20.5671329 99.1639422,20.0854809 99.5306717,19.4328722 L100.42191,19.957635 C99.8661297,20.8703952 99.0175347,21.6062524 97.6458526,21.6062524 C95.6558475,21.6062524 94.0638435,19.9695277 94.0638435,17.5746471" id="Fill-43" fill="#262626" mask="url(#mask-4)"></path>
                                    <polygon id="Fill-44" fill="#262626" mask="url(#mask-4)" points="103.564838 14.6987091 101.397154 14.6987091 101.397154 13.6714822 106.768747 13.6714822 106.768747 14.6987091 104.611012 14.6987091 104.611012 21.4656219 103.564838 21.4656219"></polygon>
                                </g>
                            </g>
                        </g>
                        <circle id="Oval" fill="#FFFFFF" cx="660" cy="87" r="19"></circle>
                        <path d="M661,67 C649.955,67 641,75.955 641,87 C641,98.045 649.955,107 661,107 C672.045,107 681,98.045 681,87 C680.988333,75.96 672.04,67.0116667 661,67 Z M670.805354,96.4381676 C670.575192,96.7881089 670.171987,97 669.740222,97 L651.260014,97 C650.564486,97 650,96.4606409 650,95.7960735 C650,95.6178923 650.042,95.4413164 650.122641,95.2791877 C652.835872,89.8037297 659.680269,87.4649018 665.412494,90.0573569 C667.811561,91.1424961 669.741902,92.9869115 670.877595,95.2791877 C671.064077,95.6516023 671.035517,96.0898315 670.805354,96.4381676 Z M661,74 C664.312973,74 667,76.687027 667,80 C667,83.312973 664.312973,86 661,86 C657.687027,86 655,83.312973 655,80 L655,80 C655,76.687027 657.687027,74 661,74 Z" id="Shape" fill="#ED803B" fill-rule="nonzero"></path>
                        <g id="Group-3" transform="translate(702.000000, 71.000000)">
                            <rect id="Rectangle-Copy-51" fill="#055CE5" x="0" y="0" width="82" height="33" rx="16.5"></rect>
                            <text id="Give" font-family="ProximaNova-Semibold, Proxima Nova" font-size="11" font-weight="500" fill="#FFFFFF">
                                <tspan x="30" y="20">Give</tspan>
                            </text>
                        </g>
                        <rect id="Rectangle" fill="#055CE5" x="49" y="214" width="346" height="112" rx="8"></rect>
                        <rect id="Rectangle" fill="#F24040" x="430" y="214" width="346" height="112" rx="8"></rect>
                        <text id="Your-Impact-Account" opacity="0.375255766" font-family="ProximaNova-Semibold, Proxima Nova" font-size="14.4" font-weight="500" fill="#383838">
                            <tspan x="49" y="169">Your Impact Account</tspan>
                        </text>
                        <circle id="Oval" fill="#DB0163" cx="29.5" cy="24.5" r="5.5"></circle>
                        <circle id="Oval" fill="#F7BA4A" cx="52.5" cy="24.5" r="5.5"></circle>
                        <circle id="Oval" fill="#27CCD1" cx="74.5" cy="24.5" r="5.5"></circle>
                    </g>
                    <g id="Group-6" opacity="0.445405506" transform="translate(356.000000, 413.000000)" fill="#DDDDDD">
                        <rect id="Rectangle" x="0" y="0" width="556" height="13"></rect>
                        <rect id="Rectangle" x="0" y="25" width="317" height="13"></rect>
                        <rect id="Rectangle" x="577" y="0" width="145" height="13"></rect>
                    </g>
                    <g id="Group-6" opacity="0.445405506" transform="translate(356.000000, 474.000000)" fill="#DDDDDD">
                        <rect id="Rectangle" x="0" y="0" width="556" height="13"></rect>
                        <rect id="Rectangle" x="0" y="25" width="317" height="13"></rect>
                        <rect id="Rectangle" x="577" y="0" width="145" height="13"></rect>
                    </g>
                    <g id="Group-9" transform="translate(796.000000, 116.000000)">
                        <g id="Rectangle">
                            <use fill="black" fill-opacity="1" filter="url(#filter-6)" xlink:href="#path-5"></use>
                            <rect stroke="#E4E4E4" stroke-width="0.9" stroke-linejoin="square" fill="#FFFFFF" fill-rule="evenodd" x="0.45" y="0.45" width="195.1" height="180.1" rx="3.6"></rect>
                        </g>
                        <text id="Hello!" font-family="ProximaNova-Semibold, Proxima Nova" font-size="14" font-weight="500" fill="#353535">
                            <tspan x="23" y="37">Hello!</tspan>
                        </text>
                        <text id="Account-Settings-Swi" font-family="ProximaNova-Regular, Proxima Nova" font-size="14" font-weight="normal" fill="#353535">
                            <tspan x="23" y="78">Account Settings</tspan>
                            <tspan x="23" y="109">Switch Accounts</tspan>
                        </text>
                        <text id="Logout" font-family="ProximaNova-Regular, Proxima Nova" font-size="14" font-weight="normal" fill="#353535">
                            <tspan x="23" y="162">Logout</tspan>
                        </text>
                        <line x1="3.5" y1="133.5" x2="193.5" y2="133.5" id="Line" stroke="#F1F1F1" stroke-linecap="square"></line>
                    </g>
                    <g id="Group-2" transform="translate(257.000000, 214.000000)">
                        <g id="Rectangle">
                            <use fill="black" fill-opacity="1" filter="url(#filter-8)" xlink:href="#path-7"></use>
                            <rect stroke="#E4E4E4" stroke-width="0.9" stroke-linejoin="square" fill="#FFFFFF" fill-rule="evenodd" x="0.45" y="0.45" width="387.1" height="419.1" rx="3.6"></rect>
                        </g>
                        <g id="Group-5" transform="translate(40.000000, 166.000000)">
                            <g id="Group-3" transform="translate(250.000000, 0.000000)">
                                <rect id="Rectangle-Copy-51" fill="#055CE5" x="0" y="0" width="67" height="27" rx="13.5"></rect>
                                <text id="Select" font-family="ProximaNova-Semibold, Proxima Nova" font-size="11" font-weight="500" fill="#FFFFFF">
                                    <tspan x="19" y="17">Select</tspan>
                                </text>
                            </g>
                            <rect id="Rectangle" fill="#DADADA" x="46" y="0" width="180" height="11"></rect>
                            <circle id="Oval" fill="#ED803B" cx="15" cy="15" r="15"></circle>
                            <rect id="Rectangle" fill="#DADADA" x="46" y="19" width="65" height="11"></rect>
                        </g>
                        <g id="Group-5" transform="translate(40.000000, 230.000000)">
                            <g id="Group-3" transform="translate(250.000000, 0.000000)">
                                <rect id="Rectangle-Copy-51" fill="#055CE5" x="0" y="0" width="67" height="27" rx="13.5"></rect>
                                <text id="Select" font-family="ProximaNova-Semibold, Proxima Nova" font-size="11" font-weight="500" fill="#FFFFFF">
                                    <tspan x="19" y="17">Select</tspan>
                                </text>
                            </g>
                            <rect id="Rectangle" fill="#DADADA" x="46" y="0" width="180" height="11"></rect>
                            <circle id="Oval" fill="#ED803B" cx="15" cy="15" r="15"></circle>
                            <rect id="Rectangle" fill="#DADADA" x="46" y="19" width="65" height="11"></rect>
                        </g>
                        <g id="Group-5" transform="translate(40.000000, 294.000000)">
                            <g id="Group-3" transform="translate(250.000000, 0.000000)">
                                <rect id="Rectangle-Copy-51" fill="#055CE5" x="0" y="0" width="67" height="27" rx="13.5"></rect>
                                <text id="Select" font-family="ProximaNova-Semibold, Proxima Nova" font-size="11" font-weight="500" fill="#FFFFFF">
                                    <tspan x="19" y="17">Select</tspan>
                                </text>
                            </g>
                            <rect id="Rectangle" fill="#DADADA" x="46" y="0" width="180" height="11"></rect>
                            <circle id="Oval" fill="#ED803B" cx="15" cy="15" r="15"></circle>
                            <rect id="Rectangle" fill="#DADADA" x="46" y="19" width="65" height="11"></rect>
                        </g>
                        <g id="Group-5" transform="translate(40.000000, 358.000000)">
                            <g id="Group-3" transform="translate(250.000000, 0.000000)">
                                <rect id="Rectangle-Copy-51" fill="#055CE5" x="0" y="0" width="67" height="27" rx="13.5"></rect>
                                <text id="Select" font-family="ProximaNova-Semibold, Proxima Nova" font-size="11" font-weight="500" fill="#FFFFFF">
                                    <tspan x="19" y="17">Select</tspan>
                                </text>
                            </g>
                            <rect id="Rectangle" fill="#DADADA" x="46" y="0" width="180" height="11"></rect>
                            <circle id="Oval" fill="#ED803B" cx="15" cy="15" r="15"></circle>
                            <rect id="Rectangle" fill="#DADADA" x="46" y="19" width="65" height="11"></rect>
                        </g>
                        <g id="Group-4" transform="translate(40.000000, 93.000000)">
                            <rect id="Rectangle-Copy-9" stroke="#C6C6C6" stroke-width="0.9" fill="#FFFFFF" x="0.45" y="0.45" width="316.1" height="28.1" rx="14.05"></rect>
                            <text id="Search…" font-family="ProximaNova-Regular, Proxima Nova" font-size="14" font-weight="normal" fill="#7F7F7F">
                                <tspan x="34" y="19">Search…</tspan>
                            </text>
                            <path d="M17.2836421,18.5672843 C20.2017171,18.5672843 22.5672843,16.2017171 22.5672843,13.2836421 C22.5672843,10.3655672 20.2017171,8 17.2836421,8 C14.3655672,8 12,10.3655672 12,13.2836421 C12,16.2017171 14.3655672,18.5672843 17.2836421,18.5672843 Z M21.2342457,17.1090817 C21.8124783,17.8124783 23.849107,19.723943 23.849107,19.723943" id="Combined-Shape" stroke="#663387" stroke-width="0.9"></path>
                        </g>
                        <text id="Switch-Account" font-family="ProximaNova-Regular, Proxima Nova" font-size="18" font-weight="normal" fill="#353535">
                            <tspan x="39" y="49">Switch Account</tspan>
                        </text>
                    </g>
                    <g id="Group-11" transform="translate(703.429277, 292.895895) rotate(-1.000000) translate(-703.429277, -292.895895) translate(593.929277, 219.895895)" fill-rule="nonzero" stroke-linejoin="bevel">
                        <g id="Path-6">
                            <use fill="black" fill-opacity="1" filter="url(#filter-10)" xlink:href="#path-9"></use>
                            <use stroke="#ED803B" stroke-width="3" fill="#ED803B" xlink:href="#path-9"></use>
                        </g>
                        <g id="Path-9">
                            <use fill="black" fill-opacity="1" filter="url(#filter-12)" xlink:href="#path-11"></use>
                            <use stroke="#ED803B" stroke-width="3" fill="#979797" xlink:href="#path-11"></use>
                        </g>
                    </g>
                </g>
            </g>
        </g>
    </g>
</svg>