<?xml version="1.0" encoding="UTF-8"?>
<svg width="1113px" height="150px" viewBox="0 0 1113 150" version="1.1" xmlns="http://www.w3.org/2000/svg" xmlns:xlink="http://www.w3.org/1999/xlink">
    <!-- Generator: sketchtool 58 (101010) - https://sketch.com -->
    <title>0B55CEC4-5A5B-426B-B3F5-68D8D69F0052</title>
    <desc>Created with sketchtool.</desc>
    <defs>
        <rect id="path-1" x="0" y="0" width="1113" height="150" rx="5"></rect>
    </defs>
    <g id="UI-Kit" stroke="none" stroke-width="1" fill="none" fill-rule="evenodd">
        <g id="illustrations" transform="translate(-88.000000, -7975.000000)">
            <g id="bg_givinggroupsyoumanage_nodata_illustration" transform="translate(88.000000, 7975.000000)">
                <mask id="mask-2" fill="white">
                    <use xlink:href="#path-1"></use>
                </mask>
                <use id="Mask-Copy-2" fill="#DDE8FA" fill-rule="nonzero" xlink:href="#path-1"></use>
                <g id="ovals" mask="url(#mask-2)" fill="#FFFFFF" opacity="0.199730283">
                    <g transform="translate(-63.628345, -42.147488)" id="Combined-Shape">
                        <path d="M432.482257,185.086068 C460.975602,213.864825 461.231091,285.614704 416.079111,277.941321 C370.927132,270.267937 359.505971,280.891897 331.012626,252.11314 C302.519282,223.334384 312.727438,206.627557 332.637833,193.47549 C352.548228,180.323422 403.988912,156.307311 432.482257,185.086068 Z M90.6032429,176.962438 C101.856889,191.132209 123.408558,228.395791 103.571447,251.800309 C83.7343367,275.204827 29.5746338,280.110367 32.3687843,245.513749 C35.1629349,210.91713 26.3822193,202.991222 46.2193298,179.586704 C66.0564404,156.182187 79.349597,162.792668 90.6032429,176.962438 Z M759.680159,160.383851 C796.592912,171.865861 828.901541,232.397729 787.37388,246.264067 C745.846218,260.130406 740.962009,274.258477 704.049255,262.776467 C667.136502,251.294456 668.276471,232.571568 679.19238,212.480065 C690.108289,192.388562 722.767406,148.90184 759.680159,160.383851 Z M192.571624,148.991189 C236.870649,169.167695 251.571049,161.374585 272.868104,198.675585 C294.165159,235.976585 279.020211,250.343644 254.886444,258.41895 C230.752677,266.494256 171.171894,277.130882 149.874839,239.829882 C128.577784,202.528882 148.272599,128.814683 192.571624,148.991189 Z M549.571624,148.991189 C593.870649,169.167695 608.571049,161.374585 629.868104,198.675585 C651.165159,235.976585 636.020211,250.343644 611.886444,258.41895 C587.752677,266.494256 528.171894,277.130882 506.874839,239.829882 C485.577784,202.528882 505.272599,128.814683 549.571624,148.991189 Z M906.571624,148.991189 C950.870649,169.167695 965.571049,161.374585 986.868104,198.675585 C1008.16516,235.976585 993.020211,250.343644 968.886444,258.41895 C944.752677,266.494256 885.171894,277.130882 863.874839,239.829882 C842.577784,202.528882 862.272599,128.814683 906.571624,148.991189 Z M1220.87484,239.829882 C1199.57778,202.528882 1219.2726,128.814683 1263.57162,148.991189 C1307.87065,169.167695 1322.57105,161.374585 1343.8681,198.675585 C1365.16516,235.976585 1350.02021,250.343644 1325.88644,258.41895 C1301.75268,266.494256 1242.17189,277.130882 1220.87484,239.829882 Z M1118.44157,181.736976 C1145.94991,195.322774 1142.75169,209.820288 1131.72533,224.16763 C1120.69896,238.514972 1089.75609,268.441341 1062.24775,254.855543 C1034.73942,241.269744 1016.87717,189.905574 1051.12209,184.247046 C1085.36701,178.588519 1090.93324,168.151178 1118.44157,181.736976 Z M51.6773115,23.9578458 C95.9763361,44.1343519 110.676737,36.3412417 131.973792,73.6422417 C153.270847,110.943242 138.125898,125.310301 113.992131,133.385607 C89.8583641,141.460913 30.2775813,152.097539 8.98052625,114.796539 C-12.3165288,77.4955387 7.37828689,3.78133971 51.6773115,23.9578458 Z M408.677312,23.9578458 C452.976336,44.1343519 467.676737,36.3412417 488.973792,73.6422417 C510.270847,110.943242 495.125898,125.310301 470.992131,133.385607 C446.858364,141.460913 387.277581,152.097539 365.980526,114.796539 C344.683471,77.4955387 364.378287,3.78133971 408.677312,23.9578458 Z M765.677312,23.9578458 C809.976336,44.1343519 824.676737,36.3412417 845.973792,73.6422417 C867.270847,110.943242 852.125898,125.310301 827.992131,133.385607 C803.858364,141.460913 744.277581,152.097539 722.980526,114.796539 C701.683471,77.4955387 721.378287,3.78133971 765.677312,23.9578458 Z M1122.67731,23.9578458 C1166.97634,44.1343519 1181.67674,36.3412417 1202.97379,73.6422417 C1224.27085,110.943242 1209.1259,125.310301 1184.99213,133.385607 C1160.85836,141.460913 1101.27758,152.097539 1079.98053,114.796539 C1058.68347,77.4955387 1078.37829,3.78133971 1122.67731,23.9578458 Z M230.305656,3.9578458 C274.604681,24.1343519 289.305081,16.3412417 310.602136,53.6422417 C331.899191,90.9432416 316.754243,105.310301 292.620476,113.385607 C268.486709,121.460913 208.905926,132.097539 187.608871,94.7965387 C166.311816,57.4955387 186.006632,-16.2186603 230.305656,3.9578458 Z M587.305656,3.9578458 C631.604681,24.1343519 646.305081,16.3412417 667.602136,53.6422417 C688.899191,90.9432416 673.754243,105.310301 649.620476,113.385607 C625.486709,121.460913 565.905926,132.097539 544.608871,94.7965387 C523.311816,57.4955387 543.006632,-16.2186603 587.305656,3.9578458 Z M944.305656,3.9578458 C988.604681,24.1343519 1003.30508,16.3412417 1024.60214,53.6422417 C1045.89919,90.9432416 1030.75424,105.310301 1006.62048,113.385607 C982.486709,121.460913 922.905926,132.097539 901.608871,94.7965387 C880.311816,57.4955387 900.006632,-16.2186603 944.305656,3.9578458 Z M1301.30566,3.9578458 C1345.60468,24.1343519 1360.30508,16.3412417 1381.60214,53.6422417 C1402.89919,90.9432416 1387.75424,105.310301 1363.62048,113.385607 C1339.48671,121.460913 1279.90593,132.097539 1258.60887,94.7965387 C1237.31182,57.4955387 1257.00663,-16.2186603 1301.30566,3.9578458 Z"></path>
                    </g>
                </g>
            </g>
        </g>
    </g>
</svg>