<?xml version="1.0" encoding="UTF-8"?>
<svg width="24px" height="24px" viewBox="0 0 24 24" version="1.1" xmlns="http://www.w3.org/2000/svg" xmlns:xlink="http://www.w3.org/1999/xlink">
    <title>7F46B647-81FC-489D-A05A-6B29BB9A4CB8</title>
    <g id="Manage-|-Giving-Group" stroke="none" stroke-width="1" fill="none" fill-rule="evenodd">
        <g id="Manage-gg:-donation-widget" transform="translate(-575.000000, -607.000000)" fill-rule="nonzero">
            <g id="CTA/Solid/Primary/Medium" transform="translate(550.000000, 595.000000)">
                <g id="bt_donation_icon" transform="translate(25.000000, 12.000000)">
                    <path d="M21,0 L23.25,0 C23.6642136,0 24,0.335786438 24,0.75 L24,6.75 L21,6.75 L21,0 Z" id="Path" fill="#9142A1"></path>
                    <path d="M21,10.5 L24,10.5 L24,23.25 C24,23.6642136 23.6642136,24 23.25,24 L21,24 L21,10.5 Z" id="Path" fill="#F24040"></path>
                    <rect id="Rectangle" fill="#F7BA4A" x="10.5225" y="0" width="6.7125" height="10.5"></rect>
                    <rect id="Rectangle" fill="#6194E5" x="10.5075" y="14.2425" width="6.75" height="9.7575"></rect>
                    <path d="M0.75,0 L6.75,0 L6.75,24 L0.75,24 C0.335786438,24 0,23.6642136 0,23.25 L0,0.75 C0,0.335786438 0.335786438,0 0.75,0 Z" id="Path" fill="#29CCD1"></path>
                </g>
            </g>
        </g>
    </g>
</svg>