<?xml version="1.0" encoding="UTF-8"?>
<svg width="1114px" height="202px" viewBox="0 0 1114 202" version="1.1" xmlns="http://www.w3.org/2000/svg" xmlns:xlink="http://www.w3.org/1999/xlink">
    <!-- Generator: sketchtool 57.1 (101010) - https://sketch.com -->
    <title>D2C39E93-1666-4B9D-8C48-A120D7185ACD</title>
    <desc>Created with sketchtool.</desc>
    <defs>
        <rect id="path-1" x="0.628344662" y="0.147488482" width="1113" height="201" rx="5"></rect>
    </defs>
    <g id="UI-Kit" stroke="none" stroke-width="1" fill="none" fill-rule="evenodd">
        <g id="illustrations" transform="translate(-87.000000, -7155.000000)">
            <g id="dashboard" transform="translate(39.000000, 6963.000000)">
                <g id="campaignprofile_nodata_illustration_BG" transform="translate(48.000000, 192.000000)">
                    <mask id="mask-2" fill="white">
                        <use xlink:href="#path-1"></use>
                    </mask>
                    <use id="Mask-Copy-2" fill="#DDE8FA" fill-rule="nonzero" xlink:href="#path-1"></use>
                    <path d="M4.12754655,103.976354 C47.0607364,102.683929 65.6406363,45.0836272 69.8406819,19.9836492 C74.0407275,-5.11632889 68.4654895,-25.2334504 25.5322996,-23.9410257 C-17.4008902,-22.6486009 -17.4214024,-6.01027403 -56.0333322,23.6311473 C-94.645262,53.2725686 -38.8056433,105.268779 4.12754655,103.976354 Z" id="Oval-4-Copy-2" fill="#FFFFFF" opacity="0.199730283" mask="url(#mask-2)" transform="translate(1.000000, 40.000000) rotate(62.000000) translate(-1.000000, -40.000000) "></path>
                    <path d="M361.127547,103.976354 C404.060736,102.683929 422.640636,45.0836272 426.840682,19.9836492 C431.040728,-5.11632889 425.46549,-25.2334504 382.5323,-23.9410257 C339.59911,-22.6486009 339.578598,-6.01027403 300.966668,23.6311473 C262.354738,53.2725686 318.194357,105.268779 361.127547,103.976354 Z" id="Oval-4-Copy-2" fill="#FFFFFF" opacity="0.199730283" mask="url(#mask-2)" transform="translate(358.000000, 40.000000) rotate(62.000000) translate(-358.000000, -40.000000) "></path>
                    <path d="M7.5100001,226.509461 C38.1765643,225.590628 51.4479213,184.640413 54.4479539,166.795898 C57.4479865,148.951382 53.4656736,134.649366 22.7991094,135.568199 C-7.86745476,136.487032 -7.88210626,148.315843 -35.4620561,169.389041 C-63.042006,190.462239 -23.1565641,227.428295 7.5100001,226.509461 Z" id="Oval-4-Copy-2" fill="#FFFFFF" opacity="0.199730283" mask="url(#mask-2)" transform="translate(5.276038, 181.026272) rotate(-48.000000) translate(-5.276038, -181.026272) "></path>
                    <path d="M330.577174,246.125321 C371.057039,244.913672 388.57523,190.913389 392.535273,167.38216 C396.495316,143.85093 391.238663,124.991129 350.758799,126.202777 C310.278934,127.414425 310.259594,143.012857 273.85406,170.801689 C237.448526,198.590522 290.09731,247.336969 330.577174,246.125321 Z" id="Oval-4-Copy-2" fill="#FFFFFF" opacity="0.199730283" mask="url(#mask-2)" transform="translate(327.628345, 186.147488) rotate(-133.000000) translate(-327.628345, -186.147488) "></path>
                    <path d="M182.755891,83.9763542 C225.689081,82.6839294 244.268981,25.0836272 248.469027,-0.0163508492 C252.669072,-25.1163289 247.093834,-45.2334504 204.160644,-43.9410257 C161.227454,-42.6486009 161.206942,-26.010274 122.595013,3.63114729 C83.9830827,33.2725686 139.822701,85.2687789 182.755891,83.9763542 Z" id="Oval-4-Copy-2" fill="#FFFFFF" opacity="0.199730283" mask="url(#mask-2)" transform="translate(179.628345, 20.000000) rotate(62.000000) translate(-179.628345, -20.000000) "></path>
                    <path d="M539.755891,83.9763542 C582.689081,82.6839294 601.268981,25.0836272 605.469027,-0.0163508492 C609.669072,-25.1163289 604.093834,-45.2334504 561.160644,-43.9410257 C518.227454,-42.6486009 518.206942,-26.010274 479.595013,3.63114729 C440.983083,33.2725686 496.822701,85.2687789 539.755891,83.9763542 Z" id="Oval-4-Copy-2" fill="#FFFFFF" opacity="0.199730283" mask="url(#mask-2)" transform="translate(536.628345, 20.000000) rotate(62.000000) translate(-536.628345, -20.000000) "></path>
                    <path d="M145.021859,229.009697 C187.955049,227.717272 206.534949,170.11697 210.734994,145.016992 C214.93504,119.917014 209.359802,99.7998926 166.426612,101.092317 C123.493422,102.384742 123.47291,119.023069 84.8609804,148.66449 C46.2490506,178.305912 102.088669,230.302122 145.021859,229.009697 Z" id="Oval-4-Copy-2" fill="#FFFFFF" opacity="0.199730283" mask="url(#mask-2)" transform="translate(141.894313, 165.033343) rotate(62.000000) translate(-141.894313, -165.033343) "></path>
                    <path d="M502.021859,229.009697 C544.955049,227.717272 563.534949,170.11697 567.734994,145.016992 C571.93504,119.917014 566.359802,99.7998926 523.426612,101.092317 C480.493422,102.384742 480.47291,119.023069 441.86098,148.66449 C403.249051,178.305912 459.088669,230.302122 502.021859,229.009697 Z" id="Oval-4-Copy-2" fill="#FFFFFF" opacity="0.199730283" mask="url(#mask-2)" transform="translate(498.894313, 165.033343) rotate(62.000000) translate(-498.894313, -165.033343) "></path>
                    <path d="M718.127547,103.976354 C761.060736,102.683929 779.640636,45.0836272 783.840682,19.9836492 C788.040728,-5.11632889 782.46549,-25.2334504 739.5323,-23.9410257 C696.59911,-22.6486009 696.578598,-6.01027403 657.966668,23.6311473 C619.354738,53.2725686 675.194357,105.268779 718.127547,103.976354 Z" id="Oval-4-Copy-2" fill="#FFFFFF" opacity="0.199730283" mask="url(#mask-2)" transform="translate(715.000000, 40.000000) rotate(62.000000) translate(-715.000000, -40.000000) "></path>
                    <path d="M683.443137,231.126244 C722.083007,229.965081 738.804917,178.21481 742.584958,155.664048 C746.364999,133.113287 741.347285,115.03931 702.707414,116.200473 C664.067543,117.361636 664.049083,132.310133 629.298346,158.941097 C594.547609,185.572062 644.803266,232.287407 683.443137,231.126244 Z" id="Oval-4-Copy-2" fill="#FFFFFF" opacity="0.199730283" mask="url(#mask-2)" transform="translate(680.628345, 173.647488) rotate(-161.000000) translate(-680.628345, -173.647488) "></path>
                    <path d="M896.755891,83.9763542 C939.689081,82.6839294 958.268981,25.0836272 962.469027,-0.0163508492 C966.669072,-25.1163289 961.093834,-45.2334504 918.160644,-43.9410257 C875.227454,-42.6486009 875.206942,-26.010274 836.595013,3.63114729 C797.983083,33.2725686 853.822701,85.2687789 896.755891,83.9763542 Z" id="Oval-4-Copy-2" fill="#FFFFFF" opacity="0.199730283" mask="url(#mask-2)" transform="translate(893.628345, 20.000000) rotate(62.000000) translate(-893.628345, -20.000000) "></path>
                    <path d="M859.021859,229.009697 C901.955049,227.717272 920.534949,170.11697 924.734994,145.016992 C928.93504,119.917014 923.359802,99.7998926 880.426612,101.092317 C837.493422,102.384742 837.47291,119.023069 798.86098,148.66449 C760.249051,178.305912 816.088669,230.302122 859.021859,229.009697 Z" id="Oval-4-Copy-2" fill="#FFFFFF" opacity="0.199730283" mask="url(#mask-2)" transform="translate(855.894313, 165.033343) rotate(62.000000) translate(-855.894313, -165.033343) "></path>
                    <path d="M1075.12755,103.976354 C1118.06074,102.683929 1136.64064,45.0836272 1140.84068,19.9836492 C1145.04073,-5.11632889 1139.46549,-25.2334504 1096.5323,-23.9410257 C1053.59911,-22.6486009 1053.5786,-6.01027403 1014.96667,23.6311473 C976.354738,53.2725686 1032.19436,105.268779 1075.12755,103.976354 Z" id="Oval-4-Copy-2" fill="#FFFFFF" opacity="0.199730283" mask="url(#mask-2)" transform="translate(1072.000000, 40.000000) rotate(62.000000) translate(-1072.000000, -40.000000) "></path>
                    <path d="M1020.86231,217.130678 C1051.52887,216.211845 1064.80023,175.26163 1067.80026,157.417114 C1070.80029,139.572598 1066.81798,125.270582 1036.15142,126.189416 C1005.48485,127.108249 1005.4702,138.937059 977.89025,160.010257 C950.3103,181.083455 990.195742,218.049511 1020.86231,217.130678 Z" id="Oval-4-Copy-2" fill="#FFFFFF" opacity="0.199730283" mask="url(#mask-2)" transform="translate(1018.628345, 171.647488) rotate(28.000000) translate(-1018.628345, -171.647488) "></path>
                </g>
            </g>
        </g>
    </g>
</svg>