<?xml version="1.0" encoding="UTF-8"?>
<svg width="786px" height="676px" viewBox="0 0 786 676" version="1.1" xmlns="http://www.w3.org/2000/svg" xmlns:xlink="http://www.w3.org/1999/xlink">
    <!-- Generator: sketchtool 63 (101010) - https://sketch.com -->
    <title>891C5500-66EA-441E-8CBB-B76FF972F88A@3x</title>
    <desc>Created with sketchtool.</desc>
    <g id="P2P-claim-gift" stroke="none" stroke-width="1" fill="none" fill-rule="evenodd" opacity="0.830915179">
        <g transform="translate(-329.000000, -1668.000000)" id="homepage/section-5/map">
            <g transform="translate(329.000000, 1668.000000)">
                <rect id="Rectangle" fill="#EBEDF2" x="0" y="349.5" width="8" height="8"></rect>
                <rect id="Rectangle" fill="#EBEDF2" x="22" y="349.5" width="8" height="8"></rect>
                <rect id="Rectangle" fill="#EBEDF2" x="0" y="372.5" width="8" height="8"></rect>
                <rect id="Rectangle" fill="#EBEDF2" x="22" y="372.5" width="8" height="8"></rect>
                <rect id="Rectangle" fill="#EBEDF2" x="22" y="398.5" width="8" height="8"></rect>
                <rect id="Rectangle" fill="#EBEDF2" x="22" y="423.5" width="8" height="8"></rect>
                <rect id="Rectangle" fill="#EBEDF2" x="22" y="446.5" width="8" height="8"></rect>
                <rect id="Rectangle" fill="#EBEDF2" x="22" y="473.5" width="8" height="8"></rect>
                <rect id="Rectangle" fill="#EBEDF2" x="22" y="349.5" width="8" height="8"></rect>
                <rect id="Rectangle" fill="#EBEDF2" x="22" y="372.5" width="8" height="8"></rect>
                <rect id="Rectangle" fill="#EBEDF2" x="22" y="398.5" width="8" height="8"></rect>
                <rect id="Rectangle" fill="#EBEDF2" x="22" y="423.5" width="8" height="8"></rect>
                <rect id="Rectangle" fill="#EBEDF2" x="22" y="446.5" width="8" height="8"></rect>
                <rect id="Rectangle" fill="#EBEDF2" x="22" y="473.5" width="8" height="8"></rect>
                <rect id="Rectangle" fill="#EBEDF2" x="22" y="349.5" width="8" height="8"></rect>
                <rect id="Rectangle" fill="#EBEDF2" x="22" y="372.5" width="8" height="8"></rect>
                <rect id="Rectangle" fill="#EBEDF2" x="22" y="398.5" width="8" height="8"></rect>
                <rect id="Rectangle" fill="#EBEDF2" x="22" y="423.5" width="8" height="8"></rect>
                <rect id="Rectangle" fill="#EBEDF2" x="22" y="446.5" width="8" height="8"></rect>
                <rect id="Rectangle" fill="#EBEDF2" x="22" y="473.5" width="8" height="8"></rect>
                <rect id="Rectangle" fill="#EBEDF2" x="22" y="349.5" width="8" height="8"></rect>
                <rect id="Rectangle" fill="#EBEDF2" x="22" y="372.5" width="8" height="8"></rect>
                <rect id="Rectangle" fill="#EBEDF2" x="22" y="398.5" width="8" height="8"></rect>
                <rect id="Rectangle" fill="#EBEDF2" x="22" y="423.5" width="8" height="8"></rect>
                <rect id="Rectangle" fill="#EBEDF2" x="22" y="446.5" width="8" height="8"></rect>
                <rect id="Rectangle" fill="#EBEDF2" x="22" y="473.5" width="8" height="8"></rect>
                <rect id="Rectangle" fill="#EBEDF2" x="22" y="349.5" width="8" height="8"></rect>
                <rect id="Rectangle" fill="#EBEDF2" x="22" y="372.5" width="8" height="8"></rect>
                <rect id="Rectangle" fill="#EBEDF2" x="22" y="398.5" width="8" height="8"></rect>
                <rect id="Rectangle" fill="#EBEDF2" x="22" y="423.5" width="8" height="8"></rect>
                <rect id="Rectangle" fill="#EBEDF2" x="22" y="446.5" width="8" height="8"></rect>
                <rect id="Rectangle" fill="#EBEDF2" x="22" y="473.5" width="8" height="8"></rect>
                <rect id="Rectangle" fill="#EBEDF2" x="22" y="349.5" width="8" height="8"></rect>
                <rect id="Rectangle" fill="#EBEDF2" x="22" y="372.5" width="8" height="8"></rect>
                <rect id="Rectangle" fill="#EBEDF2" x="22" y="398.5" width="8" height="8"></rect>
                <rect id="Rectangle" fill="#EBEDF2" x="22" y="423.5" width="8" height="8"></rect>
                <rect id="Rectangle" fill="#EBEDF2" x="22" y="446.5" width="8" height="8"></rect>
                <rect id="Rectangle" fill="#EBEDF2" x="22" y="473.5" width="8" height="8"></rect>
                <rect id="Rectangle" fill="#EBEDF2" x="22" y="349.5" width="8" height="8"></rect>
                <rect id="Rectangle" fill="#EBEDF2" x="22" y="372.5" width="8" height="8"></rect>
                <rect id="Rectangle" fill="#EBEDF2" x="22" y="398.5" width="8" height="8"></rect>
                <rect id="Rectangle" fill="#EBEDF2" x="22" y="423.5" width="8" height="8"></rect>
                <rect id="Rectangle" fill="#EBEDF2" x="22" y="446.5" width="8" height="8"></rect>
                <rect id="Rectangle" fill="#EBEDF2" x="22" y="473.5" width="8" height="8"></rect>
                <rect id="Rectangle" fill="#EBEDF2" x="46" y="322.5" width="8" height="8"></rect>
                <rect id="Rectangle" fill="#EBEDF2" x="22" y="349.5" width="8" height="8"></rect>
                <rect id="Rectangle" fill="#EBEDF2" x="46" y="349.5" width="8" height="8"></rect>
                <rect id="Rectangle" fill="#EBEDF2" x="22" y="372.5" width="8" height="8"></rect>
                <rect id="Rectangle" fill="#EBEDF2" x="46" y="372.5" width="8" height="8"></rect>
                <rect id="Rectangle" fill="#EBEDF2" x="22" y="398.5" width="8" height="8"></rect>
                <rect id="Rectangle" fill="#EBEDF2" x="46" y="398.5" width="8" height="8"></rect>
                <rect id="Rectangle" fill="#EBEDF2" x="22" y="423.5" width="8" height="8"></rect>
                <rect id="Rectangle" fill="#EBEDF2" x="46" y="423.5" width="8" height="8"></rect>
                <rect id="Rectangle" fill="#EBEDF2" x="22" y="446.5" width="8" height="8"></rect>
                <rect id="Rectangle" fill="#EBEDF2" x="46" y="446.5" width="8" height="8"></rect>
                <rect id="Rectangle" fill="#EBEDF2" x="22" y="473.5" width="8" height="8"></rect>
                <rect id="Rectangle" fill="#EBEDF2" x="46" y="473.5" width="8" height="8"></rect>
                <rect id="Rectangle" fill="#EBEDF2" x="46" y="198.5" width="8" height="8"></rect>
                <rect id="Rectangle" fill="#EBEDF2" x="46" y="222.5" width="8" height="8"></rect>
                <rect id="Rectangle" fill="#EBEDF2" x="46" y="247.5" width="8" height="8"></rect>
                <rect id="Rectangle" fill="#EBEDF2" x="46" y="272.5" width="8" height="8"></rect>
                <rect id="Rectangle" fill="#EBEDF2" x="46" y="298.5" width="8" height="8"></rect>
                <rect id="Rectangle" fill="#EBEDF2" x="70" y="322.5" width="8" height="8"></rect>
                <rect id="Rectangle" fill="#EBEDF2" x="70" y="349.5" width="8" height="8"></rect>
                <rect id="Rectangle" fill="#EBEDF2" x="70" y="372.5" width="8" height="8"></rect>
                <rect id="Rectangle" fill="#EBEDF2" x="70" y="398.5" width="8" height="8"></rect>
                <rect id="Rectangle" fill="#EBEDF2" x="70" y="423.5" width="8" height="8"></rect>
                <rect id="Rectangle" fill="#EBEDF2" x="70" y="446.5" width="8" height="8"></rect>
                <rect id="Rectangle" fill="#EBEDF2" x="70" y="473.5" width="8" height="8"></rect>
                <rect id="Rectangle" fill="#EBEDF2" x="70" y="198.5" width="8" height="8"></rect>
                <rect id="Rectangle" fill="#EBEDF2" x="70" y="222.5" width="8" height="8"></rect>
                <rect id="Rectangle" fill="#EBEDF2" x="70" y="247.5" width="8" height="8"></rect>
                <rect id="Rectangle" fill="#EBEDF2" x="70" y="272.5" width="8" height="8"></rect>
                <rect id="Rectangle" fill="#EBEDF2" x="70" y="298.5" width="8" height="8"></rect>
                <rect id="Rectangle" fill="#E8C7F0" x="95" y="496.5" width="8" height="8"></rect>
                <rect id="Rectangle" fill="#EBEDF2" x="95" y="322.5" width="8" height="8"></rect>
                <rect id="Rectangle" fill="#E8C7F0" x="95" y="349.5" width="8" height="8"></rect>
                <rect id="Rectangle" fill="#E8C7F0" x="95" y="372.5" width="8" height="8"></rect>
                <rect id="Rectangle" fill="#EBEDF2" x="95" y="398.5" width="8" height="8"></rect>
                <rect id="Rectangle" fill="#EBEDF2" x="95" y="423.5" width="8" height="8"></rect>
                <rect id="Rectangle" fill="#EBEDF2" x="95" y="446.5" width="8" height="8"></rect>
                <rect id="Rectangle" fill="#EBEDF2" x="95" y="473.5" width="8" height="8"></rect>
                <rect id="Rectangle" fill="#EBEDF2" x="95" y="149.5" width="8" height="8"></rect>
                <rect id="Rectangle" fill="#EBEDF2" x="95" y="173.5" width="8" height="8"></rect>
                <rect id="Rectangle" fill="#EBEDF2" x="95" y="198.5" width="8" height="8"></rect>
                <rect id="Rectangle" fill="#EBEDF2" x="95" y="222.5" width="8" height="8"></rect>
                <rect id="Rectangle" fill="#EBEDF2" x="95" y="247.5" width="8" height="8"></rect>
                <rect id="Rectangle" fill="#EBEDF2" x="95" y="272.5" width="8" height="8"></rect>
                <rect id="Rectangle" fill="#EBEDF2" x="95" y="298.5" width="8" height="8"></rect>
                <rect id="Rectangle" fill="#EBEDF2" x="117" y="496.5" width="8" height="8"></rect>
                <rect id="Rectangle" fill="#EBEDF2" x="117" y="322.5" width="8" height="8"></rect>
                <rect id="Rectangle" fill="#EBEDF2" x="117" y="349.5" width="8" height="8"></rect>
                <rect id="Rectangle" fill="#EBEDF2" x="117" y="372.5" width="8" height="8"></rect>
                <rect id="Rectangle" fill="#EBEDF2" x="117" y="398.5" width="8" height="8"></rect>
                <rect id="Rectangle" fill="#EBEDF2" x="117" y="423.5" width="8" height="8"></rect>
                <rect id="Rectangle" fill="#EBEDF2" x="117" y="446.5" width="8" height="8"></rect>
                <rect id="Rectangle" fill="#EBEDF2" x="117" y="473.5" width="8" height="8"></rect>
                <rect id="Rectangle" fill="#EBEDF2" x="117" y="149.5" width="8" height="8"></rect>
                <rect id="Rectangle" fill="#EBEDF2" x="117" y="173.5" width="8" height="8"></rect>
                <rect id="Rectangle" fill="#EBEDF2" x="117" y="198.5" width="8" height="8"></rect>
                <rect id="Rectangle" fill="#EBEDF2" x="117" y="222.5" width="8" height="8"></rect>
                <rect id="Rectangle" fill="#EBEDF2" x="117" y="247.5" width="8" height="8"></rect>
                <rect id="Rectangle" fill="#EBEDF2" x="117" y="272.5" width="8" height="8"></rect>
                <rect id="Rectangle" fill="#EBEDF2" x="117" y="298.5" width="8" height="8"></rect>
                <rect id="Rectangle" fill="#EBEDF2" x="141" y="496.5" width="8" height="8"></rect>
                <rect id="Rectangle" fill="#EBEDF2" x="141" y="322.5" width="8" height="8"></rect>
                <rect id="Rectangle" fill="#EBEDF2" x="141" y="520.5" width="8" height="8"></rect>
                <rect id="Rectangle" fill="#EBEDF2" x="141" y="349.5" width="8" height="8"></rect>
                <rect id="Rectangle" fill="#EBEDF2" x="141" y="372.5" width="8" height="8"></rect>
                <rect id="Rectangle" fill="#EBEDF2" x="141" y="398.5" width="8" height="8"></rect>
                <rect id="Rectangle" fill="#EBEDF2" x="141" y="423.5" width="8" height="8"></rect>
                <rect id="Rectangle" fill="#EBEDF2" x="141" y="446.5" width="8" height="8"></rect>
                <rect id="Rectangle" fill="#EBEDF2" x="165" y="349.5" width="8" height="8"></rect>
                <rect id="Rectangle" fill="#EBEDF2" x="165" y="372.5" width="8" height="8"></rect>
                <rect id="Rectangle" fill="#EBEDF2" x="165" y="398.5" width="8" height="8"></rect>
                <rect id="Rectangle" fill="#EBEDF2" x="165" y="423.5" width="8" height="8"></rect>
                <rect id="Rectangle" fill="#EBEDF2" x="165" y="446.5" width="8" height="8"></rect>
                <rect id="Rectangle" fill="#EBEDF2" x="165" y="473.5" width="8" height="8"></rect>
                <rect id="Rectangle" fill="#EBEDF2" x="189" y="496.5" width="8" height="8"></rect>
                <rect id="Rectangle" fill="#EBEDF2" x="189" y="520.5" width="8" height="8"></rect>
                <rect id="Rectangle" fill="#CDD3E4" x="191" y="349.5" width="8" height="8"></rect>
                <rect id="Rectangle" fill="#EBEDF2" x="189" y="372.5" width="8" height="8"></rect>
                <rect id="Rectangle" fill="#EBEDF2" x="189" y="398.5" width="8" height="8"></rect>
                <rect id="Rectangle" fill="#EBEDF2" x="189" y="423.5" width="8" height="8"></rect>
                <rect id="Rectangle" fill="#EBEDF2" x="189" y="446.5" width="8" height="8"></rect>
                <rect id="Rectangle" fill="#EBEDF2" x="189" y="473.5" width="8" height="8"></rect>
                <rect id="Rectangle" fill="#EBEDF2" x="212" y="496.5" width="8" height="8"></rect>
                <rect id="Rectangle" fill="#EBEDF2" x="212" y="520.5" width="8" height="8"></rect>
                <rect id="Rectangle" fill="#EBEDF2" x="212" y="349.5" width="8" height="8"></rect>
                <rect id="Rectangle" fill="#EBEDF2" x="212" y="545.5" width="8" height="8"></rect>
                <rect id="Rectangle" fill="#EBEDF2" x="212" y="372.5" width="8" height="8"></rect>
                <rect id="Rectangle" fill="#EBEDF2" x="212" y="398.5" width="8" height="8"></rect>
                <rect id="Rectangle" fill="#EBEDF2" x="212" y="423.5" width="8" height="8"></rect>
                <rect id="Rectangle" fill="#EBEDF2" x="212" y="446.5" width="8" height="8"></rect>
                <rect id="Rectangle" fill="#EBEDF2" x="212" y="473.5" width="8" height="8"></rect>
                <rect id="Rectangle" fill="#EBEDF2" x="141" y="473.5" width="8" height="8"></rect>
                <rect id="Rectangle" fill="#EBEDF2" x="141" y="149.5" width="8" height="8"></rect>
                <rect id="Rectangle" fill="#EBEDF2" x="141" y="173.5" width="8" height="8"></rect>
                <rect id="Rectangle" fill="#EBEDF2" x="141" y="198.5" width="8" height="8"></rect>
                <rect id="Rectangle" fill="#EBEDF2" x="141" y="222.5" width="8" height="8"></rect>
                <rect id="Rectangle" fill="#EBEDF2" x="141" y="247.5" width="8" height="8"></rect>
                <rect id="Rectangle" fill="#EBEDF2" x="141" y="272.5" width="8" height="8"></rect>
                <rect id="Rectangle" fill="#EBEDF2" x="141" y="298.5" width="8" height="8"></rect>
                <rect id="Rectangle" fill="#EBEDF2" x="141" y="122.5" width="8" height="8"></rect>
                <rect id="Rectangle" fill="#EBEDF2" x="165" y="496.5" width="8" height="8"></rect>
                <rect id="Rectangle" fill="#EBEDF2" x="165" y="322.5" width="8" height="8"></rect>
                <rect id="Rectangle" fill="#EBEDF2" x="165" y="520.5" width="8" height="8"></rect>
                <rect id="Rectangle" fill="#EBEDF2" x="165" y="149.5" width="8" height="8"></rect>
                <rect id="Rectangle" fill="#EBEDF2" x="165" y="173.5" width="8" height="8"></rect>
                <rect id="Rectangle" fill="#EBEDF2" x="165" y="198.5" width="8" height="8"></rect>
                <rect id="Rectangle" fill="#EBEDF2" x="165" y="222.5" width="8" height="8"></rect>
                <rect id="Rectangle" fill="#EBEDF2" x="165" y="247.5" width="8" height="8"></rect>
                <rect id="Rectangle" fill="#EBEDF2" x="165" y="272.5" width="8" height="8"></rect>
                <rect id="Rectangle" fill="#EBEDF2" x="165" y="298.5" width="8" height="8"></rect>
                <rect id="Rectangle" fill="#EBEDF2" x="189" y="322.5" width="8" height="8"></rect>
                <rect id="Rectangle" fill="#EBEDF2" x="189" y="149.5" width="8" height="8"></rect>
                <rect id="Rectangle" fill="#EBEDF2" x="189" y="173.5" width="8" height="8"></rect>
                <rect id="Rectangle" fill="#EBEDF2" x="189" y="198.5" width="8" height="8"></rect>
                <rect id="Rectangle" fill="#EBEDF2" x="189" y="222.5" width="8" height="8"></rect>
                <rect id="Rectangle" fill="#EBEDF2" x="189" y="247.5" width="8" height="8"></rect>
                <rect id="Rectangle" fill="#E8C7F0" x="189" y="272.5" width="8" height="8"></rect>
                <rect id="Rectangle" fill="#EBEDF2" x="189" y="298.5" width="8" height="8"></rect>
                <rect id="Rectangle" fill="#EBEDF2" x="212" y="322.5" width="8" height="8"></rect>
                <rect id="Rectangle" fill="#EBEDF2" x="212" y="149.5" width="8" height="8"></rect>
                <rect id="Rectangle" fill="#EBEDF2" x="212" y="173.5" width="8" height="8"></rect>
                <rect id="Rectangle" fill="#EBEDF2" x="212" y="198.5" width="8" height="8"></rect>
                <rect id="Rectangle" fill="#EBEDF2" x="212" y="222.5" width="8" height="8"></rect>
                <rect id="Rectangle" fill="#EBEDF2" x="212" y="247.5" width="8" height="8"></rect>
                <rect id="Rectangle" fill="#EBEDF2" x="212" y="272.5" width="8" height="8"></rect>
                <rect id="Rectangle" fill="#EBEDF2" x="212" y="298.5" width="8" height="8"></rect>
                <rect id="Rectangle" fill="#EBEDF2" x="234" y="496.5" width="8" height="8"></rect>
                <rect id="Rectangle" fill="#EBEDF2" x="234" y="520.5" width="8" height="8"></rect>
                <rect id="Rectangle" fill="#E8C7F0" x="234" y="349.5" width="8" height="8"></rect>
                <rect id="Rectangle" fill="#EBEDF2" x="234" y="545.5" width="8" height="8"></rect>
                <rect id="Rectangle" fill="#EBEDF2" x="234" y="372.5" width="8" height="8"></rect>
                <rect id="Rectangle" fill="#EBEDF2" x="234" y="398.5" width="8" height="8"></rect>
                <rect id="Rectangle" fill="#EBEDF2" x="234" y="423.5" width="8" height="8"></rect>
                <rect id="Rectangle" fill="#EBEDF2" x="234" y="446.5" width="8" height="8"></rect>
                <rect id="Rectangle" fill="#EBEDF2" x="234" y="473.5" width="8" height="8"></rect>
                <rect id="Rectangle" fill="#EBEDF2" x="260" y="496.5" width="8" height="8"></rect>
                <rect id="Rectangle" fill="#EBEDF2" x="260" y="520.5" width="8" height="8"></rect>
                <rect id="Rectangle" fill="#EBEDF2" x="260" y="349.5" width="8" height="8"></rect>
                <rect id="Rectangle" fill="#EBEDF2" x="260" y="545.5" width="8" height="8"></rect>
                <rect id="Rectangle" fill="#EBEDF2" x="260" y="372.5" width="8" height="8"></rect>
                <rect id="Rectangle" fill="#EBEDF2" x="260" y="398.5" width="8" height="8"></rect>
                <rect id="Rectangle" fill="#EBEDF2" x="260" y="423.5" width="8" height="8"></rect>
                <rect id="Rectangle" fill="#EBEDF2" x="260" y="446.5" width="8" height="8"></rect>
                <rect id="Rectangle" fill="#EBEDF2" x="260" y="473.5" width="8" height="8"></rect>
                <rect id="Rectangle" fill="#EBEDF2" x="284" y="496.5" width="8" height="8"></rect>
                <rect id="Rectangle" fill="#EBEDF2" x="284" y="520.5" width="8" height="8"></rect>
                <rect id="Rectangle" fill="#EBEDF2" x="284" y="349.5" width="8" height="8"></rect>
                <rect id="Rectangle" fill="#EBEDF2" x="284" y="545.5" width="8" height="8"></rect>
                <rect id="Rectangle" fill="#EBEDF2" x="284" y="372.5" width="8" height="8"></rect>
                <rect id="Rectangle" fill="#EBEDF2" x="284" y="398.5" width="8" height="8"></rect>
                <rect id="Rectangle" fill="#EBEDF2" x="284" y="423.5" width="8" height="8"></rect>
                <rect id="Rectangle" fill="#EBEDF2" x="284" y="446.5" width="8" height="8"></rect>
                <rect id="Rectangle" fill="#EBEDF2" x="284" y="473.5" width="8" height="8"></rect>
                <rect id="Rectangle" fill="#EBEDF2" x="308" y="496.5" width="8" height="8"></rect>
                <rect id="Rectangle" fill="#EBEDF2" x="308" y="520.5" width="8" height="8"></rect>
                <rect id="Rectangle" fill="#EBEDF2" x="308" y="545.5" width="8" height="8"></rect>
                <rect id="Rectangle" fill="#EBEDF2" x="234" y="322.5" width="8" height="8"></rect>
                <rect id="Rectangle" fill="#EBEDF2" x="234" y="149.5" width="8" height="8"></rect>
                <rect id="Rectangle" fill="#EBEDF2" x="234" y="173.5" width="8" height="8"></rect>
                <rect id="Rectangle" fill="#EBEDF2" x="234" y="198.5" width="8" height="8"></rect>
                <rect id="Rectangle" fill="#EBEDF2" x="234" y="222.5" width="8" height="8"></rect>
                <rect id="Rectangle" fill="#EBEDF2" x="234" y="247.5" width="8" height="8"></rect>
                <rect id="Rectangle" fill="#EBEDF2" x="234" y="272.5" width="8" height="8"></rect>
                <rect id="Rectangle" fill="#EBEDF2" x="234" y="298.5" width="8" height="8"></rect>
                <rect id="Rectangle" fill="#EBEDF2" x="234" y="122.5" width="8" height="8"></rect>
                <rect id="Rectangle" fill="#EBEDF2" x="260" y="322.5" width="8" height="8"></rect>
                <rect id="Rectangle" fill="#EBEDF2" x="260" y="149.5" width="8" height="8"></rect>
                <rect id="Rectangle" fill="#EBEDF2" x="260" y="173.5" width="8" height="8"></rect>
                <rect id="Rectangle" fill="#EBEDF2" x="260" y="198.5" width="8" height="8"></rect>
                <rect id="Rectangle" fill="#EBEDF2" x="260" y="222.5" width="8" height="8"></rect>
                <rect id="Rectangle" fill="#EBEDF2" x="260" y="247.5" width="8" height="8"></rect>
                <rect id="Rectangle" fill="#EBEDF2" x="260" y="272.5" width="8" height="8"></rect>
                <rect id="Rectangle" fill="#EBEDF2" x="260" y="298.5" width="8" height="8"></rect>
                <rect id="Rectangle" fill="#EBEDF2" x="260" y="99.5" width="8" height="8"></rect>
                <rect id="Rectangle" fill="#EBEDF2" x="260" y="122.5" width="8" height="8"></rect>
                <rect id="Rectangle" fill="#EBEDF2" x="284" y="322.5" width="8" height="8"></rect>
                <rect id="Rectangle" fill="#EBEDF2" x="284" y="173.5" width="8" height="8"></rect>
                <rect id="Rectangle" fill="#EBEDF2" x="284" y="198.5" width="8" height="8"></rect>
                <rect id="Rectangle" fill="#EBEDF2" x="284" y="222.5" width="8" height="8"></rect>
                <rect id="Rectangle" fill="#EBEDF2" x="284" y="247.5" width="8" height="8"></rect>
                <rect id="Rectangle" fill="#EBEDF2" x="284" y="272.5" width="8" height="8"></rect>
                <rect id="Rectangle" fill="#EBEDF2" x="284" y="298.5" width="8" height="8"></rect>
                <rect id="Rectangle" fill="#EBEDF2" x="284" y="99.5" width="8" height="8"></rect>
                <rect id="Rectangle" fill="#EBEDF2" x="284" y="122.5" width="8" height="8"></rect>
                <rect id="Rectangle" fill="#EBEDF2" x="308" y="322.5" width="8" height="8"></rect>
                <rect id="Rectangle" fill="#EBEDF2" x="308" y="349.5" width="8" height="8"></rect>
                <rect id="Rectangle" fill="#EBEDF2" x="308" y="372.5" width="8" height="8"></rect>
                <rect id="Rectangle" fill="#EBEDF2" x="308" y="398.5" width="8" height="8"></rect>
                <rect id="Rectangle" fill="#EBEDF2" x="308" y="423.5" width="8" height="8"></rect>
                <rect id="Rectangle" fill="#EBEDF2" x="308" y="446.5" width="8" height="8"></rect>
                <rect id="Rectangle" fill="#EBEDF2" x="308" y="473.5" width="8" height="8"></rect>
                <rect id="Rectangle" fill="#EBEDF2" x="308" y="173.5" width="8" height="8"></rect>
                <rect id="Rectangle" fill="#EBEDF2" x="308" y="198.5" width="8" height="8"></rect>
                <rect id="Rectangle" fill="#EBEDF2" x="308" y="222.5" width="8" height="8"></rect>
                <rect id="Rectangle" fill="#EBEDF2" x="308" y="247.5" width="8" height="8"></rect>
                <rect id="Rectangle" fill="#EBEDF2" x="308" y="272.5" width="8" height="8"></rect>
                <rect id="Rectangle" fill="#EBEDF2" x="308" y="298.5" width="8" height="8"></rect>
                <rect id="Rectangle" fill="#EBEDF2" x="308" y="74.5" width="8" height="8"></rect>
                <rect id="Rectangle" fill="#EBEDF2" x="308" y="99.5" width="8" height="8"></rect>
                <rect id="Rectangle" fill="#EBEDF2" x="308" y="122.5" width="8" height="8"></rect>
                <rect id="Rectangle" fill="#EBEDF2" x="330" y="496.5" width="8" height="8"></rect>
                <rect id="Rectangle" fill="#EBEDF2" x="330" y="322.5" width="8" height="8"></rect>
                <rect id="Rectangle" fill="#EBEDF2" x="330" y="520.5" width="8" height="8"></rect>
                <rect id="Rectangle" fill="#EBEDF2" x="330" y="349.5" width="8" height="8"></rect>
                <rect id="Rectangle" fill="#EBEDF2" x="330" y="545.5" width="8" height="8"></rect>
                <rect id="Rectangle" fill="#EBEDF2" x="330" y="372.5" width="8" height="8"></rect>
                <rect id="Rectangle" fill="#EBEDF2" x="330" y="571.5" width="8" height="8"></rect>
                <rect id="Rectangle" fill="#EBEDF2" x="330" y="398.5" width="8" height="8"></rect>
                <rect id="Rectangle" fill="#EBEDF2" x="330" y="423.5" width="8" height="8"></rect>
                <rect id="Rectangle" fill="#EBEDF2" x="330" y="446.5" width="8" height="8"></rect>
                <rect id="Rectangle" fill="#EBEDF2" x="330" y="473.5" width="8" height="8"></rect>
                <rect id="Rectangle" fill="#EBEDF2" x="330" y="173.5" width="8" height="8"></rect>
                <rect id="Rectangle" fill="#EBEDF2" x="330" y="222.5" width="8" height="8"></rect>
                <rect id="Rectangle" fill="#EBEDF2" x="330" y="272.5" width="8" height="8"></rect>
                <rect id="Rectangle" fill="#EBEDF2" x="330" y="298.5" width="8" height="8"></rect>
                <rect id="Rectangle" fill="#EBEDF2" x="330" y="74.5" width="8" height="8"></rect>
                <rect id="Rectangle" fill="#EBEDF2" x="330" y="122.5" width="8" height="8"></rect>
                <rect id="Rectangle" fill="#EBEDF2" x="354" y="496.5" width="8" height="8"></rect>
                <rect id="Rectangle" fill="#EBEDF2" x="354" y="322.5" width="8" height="8"></rect>
                <rect id="Rectangle" fill="#EBEDF2" x="354" y="520.5" width="8" height="8"></rect>
                <rect id="Rectangle" fill="#EBEDF2" x="354" y="349.5" width="8" height="8"></rect>
                <rect id="Rectangle" fill="#CDD3E4" x="356" y="545.5" width="8" height="8"></rect>
                <rect id="Rectangle" fill="#EBEDF2" x="354" y="372.5" width="8" height="8"></rect>
                <rect id="Rectangle" fill="#EBEDF2" x="354" y="571.5" width="8" height="8"></rect>
                <rect id="Rectangle" fill="#EBEDF2" x="354" y="398.5" width="8" height="8"></rect>
                <rect id="Rectangle" fill="#EBEDF2" x="354" y="423.5" width="8" height="8"></rect>
                <rect id="Rectangle" fill="#EBEDF2" x="354" y="446.5" width="8" height="8"></rect>
                <rect id="Rectangle" fill="#EBEDF2" x="354" y="473.5" width="8" height="8"></rect>
                <rect id="Rectangle" fill="#EBEDF2" x="354" y="149.5" width="8" height="8"></rect>
                <rect id="Rectangle" fill="#EBEDF2" x="354" y="173.5" width="8" height="8"></rect>
                <rect id="Rectangle" fill="#EBEDF2" x="354" y="198.5" width="8" height="8"></rect>
                <rect id="Rectangle" fill="#EBEDF2" x="354" y="222.5" width="8" height="8"></rect>
                <rect id="Rectangle" fill="#EBEDF2" x="354" y="247.5" width="8" height="8"></rect>
                <rect id="Rectangle" fill="#EBEDF2" x="354" y="272.5" width="8" height="8"></rect>
                <rect id="Rectangle" fill="#EBEDF2" x="354" y="298.5" width="8" height="8"></rect>
                <rect id="Rectangle" fill="#EBEDF2" x="354" y="74.5" width="8" height="8"></rect>
                <rect id="Rectangle" fill="#EBEDF2" x="354" y="99.5" width="8" height="8"></rect>
                <rect id="Rectangle" fill="#EBEDF2" x="354" y="122.5" width="8" height="8"></rect>
                <rect id="Rectangle" fill="#EBEDF2" x="378" y="496.5" width="8" height="8"></rect>
                <rect id="Rectangle" fill="#EBEDF2" x="378" y="322.5" width="8" height="8"></rect>
                <rect id="Rectangle" fill="#CDD3E4" x="378" y="520.5" width="8" height="8"></rect>
                <rect id="Rectangle" fill="#EBEDF2" x="378" y="349.5" width="8" height="8"></rect>
                <rect id="Rectangle" fill="#EBEDF2" x="378" y="545.5" width="8" height="8"></rect>
                <rect id="Rectangle" fill="#EBEDF2" x="378" y="571.5" width="8" height="8"></rect>
                <rect id="Rectangle" fill="#EBEDF2" x="378" y="446.5" width="8" height="8"></rect>
                <rect id="Rectangle" fill="#EBEDF2" x="378" y="473.5" width="8" height="8"></rect>
                <rect id="Rectangle" fill="#EBEDF2" x="378" y="149.5" width="8" height="8"></rect>
                <rect id="Rectangle" fill="#EBEDF2" x="378" y="173.5" width="8" height="8"></rect>
                <rect id="Rectangle" fill="#EBEDF2" x="378" y="222.5" width="8" height="8"></rect>
                <rect id="Rectangle" fill="#EBEDF2" x="378" y="247.5" width="8" height="8"></rect>
                <rect id="Rectangle" fill="#EBEDF2" x="378" y="272.5" width="8" height="8"></rect>
                <rect id="Rectangle" fill="#EBEDF2" x="378" y="298.5" width="8" height="8"></rect>
                <rect id="Rectangle" fill="#EBEDF2" x="378" y="48.5" width="8" height="8"></rect>
                <rect id="Rectangle" fill="#EBEDF2" x="378" y="74.5" width="8" height="8"></rect>
                <rect id="Rectangle" fill="#EBEDF2" x="378" y="99.5" width="8" height="8"></rect>
                <rect id="Rectangle" fill="#EBEDF2" x="378" y="122.5" width="8" height="8"></rect>
                <rect id="Rectangle" fill="#EBEDF2" x="400" y="496.5" width="8" height="8"></rect>
                <rect id="Rectangle" fill="#EBEDF2" x="400" y="322.5" width="8" height="8"></rect>
                <rect id="Rectangle" fill="#EBEDF2" x="400" y="520.5" width="8" height="8"></rect>
                <rect id="Rectangle" fill="#EBEDF2" x="400" y="545.5" width="8" height="8"></rect>
                <rect id="Rectangle" fill="#EBEDF2" x="400" y="571.5" width="8" height="8"></rect>
                <rect id="Rectangle" fill="#EBEDF2" x="400" y="446.5" width="8" height="8"></rect>
                <rect id="Rectangle" fill="#EBEDF2" x="400" y="473.5" width="8" height="8"></rect>
                <rect id="Rectangle" fill="#EBEDF2" x="400" y="149.5" width="8" height="8"></rect>
                <rect id="Rectangle" fill="#EBEDF2" x="400" y="173.5" width="8" height="8"></rect>
                <rect id="Rectangle" fill="#EBEDF2" x="400" y="198.5" width="8" height="8"></rect>
                <rect id="Rectangle" fill="#EBEDF2" x="400" y="222.5" width="8" height="8"></rect>
                <rect id="Rectangle" fill="#EBEDF2" x="400" y="247.5" width="8" height="8"></rect>
                <rect id="Rectangle" fill="#EBEDF2" x="400" y="272.5" width="8" height="8"></rect>
                <rect id="Rectangle" fill="#EBEDF2" x="400" y="298.5" width="8" height="8"></rect>
                <rect id="Rectangle" fill="#EBEDF2" x="400" y="25.5" width="8" height="8"></rect>
                <rect id="Rectangle" fill="#EBEDF2" x="400" y="48.5" width="8" height="8"></rect>
                <rect id="Rectangle" fill="#EBEDF2" x="400" y="74.5" width="8" height="8"></rect>
                <rect id="Rectangle" fill="#EBEDF2" x="400" y="99.5" width="8" height="8"></rect>
                <rect id="Rectangle" fill="#EBEDF2" x="400" y="122.5" width="8" height="8"></rect>
                <rect id="Rectangle" fill="#EBEDF2" x="424" y="496.5" width="8" height="8"></rect>
                <rect id="Rectangle" fill="#EBEDF2" x="424" y="322.5" width="8" height="8"></rect>
                <rect id="Rectangle" fill="#EBEDF2" x="424" y="520.5" width="8" height="8"></rect>
                <rect id="Rectangle" fill="#EBEDF2" x="424" y="545.5" width="8" height="8"></rect>
                <rect id="Rectangle" fill="#EBEDF2" x="424" y="571.5" width="8" height="8"></rect>
                <rect id="Rectangle" fill="#EBEDF2" x="424" y="473.5" width="8" height="8"></rect>
                <rect id="Rectangle" fill="#EBEDF2" x="424" y="149.5" width="8" height="8"></rect>
                <rect id="Rectangle" fill="#EBEDF2" x="424" y="173.5" width="8" height="8"></rect>
                <rect id="Rectangle" fill="#EBEDF2" x="424" y="198.5" width="8" height="8"></rect>
                <rect id="Rectangle" fill="#EBEDF2" x="424" y="222.5" width="8" height="8"></rect>
                <rect id="Rectangle" fill="#EBEDF2" x="424" y="247.5" width="8" height="8"></rect>
                <rect id="Rectangle" fill="#EBEDF2" x="424" y="272.5" width="8" height="8"></rect>
                <rect id="Rectangle" fill="#EBEDF2" x="424" y="298.5" width="8" height="8"></rect>
                <rect id="Rectangle" fill="#EBEDF2" x="424" y="0.5" width="8" height="8"></rect>
                <rect id="Rectangle" fill="#EBEDF2" x="424" y="25.5" width="8" height="8"></rect>
                <rect id="Rectangle" fill="#EBEDF2" x="424" y="48.5" width="8" height="8"></rect>
                <rect id="Rectangle" fill="#EBEDF2" x="424" y="74.5" width="8" height="8"></rect>
                <rect id="Rectangle" fill="#EBEDF2" x="424" y="99.5" width="8" height="8"></rect>
                <rect id="Rectangle" fill="#EBEDF2" x="424" y="122.5" width="8" height="8"></rect>
                <rect id="Rectangle" fill="#EBEDF2" x="448" y="496.5" width="8" height="8"></rect>
                <rect id="Rectangle" fill="#EBEDF2" x="448" y="520.5" width="8" height="8"></rect>
                <rect id="Rectangle" fill="#EBEDF2" x="448" y="349.5" width="8" height="8"></rect>
                <rect id="Rectangle" fill="#EBEDF2" x="448" y="545.5" width="8" height="8"></rect>
                <rect id="Rectangle" fill="#EBEDF2" x="448" y="571.5" width="8" height="8"></rect>
                <rect id="Rectangle" fill="#EBEDF2" x="448" y="473.5" width="8" height="8"></rect>
                <rect id="Rectangle" fill="#EBEDF2" x="448" y="173.5" width="8" height="8"></rect>
                <rect id="Rectangle" fill="#EBEDF2" x="448" y="198.5" width="8" height="8"></rect>
                <rect id="Rectangle" fill="#EBEDF2" x="448" y="222.5" width="8" height="8"></rect>
                <rect id="Rectangle" fill="#EBEDF2" x="448" y="247.5" width="8" height="8"></rect>
                <rect id="Rectangle" fill="#EBEDF2" x="448" y="0.5" width="8" height="8"></rect>
                <rect id="Rectangle" fill="#EBEDF2" x="448" y="25.5" width="8" height="8"></rect>
                <rect id="Rectangle" fill="#EBEDF2" x="448" y="48.5" width="8" height="8"></rect>
                <rect id="Rectangle" fill="#EBEDF2" x="470" y="496.5" width="8" height="8"></rect>
                <rect id="Rectangle" fill="#EBEDF2" x="470" y="520.5" width="8" height="8"></rect>
                <rect id="Rectangle" fill="#EBEDF2" x="470" y="349.5" width="8" height="8"></rect>
                <rect id="Rectangle" fill="#EBEDF2" x="470" y="545.5" width="8" height="8"></rect>
                <rect id="Rectangle" fill="#EBEDF2" x="470" y="372.5" width="8" height="8"></rect>
                <rect id="Rectangle" fill="#EBEDF2" x="470" y="571.5" width="8" height="8"></rect>
                <rect id="Rectangle" fill="#EBEDF2" x="470" y="595.5" width="8" height="8"></rect>
                <rect id="Rectangle" fill="#EBEDF2" x="470" y="645.5" width="8" height="8"></rect>
                <rect id="Rectangle" fill="#EBEDF2" x="470" y="667.5" width="8" height="8"></rect>
                <rect id="Rectangle" fill="#EBEDF2" x="470" y="173.5" width="8" height="8"></rect>
                <rect id="Rectangle" fill="#EBEDF2" x="470" y="198.5" width="8" height="8"></rect>
                <rect id="Rectangle" fill="#EBEDF2" x="470" y="222.5" width="8" height="8"></rect>
                <rect id="Rectangle" fill="#EBEDF2" x="470" y="247.5" width="8" height="8"></rect>
                <rect id="Rectangle" fill="#EBEDF2" x="470" y="298.5" width="8" height="8"></rect>
                <rect id="Rectangle" fill="#EBEDF2" x="494" y="496.5" width="8" height="8"></rect>
                <rect id="Rectangle" fill="#EBEDF2" x="494" y="520.5" width="8" height="8"></rect>
                <rect id="Rectangle" fill="#EBEDF2" x="494" y="349.5" width="8" height="8"></rect>
                <rect id="Rectangle" fill="#EBEDF2" x="494" y="545.5" width="8" height="8"></rect>
                <rect id="Rectangle" fill="#EBEDF2" x="494" y="372.5" width="8" height="8"></rect>
                <rect id="Rectangle" fill="#EBEDF2" x="494" y="571.5" width="8" height="8"></rect>
                <rect id="Rectangle" fill="#EBEDF2" x="494" y="398.5" width="8" height="8"></rect>
                <rect id="Rectangle" fill="#EBEDF2" x="494" y="595.5" width="8" height="8"></rect>
                <rect id="Rectangle" fill="#EBEDF2" x="494" y="620.5" width="8" height="8"></rect>
                <rect id="Rectangle" fill="#EBEDF2" x="494" y="645.5" width="8" height="8"></rect>
                <rect id="Rectangle" fill="#EBEDF2" x="493" y="667.5" width="8" height="8"></rect>
                <rect id="Rectangle" fill="#EBEDF2" x="494" y="473.5" width="8" height="8"></rect>
                <rect id="Rectangle" fill="#EBEDF2" x="494" y="198.5" width="8" height="8"></rect>
                <rect id="Rectangle" fill="#EBEDF2" x="494" y="222.5" width="8" height="8"></rect>
                <rect id="Rectangle" fill="#EBEDF2" x="494" y="247.5" width="8" height="8"></rect>
                <rect id="Rectangle" fill="#E8C7F0" x="494" y="272.5" width="8" height="8"></rect>
                <rect id="Rectangle" fill="#EBEDF2" x="494" y="298.5" width="8" height="8"></rect>
                <rect id="Rectangle" fill="#EBEDF2" x="518" y="496.5" width="8" height="8"></rect>
                <rect id="Rectangle" fill="#EBEDF2" x="518" y="322.5" width="8" height="8"></rect>
                <rect id="Rectangle" fill="#E8C7F0" x="516" y="517.5" width="13" height="13"></rect>
                <rect id="Rectangle" fill="#EBEDF2" x="518" y="349.5" width="8" height="8"></rect>
                <rect id="Rectangle" fill="#EBEDF2" x="518" y="545.5" width="8" height="8"></rect>
                <rect id="Rectangle" fill="#EBEDF2" x="518" y="372.5" width="8" height="8"></rect>
                <rect id="Rectangle" fill="#EBEDF2" x="518" y="571.5" width="8" height="8"></rect>
                <rect id="Rectangle" fill="#EBEDF2" x="518" y="398.5" width="8" height="8"></rect>
                <rect id="Rectangle" fill="#EBEDF2" x="518" y="595.5" width="8" height="8"></rect>
                <rect id="Rectangle" fill="#EBEDF2" x="518" y="423.5" width="8" height="8"></rect>
                <rect id="Rectangle" fill="#EBEDF2" x="518" y="620.5" width="8" height="8"></rect>
                <rect id="Rectangle" fill="#EBEDF2" x="518" y="446.5" width="8" height="8"></rect>
                <rect id="Rectangle" fill="#EBEDF2" x="518" y="645.5" width="8" height="8"></rect>
                <rect id="Rectangle" fill="#EBEDF2" x="518" y="473.5" width="8" height="8"></rect>
                <rect id="Rectangle" fill="#EBEDF2" x="518" y="247.5" width="8" height="8"></rect>
                <rect id="Rectangle" fill="#EBEDF2" x="518" y="272.5" width="8" height="8"></rect>
                <rect id="Rectangle" fill="#E8C7F0" x="518" y="298.5" width="8" height="8"></rect>
                <rect id="Rectangle" fill="#EBEDF2" x="544" y="496.5" width="8" height="8"></rect>
                <rect id="Rectangle" fill="#EBEDF2" x="544" y="322.5" width="8" height="8"></rect>
                <rect id="Rectangle" fill="#EBEDF2" x="544" y="520.5" width="8" height="8"></rect>
                <rect id="Rectangle" fill="#EBEDF2" x="544" y="545.5" width="8" height="8"></rect>
                <rect id="Rectangle" fill="#CDD3E4" x="544" y="372.5" width="8" height="8"></rect>
                <rect id="Rectangle" fill="#EBEDF2" x="544" y="571.5" width="8" height="8"></rect>
                <rect id="Rectangle" fill="#EBEDF2" x="544" y="398.5" width="8" height="8"></rect>
                <rect id="Rectangle" fill="#EBEDF2" x="544" y="595.5" width="8" height="8"></rect>
                <rect id="Rectangle" fill="#EBEDF2" x="544" y="423.5" width="8" height="8"></rect>
                <rect id="Rectangle" fill="#EBEDF2" x="544" y="620.5" width="8" height="8"></rect>
                <rect id="Rectangle" fill="#EBEDF2" x="544" y="446.5" width="8" height="8"></rect>
                <rect id="Rectangle" fill="#EBEDF2" x="544" y="473.5" width="8" height="8"></rect>
                <rect id="Rectangle" fill="#EBEDF2" x="544" y="247.5" width="8" height="8"></rect>
                <rect id="Rectangle" fill="#EBEDF2" x="544" y="272.5" width="8" height="8"></rect>
                <rect id="Rectangle" fill="#EBEDF2" x="544" y="298.5" width="8" height="8"></rect>
                <rect id="Rectangle" fill="#EBEDF2" x="566" y="496.5" width="8" height="8"></rect>
                <rect id="Rectangle" fill="#EBEDF2" x="566" y="322.5" width="8" height="8"></rect>
                <rect id="Rectangle" fill="#EBEDF2" x="566" y="520.5" width="8" height="8"></rect>
                <rect id="Rectangle" fill="#EBEDF2" x="566" y="545.5" width="8" height="8"></rect>
                <rect id="Rectangle" fill="#EBEDF2" x="566" y="372.5" width="8" height="8"></rect>
                <rect id="Rectangle" fill="#EBEDF2" x="566" y="571.5" width="8" height="8"></rect>
                <rect id="Rectangle" fill="#CDD3E4" x="566" y="398.5" width="8" height="8"></rect>
                <rect id="Rectangle" fill="#E8C7F0" x="566" y="595.5" width="8" height="8"></rect>
                <rect id="Rectangle" fill="#EBEDF2" x="566" y="423.5" width="8" height="8"></rect>
                <rect id="Rectangle" fill="#EBEDF2" x="566" y="446.5" width="8" height="8"></rect>
                <rect id="Rectangle" fill="#EBEDF2" x="566" y="473.5" width="8" height="8"></rect>
                <rect id="Rectangle" fill="#EBEDF2" x="566" y="247.5" width="8" height="8"></rect>
                <rect id="Rectangle" fill="#EBEDF2" x="566" y="272.5" width="8" height="8"></rect>
                <rect id="Rectangle" fill="#EBEDF2" x="589" y="496.5" width="8" height="8"></rect>
                <rect id="Rectangle" fill="#EBEDF2" x="589" y="520.5" width="8" height="8"></rect>
                <rect id="Rectangle" fill="#EBEDF2" x="589" y="349.5" width="8" height="8"></rect>
                <rect id="Rectangle" fill="#EBEDF2" x="589" y="545.5" width="8" height="8"></rect>
                <rect id="Rectangle" fill="#EBEDF2" x="589" y="372.5" width="8" height="8"></rect>
                <rect id="Rectangle" fill="#EBEDF2" x="589" y="571.5" width="8" height="8"></rect>
                <rect id="Rectangle" fill="#EBEDF2" x="589" y="398.5" width="8" height="8"></rect>
                <rect id="Rectangle" fill="#EBEDF2" x="589" y="595.5" width="8" height="8"></rect>
                <rect id="Rectangle" fill="#EBEDF2" x="589" y="423.5" width="8" height="8"></rect>
                <rect id="Rectangle" fill="#EBEDF2" x="589" y="446.5" width="8" height="8"></rect>
                <rect id="Rectangle" fill="#EBEDF2" x="589" y="473.5" width="8" height="8"></rect>
                <rect id="Rectangle" fill="#EBEDF2" x="613" y="496.5" width="8" height="8"></rect>
                <rect id="Rectangle" fill="#EBEDF2" x="613" y="520.5" width="8" height="8"></rect>
                <rect id="Rectangle" fill="#DB0163" x="610" y="542.5" width="14" height="14"></rect>
                <rect id="Rectangle" fill="#EBEDF2" x="613" y="372.5" width="8" height="8"></rect>
                <rect id="Rectangle" fill="#EBEDF2" x="613" y="571.5" width="8" height="8"></rect>
                <rect id="Rectangle" fill="#EBEDF2" x="613" y="398.5" width="8" height="8"></rect>
                <rect id="Rectangle" fill="#EBEDF2" x="613" y="595.5" width="8" height="8"></rect>
                <rect id="Rectangle" fill="#EBEDF2" x="613" y="423.5" width="8" height="8"></rect>
                <rect id="Rectangle" fill="#EBEDF2" x="613" y="446.5" width="8" height="8"></rect>
                <rect id="Rectangle" fill="#EBEDF2" x="613" y="473.5" width="8" height="8"></rect>
                <rect id="Rectangle" fill="#EBEDF2" x="637" y="496.5" width="8" height="8"></rect>
                <rect id="Rectangle" fill="#EBEDF2" x="637" y="520.5" width="8" height="8"></rect>
                <rect id="Rectangle" fill="#82E3E0" x="637" y="545.5" width="8" height="8"></rect>
                <rect id="Rectangle" fill="#EBEDF2" x="637" y="571.5" width="8" height="8"></rect>
                <rect id="Rectangle" fill="#EBEDF2" x="637" y="398.5" width="8" height="8"></rect>
                <rect id="Rectangle" fill="#EBEDF2" x="637" y="423.5" width="8" height="8"></rect>
                <rect id="Rectangle" fill="#EBEDF2" x="637" y="446.5" width="8" height="8"></rect>
                <rect id="Rectangle" fill="#EBEDF2" x="637" y="473.5" width="8" height="8"></rect>
                <rect id="Rectangle" fill="#EBEDF2" x="661" y="496.5" width="8" height="8"></rect>
                <rect id="Rectangle" fill="#EBEDF2" x="661" y="545.5" width="8" height="8"></rect>
                <rect id="Rectangle" fill="#EBEDF2" x="661" y="571.5" width="8" height="8"></rect>
                <rect id="Rectangle" fill="#EBEDF2" x="661" y="398.5" width="8" height="8"></rect>
                <rect id="Rectangle" fill="#EBEDF2" x="661" y="595.5" width="8" height="8"></rect>
                <rect id="Rectangle" fill="#EBEDF2" x="661" y="423.5" width="8" height="8"></rect>
                <rect id="Rectangle" fill="#EBEDF2" x="661" y="446.5" width="8" height="8"></rect>
                <rect id="Rectangle" fill="#EBEDF2" x="661" y="473.5" width="8" height="8"></rect>
                <rect id="Rectangle" fill="#EBEDF2" x="683" y="545.5" width="8" height="8"></rect>
                <rect id="Rectangle" fill="#EBEDF2" x="683" y="571.5" width="8" height="8"></rect>
                <rect id="Rectangle" fill="#EBEDF2" x="683" y="595.5" width="8" height="8"></rect>
                <rect id="Rectangle" fill="#EBEDF2" x="683" y="423.5" width="8" height="8"></rect>
                <rect id="Rectangle" fill="#EBEDF2" x="683" y="446.5" width="8" height="8"></rect>
                <rect id="Rectangle" fill="#EBEDF2" x="683" y="473.5" width="8" height="8"></rect>
                <rect id="Rectangle" fill="#EBEDF2" x="708" y="496.5" width="8" height="8"></rect>
                <rect id="Rectangle" fill="#EBEDF2" x="708" y="545.5" width="8" height="8"></rect>
                <rect id="Rectangle" fill="#EBEDF2" x="708" y="571.5" width="8" height="8"></rect>
                <rect id="Rectangle" fill="#EBEDF2" x="708" y="423.5" width="8" height="8"></rect>
                <rect id="Rectangle" fill="#EBEDF2" x="708" y="446.5" width="8" height="8"></rect>
                <rect id="Rectangle" fill="#EBEDF2" x="708" y="473.5" width="8" height="8"></rect>
                <rect id="Rectangle" fill="#EBEDF2" x="732" y="496.5" width="8" height="8"></rect>
                <rect id="Rectangle" fill="#CDD3E4" x="732" y="473.5" width="8" height="8"></rect>
                <rect id="Rectangle" fill="#EBEDF2" x="756" y="496.5" width="8" height="8"></rect>
                <rect id="Rectangle" fill="#CDD3E4" x="756" y="473.5" width="8" height="8"></rect>
                <rect id="Rectangle" fill="#EBEDF2" x="778" y="496.5" width="8" height="8"></rect>
                <rect id="Rectangle" fill="#EBEDF2" x="778" y="473.5" width="8" height="8"></rect>
            </g>
        </g>
    </g>
</svg>