<?xml version="1.0" encoding="UTF-8"?>
<svg width="114px" height="80px" viewBox="0 0 114 80" version="1.1" xmlns="http://www.w3.org/2000/svg" xmlns:xlink="http://www.w3.org/1999/xlink">
    <!-- Generator: sketchtool 56.3 (101010) - https://sketch.com -->
    <title>1219E079-6864-4A28-B78B-44DC2132B6AF@3x</title>
    <desc>Created with sketchtool.</desc>
    <g id="No-data-state---skip-causes" stroke="none" stroke-width="1" fill="none" fill-rule="evenodd">
        <g id="No-causes-selected---dashboard" transform="translate(-990.000000, -1667.000000)" fill="#C799D1">
            <g id="About-section" transform="translate(164.000000, 1663.000000)">
                <g id="Basic-info-charity-profile-card">
                    <g id="charitableimpactfoundation/section-4/dots" transform="translate(826.000000, -121.000000)">
                        <polygon id="Fill-65" points="0 127 2 127 2 125 0 125"></polygon>
                        <polygon id="Fill-66" points="16 127 18 127 18 125 16 125"></polygon>
                        <polygon id="Fill-67" points="32 127 34 127 34 125 32 125"></polygon>
                        <polygon id="Fill-68" points="48 127 50 127 50 125 48 125"></polygon>
                        <polygon id="Fill-69" points="64 127 66 127 66 125 64 125"></polygon>
                        <polygon id="Fill-70" points="80 127 82 127 82 125 80 125"></polygon>
                        <polygon id="Fill-71" points="96 127 98 127 98 125 96 125"></polygon>
                        <polygon id="Fill-72" points="112 127 114 127 114 125 112 125"></polygon>
                        <polygon id="Fill-73" points="0 143 2 143 2 141 0 141"></polygon>
                        <polygon id="Fill-74" points="16 143 18 143 18 141 16 141"></polygon>
                        <polygon id="Fill-75" points="32 143 34 143 34 141 32 141"></polygon>
                        <polygon id="Fill-76" points="48 143 50 143 50 141 48 141"></polygon>
                        <polygon id="Fill-77" points="64 143 66 143 66 141 64 141"></polygon>
                        <polygon id="Fill-78" points="80 143 82 143 82 141 80 141"></polygon>
                        <polygon id="Fill-79" points="96 143 98 143 98 141 96 141"></polygon>
                        <polygon id="Fill-80" points="112 143 114 143 114 141 112 141"></polygon>
                        <polygon id="Fill-81" points="0 157 2 157 2 155 0 155"></polygon>
                        <polygon id="Fill-82" points="16 157 18 157 18 155 16 155"></polygon>
                        <polygon id="Fill-83" points="32 157 34 157 34 155 32 155"></polygon>
                        <polygon id="Fill-84" points="48 157 50 157 50 155 48 155"></polygon>
                        <polygon id="Fill-85" points="64 157 66 157 66 155 64 155"></polygon>
                        <polygon id="Fill-86" points="80 157 82 157 82 155 80 155"></polygon>
                        <polygon id="Fill-87" points="96 157 98 157 98 155 96 155"></polygon>
                        <polygon id="Fill-88" points="112 157 114 157 114 155 112 155"></polygon>
                        <polygon id="Fill-89" points="0 173 2 173 2 171 0 171"></polygon>
                        <polygon id="Fill-90" points="16 173 18 173 18 171 16 171"></polygon>
                        <polygon id="Fill-91" points="32 173 34 173 34 171 32 171"></polygon>
                        <polygon id="Fill-92" points="48 173 50 173 50 171 48 171"></polygon>
                        <polygon id="Fill-93" points="64 173 66 173 66 171 64 171"></polygon>
                        <polygon id="Fill-94" points="80 173 82 173 82 171 80 171"></polygon>
                        <polygon id="Fill-95" points="96 173 98 173 98 171 96 171"></polygon>
                        <polygon id="Fill-96" points="112 173 114 173 114 171 112 171"></polygon>
                        <polygon id="Fill-97" points="0 189 2 189 2 187 0 187"></polygon>
                        <polygon id="Fill-98" points="16 189 18 189 18 187 16 187"></polygon>
                        <polygon id="Fill-99" points="32 189 34 189 34 187 32 187"></polygon>
                        <polygon id="Fill-100" points="48 189 50 189 50 187 48 187"></polygon>
                        <polygon id="Fill-101" points="64 189 66 189 66 187 64 187"></polygon>
                        <polygon id="Fill-102" points="80 189 82 189 82 187 80 187"></polygon>
                        <polygon id="Fill-103" points="96 189 98 189 98 187 96 187"></polygon>
                        <polygon id="Fill-104" points="112 189 114 189 114 187 112 187"></polygon>
                        <polygon id="Fill-105" points="0 205 2 205 2 203 0 203"></polygon>
                        <polygon id="Fill-106" points="16 205 18 205 18 203 16 203"></polygon>
                        <polygon id="Fill-107" points="32 205 34 205 34 203 32 203"></polygon>
                        <polygon id="Fill-108" points="48 205 50 205 50 203 48 203"></polygon>
                        <polygon id="Fill-109" points="64 205 66 205 66 203 64 203"></polygon>
                        <polygon id="Fill-110" points="80 205 82 205 82 203 80 203"></polygon>
                        <polygon id="Fill-111" points="96 205 98 205 98 203 96 203"></polygon>
                        <polygon id="Fill-112" points="112 205 114 205 114 203 112 203"></polygon>
                    </g>
                </g>
            </g>
        </g>
    </g>
</svg>