<?xml version="1.0" encoding="UTF-8"?>
<svg width="775px" height="150px" viewBox="0 0 775 150" version="1.1" xmlns="http://www.w3.org/2000/svg" xmlns:xlink="http://www.w3.org/1999/xlink">
    <title>ADC096E4-ECF5-4DE2-AE1D-B051AC71C252</title>
    <defs>
        <rect id="path-1" x="0" y="0" width="775" height="150" rx="5"></rect>
    </defs>
    <g id="UI-Kit" stroke="none" stroke-width="1" fill="none" fill-rule="evenodd">
        <g id="illustrations" transform="translate(-87.000000, -11361.000000)">
            <g id="dashboard-copy-3" transform="translate(39.000000, 10680.000000)">
                <g id="favourites-bg" transform="translate(48.000000, 681.000000)">
                    <mask id="mask-2" fill="white">
                        <use xlink:href="#path-1"></use>
                    </mask>
                    <use id="Mask-Copy-2" fill="#FFB9B9" fill-rule="nonzero" xlink:href="#path-1"></use>
                    <g id="ovals" mask="url(#mask-2)" fill="#FFFFFF" opacity="0.199730283">
                        <g transform="translate(-89.628345, -72.147488)" id="Oval-4-Copy-2">
                            <path d="M93.1275466,175.976354 C136.060736,174.683929 154.640636,117.083627 158.840682,91.9836492 C163.040728,66.8836711 157.46549,46.7665496 114.5323,48.0589743 C71.5991098,49.3513991 71.5785976,65.989726 32.9666678,95.6311473 C-5.64526196,125.272569 50.1943567,177.268779 93.1275466,175.976354 Z" transform="translate(90.000000, 112.000000) rotate(62.000000) translate(-90.000000, -112.000000) "></path>
                            <path d="M450.127547,175.976354 C493.060736,174.683929 511.640636,117.083627 515.840682,91.9836492 C520.040728,66.8836711 514.46549,46.7665496 471.5323,48.0589743 C428.59911,49.3513991 428.578598,65.989726 389.966668,95.6311473 C351.354738,125.272569 407.194357,177.268779 450.127547,175.976354 Z" transform="translate(447.000000, 112.000000) rotate(62.000000) translate(-447.000000, -112.000000) "></path>
                            <path d="M96.5100001,298.509461 C127.176564,297.590628 140.447921,256.640413 143.447954,238.795898 C146.447987,220.951382 142.465674,206.649366 111.799109,207.568199 C81.1325452,208.487032 81.1178937,220.315843 53.5379439,241.389041 C25.957994,262.462239 65.8434359,299.428295 96.5100001,298.509461 Z" transform="translate(94.276038, 253.026272) rotate(-48.000000) translate(-94.276038, -253.026272) "></path>
                            <path d="M419.577174,318.125321 C460.057039,316.913672 477.57523,262.913389 481.535273,239.38216 C485.495316,215.85093 480.238663,196.991129 439.758799,198.202777 C399.278934,199.414425 399.259594,215.012857 362.85406,242.801689 C326.448526,270.590522 379.09731,319.336969 419.577174,318.125321 Z" transform="translate(416.628345, 258.147488) rotate(-133.000000) translate(-416.628345, -258.147488) "></path>
                            <path d="M271.755891,155.976354 C314.689081,154.683929 333.268981,97.0836272 337.469027,71.9836492 C341.669072,46.8836711 336.093834,26.7665496 293.160644,28.0589743 C250.227454,29.3513991 250.206942,45.989726 211.595013,75.6311473 C172.983083,105.272569 228.822701,157.268779 271.755891,155.976354 Z" transform="translate(268.628345, 92.000000) rotate(62.000000) translate(-268.628345, -92.000000) "></path>
                            <path d="M628.755891,155.976354 C671.689081,154.683929 690.268981,97.0836272 694.469027,71.9836492 C698.669072,46.8836711 693.093834,26.7665496 650.160644,28.0589743 C607.227454,29.3513991 607.206942,45.989726 568.595013,75.6311473 C529.983083,105.272569 585.822701,157.268779 628.755891,155.976354 Z" transform="translate(625.628345, 92.000000) rotate(62.000000) translate(-625.628345, -92.000000) "></path>
                            <path d="M234.021859,301.009697 C276.955049,299.717272 295.534949,242.11697 299.734994,217.016992 C303.93504,191.917014 298.359802,171.799893 255.426612,173.092317 C212.493422,174.384742 212.47291,191.023069 173.86098,220.66449 C135.249051,250.305912 191.088669,302.302122 234.021859,301.009697 Z" transform="translate(230.894313, 237.033343) rotate(62.000000) translate(-230.894313, -237.033343) "></path>
                            <path d="M591.021859,301.009697 C633.955049,299.717272 652.534949,242.11697 656.734994,217.016992 C660.93504,191.917014 655.359802,171.799893 612.426612,173.092317 C569.493422,174.384742 569.47291,191.023069 530.86098,220.66449 C492.249051,250.305912 548.088669,302.302122 591.021859,301.009697 Z" transform="translate(587.894313, 237.033343) rotate(62.000000) translate(-587.894313, -237.033343) "></path>
                            <path d="M807.127547,175.976354 C850.060736,174.683929 868.640636,117.083627 872.840682,91.9836492 C877.040728,66.8836711 871.46549,46.7665496 828.5323,48.0589743 C785.59911,49.3513991 785.578598,65.989726 746.966668,95.6311473 C708.354738,125.272569 764.194357,177.268779 807.127547,175.976354 Z" transform="translate(804.000000, 112.000000) rotate(62.000000) translate(-804.000000, -112.000000) "></path>
                            <path d="M772.443137,303.126244 C811.083007,301.965081 827.804917,250.21481 831.584958,227.664048 C835.364999,205.113287 830.347285,187.03931 791.707414,188.200473 C753.067543,189.361636 753.049083,204.310133 718.298346,230.941097 C683.547609,257.572062 733.803266,304.287407 772.443137,303.126244 Z" transform="translate(769.628345, 245.647488) rotate(-161.000000) translate(-769.628345, -245.647488) "></path>
                            <path d="M948.021859,301.009697 C990.955049,299.717272 1009.53495,242.11697 1013.73499,217.016992 C1017.93504,191.917014 1012.3598,171.799893 969.426612,173.092317 C926.493422,174.384742 926.47291,191.023069 887.86098,220.66449 C849.249051,250.305912 905.088669,302.302122 948.021859,301.009697 Z" transform="translate(944.894313, 237.033343) rotate(62.000000) translate(-944.894313, -237.033343) "></path>
                        </g>
                    </g>
                </g>
            </g>
        </g>
    </g>
</svg>