<?xml version="1.0" encoding="UTF-8"?>
<svg width="775px" height="150px" viewBox="0 0 775 150" version="1.1" xmlns="http://www.w3.org/2000/svg" xmlns:xlink="http://www.w3.org/1999/xlink">
    <title>29D5A9E4-2021-4936-8397-08F364D5779B</title>
    <defs>
        <rect id="path-1" x="0" y="0" width="775" height="150" rx="5"></rect>
    </defs>
    <g id="UI-Kit" stroke="none" stroke-width="1" fill="none" fill-rule="evenodd">
        <g id="illustrations" transform="translate(-87.000000, -11361.000000)">
            <g id="dashboard-copy-3" transform="translate(39.000000, 10680.000000)">
                <g id="Group-4" transform="translate(48.000000, 681.000000)">
                    <mask id="mask-2" fill="white">
                        <use xlink:href="#path-1"></use>
                    </mask>
                    <use id="Mask-Copy-2" fill="#FFB9B9" fill-rule="nonzero" xlink:href="#path-1"></use>
                    <path d="M3.49920189,103.828866 C46.4323918,102.536441 65.0122916,44.9361387 69.2123372,19.8361607 C73.4123829,-5.26381737 67.8371448,-25.3809389 24.903955,-24.0885141 C-18.0292349,-22.7960894 -18.049747,-6.15776251 -56.6616768,23.4836588 C-95.2736066,53.1250801 -39.433988,105.12129 3.49920189,103.828866 Z" id="Oval-4-Copy-2" fill="#FFFFFF" opacity="0.199730283" mask="url(#mask-2)" transform="translate(0.371655, 39.852512) rotate(62.000000) translate(-0.371655, -39.852512) "></path>
                    <path d="M360.499202,103.828866 C403.432392,102.536441 422.012292,44.9361387 426.212337,19.8361607 C430.412383,-5.26381737 424.837145,-25.3809389 381.903955,-24.0885141 C338.970765,-22.7960894 338.950253,-6.15776251 300.338323,23.4836588 C261.726393,53.1250801 317.566012,105.12129 360.499202,103.828866 Z" id="Oval-4-Copy-2" fill="#FFFFFF" opacity="0.199730283" mask="url(#mask-2)" transform="translate(357.371655, 39.852512) rotate(62.000000) translate(-357.371655, -39.852512) "></path>
                    <path d="M6.88165544,226.361973 C37.5482196,225.44314 50.8195767,184.492925 53.8196092,166.648409 C56.8196418,148.803894 52.837329,134.501877 22.1707648,135.420711 C-8.49579942,136.339544 -8.51045092,148.168354 -36.0904008,169.241552 C-63.6703506,190.31475 -23.7849088,227.280806 6.88165544,226.361973 Z" id="Oval-4-Copy-2" fill="#FFFFFF" opacity="0.199730283" mask="url(#mask-2)" transform="translate(4.647694, 180.878784) rotate(-48.000000) translate(-4.647694, -180.878784) "></path>
                    <path d="M329.94883,245.977832 C370.428694,244.766184 387.946886,190.7659 391.906929,167.234671 C395.866972,143.703442 390.610319,124.84364 350.130454,126.055288 C309.650589,127.266937 309.631249,142.865368 273.225715,170.654201 C236.820182,198.443033 289.468965,247.18948 329.94883,245.977832 Z" id="Oval-4-Copy-2" fill="#FFFFFF" opacity="0.199730283" mask="url(#mask-2)" transform="translate(327.000000, 186.000000) rotate(-133.000000) translate(-327.000000, -186.000000) "></path>
                    <path d="M182.127547,83.8288657 C225.060736,82.5364409 243.640636,24.9361387 247.840682,-0.163839331 C252.040728,-25.2638174 246.46549,-45.3809389 203.5323,-44.0885141 C160.59911,-42.7960894 160.578598,-26.1577625 121.966668,3.48365881 C83.354738,33.1250801 139.194357,85.1212904 182.127547,83.8288657 Z" id="Oval-4-Copy-2" fill="#FFFFFF" opacity="0.199730283" mask="url(#mask-2)" transform="translate(179.000000, 19.852512) rotate(62.000000) translate(-179.000000, -19.852512) "></path>
                    <path d="M539.127547,83.8288657 C582.060736,82.5364409 600.640636,24.9361387 604.840682,-0.163839331 C609.040728,-25.2638174 603.46549,-45.3809389 560.5323,-44.0885141 C517.59911,-42.7960894 517.578598,-26.1577625 478.966668,3.48365881 C440.354738,33.1250801 496.194357,85.1212904 539.127547,83.8288657 Z" id="Oval-4-Copy-2" fill="#FFFFFF" opacity="0.199730283" mask="url(#mask-2)" transform="translate(536.000000, 19.852512) rotate(62.000000) translate(-536.000000, -19.852512) "></path>
                    <path d="M144.393514,228.862209 C187.326704,227.569784 205.906604,169.969482 210.10665,144.869504 C214.306695,119.769526 208.731457,99.6524041 165.798268,100.944829 C122.865078,102.237254 122.844566,118.87558 84.2326357,148.517002 C45.6207059,178.158423 101.460325,230.154633 144.393514,228.862209 Z" id="Oval-4-Copy-2" fill="#FFFFFF" opacity="0.199730283" mask="url(#mask-2)" transform="translate(141.265968, 164.885855) rotate(62.000000) translate(-141.265968, -164.885855) "></path>
                    <path d="M501.393514,228.862209 C544.326704,227.569784 562.906604,169.969482 567.10665,144.869504 C571.306695,119.769526 565.731457,99.6524041 522.798268,100.944829 C479.865078,102.237254 479.844566,118.87558 441.232636,148.517002 C402.620706,178.158423 458.460325,230.154633 501.393514,228.862209 Z" id="Oval-4-Copy-2" fill="#FFFFFF" opacity="0.199730283" mask="url(#mask-2)" transform="translate(498.265968, 164.885855) rotate(62.000000) translate(-498.265968, -164.885855) "></path>
                    <path d="M717.499202,103.828866 C760.432392,102.536441 779.012292,44.9361387 783.212337,19.8361607 C787.412383,-5.26381737 781.837145,-25.3809389 738.903955,-24.0885141 C695.970765,-22.7960894 695.950253,-6.15776251 657.338323,23.4836588 C618.726393,53.1250801 674.566012,105.12129 717.499202,103.828866 Z" id="Oval-4-Copy-2" fill="#FFFFFF" opacity="0.199730283" mask="url(#mask-2)" transform="translate(714.371655, 39.852512) rotate(62.000000) translate(-714.371655, -39.852512) "></path>
                    <path d="M682.814792,230.978756 C721.454663,229.817593 738.176573,178.067321 741.956614,155.51656 C745.736655,132.965798 740.718941,114.891822 702.07907,116.052985 C663.439199,117.214148 663.420738,132.162644 628.670001,158.793609 C593.919264,185.424573 644.174921,232.139919 682.814792,230.978756 Z" id="Oval-4-Copy-2" fill="#FFFFFF" opacity="0.199730283" mask="url(#mask-2)" transform="translate(680.000000, 173.500000) rotate(-161.000000) translate(-680.000000, -173.500000) "></path>
                    <path d="M858.393514,228.862209 C901.326704,227.569784 919.906604,169.969482 924.10665,144.869504 C928.306695,119.769526 922.731457,99.6524041 879.798268,100.944829 C836.865078,102.237254 836.844566,118.87558 798.232636,148.517002 C759.620706,178.158423 815.460325,230.154633 858.393514,228.862209 Z" id="Oval-4-Copy-2" fill="#FFFFFF" opacity="0.199730283" mask="url(#mask-2)" transform="translate(855.265968, 164.885855) rotate(62.000000) translate(-855.265968, -164.885855) "></path>
                </g>
            </g>
        </g>
    </g>
</svg>