<?xml version="1.0" encoding="UTF-8"?>
<svg width="221px" height="231px" viewBox="0 0 221 231" version="1.1" xmlns="http://www.w3.org/2000/svg" xmlns:xlink="http://www.w3.org/1999/xlink">
    <title>give-success-screen-illustration</title>
    <defs>
        <polygon id="path-1" points="0.634879226 0.526540477 35.9527289 0.526540477 35.9527289 74 0.634879226 74"></polygon>
        <polygon id="path-3" points="0 0.0813911108 16.4978079 0.0813911108 16.4978079 35.2302171 0 35.2302171"></polygon>
        <polygon id="path-5" points="0.47490146 0.458714286 12.0813389 0.458714286 12.0813389 12.4279926 0.47490146 12.4279926"></polygon>
    </defs>
    <g id="Give-|-Charity-Allocation" stroke="none" stroke-width="1" fill="none" fill-rule="evenodd">
        <g id="8--Charity-allocation---enough-funds" transform="translate(-609.000000, -169.000000)">
            <g id="give-success-screen-illustration" transform="translate(609.000000, 169.000000)">
                <path d="M171.248621,87.9993076 C171.26111,87.9148658 171.280735,87.8160509 171.287871,87.7459822 C171.341394,87.6974731 171.405621,87.6309976 171.466281,87.5681154 C171.441303,87.6471673 171.405621,87.7262192 171.375292,87.8052711 C171.332473,87.8681533 171.293223,87.938222 171.248621,87.9993076 M138.151874,144.560937 C140.751301,147.528977 143.837785,149.821482 147.172259,151.436656 C147.152634,151.456419 147.127656,151.463605 147.111599,151.488758 C146.058983,152.787724 144.385502,154.717309 144.983174,156.760082 C145.698596,159.198114 149.284627,160.189856 153.143625,159.799987 C154.917015,159.618527 156.752849,162.633278 160.492312,159.735308 C161.778645,158.736379 161.273746,155.804273 160.271084,154.131606 C166.047984,153.849535 171.764224,151.682794 176.500997,147.399619 C186.197553,138.628452 188.409831,122.392271 181.962112,110.994425 C189.314367,104.727766 193.137683,94.4887494 191.883464,84.4024464 C191.353588,80.1300509 189.862084,76.3104071 187.71225,72.9722613 C191.14128,70.2719204 193.901276,66.6247535 195.531938,62.0271673 C197.151897,57.4601238 197.408806,52.5858559 196.413281,47.9900662 C196.429338,45.1765375 195.90303,42.3306693 194.850414,39.7129736 C188.909378,24.9410493 169.532322,18.2503845 156.155177,26.7215136 C148.251636,31.7251391 142.651362,39.3141209 141.655837,48.8506539 C141.10812,54.1094015 142.305247,59.3753356 144.769083,63.9585487 C138.160795,71.2223398 134.979753,81.5493917 136.501586,91.4650145 C137.168838,95.8182585 138.728137,99.8301421 140.933278,103.346155 C139.762912,104.684647 138.770955,106.096801 137.973465,107.566448 C128.512409,117.924043 128.781807,133.870965 138.151874,144.560937" id="Fill-1" fill="#6194E5"></path>
                <path d="M183.61699,41.9975847 C185.586249,44.1122967 185.676458,47.2420705 185.40391,49.8731246 C185.091055,52.8760157 183.941361,55.7625976 182.198587,58.307301 C181.338715,59.5602679 183.49799,60.7092614 184.352103,59.4633436 C186.396217,56.4780752 187.618846,53.0839624 187.925943,49.5682537 C188.210007,46.3415556 187.741685,42.9139599 185.380878,40.3780677 C184.334829,39.2555081 182.5767,40.8838363 183.61699,41.9975847" id="Fill-3" fill="#FFFFFF"></path>
                <path d="M181.347856,83.4275683 C182.414289,88.2691672 181.185955,93.3640136 178.169674,97.2770385 C177.791319,97.7694641 178.097523,98.5538277 178.579705,98.8422485 C179.167475,99.1922224 179.771084,98.917871 180.144159,98.4307213 C183.531756,94.0375814 184.744251,88.218166 183.554633,82.8190709 C183.237871,81.384002 181.031094,81.9924993 181.347856,83.4275683" id="Fill-5" fill="#FFFFFF"></path>
                <path d="M174.588802,123.118303 C174.181285,129.039647 171.578733,134.710541 167.340555,139.000385 C166.269897,140.082685 167.970355,141.730286 169.042865,140.644408 C173.736721,135.89481 176.548588,129.665771 176.996857,123.118303 C177.098736,121.62455 174.690681,121.629917 174.588802,123.118303" id="Fill-7" fill="#FFFFFF"></path>
                <path d="M167.814428,103.447855 C167.453527,103.400856 167.4754,103.404773 167.114499,103.346025 C166.862962,103.306859 166.609602,103.263777 166.356242,103.218737 C165.809422,103.120824 165.264425,103.013119 164.721251,102.893665 C163.634903,102.654756 162.557668,102.368849 161.489546,102.043777 C160.895336,101.861658 160.175356,102.265061 160.033183,102.93283 C159.889187,103.610391 160.222747,104.303617 160.860704,104.499444 C163.142765,105.196587 165.463103,105.678321 167.814428,105.993602 C168.432335,106.07585 169.024723,105.349332 168.999204,104.720728 C168.968218,103.960921 168.47608,103.535977 167.814428,103.447855" id="Fill-9" fill="#FFFFFF"></path>
                <path d="M170.812966,69.5381749 C170.254686,69.6078452 169.696406,69.6335131 169.134477,69.6078452 C168.984872,69.6005115 168.835268,69.5895109 168.687488,69.5766769 C168.641877,69.5730101 168.191239,69.5106736 168.444837,69.5510089 C168.18759,69.5106736 167.928519,69.4630045 167.673097,69.4043348 C167.419499,69.3456652 167.165902,69.2759949 166.915953,69.1953242 C166.773646,69.1513219 166.631339,69.1036529 166.492682,69.0504835 C166.452544,69.0394829 166.042044,68.8744745 166.253679,68.9643124 C165.737362,68.7443012 165.242937,68.4711207 164.774055,68.163105 C164.252264,67.8220877 163.442211,68.0402654 163.152124,68.5902934 C162.840144,69.186157 163.020764,69.8590246 163.57722,70.2220431 C165.688102,71.5989464 168.311653,72.2314786 170.812966,71.9234629 C171.425979,71.846459 172.02987,71.4284378 171.998854,70.7299022 C171.973312,70.1505394 171.47159,69.4575042 170.812966,69.5381749" id="Fill-11" fill="#FFFFFF"></path>
                <g id="Group-15" transform="translate(119.000000, 157.000000)">
                    <mask id="mask-2" fill="white">
                        <use xlink:href="#path-1"></use>
                    </mask>
                    <g id="Clip-14"></g>
                    <path d="M33.6641429,1.36732143 C32.5132857,8.05660714 33.4451905,14.7833929 33.3619524,21.51375 C33.2823333,27.9048214 31.8329048,34.0441071 27.4520476,38.9316071 C25.5484286,41.0566071 23.3028095,42.85125 20.8201429,44.2798214 C19.0956667,45.27625 17.2481429,46.0155357 15.5652857,47.08875 C12.0258571,49.3441071 8.98766667,52.32625 6.57919048,55.7298214 C2.99995238,60.7905357 1.08547619,66.7548214 0.63852381,72.8851786 C0.529952381,74.37625 2.88233333,74.3691071 2.99271429,72.8851786 C3.6857619,63.3566071 8.60042857,54.2476786 16.8391905,49.0369643 C18.4949048,47.9905357 20.3134762,47.2619643 22.009,46.2851786 C24.5043333,44.8494643 26.8169048,43.0476786 28.773,40.9476786 C33.0109048,36.3994643 35.1081429,30.76375 35.5822381,24.6494643 C36.1649048,17.1048214 34.6430952,9.49053571 35.9332857,1.98339286 C36.1848095,0.520892857 33.9174762,-0.105892857 33.6641429,1.36732143" id="Fill-13" fill="#263234" mask="url(#mask-2)"></path>
                </g>
                <path d="M159.814581,152.403039 C157.920467,152.529035 156.013568,152.322323 154.154159,151.930555 C152.322148,151.542724 150.470045,151.015116 148.778676,150.152832 C148.199666,149.85753 147.496451,149.979588 147.153063,150.611536 C146.851685,151.168674 146.995981,152.066394 147.580471,152.361696 C149.465452,153.324383 151.480117,153.968143 153.524006,154.399285 C155.584333,154.830427 157.714069,155.104074 159.814581,154.962329 C160.455694,154.919018 161,154.405191 161,153.682684 C161,153.023175 160.45752,152.361696 159.814581,152.403039" id="Fill-16" fill="#263234"></path>
                <path d="M155.693018,158.45573 C155.67281,158.346918 155.654623,158.239981 155.638456,158.131168 L155.684935,158.45573 C155.593999,157.800978 155.593999,157.14435 155.684935,156.489597 L155.638456,156.814159 C155.703122,156.380784 155.806182,155.953038 155.949657,155.534672 C156.155778,154.926822 155.705142,154.178265 155.032221,154.035683 C154.314842,153.881844 153.637879,154.236424 153.415592,154.887424 C152.948791,156.255087 152.892209,157.695917 153.160973,159.104854 C153.213514,159.388143 153.504507,159.692068 153.763167,159.830898 C154.046077,159.984736 154.460338,160.050399 154.775581,159.956595 C155.092844,159.859039 155.400004,159.677059 155.561667,159.395647 C155.735454,159.089846 155.757683,158.795301 155.693018,158.45573" id="Fill-18" fill="#263234"></path>
                <path d="M103.237947,115.109911 C102.224978,122.995982 105.627894,130.442042 107.093115,138.047943 C107.889151,142.176861 107.830322,146.303982 106.962587,150.420328 C106.083822,154.588757 104.591025,158.604529 103.079843,162.587973 C102.544863,163.997804 104.853919,164.606635 105.385223,163.20758 C108.413101,155.22812 111.016305,147.180412 109.606236,138.586732 C108.319342,130.752744 104.589187,123.189946 105.627894,115.109911 C105.81909,113.622854 103.429143,113.637222 103.237947,115.109911" id="Fill-20" fill="#263234"></path>
                <path d="M56.0195373,146.467452 C57.1529135,153.172441 56.0966499,159.985343 56.2454952,166.733498 C56.3853739,172.996044 57.8074741,179.015786 61.6989716,184.028341 C63.4313156,186.258542 65.5079764,188.179392 67.8141818,189.801682 C69.7312375,191.146997 71.845558,192.044472 73.8612461,193.200939 C77.2380616,195.139775 80.2077942,197.869971 82.5301395,200.990453 C86.1867124,205.905887 88.2293002,211.778148 88.6650762,217.877026 C88.7726752,219.368023 91.103987,219.380613 90.996388,217.877026 C90.2790613,207.8717 85.5034587,198.548024 77.3223475,192.661375 C75.9863265,191.697353 74.5749862,190.896998 73.0937065,190.184773 C70.4772573,188.920394 68.0491063,187.283714 65.9473391,185.26934 C61.3169951,180.825126 59.0538293,175.069771 58.6592996,168.706506 C58.185864,161.077062 59.5523714,153.438626 58.2665632,145.845154 C58.0154989,144.364949 55.7684729,144.992642 56.0195373,146.467452" id="Fill-22" fill="#263234"></path>
                <path d="M64.0182917,144.391667 C64.0433219,144.373743 63.5427188,143.314432 63.5731126,143.30547 C84.5036827,135.789918 94.1331395,119.448567 92.894147,99.1173236 C91.5979428,77.8343134 69.8789229,59.7776311 51.7427903,62.2224707 C33.8891409,64.6314623 19.7506812,76.7373619 18.1433879,98.2480075 C16.3072475,122.778855 32.3426352,139.946504 52.6313607,142.543698 C52.5884519,142.592093 52.5401794,142.627941 52.5062099,142.687091 C51.9287286,143.681875 51.7570933,144.126391 50.9418255,145.490411 C50.5252523,146.185864 50.2320419,147.29357 50.380435,148.127038 C50.7344328,150.123777 52.9084802,151.550531 54.8393776,150.794136 C57.0313037,149.933782 56.0032797,148.550046 57.4389376,149.532283 C59.2858052,150.794136 62.9777526,150.878379 64.5206826,148.261468 C65.2125875,147.091028 64.8085293,145.725216 64.0182917,144.391667" id="Fill-24" fill="#F24040"></path>
                <path d="M52.8671479,143.499605 C56.2801882,144.149185 59.713359,144.164981 63.1318894,143.554889 C63.7669162,143.442348 64.1201156,142.595327 63.9627314,141.977338 C63.7797266,141.248782 63.1355495,140.966441 62.5005227,141.078983 C59.5340143,141.610098 56.461363,141.58838 53.5003447,141.025674 C52.868978,140.905235 52.2193108,141.209293 52.038136,141.922054 C51.8789218,142.542018 52.2302911,143.379167 52.8671479,143.499605" id="Fill-26" fill="#263234"></path>
                <path d="M32.8161298,85.5788055 C29.2632024,91.9629165 29.073737,99.8212627 32.2387114,106.396243 C32.8955248,107.763228 34.9200979,106.567116 34.2632845,105.203766 C31.4736321,99.4068045 31.7208393,92.3810103 34.8407029,86.7712818 C35.5787157,85.4442883 33.5541426,84.251812 32.8161298,85.5788055" id="Fill-28" fill="#FFFFFF"></path>
                <path d="M210.069228,68.7415158 C212.118579,66.7286219 215.88736,65.0867602 217.482851,67.701909 C219.952895,71.7545831 212.202368,71.1953463 210.069228,68.7415158 M211.050263,64.0507382 C210.140798,64.4916749 209.381456,65.0114783 208.697175,65.5653378 C208.016386,61.5431349 210.409623,56.9455635 213.659956,55.0151212 C215.409062,53.9755144 213.827535,51.1865003 212.073193,52.229692 C207.028368,55.2266274 203.921175,62.8623601 206.106684,68.6590642 C203.296245,74.1349241 206.23935,81.7366007 210.44628,86.4883208 C211.80786,88.0298067 214.026535,85.7408793 212.666702,84.2083555 C209.854517,81.0303851 207.023131,76.4023424 208.222368,71.9840135 C208.31314,72.0772197 208.386456,72.1829728 208.482464,72.2743865 C212.026061,75.6871646 221.406992,75.0042505 220.986299,68.6339703 C220.651141,63.5416894 214.880141,62.1884081 211.050263,64.0507382" id="Fill-30" fill="#F24040"></path>
                <g id="Group-34" transform="translate(0.000000, 111.000000)">
                    <mask id="mask-4" fill="white">
                        <use xlink:href="#path-3"></use>
                    </mask>
                    <g id="Clip-33"></g>
                    <path d="M5.22828,16.89534 C7.33968,14.87214 11.22768,13.22334 12.87108,15.85134 C15.41808,19.92114 7.42788,19.35774 5.22828,16.89534 M6.23988,12.18294 C5.30028,12.62574 4.51908,13.14774 3.81168,13.70394 C3.10968,9.66474 5.57748,5.04954 8.92908,3.11094 C10.73448,2.06694 9.10368,-0.73566 7.29288,0.31194 C2.09088,3.32154 -1.11312,10.98954 1.14048,16.81074 C-1.75752,22.31154 1.27728,29.94354 5.61528,34.71714 C7.01928,36.26334 9.30708,33.96654 7.90488,32.42574 C5.00508,29.23434 2.08728,24.58674 3.32208,20.15154 C3.41568,20.24514 3.49128,20.34954 3.59028,20.44314 C7.24428,23.87034 16.91748,23.18274 16.48368,16.78554 C16.13808,11.67174 10.18728,10.31454 6.23988,12.18294" id="Fill-32" fill="#F24040" mask="url(#mask-4)"></path>
                </g>
                <path d="M47.0692624,29.7427449 C49.1186275,27.7281127 52.8891799,26.0862951 54.4829365,28.703166 C56.9529975,32.7557311 49.2024175,32.194717 47.0692624,29.7427449 M48.0503043,25.050301 C47.1408331,25.4930182 46.3832313,26.0110153 45.6972003,26.5666522 C45.0164061,22.5427651 47.4096595,17.9471097 50.6600153,16.0167193 C52.4091327,14.9771404 50.8275954,12.186409 49.0732412,13.2295726 C44.0283817,16.2264274 40.9211672,23.8637472 43.1066911,29.6585031 C40.2962331,35.1360082 43.2393587,42.7356881 47.4463176,47.4890728 C48.807906,49.0287249 51.0265968,46.7416514 49.6667541,45.2091688 C46.8545504,42.0294914 44.0231448,37.4015732 45.22239,32.9851554 C45.3131625,33.0783591 45.3864788,33.1823169 45.4824883,33.2755206 C49.0261093,36.688207 58.4053584,36.0035189 57.9864081,29.6334098 C57.6512479,24.5430582 51.880208,23.1898134 48.0503043,25.050301" id="Fill-35" fill="#F24040"></path>
                <path d="M109.637103,180.701591 C111.260275,178.073483 115.655022,180.280018 117.253112,181.603938 C117.365982,181.697223 117.450186,181.797683 117.555889,181.892761 C114.45108,184.737935 107.707571,183.819442 109.637103,180.701591 M121.776853,181.65955 C124.084408,175.863361 120.778942,168.170987 115.456157,165.216384 C113.639494,164.208195 112.010947,166.994169 113.829402,168.004152 C117.494975,170.040263 119.845529,174.360047 119.139646,178.602693 C118.596797,178.179325 118.01095,177.772103 117.335525,177.402553 C113.338509,175.215752 106.408675,175.996112 106.014527,181.636229 C105.577382,187.861168 115.122923,188.648703 118.854785,185.6349 C119.128897,185.414247 119.360011,185.168478 119.601874,184.928091 C121.010056,189.145622 117.872999,194.089694 114.90435,197.221897 C113.478252,198.728798 115.753559,201.016059 117.185032,199.503776 C121.683691,194.75883 124.852996,187.204589 121.776853,181.65955" id="Fill-37" fill="#F24040"></path>
                <path d="M38.4712646,176.519027 C37.1573213,177.209327 35.0718715,176.657799 34.4707928,175.278978 C33.7121143,173.531879 35.1928203,171.665578 36.8861028,171.213681 C38.4291157,171.220798 39.5011615,171.978704 39.6972451,173.535437 C39.8346869,174.634935 39.5414778,175.958603 38.4712646,176.519027 M42.9170476,172.959001 C42.4424153,169.891792 39.9757938,167.961444 36.8091354,168.000584 C36.6900192,168.002363 36.6020565,168.045062 36.4994333,168.066412 C36.3913125,168.06997 36.2960195,168.045062 36.1787359,168.06997 C32.7261987,168.788736 30.2687399,172.464405 31.1978462,175.826948 C32.0903014,179.048941 35.9533314,180.712421 39.1218223,179.708996 C42.0667412,178.776735 43.3531961,175.780691 42.9170476,172.959001" id="Fill-39" fill="#F7BA4A"></path>
                <path d="M216.473047,136.518527 C215.157279,137.208926 213.071842,136.657318 212.472599,135.278299 C211.713925,133.532728 213.19279,131.66438 214.886062,131.212418 C216.429066,131.219535 217.501105,131.977551 217.697188,133.536287 C217.836461,134.634164 217.541421,135.958022 216.473047,136.518527 M220.916971,132.957989 C220.444174,129.890339 217.977567,127.959712 214.809095,128.000638 C214.68998,128.000638 214.602017,128.045123 214.499395,128.064696 C214.391275,128.068255 214.295982,128.045123 214.180532,128.068255 C210.726183,128.787124 208.268739,132.463321 209.19784,135.826348 C210.090289,139.048804 213.955129,140.712524 217.121768,139.708954 C220.068502,138.776559 221.353117,135.780084 220.916971,132.957989" id="Fill-41" fill="#6194E5"></path>
                <path d="M83.4718521,164.517381 C82.1579251,165.207687 80.0725012,164.657933 79.47143,163.27732 C78.7127609,161.531984 80.191616,159.663887 81.8848775,159.211985 C83.4297038,159.219102 84.4999038,159.978794 84.6959849,161.535542 C84.8352575,162.633271 84.5402195,163.958731 83.4718521,164.517381 M87.91758,160.959101 C87.4429536,157.891863 84.9763627,155.959717 81.8079111,156.000637 C81.6887964,156.002417 81.6026673,156.045116 81.4982128,156.064686 C81.3900933,156.068245 81.2948015,156.045116 81.1793519,156.070024 C77.725025,156.787017 75.2675967,160.462721 76.198524,163.827074 C77.0891356,167.047318 80.9539502,168.712593 84.1224017,167.709158 C87.0672841,166.776888 88.3518906,163.779038 87.91758,160.959101" id="Fill-43" fill="#6194E5"></path>
                <path d="M181.471484,173.51916 C180.157604,174.207687 178.072256,173.657933 177.471206,172.279099 C176.712565,170.531984 178.193199,168.663887 179.886399,168.211985 C181.429337,168.219102 182.501331,168.977015 182.697405,170.535542 C182.83484,171.633271 182.541645,172.956952 181.471484,173.51916 M185.917052,169.957321 C185.442442,166.891863 182.97594,164.959717 179.809436,165.000637 C179.690325,165.002417 179.602367,165.045116 179.499748,165.064686 C179.3898,165.068245 179.296345,165.045116 179.179067,165.070024 C175.726697,165.787017 173.267525,169.462721 174.198418,172.827074 C175.09083,176.047318 178.953673,177.712593 182.12201,176.709158 C185.066786,175.776888 186.353179,172.779038 185.917052,169.957321" id="Fill-45" fill="#F7BA4A"></path>
                <g id="Group-49" transform="translate(80.000000, 0.000000)">
                    <mask id="mask-6" fill="white">
                        <use xlink:href="#path-5"></use>
                    </mask>
                    <g id="Clip-48"></g>
                    <path d="M7.9079,9.31208571 C6.4389,10.0939429 4.16204286,9.49965714 3.47304286,7.91737143 C2.60761429,5.92651429 4.22147143,3.74065714 6.12875714,3.24850265 C7.83547143,3.2448 9.04447143,4.13065714 9.27661429,5.8838 C9.44561429,7.14108571 9.10761429,8.67508571 7.9079,9.31208571 M12.0047571,5.4288 C11.5534714,2.34594286 9.17261429,0.420085714 6.08232857,0.457228571 C5.98018571,0.459085714 5.90404286,0.498085714 5.81304286,0.518514286 C5.71275714,0.518514286 5.62547143,0.498085714 5.51775714,0.522228571 C2.16561429,1.23908571 -0.237528571,4.90322857 0.6669,8.2758 C1.5249,11.4923714 5.28747143,13.1415143 8.35361429,12.1330857 C11.1857571,11.2026571 12.4133286,8.22565714 12.0047571,5.4288" id="Fill-47" fill="#6194E5" mask="url(#mask-6)"></path>
                </g>
                <path d="M14.4718149,63.5178701 C13.1578772,64.2082161 11.0724362,63.6584302 10.47136,62.2777382 C9.71268466,60.5323016 11.1915519,58.6658765 12.8866599,58.2121697 C14.4296663,58.2192867 15.499875,58.9790231 15.6959578,60.5358601 C15.8352315,61.6336525 15.5401911,62.959188 14.4718149,63.5178701 M18.9175793,59.9593856 C18.4429491,56.891972 15.9763378,54.9597149 12.8096928,55.0006375 C12.6905771,55.0024167 12.6026148,55.0451185 12.4981594,55.0646902 C12.390039,55.0682487 12.2947465,55.0451185 12.1792959,55.0700279 C8.72677319,55.7870625 6.26749215,59.462977 7.19842715,62.8257448 C8.08904606,66.0479525 11.9538923,67.711544 15.1223699,66.7098306 C18.0672765,65.7775077 19.3518935,62.7794845 18.9175793,59.9593856" id="Fill-50" fill="#F7BA4A"></path>
                <path d="M131.471815,14.5190426 C130.157877,15.2075604 128.072436,14.6578137 127.47136,13.2789991 C126.712685,11.5319077 128.193384,9.66561545 129.88666,9.2137201 C131.429666,9.21905744 132.501708,9.97873978 132.69779,11.5354659 C132.835232,12.6349593 132.540191,13.9586213 131.471815,14.5190426 M135.917579,10.9590324 C135.442949,7.89183725 132.976338,5.95971777 129.809693,6.00063742 C129.690577,6.00241654 129.602615,6.04511531 129.498159,6.06468558 C129.390039,6.06824382 129.294746,6.04511531 129.179296,6.07002293 C125.726773,6.78700649 123.267492,10.4644383 124.198427,13.8269667 C125.089046,17.048945 128.953892,18.712418 132.12237,17.7089968 C135.067276,16.7767403 136.351893,13.7789306 135.917579,10.9590324" id="Fill-52" fill="#F24040"></path>
                <path d="M97.2649246,113.729947 C97.9349411,115.070097 99.1155317,115.665718 100.797739,115.750038 C102.537274,115.837946 105.487854,114.975012 105.588178,115.077273 C106.680985,116.171638 110.633008,116.844404 111.410514,113.808885 C111.620118,112.990802 111.353186,111.862349 110.969808,111.148321 C110.217383,109.743586 110.066898,109.289693 109.536617,108.270677 C109.504371,108.20968 109.456,108.172005 109.414796,108.121772 C127.159485,102.879581 145.672721,88.6420641 144.981207,64.0278082 C144.375684,42.4454831 131.070303,31.7637572 113.314865,28.5183353 C95.2745815,25.2226801 74.7477122,38.0159935 71.6735188,56.2829289 C68.289398,76.3869634 77.7269567,98.7138158 98.4293918,108.36935 C98.4580556,108.383702 97.9080688,109.41707 97.9313581,109.435011 C97.0786099,110.732103 96.5931166,112.382622 97.2649246,113.729947" id="Fill-54" fill="#F7BA4A"></path>
                <path d="M107.882987,106.126744 C104.965005,106.457276 102.029839,106.41851 99.117013,106.006365 C98.5172629,105.922712 98,106.679671 98,107.334614 C98,108.122179 98.5155444,108.57513 99.117013,108.658783 C102.029839,109.068888 104.965005,109.109695 107.882987,108.779162 C108.484456,108.711832 109,108.218074 109,107.452953 C109,106.787808 108.487893,106.059413 107.882987,106.126744" id="Fill-56" fill="#263234"></path>
                <path d="M104.180104,109.686564 C104.228842,109.753699 104.277579,109.822556 104.318819,109.893134 C104.343187,109.934448 104.365682,109.975763 104.386301,110.017077 C104.461282,110.153069 104.341313,109.93617 104.337564,109.908627 C104.363807,110.080769 104.461282,110.258076 104.500647,110.43194 C104.513769,110.488747 104.566255,110.796881 104.534388,110.597196 C104.506271,110.411283 104.530639,110.573096 104.532514,110.612689 C104.538137,110.667775 104.543761,110.724581 104.54751,110.779667 C104.562506,110.986238 104.564381,111.192808 104.556883,111.399379 C104.549384,111.599064 104.532514,111.800471 104.508145,112.000156 C104.485651,112.177462 104.491274,112.046634 104.517518,111.948513 C104.506271,111.994991 104.502521,112.043191 104.493149,112.08967 C104.474404,112.192955 104.453784,112.297962 104.43129,112.401247 C104.341313,112.805782 104.219469,113.205152 104.058261,113.592472 C103.829569,114.138163 104.307572,114.842225 104.909292,114.966167 C105.604738,115.112488 106.163345,114.771646 106.405158,114.186363 C106.78381,113.284337 106.971262,112.294519 106.997506,111.328801 C107.021874,110.399233 106.873787,109.342279 106.283314,108.559032 C105.923406,108.077033 105.199842,107.811934 104.616867,108.156219 C104.097626,108.464353 103.792079,109.171858 104.180104,109.686564" id="Fill-58" fill="#263234"></path>
                <path d="M87.7809351,54.873826 C85.5725229,60.6801376 85.4173652,67.2617187 87.3189098,73.1829526 C87.7809351,74.6203932 89.946248,74.003826 89.4790507,72.5517921 C87.6912884,66.9807975 87.8654099,60.9628829 89.941076,55.5049865 C90.1703647,54.9066609 89.6928236,54.2098306 89.1583913,54.0474801 C88.5222445,53.8522946 88.0050519,54.2846213 87.7809351,54.873826" id="Fill-60" fill="#FFFFFF"></path>
            </g>
        </g>
    </g>
</svg>