<?xml version="1.0" encoding="UTF-8"?>
<svg width="24px" height="24px" viewBox="0 0 24 24" version="1.1" xmlns="http://www.w3.org/2000/svg" xmlns:xlink="http://www.w3.org/1999/xlink">
    <title>D49278DC-8C7C-4367-81BE-0F569AF80C80</title>
    <g id="UI-Kit" stroke="none" stroke-width="1" fill="none" fill-rule="evenodd">
        <g id="Icons" transform="translate(-402.000000, -502.000000)" fill="#4E4E4E">
            <g id="icon/gray/filter" transform="translate(402.000000, 502.000000)">
                <path d="M22.4918367,0.00066994263 L22.5111177,0.00144761922 L22.548927,0.00359760461 C23.3754244,0.0576301198 24.0023499,0.771731687 23.9480683,1.60379434 C23.5767257,6.7677134 19.9429753,11.0868862 14.974,12.3665407 L14.974,12.3665407 L14.974,19.145 C14.974,19.5908392 14.7758845,20.0133782 14.4341383,20.297166 L14.4341383,20.297166 L11.4328755,22.798216 C11.1633876,23.0217911 10.824041,23.145 10.474,23.145 C9.64578644,23.145 8.974,22.4732136 8.974,21.645 L8.974,21.645 L8.974,12.3662928 C4.00588988,11.0848248 0.374206546,6.76606957 0.00329422012,1.59404152 L0.00329422012,1.59404152 L0.00139859484,1.55905575 C0.00104644595,1.55045574 0.000811680026,1.5447224 0.000642497254,1.53966848 L-2.52242671e-13,1.5 C-2.52242671e-13,0.671786438 0.671786438,-8.8817842e-15 1.5,-8.8817842e-15 L1.5,-8.8817842e-15 L22.4918367,0.00066994263 L22.4918367,0.00066994263 Z M22.4441893,1.5 L1.50034109,1.5 C1.83879207,6.19588984 5.26077288,10.092726 9.8741156,11.0351767 C10.2232543,11.1065015 10.474,11.4136504 10.474,11.77 L10.474,11.77 L10.4738617,21.645 L13.474,19.145 L13.474,11.77 C13.474,11.4135298 13.7249115,11.106312 14.0741989,11.0351125 C18.6878494,10.0946555 22.111755,6.19752746 22.4516755,1.5004444 L22.4516755,1.5004444 L22.4441893,1.5 Z" id="Combined-Shape"></path>
            </g>
        </g>
    </g>
</svg>