<?xml version="1.0" encoding="UTF-8"?>
<svg width="287px" height="193px" viewBox="0 0 287 193" version="1.1" xmlns="http://www.w3.org/2000/svg" xmlns:xlink="http://www.w3.org/1999/xlink">
    <title>32843755-F3AC-459E-A842-05CD07932ECC</title>
    <defs>
        <rect id="path-1" x="0" y="0" width="287" height="193" rx="5"></rect>
        <polygon id="path-3" points="0.347637608 0.214033813 40.0491663 0.214033813 40.0491663 2.85 0.347637608 2.85"></polygon>
        <polygon id="path-5" points="0.347637608 0.214033813 40.0491663 0.214033813 40.0491663 2.85 0.347637608 2.85"></polygon>
        <polygon id="path-7" points="0.590325783 0.508946667 12.7011656 0.508946667 12.7011656 12.5222649 0.590325783 12.5222649"></polygon>
    </defs>
    <g id="UI-Kit" stroke="none" stroke-width="1" fill="none" fill-rule="evenodd">
        <g id="illustrations---donor-education" transform="translate(-50.000000, -1650.000000)">
            <g id="img_findfriends" transform="translate(50.000000, 1650.000000)">
                <mask id="mask-2" fill="white">
                    <use xlink:href="#path-1"></use>
                </mask>
                <g id="Mask-Copy-2" fill-rule="nonzero"></g>
                <g id="Group-113" mask="url(#mask-2)" fill="#F7BA4A">
                    <g transform="translate(169.500000, 96.612513) rotate(90.000000) translate(-169.500000, -96.612513) translate(151.000000, -11.234048)">
                        <polygon id="Fill-1" points="0 2.75580225 2.78823529 2.75580225 2.78823529 0 0 0"></polygon>
                        <polygon id="Fill-2" points="16.7294118 2.75580225 19.5176471 2.75580225 19.5176471 0 16.7294118 0"></polygon>
                        <polygon id="Fill-3" points="33.4588235 2.75580225 36.2470588 2.75580225 36.2470588 0 33.4588235 0"></polygon>
                        <polygon id="Fill-9" points="0 19.2906158 2.78823529 19.2906158 2.78823529 16.5348135 0 16.5348135"></polygon>
                        <polygon id="Fill-10" points="16.7294118 19.2906158 19.5176471 19.2906158 19.5176471 16.5348135 16.7294118 16.5348135"></polygon>
                        <polygon id="Fill-11" points="33.4588235 19.2906158 36.2470588 19.2906158 36.2470588 16.5348135 33.4588235 16.5348135"></polygon>
                        <polygon id="Fill-17" points="0 35.8254293 2.78823529 35.8254293 2.78823529 33.069627 0 33.069627"></polygon>
                        <polygon id="Fill-18" points="16.7294118 35.8254293 19.5176471 35.8254293 19.5176471 33.069627 16.7294118 33.069627"></polygon>
                        <polygon id="Fill-19" points="33.4588235 35.8254293 36.2470588 35.8254293 36.2470588 33.069627 33.4588235 33.069627"></polygon>
                        <polygon id="Fill-25" points="0 50.9823417 2.78823529 50.9823417 2.78823529 48.2265394 0 48.2265394"></polygon>
                        <polygon id="Fill-26" points="16.7294118 50.9823417 19.5176471 50.9823417 19.5176471 48.2265394 16.7294118 48.2265394"></polygon>
                        <polygon id="Fill-27" points="33.4588235 50.9823417 36.2470588 50.9823417 36.2470588 48.2265394 33.4588235 48.2265394"></polygon>
                        <polygon id="Fill-33" points="0 67.5171552 2.78823529 67.5171552 2.78823529 64.7613529 0 64.7613529"></polygon>
                        <polygon id="Fill-34" points="16.7294118 67.5171552 19.5176471 67.5171552 19.5176471 64.7613529 16.7294118 64.7613529"></polygon>
                        <polygon id="Fill-35" points="33.4588235 67.5171552 36.2470588 67.5171552 36.2470588 64.7613529 33.4588235 64.7613529"></polygon>
                        <polygon id="Fill-41" points="0 84.0519687 2.78823529 84.0519687 2.78823529 81.2961665 0 81.2961665"></polygon>
                        <polygon id="Fill-42" points="16.7294118 84.0519687 19.5176471 84.0519687 19.5176471 81.2961665 16.7294118 81.2961665"></polygon>
                        <polygon id="Fill-43" points="33.4588235 84.0519687 36.2470588 84.0519687 36.2470588 81.2961665 33.4588235 81.2961665"></polygon>
                        <polygon id="Fill-49" points="0 100.586782 2.78823529 100.586782 2.78823529 97.83098 0 97.83098"></polygon>
                        <polygon id="Fill-50" points="16.7294118 100.586782 19.5176471 100.586782 19.5176471 97.83098 16.7294118 97.83098"></polygon>
                        <polygon id="Fill-51" points="33.4588235 100.586782 36.2470588 100.586782 36.2470588 97.83098 33.4588235 97.83098"></polygon>
                        <polygon id="Fill-57" points="0 117.121596 2.78823529 117.121596 2.78823529 114.365793 0 114.365793"></polygon>
                        <polygon id="Fill-58" points="16.7294118 117.121596 19.5176471 117.121596 19.5176471 114.365793 16.7294118 114.365793"></polygon>
                        <polygon id="Fill-59" points="33.4588235 117.121596 36.2470588 117.121596 36.2470588 114.365793 33.4588235 114.365793"></polygon>
                        <polygon id="Fill-65" points="0 133.656409 2.78823529 133.656409 2.78823529 130.900607 0 130.900607"></polygon>
                        <polygon id="Fill-66" points="16.7294118 133.656409 19.5176471 133.656409 19.5176471 130.900607 16.7294118 130.900607"></polygon>
                        <polygon id="Fill-67" points="33.4588235 133.656409 36.2470588 133.656409 36.2470588 130.900607 33.4588235 130.900607"></polygon>
                        <polygon id="Fill-73" points="0 150.191223 2.78823529 150.191223 2.78823529 147.435421 0 147.435421"></polygon>
                        <polygon id="Fill-74" points="16.7294118 150.191223 19.5176471 150.191223 19.5176471 147.435421 16.7294118 147.435421"></polygon>
                        <polygon id="Fill-75" points="33.4588235 150.191223 36.2470588 150.191223 36.2470588 147.435421 33.4588235 147.435421"></polygon>
                        <polygon id="Fill-81" points="0 165.348135 2.78823529 165.348135 2.78823529 162.592333 0 162.592333"></polygon>
                        <polygon id="Fill-82" points="16.7294118 165.348135 19.5176471 165.348135 19.5176471 162.592333 16.7294118 162.592333"></polygon>
                        <polygon id="Fill-83" points="33.4588235 165.348135 36.2470588 165.348135 36.2470588 162.592333 33.4588235 162.592333"></polygon>
                        <polygon id="Fill-89" points="0 181.882949 2.78823529 181.882949 2.78823529 179.127146 0 179.127146"></polygon>
                        <polygon id="Fill-90" points="16.7294118 181.882949 19.5176471 181.882949 19.5176471 179.127146 16.7294118 179.127146"></polygon>
                        <polygon id="Fill-91" points="33.4588235 181.882949 36.2470588 181.882949 36.2470588 179.127146 33.4588235 179.127146"></polygon>
                        <polygon id="Fill-97" points="0 198.417762 2.78823529 198.417762 2.78823529 195.66196 0 195.66196"></polygon>
                        <polygon id="Fill-98" points="16.7294118 198.417762 19.5176471 198.417762 19.5176471 195.66196 16.7294118 195.66196"></polygon>
                        <polygon id="Fill-99" points="33.4588235 198.417762 36.2470588 198.417762 36.2470588 195.66196 33.4588235 195.66196"></polygon>
                        <polygon id="Fill-105" points="0 214.952576 2.78823529 214.952576 2.78823529 212.196773 0 212.196773"></polygon>
                        <polygon id="Fill-106" points="16.7294118 214.952576 19.5176471 214.952576 19.5176471 212.196773 16.7294118 212.196773"></polygon>
                        <polygon id="Fill-107" points="33.4588235 214.952576 36.2470588 214.952576 36.2470588 212.196773 33.4588235 212.196773"></polygon>
                    </g>
                </g>
                <g id="Group-244" mask="url(#mask-2)">
                    <g transform="translate(-18.000000, 10.000000)">
                        <g id="Group" transform="translate(0.000000, 34.969048)">
                            <path d="M3.60658609,17.7702419 C3.61094606,16.9267081 4.05479107,16.1271174 4.80557802,15.7247372 C9.26321204,13.3371663 14.3931535,14.2168884 19.1751694,12.573764 C22.5829224,11.4028116 25.5154387,8.84377675 28.5124826,6.93613256 C31.6324776,4.95008024 34.8684478,3.09068721 38.2099293,1.48978256 C44.350512,-1.45095349 48.6032274,0.509250003 54.7551461,2.67279768 C60.8713129,4.82342093 67.6004917,6.56735582 73.0879507,10.112093 C75.5155824,11.6811174 77.3703139,13.7257605 79.5084436,15.6290965 C83.1830268,18.899836 86.3579575,19.0066779 91.1155575,18.8946663 C97.7566648,18.7395733 104.549499,18.9687663 111.106895,20.101807 C117.657315,21.2331244 122.780281,24.1514581 127.956438,28.1459651 C134.195556,32.9616035 148.906097,41.2323698 146.241283,43.4915581 C143.662796,45.6740616 27.0763082,44.4229779 6.25657626,44.5203419 C4.72186658,44.5272349 3.48014694,43.2976919 3.48795789,41.7812267 L3.60658609,17.7702419 Z" id="Fill-1" fill="#9EC3EF"></path>
                            <path d="M175.290858,91.5837227 C173.353287,96.1882622 170.255964,102.343732 175.828879,105.018225 C182.047941,108.002042 190.803634,107.802145 197.513629,108.275178 C205.536847,108.840406 214.123373,109.602085 222.151823,108.740458 C226.606841,108.262254 229.813164,105.69288 231.105459,101.850881 C231.249338,101.72336 231.381881,101.566544 231.490008,101.362338 C235.387822,93.9506145 240.484628,84.7699692 241.142983,76.3001669 C241.66182,69.6277203 236.652214,65.1119285 229.970995,65.8003692 C225.917966,66.2182587 222.158799,68.375775 218.660359,70.2661866 C214.649186,72.4323192 210.76358,74.8164436 206.993077,77.3711703 C201.183852,81.3079483 196.195174,84.4804622 191.067848,88.1277331 C186.508191,91.3709006 180.806221,92.636632 175.290858,91.5837227" id="Fill-5" fill="#6194E5"></path>
                            <path d="M64.8124278,33.4499463 C65.8823646,38.169944 66.717735,42.9450858 67.9594546,47.624587 C68.3867318,49.231523 70.9111548,48.5499753 70.4821337,46.9370079 C69.239542,42.2575067 68.4041717,37.4823649 67.3351068,32.7623672 C66.9671253,31.1399219 64.4453183,31.8266393 64.8124278,33.4499463" id="Fill-7" fill="#9142A1"></path>
                            <path d="M64.8643987,24.0721605 C65.2140683,32.2378081 62.0164658,40.0036605 63.2206897,48.2080814 C63.4613601,49.8477593 65.9822951,49.1507023 65.7433688,47.521364 C64.5818726,39.60645 67.8187148,31.9732884 67.4803811,24.0721605 C67.4097495,22.41525 64.7928951,22.4057721 64.8643987,24.0721605" id="Fill-9" fill="#9142A1"></path>
                            <path d="M82.9672585,24.1908066 C82.6428767,23.1602997 75.4323572,33.9556357 75.4323572,33.9556357 C76.8571956,38.3654473 77.1449537,42.5210787 77.6044946,47.0963229 C77.7693015,48.7385857 83.2707125,48.168188 83.1032896,46.5095543 C83.043994,45.9167543 82.9820824,45.3230927 82.9149389,44.7311543 C83.4320314,44.9319136 84.0528912,44.8836624 84.4435446,44.5665834 C85.2893789,45.1559369 86.7813608,44.8483357 86.6662576,43.6187927 C86.0558617,37.097131 84.9431972,30.4824136 82.9672585,24.1908066" id="Fill-11" fill="#9142A1"></path>
                            <path d="M62.0627687,44.9539713 C62.311287,46.5540143 62.5624213,48.1497492 62.8597713,49.7273899 C62.1996718,48.2815783 61.725307,46.8219806 61.3756373,45.3503201 C61.6302596,45.2736352 61.870058,45.1392213 62.0627687,44.9539713 M69.8331084,8.20640267 C65.1321881,7.26378174 60.6318263,9.77456547 57.3888801,12.7738922 C53.7805684,16.1101155 52.4533933,20.5612852 53.1972043,25.1753027 C53.4256668,33.1737945 50.1888246,40.8043713 51.4436241,48.8545608 C51.6415668,50.1237387 53.2835318,49.9901864 53.9009036,49.1113259 C54.5104275,48.997591 55.6832596,49.3818771 56.0372892,50.1297701 C56.7575564,51.6488201 59.8923753,50.0875503 61.0974712,52.3174434 C61.8133784,53.6434887 63.7928051,52.7448108 63.6428221,51.4816643 C64.5191762,51.9047236 65.9684304,51.2111131 65.7207841,49.9876015 C64.6647992,44.7825073 64.5183042,25.0202097 64.3064096,20.3519097 C64.2314181,18.6949992 71.5823287,8.55708523 69.8331084,8.20640267" id="Fill-13" fill="#9142A1"></path>
                            <path d="M83.426189,17.0087072 C81.788584,13.2209909 79.6181906,10.2612991 74.5440568,9.57458163 C74.3138503,9.5427014 69.2379724,9.33160256 69.0199739,9.41259558 C65.2442393,10.8118793 60.7543415,12.7281398 58.0537757,18.6311526 C57.1285899,20.6525316 56.4240186,25.6740991 57.0300546,27.8100747 C57.7555537,30.3604933 59.046977,32.7894223 63.3886358,33.8190677 C63.7723132,33.9104002 64.250166,33.9164316 64.1961024,33.5019886 C63.5412348,28.5097165 72.7965805,23.8896677 76.2060776,19.7133572 C77.9884336,23.1796863 78.9118754,26.8312653 78.375599,30.9171049 C78.3215354,31.3315479 78.8037481,31.4289119 79.0749383,31.2203979 C79.2196893,31.2307374 79.3714163,31.1850712 79.4751836,31.0368712 C80.9776295,28.9077886 83.2020865,26.5943177 83.9267136,24.0438991 C84.5336216,21.9079235 84.3077751,19.0481805 83.426189,17.0087072" id="Fill-15" fill="#6194E5"></path>
                            <path d="M49.1770498,67.5430978 L84.7596424,77.0468536 C84.7692344,79.6377687 84.8860816,82.2286838 85.3752703,84.7480838" id="Fill-17" fill="#C59AC7"></path>
                            <path d="M96.5449048,85.4387648 C95.4915359,78.9274427 96.6251282,66.4622717 96.66524,65.5153427 C97.1439647,54.1797659 95.2665614,47.6632741 89.373625,44.6501613 C86.3512933,43.1044008 82.98714,42.8803776 79.5811309,42.1092206 C78.5713617,41.8800276 78.3455152,41.0632043 78.2426199,39.980138 C78.2391319,39.9456729 78.078685,35.1274497 78.078685,35.1274497 L63.7160696,34.1374392 L63.5320788,39.1107555 C63.3480881,39.8379694 63.2800725,40.8615834 62.4883018,41.6577276 C61.3817413,42.7718124 60.3571482,43.3318706 59.338659,43.7945648" id="Fill-19" fill="#C59AC7"></path>
                            <path d="M101.575875,76.4059748 C104.012227,75.7123643 106.293363,74.5534748 108.244886,72.9542934 C113.251876,68.8538062 117.624927,64.5878864 121.802651,59.4293201 C122.845556,58.0076341 123.812597,57.3088538 123.66087,55.7484457 C123.357416,52.644862 121.391942,53.1601155 120.141502,51.5445631 C119.955767,51.304169 118.634696,50.5131945 118.422802,50.4925155 C118.178643,50.442541 116.790429,52.4113608 116.558478,52.6353841 C113.877968,55.2176829 111.19833,57.8068748 108.328598,60.186691 C105.669015,62.3915969 99.6208641,67.9697759 95.6628827,66.8091631 L94.734209,78.3523922 L101.575875,76.4059748 Z" id="Fill-21" fill="#C59AC7"></path>
                            <path d="M223.299106,52.678373 C223.5546,52.056284 224.923631,48.3038944 223.017452,48.7088595 C222.250097,48.8708456 221.908275,49.9013526 221.637957,50.5105235 C221.131328,51.6504572 220.643012,52.7895293 219.993376,53.8579479 L223.299106,52.678373 Z" id="Fill-23" fill="#ED803B"></path>
                            <path d="M206.215171,76.4059748 C208.651523,75.7123643 210.932659,74.5534748 212.884182,72.9542934 C217.891173,68.8538062 222.264223,64.5878864 226.441947,59.4293201 C227.484852,58.0076341 228.312374,57.741391 226.966888,56.912505 C225.219411,55.8371934 223.802421,54.3724259 222.551109,52.7568736 C222.365374,52.5164794 222.150864,52.4372097 221.938097,52.415669 C221.693939,52.3665562 221.429725,52.4113608 221.197774,52.6353841 C218.517264,55.2176829 205.629191,64.9049655 200.347523,67.2322224 L199.373505,78.3523922 L206.215171,76.4059748 Z" id="Fill-25" fill="#ED803B"></path>
                            <path d="M201.681848,85.9882249 C200.607551,79.3485202 200.891821,66.6343388 200.932805,65.668454 C201.421122,54.1079923 199.506223,47.4613947 193.495567,44.3888295 C190.413068,42.8129121 189.214076,42.5570086 185.740923,41.7703423 C184.711098,41.5359795 184.843641,40.6476412 184.739874,39.5430342 C184.736386,39.5085691 184.734642,39.4792737 184.735514,39.4585947 L184.67709,34.2853807 L168.275753,29.831626 L168.02549,38.1825237 C168.02549,38.9398947 167.764764,39.5214935 167.431662,40.2030412 C167.283423,40.5080574 167.092457,40.8087656 166.850042,41.0534679 C165.721682,42.1890935 164.773824,43.0438284 163.735279,43.5160005 C161.639877,44.4680993 160.137431,44.3905528 158.064701,45.4210598 C154.70578,47.0917563 152.008702,50.3926528 151.485506,54.1381493 C151.039917,57.3287574 151.682576,62.8991819 152.735945,67.986233 C152.94348,68.9917528 153.58178,68.7522202 153.371629,67.7363609 L189.662281,77.4296749 C189.671873,80.0722877 189.791336,82.7140388 190.290117,85.2851365" id="Fill-27" fill="#ED803B"></path>
                            <path d="M194.625061,57.6108544 C194.263184,55.108687 193.419093,54.5641381 191.692545,52.848637 C187.356118,48.5387742 184.430578,49.4658858 179.539563,49.5727277 C173.558555,49.7036951 164.014579,53.6327184 163.008298,60.8548835 C162.329886,65.7230812 162.369126,70.6231591 161.610491,75.5180672 C160.865808,80.3225044 160.071421,83.3209695 160.265876,88.1771044 C160.26762,88.215016 159.498521,89.3894149 159.437482,90.7240765 C159.364234,92.306887 160.290292,92.5283253 160.63473,92.57313 C168.747763,93.6389637 177.897598,92.3542765 186.034175,91.6718672 C187.721484,91.5305602 191.15278,91.9208777 192.553203,90.586216 C193.440021,89.7409591 193.608316,87.7971265 193.691155,86.1626184 C193.727779,86.0721474 193.760915,85.97823 193.765275,85.8644951 C193.991121,80.7110986 194.21784,75.5559788 194.443686,70.4025823 C194.627677,66.2021463 195.228481,61.7931963 194.625061,57.6108544" id="Fill-29" fill="#DB0063"></path>
                            <path d="M160.542298,92.5732162 C159.897895,99.4266045 158.683207,104.182791 164.256121,106.856422 C170.474312,109.840239 176.9541,105.942235 183.664967,106.415268 C191.687313,106.981358 200.273839,107.741314 208.302289,106.880548 C212.757307,106.403206 215.964502,103.832108 217.256797,99.9909708 C217.399804,99.8625883 217.532347,99.7066336 217.640474,99.5015662 C221.53916,92.0907045 226.635094,82.9100592 227.293449,74.4402569 C227.812286,67.7678103 222.80268,63.2528801 216.12146,63.9404592 C212.068432,64.3574871 208.309265,66.5167266 204.810825,68.405415 C200.799652,70.5724092 196.914046,72.955672 193.144415,75.5103987 C187.334318,79.4480383 181.901795,82.6481243 176.204185,85.3458813 C169.952859,88.3064348 168.26555,89.0663906 160.572818,92.4620662 L160.542298,92.5732162 Z" id="Fill-31" fill="#6194E5"></path>
                            <path d="M160.796136,88.8246178 C161.71609,88.3136724 162.668307,87.8656259 163.588261,87.3546806 C164.175113,87.0289852 163.648429,86.1354771 163.059833,86.4620341 C162.140751,86.9729794 161.187661,87.4210259 160.268579,87.9319713 C159.680855,88.2585283 160.208412,89.1520364 160.796136,88.8246178" id="Fill-33" fill="#009EA1"></path>
                            <path d="M199.855282,99.0110414 C201.082178,95.1199298 202.308201,91.2305414 203.535097,87.3394298 C203.735656,86.7035484 202.725887,86.4304123 202.5262,87.0654321 C201.299304,90.9548205 200.07328,94.8459321 198.846385,98.7361821 C198.645826,99.3729251 199.655595,99.6451995 199.855282,99.0110414" id="Fill-35" fill="#055CE5"></path>
                            <path d="M196.846728,76.9848164 C190.761081,76.9098548 175.509903,76.9503513 169.438208,76.5488327 C167.838099,71.7099303 165.524698,66.3988559 164.498361,61.4065838 L151.741959,64.411942 C152.871192,72.3234094 154.305622,79.0794338 158.363011,85.9931362 C158.383066,86.0267397 159.155653,87.1942455 159.609962,87.5182176 C163.611543,90.3667594 169.71899,90.0393408 174.731212,89.5507978 C180.354703,89.0028024 199.391207,86.0008908 199.54119,85.9991676 L197.784993,80.3529199 L196.846728,76.9848164 Z" id="Fill-37" fill="#ED803B"></path>
                            <path d="M168.384316,78.7122942 C168.91536,78.2004872 169.445533,77.6886802 169.976577,77.1768733 C170.579997,76.5944128 169.654811,75.6802256 169.051391,76.262686 C168.521219,76.774493 167.990175,77.2871616 167.45913,77.798107 C166.856582,78.3805674 167.781768,79.2947547 168.384316,78.7122942" id="Fill-39" fill="#E06C2B"></path>
                            <path d="M98.9479462,62.4608717 C98.6410043,61.5509927 96.7191292,57.0662194 96.30842,54.5769764 C95.6971521,50.8693915 93.4979829,46.827495 90.0684299,44.7914683 C87.7846773,43.4352659 84.9288965,42.8855473 82.8256467,42.5477892 C81.1113062,42.2712066 79.9001063,42.085095 79.8791785,42.1436857 C78.46742,46.0856334 68.2581126,49.1185636 60.7816349,43.4163101 C60.2985502,43.0492566 58.4743384,43.752345 58.5798497,44.3227427 C59.9924802,51.9955392 57.8621986,59.7631148 56.7190143,67.5556776 C56.5106077,68.976502 54.680292,84.8864613 55.0003138,88.7827427 C55.0282176,89.124809 55.1921525,89.4237938 55.4581107,89.6021508 C56.9509647,90.6050857 64.6663688,94.9270113 74.5556543,94.6263031 C83.6243933,94.3514438 84.7204899,91.4503427 85.9212258,90.3577985 C86.2211918,90.0846624 86.4008226,89.6900369 86.4269824,89.2678392 C86.5987653,86.3951717 87.5047672,79.1962706 87.8997805,77.8659171 C88.9845412,74.207445 89.6803925,70.6652927 89.9507107,67.3351008 C91.0093116,67.4531438 92.1664478,66.9982043 92.8099795,66.100388 C93.3009122,66.6449369 94.958573,66.463995 95.6605283,65.2827031 C96.2901081,65.604952 97.2414537,65.894459 98.089032,65.190509 C99.2548882,64.2194543 99.271456,63.419002 98.9479462,62.4608717" id="Fill-41" fill="#F24040"></path>
                            <path d="M54.9488662,89.1065424 C53.0714628,93.711082 51.8157912,100.484339 57.2169229,103.15797 C63.2441464,106.141788 71.7303933,105.94189 78.2337255,106.415785 C86.0092972,106.981013 94.3316093,107.741831 102.112413,106.881065 C106.430528,106.402861 109.538315,103.832625 110.790499,99.9914878 C110.930018,99.8622436 111.058201,99.7071506 111.16284,99.5012215 C114.941191,92.0912215 119.880165,82.9105762 120.518465,74.4407738 C121.020734,67.7674657 116.166342,63.2525355 109.690914,63.9401145 C105.76258,64.3571424 102.118517,66.516382 98.7282037,68.4067936 C94.8487018,70.5677564 91.0877911,72.946711 87.4419836,75.496268 C81.8027975,79.439939 76.9614861,82.6158994 71.9867596,86.2674785 C68.3862958,88.9100913 64.0507409,90.2395831 59.6759464,90.0724273 C58.0627572,90.0103901 56.4748559,89.6459215 54.9488662,89.1065424" id="Fill-43" fill="#F7BA4A"></path>
                            <path d="M72.6531375,91.5837227 C70.7757341,96.1882622 67.7734583,102.343732 73.17459,105.018225 C79.2018134,108.002042 87.6880604,107.802145 94.1922646,108.275178 C101.966964,108.840406 110.289276,109.602085 118.070952,108.740458 C122.388195,108.262254 125.495982,105.69288 126.748166,101.850881 C126.887685,101.72336 127.015868,101.566544 127.120507,101.362338 C130.898858,93.9506145 135.838704,84.7699692 136.476132,76.3001669 C136.979273,69.6277203 132.124009,65.1119285 125.648581,65.8003692 C121.720247,66.2182587 118.077056,68.375775 114.686743,70.2661866 C110.799393,72.4323192 107.032378,74.8164436 103.378723,77.3711703 C97.7482567,81.3079483 92.9130492,84.4804622 87.9444266,88.1277331 C83.5251604,91.3709006 77.9993335,92.636632 72.6531375,91.5837227" id="Fill-45" fill="#F7BA4A"></path>
                            <path d="M95.2159857,99.0110414 C96.4428815,95.1199298 97.6689052,91.2305414 98.895801,87.3394298 C99.0963596,86.7035484 98.0865904,86.4304123 97.8869038,87.0654321 C96.660008,90.9548205 95.4339843,94.8459321 94.2070885,98.7361821 C94.0065299,99.3729251 95.0162991,99.6451995 95.2159857,99.0110414" id="Fill-47" fill="#ED803B"></path>
                            <path d="M212.854709,79.773389 C213.071835,79.3839331 213.159035,78.9436413 212.988124,78.4680227 C212.897437,78.217289 212.550383,77.7252994 212.019338,77.4874901 C211.346159,77.1859203 210.467189,77.1678262 210.427077,77.179889 C210.897954,76.8645331 211.43423,76.4027006 211.619965,76.0296157 C212.067298,75.1343843 211.555438,74.3399634 210.488989,74.1529901 C209.316157,73.9453378 201.277243,75.9951506 196.243221,77.0678773 L197.332341,86.3415785 C199.100745,87.0774087 206.235401,88.4663529 209.104262,87.961439 C209.713786,87.9183576 210.538692,87.8726913 210.977305,87.6564227 C212.044626,87.1316913 212.354184,86.1563285 212.02457,85.4635797 C212.299249,85.3248576 212.550383,85.1370227 212.757046,84.8888738 C213.323842,84.2047413 213.322098,83.283661 212.784077,82.6762134 C213.676127,81.942968 213.737167,80.6307087 212.854709,79.773389" id="Fill-49" fill="#ED803B"></path>
                            <path d="M295.679241,89.2622386 C295.531002,88.7306142 295.259811,88.3359886 294.92671,88.0464816 C294.710455,86.6790781 293.522799,85.4443653 291.780555,85.9277386 C245.471562,98.7642712 197.281678,101.390513 149.411816,99.9869212 C125.822631,99.2958956 102.274429,97.6708653 78.7497717,95.8597235 C54.7245893,94.0115316 30.5590158,92.3632374 7.37443575,85.4228247 C5.78915041,84.9489293 4.65730202,85.9303235 4.31112035,87.1521119 C3.81582768,87.3235758 3.35715877,87.6647805 3.01446507,88.2360398 C-6.25483258,103.67555 7.45814718,120.037003 22.3736069,124.597599 C33.3302132,127.947608 45.2686849,127.451311 56.6011206,127.703768 C70.1231337,128.006199 83.6451467,128.306907 97.1671598,128.608477 C124.648055,129.221094 152.128078,129.834573 179.608973,130.446329 C205.209849,131.017589 231.655687,133.149256 257.134484,129.871623 C277.349052,127.27123 302.361332,113.21291 295.679241,89.2622386" id="Fill-51" fill="#FCC7AD"></path>
                            <path d="M1.10279233,94.1290577 C18.8853687,100.429281 37.8512412,102.576458 56.5119156,104.741729 C76.1649195,107.023319 95.8859388,108.731066 115.640094,109.868415 C154.856286,112.124157 194.259957,112.206011 233.473533,109.835673 C254.186882,108.582866 275.012718,106.239238 294.723273,99.5133705 C295.408661,99.2798693 295.11259,98.1976647 294.421563,98.4328891 C276.747114,104.464284 258.152711,106.976791 239.57226,108.313176 C220.375309,109.693504 201.097263,110.266487 181.853225,110.406932 C142.852415,110.692131 103.835037,108.746575 65.0609461,104.577158 C43.7171457,102.282643 21.7394055,100.252647 1.4045023,93.0494379 C0.715848272,92.8055972 0.420020922,93.8878019 1.10279233,94.1290577" id="Fill-53" fill="#FFFFFF"></path>
                            <path d="M172.272102,131.673804 C194.574224,97.8566323 218.033482,64.8106172 239.667657,30.5626312 C240.710562,28.9108905 238.071035,27.3961486 237.03249,29.0409963 C215.398316,63.2889823 191.939058,96.3341358 169.636936,130.151308 C168.561767,131.78237 171.203037,133.295388 172.272102,131.673804" id="Fill-55" fill="#009EA1"></path>
                            <path d="M108.2155,79.773389 C108.432626,79.3839331 108.519826,78.9436413 108.348915,78.4680227 C108.258228,78.217289 107.911174,77.7252994 107.380129,77.4874901 C106.70695,77.1859203 105.82798,77.1678262 105.787868,77.179889 C106.258745,76.8645331 106.795021,76.4027006 106.980756,76.0296157 C107.428089,75.1343843 106.916229,74.3399634 105.84978,74.1529901 C104.676948,73.9453378 96.6380338,75.9951506 91.6040116,77.0678773 L92.6931323,86.3415785 C94.4615364,87.0774087 101.596192,88.4663529 104.465053,87.961439 C105.074577,87.9183576 105.899483,87.8726913 106.338097,87.6564227 C107.405417,87.1316913 107.714975,86.1563285 107.385361,85.4635797 C107.66004,85.3248576 107.911174,85.1370227 108.117837,84.8888738 C108.684633,84.2047413 108.682889,83.283661 108.144868,82.6762134 C109.036918,81.942968 109.097958,80.6307087 108.2155,79.773389" id="Fill-57" fill="#C59AC7"></path>
                            <path d="M67.6328056,131.673804 C89.9349276,97.8566323 113.394186,64.8106172 135.02836,30.5626312 C136.071265,28.9108905 133.431739,27.3961486 132.393194,29.0409963 C110.75902,63.2889823 87.2997614,96.3341358 64.9976394,130.151308 C63.9224706,131.78237 66.5637408,133.295388 67.6328056,131.673804" id="Fill-59" fill="#009EA1"></path>
                            <path d="M195.99819,76.9874013 L197.087311,86.2611024 C198.854843,86.996071 205.989499,88.3850152 208.85836,87.8809629 C209.468756,87.8378815 210.29279,87.7922152 210.731403,87.5759466 C211.799596,87.0503536 212.108282,86.0758524 211.77954,85.3831036 C212.054218,85.2443815 212.305353,85.055685 212.511143,84.8075362 C213.077939,84.1234036 213.076195,83.203185 212.539047,82.5957373 C213.431097,81.8616303 213.491265,80.5502327 212.608807,79.6929129 C212.825933,79.3034571 212.913132,78.8631652 212.743094,78.3875466 C212.652406,78.1368129 212.305353,77.6448234 211.774308,77.4061524 C211.100257,77.1054443 210.221287,77.0864885 210.182047,77.0994129 L195.99819,76.9874013 Z" id="Fill-61" fill="#ED803B"></path>
                            <path d="M204.592913,77.7639865 C205.900032,77.6373272 207.207152,77.5916609 208.519503,77.6287109 C209.192682,77.6476667 209.192682,76.6137133 208.519503,76.5956191 C207.207152,76.5585691 205.900032,76.6025121 204.592913,76.730033 C203.929326,76.7946551 203.92235,77.8294702 204.592913,77.7639865" id="Fill-63" fill="#263234"></path>
                            <path d="M175.453921,147.593759 C177.247613,144.047298 179.532238,140.042452 178.375102,135.943688 C177.478692,132.766866 174.486008,130.552482 171.256141,130.093234 C163.121308,128.938653 156.512465,137.610076 152.418452,146.89584 L175.453921,147.593759 Z" id="Fill-65" fill="#009EA1"></path>
                            <path d="M164.955548,145.570915 C166.420498,142.736159 167.884576,139.901403 169.348654,137.066647 C169.67914,136.425596 168.701635,135.858645 168.370277,136.501419 L163.97717,145.005687 C163.645813,145.645876 164.623318,146.213689 164.955548,145.570915" id="Fill-67" fill="#006B66"></path>
                            <path d="M231.355198,44.8496281 C231.29067,44.3619467 231.172079,43.6864305 230.888681,43.1556677 C230.435244,41.8184212 229.355715,40.7551723 227.957909,40.2631828 C227.20625,39.9969398 226.339488,40.5621677 226.139801,41.2824886 C226.055218,41.58492 226.072658,41.874427 226.166833,42.1329153 C225.956682,42.0794944 225.743916,42.0303816 225.524173,42.0071177 C224.728915,41.9235398 224.046143,42.7386398 224.046143,43.467577 C224.046143,43.7553607 224.126367,44.0017863 224.258038,44.208577 C224.153398,44.201684 224.047887,44.1956526 223.941504,44.201684 C223.244781,44.2413188 222.15566,44.572184 222.075436,46.5272177 C221.602816,46.95717 220.972364,48.2702909 221.127579,49.8444851 C221.173795,50.3140723 221.585376,50.7793514 221.995213,50.5303409 C222.39633,50.2865002 222.697168,50.2796072 222.790472,50.6147805 C222.499226,51.2273979 219.925971,56.4368002 222.003933,59.345656 C222.98231,60.7147828 224.944297,58.641706 226.490343,58.2677595 C226.634222,58.2332944 226.725781,58.153163 226.780717,58.0566607 C226.994355,58.2048607 227.296065,58.2005526 227.511448,57.9455107 C229.683585,55.3683816 231.951642,49.3576653 231.355198,44.8496281" id="Fill-69" fill="#ED803B"></path>
                            <path d="M224.286029,44.8134398 C224.837129,44.9039107 225.328934,45.1546444 225.662036,45.6087223 C226.053561,46.14207 226.962179,45.6268165 226.565421,45.0865758 C226.077105,44.4205374 225.394333,43.9535351 224.564195,43.8165363 C223.905839,43.7071095 223.622441,44.7031514 224.286029,44.8134398" id="Fill-71" fill="#263234"></path>
                            <path d="M222.528437,47.0988216 C223.079538,47.1892926 223.571342,47.4400263 223.904444,47.8941042 C224.29597,48.4274519 225.204587,47.9121984 224.80783,47.3719577 C224.318641,46.7059193 223.636742,46.238917 222.806604,46.1019181 C222.147376,45.9924914 221.86485,46.9885333 222.528437,47.0988216" id="Fill-73" fill="#263234"></path>
                            <path d="M79.9160638,28.6916062 C80.5526195,28.2909492 81.2563188,29.2240922 80.6171471,29.6264724 C80.0922066,29.9573376 79.745153,30.3821201 79.5524423,30.8422294 C79.3710675,31.2764899 79.4216432,31.7762341 79.6893454,32.1639666 C80.044247,32.6800817 80.7060905,33.1315748 81.9408342,33.096248 C82.8259083,33.0703992 83.3961924,32.7981248 83.7633019,32.4551969 C84.5611766,31.7107503 84.4155536,30.4846538 83.5208876,29.8565271 C83.2932971,29.6954027 83.0247229,29.5704666 82.714293,29.4903352 C81.9887939,29.3025003 82.1684247,28.1513655 82.9026437,28.3417852 C86.6618105,29.3128399 86.6452426,35.2098213 82.5154783,35.5656736 C78.6228965,35.8991236 76.4612231,30.8680783 79.9160638,28.6916062" id="Fill-75" fill="#F7BA4A"></path>
                            <path d="M226.263363,42.6274036 C226.823183,42.936728 227.282724,43.397699 227.53473,43.9879141 C227.645473,44.2472641 227.88004,44.4273443 228.179134,44.3489362 C228.425036,44.2851757 228.653499,43.9706815 228.544499,43.7139164 C228.183494,42.8677978 227.607106,42.1853885 226.790919,41.7347571 C226.203195,41.4099234 225.674767,42.3025699 226.263363,42.6274036" id="Fill-77" fill="#263234"></path>
                            <path d="M229.392426,51.9942467 C229.12734,52.5637828 230.065606,52.8636293 230.328948,52.3001247 C230.953296,50.9628781 232.072936,49.9823456 232.877787,48.7640037 C233.360872,48.03162 233.952084,46.9606165 233.252744,46.1748119 C231.575028,44.2912933 228.938117,48.631313 228.266682,49.6049526 C227.909164,50.1236526 228.735815,50.655277 229.09246,50.1374386 L229.392426,51.9942467 Z" id="Fill-79" fill="#ED803B"></path>
                            <path d="M231.070841,46.5712469 C230.91301,47.9257259 230.691523,49.2595259 230.330518,50.5760934 C230.154375,51.220591 231.163272,51.4945887 231.340287,50.8518143 C231.725708,49.4447759 231.948939,48.0179201 232.117234,46.5712469 C232.193969,45.9112399 231.146704,45.9172713 231.070841,46.5712469" id="Fill-81" fill="#263234"></path>
                            <path d="M82.601021,19.9836499 C82.7161242,20.9047301 82.1850798,23.7291464 82.2809991,24.6519499 C82.5085896,26.849101 83.1277054,31.2959627 82.2557113,33.666301 C80.967776,37.1705417 76.4517183,40.0199452 69.0205843,38.0562952 C60.5343374,35.8126162 62.3105894,24.6821069 62.3105894,24.6821069 C62.3105894,24.6821069 63.1956635,16.3277627 68.2820053,14.4192569 C71.5833751,13.1810976 73.3997389,13.4275231 75.4977567,13.6860115 C76.4290465,13.800608 81.8807538,14.208158 82.601021,19.9836499" id="Fill-83" fill="#C59AC7"></path>
                            <path d="M92.2074316,76.9848164 C86.1217845,76.9098548 70.8706071,76.9503513 64.7989119,76.5488327 C63.2249625,71.5582838 63.6374157,66.6039234 62.6110786,61.6116513 L49.8442125,62.4612164 C50.9743169,70.3718222 50.5810475,75.318428 54.1492475,84.7489455 C54.1631994,84.7859955 54.9410182,85.9491931 55.3961991,86.2731652 C59.3969082,89.1225687 65.3421643,88.9623059 70.0300047,88.9011303 C75.6813987,88.8261687 94.7519104,86.0008908 94.9018934,85.9991676 L93.1456972,80.3529199 L92.2074316,76.9848164 Z" id="Fill-85" fill="#C59AC7"></path>
                            <path d="M91.4814964,77.0479737 L92.5706171,86.3216749 C94.3390212,87.0566435 101.472805,88.4464493 104.341666,87.9415353 C104.952062,87.898454 105.776968,87.8527877 106.214709,87.6365191 C107.282902,87.1117877 107.591588,86.1364249 107.262846,85.443676 C107.537524,85.304954 107.788659,85.1162574 107.994449,84.8681086 C108.561246,84.183976 108.559502,83.2637574 108.022353,82.6563098 C108.914403,81.9222028 108.974571,80.6108051 108.092113,79.7534853 C108.310111,79.3640295 108.397311,78.9237377 108.2264,78.4481191 C108.135712,78.1973853 107.788659,77.7053958 107.257614,77.4667249 C106.584435,77.1660167 105.705465,77.1470609 105.665353,77.1599853 L91.4814964,77.0479737 Z" id="Fill-87" fill="#C59AC7"></path>
                            <path d="M100.383249,77.7639865 C101.690368,77.6373272 102.997487,77.5916609 104.309838,77.6287109 C104.983018,77.6476667 104.983018,76.6137133 104.309838,76.5956191 C102.997487,76.5585691 101.690368,76.6025121 100.383249,76.730033 C99.719661,76.7946551 99.7126851,77.8294702 100.383249,77.7639865" id="Fill-89" fill="#263234"></path>
                            <path d="M70.814625,147.593759 C72.608317,144.047298 74.8929416,140.042452 73.7358054,135.943688 C72.8393954,132.766866 69.8467116,130.552482 66.6168453,130.093234 C58.482012,128.938653 51.8731684,137.610076 47.779156,146.89584 L70.814625,147.593759 Z" id="Fill-91" fill="#009EA1"></path>
                            <path d="M60.3162517,145.570915 C61.7812018,142.736159 63.24528,139.901403 64.7093581,137.066647 C65.0398439,136.425596 64.0623385,135.858645 63.7309807,136.501419 L59.3378742,145.005687 C59.0065165,145.645876 59.9840219,146.213689 60.3162517,145.570915" id="Fill-93" fill="#006B66"></path>
                            <path d="M126.476627,45.7962987 C126.416459,45.3387743 126.304844,44.7063394 126.039758,44.2091801 C125.614224,42.9572348 124.603583,41.9611929 123.29472,41.4993603 C122.589277,41.2512115 121.778322,41.780251 121.589972,42.4549057 C121.512364,42.7375197 121.528932,43.0089324 121.616131,43.2510499 C121.419061,43.2010755 121.220246,43.1554092 121.014455,43.1330069 C120.269772,43.0545987 119.628857,43.8188627 119.628857,44.5021336 C119.628857,44.7718231 119.705592,45.0010162 119.828543,45.1957441 C119.730008,45.1897127 119.631473,45.1836813 119.532065,45.1897127 C118.879814,45.225901 117.858709,45.5352255 117.783717,47.3670464 C117.340744,47.7702883 116.750404,48.9998313 116.896027,50.4757999 C116.938755,50.9143685 117.324176,51.3503522 117.708726,51.1177127 C118.083683,50.8885197 118.366209,50.8816266 118.453409,51.1969824 C118.181346,51.7708266 115.770283,56.6502255 117.717446,59.3746929 C118.633039,60.6576569 120.471203,58.7146859 121.919585,58.3657266 C122.053872,58.3329848 122.139328,58.2580231 122.190775,58.1675522 C122.391334,58.3071359 122.674732,58.3028278 122.876163,58.0632952 C124.910525,55.6498755 127.035575,50.0191371 126.476627,45.7962987" id="Fill-95" fill="#C59AC7"></path>
                            <path d="M119.845983,45.7929384 C120.354356,45.8782395 120.806049,46.103986 121.115607,46.5244605 C121.507132,47.0569465 122.41575,46.5408314 122.018993,46.0014523 C121.553348,45.3707407 120.912432,44.927864 120.124149,44.7968965 C119.464922,44.6866081 119.182396,45.68265 119.845983,45.7929384" id="Fill-97" fill="#263234"></path>
                            <path d="M118.199484,47.9343422 C118.707857,48.0196434 119.159549,48.2445283 119.468235,48.6650027 C119.860633,49.1974887 120.769251,48.6813736 120.372493,48.1428562 C119.906848,47.5121445 119.265061,47.0684062 118.47765,46.9374387 C117.818422,46.8271503 117.535896,47.8231922 118.199484,47.9343422" id="Fill-99" fill="#263234"></path>
                            <path d="M121.690076,43.7423501 C122.266465,44.0628757 122.660606,44.5212617 122.918716,45.1218164 C123.030331,45.3803048 123.411393,45.4320024 123.634623,45.3062048 C123.905814,45.1545583 123.931973,44.8547117 123.822102,44.5996699 C123.501208,43.8517769 122.932668,43.2477757 122.217633,42.8497036 C121.630781,42.5231466 121.102352,43.4157931 121.690076,43.7423501" id="Fill-101" fill="#263234"></path>
                            <path d="M124.638114,52.4889935 C124.389596,53.0214795 125.268566,53.3023702 125.514468,52.775054 C126.099576,51.522247 127.148585,50.6037516 127.901988,49.4629563 C128.355425,48.7771005 128.909141,47.773304 128.253402,47.0374737 C126.68294,45.2728598 124.211709,49.3380202 123.583873,50.2496226 C123.249028,50.7364423 124.022486,51.2344633 124.35646,50.7485051 L124.638114,52.4889935 Z" id="Fill-103" fill="#C59AC7"></path>
                            <path d="M126.176922,47.4092662 C126.030427,48.6749976 125.822893,49.9209115 125.485431,51.1521778 C125.308416,51.7949522 126.318185,52.0689499 126.494328,51.4270371 C126.856206,50.1061615 127.065484,48.7663301 127.223315,47.4092662 C127.300051,46.7483976 126.252786,46.754429 126.176922,47.4092662" id="Fill-105" fill="#263234"></path>
                            <path d="M283.816284,91.4507735 C281.635426,91.4835153 279.796391,93.3041351 279.669951,95.45562 C279.547872,97.5510991 281.272677,99.1192619 283.289599,99.3398386 C285.338785,99.5638619 287.287692,98.3575828 287.605098,96.2733049 C287.90768,94.276913 286.767984,92.2658735 284.827797,91.6075898 C284.136305,91.3723653 283.838955,92.45457 284.526087,92.6880712 C287.543187,93.7125467 286.956334,98.4842421 283.557301,98.2455712 C282.110663,98.1438991 280.759072,97.1289014 280.800056,95.596927 C280.842784,94.0055002 282.20135,92.5950153 283.816284,92.5708898 C284.545271,92.5596886 284.547015,91.4395723 283.816284,91.4507735" id="Fill-107" fill="#FFFFFF"></path>
                            <path d="M113.446941,97.2902843 C115.063619,91.9481913 117.290692,86.8671715 119.175943,81.6207192 C120.359239,78.3275773 121.574799,74.6630738 120.566774,71.177789 C120.382783,70.5393227 119.372142,70.8115971 119.557876,71.4535099 C120.738556,75.5350413 118.646643,80.1723227 117.207852,83.9324669 C115.543215,88.2819645 113.788763,92.5530541 112.438044,97.015425 C112.244462,97.6538913 113.254231,97.9270273 113.446941,97.2902843" id="Fill-109" fill="#ED803B"></path>
                            <path d="M220.70222,97.2902843 C222.318897,91.9481913 224.54597,86.8671715 226.431222,81.6207192 C227.614518,78.3275773 228.830077,74.6630738 227.822052,71.177789 C227.638061,70.5393227 226.62742,70.8115971 226.813155,71.4535099 C227.993835,75.5350413 225.901921,80.1723227 224.463131,83.9324669 C222.798494,88.2819645 221.044042,92.5530541 219.693323,97.015425 C219.49974,97.6538913 220.509509,97.9270273 220.70222,97.2902843" id="Fill-111" fill="#055CE5"></path>
                            <path d="M66.3350168,47.0945997 C66.2661292,46.8180171 60.9844608,43.3646124 60.1560663,43.4163101 C53.2812646,43.8531555 48.4748329,48.6541462 47.716198,56.446709 C47.4737836,58.9454299 48.4966328,64.271152 48.3318259,66.7750427 C48.2472424,68.0493903 47.5592391,70.4438543 48.4687289,71.6501334 C49.6633609,73.2346671 51.1518549,72.4100892 52.1380803,71.2675706 C53.4835672,72.8633055 55.7803998,72.5350252 56.935792,70.8264171 C58.3449345,72.2231159 60.5885754,71.8103962 61.546897,69.997531 C62.8566322,71.6191148 65.5258062,71.4200787 66.1100423,68.7076741 C67.6805037,61.4096857 68.1130128,54.2960857 66.3350168,47.0945997" id="Fill-113" fill="#F24040"></path>
                            <path d="M62.9666778,60.72495 C63.1872923,62.1724849 63.7662964,63.5433349 64.2589731,64.9141849 C64.6722984,66.0653198 65.7195633,68.1254721 65.166719,69.3567384 C64.8964008,69.9598779 65.7980428,70.4863326 66.0709769,69.8788849 C66.6334132,68.6252163 66.1250406,67.1794047 65.7256673,65.949 C65.1344552,64.1283802 64.2659491,62.3534267 63.975575,60.4509523 C63.8752957,59.7943919 62.8672705,60.0726977 62.9666778,60.72495" id="Fill-115" fill="#DB0063"></path>
                            <path d="M88.6028694,58.479203 C89.2368091,61.237274 89.4504477,64.0099926 89.262969,66.8309623 C89.2184973,67.4952774 90.2648902,67.4926926 90.3093619,66.8309623 C90.5038166,63.9143519 90.2666342,61.0528856 89.6117666,58.2043437 C89.4626556,57.5555379 88.4537584,57.8295356 88.6028694,58.479203" id="Fill-117" fill="#DB0063"></path>
                            <path d="M52.5513183,70.7111313 C52.5112066,70.2268964 52.4719668,69.7409383 52.4318551,69.2558417 C52.3777914,68.5966964 51.3313985,68.5915266 51.3854621,69.2558417 C51.4247019,69.7409383 51.4648136,70.2268964 51.5049253,70.7111313 C51.558989,71.3702766 52.6053819,71.3754464 52.5513183,70.7111313" id="Fill-119" fill="#DB0063"></path>
                            <path d="M57.3741434,70.951784 C57.3549596,69.7670456 57.2564242,68.5935084 57.0951053,67.4182479 C57.0052899,66.7625491 55.9963927,67.0417165 56.0862081,67.6939688 C56.2344471,68.7753119 56.3094386,69.860963 56.3277505,70.951784 C56.3390864,71.6160991 57.3854794,71.6178223 57.3741434,70.951784" id="Fill-121" fill="#DB0063"></path>
                            <path d="M61.8762492,69.620655 C61.7986417,68.8520829 61.7210342,68.0835108 61.6425547,67.3149387 C61.5762832,66.6583783 60.5298902,66.6523469 60.5970338,67.3149387 C60.6746412,68.0835108 60.7522487,68.8520829 60.8298562,69.620655 C60.8961278,70.2763538 61.9433927,70.2841085 61.8762492,69.620655" id="Fill-123" fill="#DB0063"></path>
                            <path d="M93.3984011,65.7281648 L92.9563001,63.6559497 C92.817653,63.0054206 91.8087558,63.2802799 91.9474029,63.930809 L92.3895039,66.0030241 C92.528151,66.6535531 93.5370482,66.3786938 93.3984011,65.7281648" id="Fill-125" fill="#DB0063"></path>
                            <path d="M96.2608963,64.9919037 C96.0341778,63.8235363 95.8676269,62.6439677 95.6409085,61.4756002 C95.5144693,60.8224863 94.5055721,61.0990688 94.6320112,61.7504595 C94.8587297,62.9196886 95.0252806,64.0983956 95.2519991,65.266763 C95.3784382,65.919877 96.3873354,65.6432944 96.2608963,64.9919037" id="Fill-127" fill="#DB0063"></path>
                            <path d="M77.1404193,9.94913128 C77.2250027,9.88709407 77.3871936,9.83884291 77.1404193,9.94913128 M71.4340897,8.28015802 C68.7954354,8.19485686 63.8433807,11.3630627 62.1865919,13.0113569 C59.8330797,15.3506766 59.1851881,18.2147278 58.7177992,21.5294103 C58.6410637,22.0713743 60.7416976,24.9397336 62.3278549,25.1947755 C68.1606237,26.1322266 71.8020712,16.528522 75.403407,13.6989359 C76.1873297,13.082872 79.2497731,11.3940813 76.4672398,9.41233709 C74.7860351,8.2146743 71.4332177,8.26464872 71.4340897,8.28015802" id="Fill-129" fill="#6194E5"></path>
                            <path d="M60.7045506,25.3435786 C61.3637782,19.4560751 63.9631927,15.2969972 69.2230613,12.507046 C69.8160174,12.1925519 69.2884609,11.2999053 68.6946329,11.6143995 C63.0545748,14.6059716 60.3627289,19.0485251 59.6581577,25.3435786 C59.5840382,26.0035856 60.6313031,25.9984158 60.7045506,25.3435786" id="Fill-131" fill="#055CE5"></path>
                            <path d="M63.5338228,22.5911944 C65.9413986,20.2398119 68.3489744,17.8875677 70.7565502,15.5353235 C71.236147,15.0674595 70.495824,14.3359374 70.0162272,14.8038014 C67.6086514,17.1560456 65.2010756,19.5082898 62.7934998,21.8596723 C62.314775,22.3283979 63.054226,23.05992 63.5338228,22.5911944" id="Fill-133" fill="#055CE5"></path>
                            <path d="M60.9604809,38.2612765 C61.097384,40.8866567 61.5342531,43.2871521 62.284168,45.7987974 C63.2328976,48.9782044 63.1962739,52.1291777 63.027107,55.425766 C62.9407796,57.0887079 65.556762,57.0835381 65.6430894,55.425766 C65.8052803,52.2687614 65.9011997,49.0747067 65.0719333,45.9952486 C64.363874,43.363837 63.7212144,41.0288253 63.5764633,38.2612765 C63.4892639,36.6060893 60.8732815,36.5957498 60.9604809,38.2612765" id="Fill-135" fill="#9142A1"></path>
                            <path d="M80.2392249,41.2129552 C80.5461668,42.878482 81.1460988,44.4431983 81.5463441,46.0828762 C82.2203955,48.8400855 82.0808765,51.7274006 81.9317655,54.5363076 C81.8428221,56.1983878 84.4596765,56.1940797 84.5477479,54.5363076 C84.7020908,51.6257285 84.7971382,48.6617285 84.1631985,45.7950924 C83.7690571,44.0158308 83.0932617,42.3244552 82.7619039,40.5262378 C82.4610659,38.8917297 79.9392589,39.5836169 80.2392249,41.2129552" id="Fill-137" fill="#9142A1"></path>
                            <path d="M54.3391679,38.2418899 C54.0653617,42.351855 54.3025441,46.3575631 56.10234,50.1297701 C56.8191192,51.6333108 59.07584,50.3227748 58.3608048,48.8252655 C56.7711595,45.4924887 56.7153519,41.8495259 56.9551503,38.2418899 C57.0650215,36.5806713 54.4490391,36.5875643 54.3391679,38.2418899" id="Fill-139" fill="#9142A1"></path>
                            <path d="M60.6330471,34.9258287 C60.3723209,38.9272287 60.7472784,42.7201148 62.5113225,46.369109 C63.2359496,47.8700648 65.4926704,46.5603903 64.7697873,45.0654659 C63.2124058,41.8421159 63.0205671,38.4352392 63.2490295,34.9258287 C63.3571568,33.2646101 60.7411744,33.2715031 60.6330471,34.9258287" id="Fill-141" fill="#9142A1"></path>
                            <path d="M58.0012816,41.4359445 C58.6073175,47.4613085 60.02518,53.4797794 59.0354667,59.5344387 C58.7695085,61.1620538 61.2895715,61.8616957 61.5581457,60.2211562 C62.5940747,53.8821597 61.2529478,47.7490922 60.617264,41.4359445 C60.4524571,39.7962666 57.8347307,39.7790341 58.0012816,41.4359445" id="Fill-143" fill="#9142A1"></path>
                            <path d="M83.670609,39.5755176 C84.254845,45.1916083 86.343271,50.6741466 85.7965307,56.3522745 C85.6369557,58.0074617 88.2538101,57.9971222 88.4116411,56.3522745 C88.9627414,50.6345117 86.8734434,45.2157338 86.2865914,39.5755176 C86.1165525,37.9375629 83.4988261,37.9194687 83.670609,39.5755176" id="Fill-145" fill="#9142A1"></path>
                            <path d="M58.981403,33.7990779 C58.545406,32.2851977 59.4130401,31.3649791 60.6983595,30.6524128 C61.4325785,30.2448628 60.774223,29.128193 60.0382599,29.5366047 C58.237592,30.5335081 57.1205675,32.062036 57.7204995,34.1428674 C57.950706,34.9415965 59.2133535,34.6021151 58.981403,33.7990779" id="Fill-147" fill="#F7BA4A"></path>
                            <path d="M82.4094439,36.3410526 C82.6605782,38.2331874 82.8803207,40.1296305 83.1645908,42.0174572 C83.2639981,42.6740177 84.2720233,42.3948502 84.173488,41.7434595 C83.9022978,39.9469653 83.6947632,38.1418549 83.4558368,36.3410526 C83.3695094,35.6905235 82.3222444,35.6819072 82.4094439,36.3410526" id="Fill-149" fill="#663387"></path>
                            <path d="M65.4025934,27.0937172 C65.4025934,27.0937172 64.9517725,26.2260579 64.2323773,25.6367044 C63.0769851,24.6897753 61.154238,24.0039195 60.1453408,25.1964126 C58.8896693,26.6809974 59.1006918,31.4311521 62.8912503,31.6448358 C66.6809368,31.8576579 65.4025934,27.0937172 65.4025934,27.0937172" id="Fill-151" fill="#C59AC7"></path>
                            <path d="M59.193036,30.2003166 C59.8295917,29.7996597 60.533291,30.731941 59.8932473,31.1351829 C59.3683068,31.466048 59.0221252,31.8908306 58.8294145,32.3509399 C58.6480397,32.7852003 58.6986153,33.2840829 58.9663175,33.6726771 C59.3203472,34.1887922 59.9830627,34.6402852 61.2178064,34.6049585 C62.1028804,34.5791097 62.6722926,34.3059736 63.0394021,33.9639073 C63.8381488,33.2194608 63.6925257,31.9933643 62.7978598,31.3652376 C62.5693973,31.2041131 62.3008231,31.0791771 61.9912652,30.9990457 C61.2657661,30.8112108 61.4453969,29.6600759 62.1796159,29.8504957 C65.9387826,30.8215503 65.9222147,36.7185317 61.7924505,37.0743841 C57.8998687,37.4078341 55.7373233,32.3759271 59.193036,30.2003166" id="Fill-153" fill="#F7BA4A"></path>
                            <path d="M74.89486,22.9185269 C75.2166258,24.6900338 75.7084305,26.4150129 76.4077698,28.0770931 C76.4766574,28.2408024 76.5403129,28.4088199 76.6187924,28.5673594 C76.5926326,28.5139385 76.9405582,28.2296013 76.7155838,28.3304117 C76.238603,28.5458187 75.5976873,28.3597071 75.1686662,28.1546397 C74.5652462,27.8651327 74.0342018,28.7560559 74.6402377,29.0472862 C75.3125452,29.369535 77.129781,29.8563548 77.6006578,28.8861617 C77.8552801,28.3614303 77.3285956,27.598028 77.1646607,27.1775536 C76.5908886,25.708478 76.1854113,24.1928745 75.9037572,22.6445292 C75.785166,21.9905536 74.7762688,22.2671362 74.89486,22.9185269" id="Fill-155" fill="#263234"></path>
                            <path d="M72.4262446,32.7313486 C74.4074153,33.5929765 77.4559068,33.7187742 79.2966864,32.3677416 C79.8312188,31.9748393 79.3106383,31.077023 78.7682579,31.4750951 C77.2422682,32.596073 74.6071019,32.5581614 72.9538011,31.8387021 C72.3434052,31.5733207 71.8106167,32.4633823 72.4262446,32.7313486" id="Fill-157" fill="#263234"></path>
                            <path d="M67.1117019,37.9145574 C68.9585855,38.6193691 70.9170844,38.8623481 72.8869191,38.7184563 C73.5548666,38.6693435 73.5600986,37.6345284 72.8869191,37.6836412 C70.9990518,37.8223633 69.1591442,37.5931702 67.3898681,36.917654 C66.7611603,36.6772598 66.4890981,37.6776098 67.1117019,37.9145574" id="Fill-159" fill="#263234"></path>
                            <path d="M70.8704327,23.1877856 L70.8704327,23.8348681 C70.8704327,24.4991833 71.9168256,24.5009065 71.9168256,23.8348681 L71.9168256,23.1877856 C71.9168256,22.5226088 70.8704327,22.5217472 70.8704327,23.1877856" id="Fill-161" fill="#263234"></path>
                            <path d="M79.590374,23.1877856 L79.590374,23.8348681 C79.590374,24.4991833 80.636767,24.5009065 80.636767,23.8348681 L80.636767,23.1877856 C80.636767,22.5226088 79.590374,22.5217472 79.590374,23.1877856" id="Fill-163" fill="#263234"></path>
                            <path d="M73.1547085,16.7895091 C73.9037515,15.8219009 74.8795129,15.0257567 75.5431004,13.9918033 C76.2677276,12.8622091 76.3828308,11.4551707 76.1796562,10.1635905 C76.0767608,9.50789163 75.0678636,9.78619744 75.1707589,10.4384498 C75.5901881,13.1129428 73.7058088,14.3890137 72.2513226,16.2682242 C71.8423573,16.7955405 72.7509752,17.3116556 73.1547085,16.7895091" id="Fill-165" fill="#055CE5"></path>
                            <path d="M56.958115,39.2128584 C56.8682996,40.7276002 56.9459071,42.2208014 57.1656496,43.7217572 C57.262441,44.3783177 58.2704662,44.1000119 58.1754189,43.4477595 C57.9687562,42.0415828 57.9207966,40.6310979 58.004508,39.2128584 C58.0437477,38.5485433 56.9973548,38.5494049 56.958115,39.2128584" id="Fill-167" fill="#663387"></path>
                            <path d="M60.0948523,38.2006179 C60.3111069,40.3676121 60.6415927,42.5139272 61.0932856,44.644733 C61.2310607,45.2952621 62.2399579,45.0204028 62.1021828,44.3698737 C61.6705457,42.3295388 61.3479079,40.2754179 61.1412453,38.2006179 C61.0758457,37.5440574 60.0285808,37.5371644 60.0948523,38.2006179" id="Fill-169" fill="#663387"></path>
                            <path d="M54.3975043,28.6310337 C53.6807251,33.9265988 52.4642933,39.3815651 53.546438,44.6986709 C53.6798531,45.3500616 54.6878783,45.0743407 54.5562072,44.4238116 C53.4967343,39.2195791 54.7428139,33.8137256 55.4438972,28.6310337 C55.5328406,27.9736116 54.4855757,27.979643 54.3975043,28.6310337" id="Fill-171" fill="#663387"></path>
                            <path d="M63.1608709,26.4029501 C62.5138513,25.8678792 61.7290566,25.6671199 60.9024061,25.856678 C60.2466665,26.0074629 60.5239607,27.0043664 61.1805722,26.8535815 C61.6191853,26.752771 62.0717502,26.8458269 62.4214199,27.1344722 C62.9341524,27.5583931 63.6779634,26.8303176 63.1608709,26.4029501" id="Fill-173" fill="#263234"></path>
                            <path d="M183.889069,11.6690267 C185.350531,13.294057 187.127656,15.0440233 187.774675,19.0333605 C187.940354,20.0500814 187.792115,21.556207 187.949946,22.5746512 C188.325775,24.9975488 188.818452,29.0144581 188.067665,31.0573779 C186.632363,34.968307 181.896563,39.0119267 173.340556,37.2766081 C168.620452,36.3202012 168.234159,32.3265558 167.816473,28.6973791 C167.403148,25.1000826 164.995572,22.8443407 164.995572,22.8443407 C164.995572,22.8443407 165.554521,13.5249733 171.236434,11.1046605 C174.92497,9.53305116 177.311618,9.76138256 179.712217,9.92250698 C180.776922,9.99402209 183.190602,10.8927 183.889069,11.6690267" id="Fill-175" fill="#ED803B"></path>
                            <path d="M161.296399,19.4896786 C161.477774,22.6087716 163.818206,26.9341437 164.196651,27.6346472 L166.44814,24.9144879 C167.342806,24.5956856 169.026627,26.150924 169.339673,24.3570147 C169.542847,23.1929553 169.084178,20.1333147 169.027499,19.9566809 C168.043017,16.8849774 170.828167,14.5792612 176.817894,13.5504774 C180.288431,12.9550926 184.926568,14.1045042 186.882451,16.1741344 C187.485871,16.8134623 186.469998,14.338867 186.137768,13.4806856 C185.053007,10.6760867 183.511321,10.15911 181.624326,9.80842744 C177.319291,9.00797512 173.830443,7.74827512 170.741839,8.59353209 C167.800603,9.39829256 165.166309,11.2999053 163.090091,13.8167205 C162.377672,14.6800716 161.132464,16.6773251 161.296399,19.4896786" id="Fill-177" fill="#F7BA4A"></path>
                            <path d="M167.846557,25.9830788 C167.846557,25.9830788 168.251162,24.3666649 167.431488,23.2637812 C166.447879,21.9411823 164.305389,21.8662207 163.177029,23.2069137 C161.771374,24.8767486 162.221323,29.9224416 166.662389,29.8853916 C171.102583,29.8483416 167.846557,25.9830788 167.846557,25.9830788" id="Fill-179" fill="#ED803B"></path>
                            <path d="M171.988093,14.552206 C174.522108,14.4539805 177.383993,13.2701037 180.712395,13.3984863 C182.730189,13.4760328 182.204377,10.6567863 181.152752,9.04726535 C177.555776,3.54404791 167.799034,8.67676535 165.93907,10.75932 C164.76711,12.069856 170.17173,14.6228595 171.988093,14.552206" id="Fill-181" fill="#F7BA4A"></path>
                            <path d="M178.748577,12.2188315 C176.470056,11.6380943 173.741586,10.7445862 171.358426,11.0427094 C170.700071,11.1245641 170.691351,12.1602408 171.358426,12.0766629 C173.654387,11.7897408 176.259033,12.6513687 178.470411,13.215735 C179.122662,13.3820292 179.4017,12.3851257 178.748577,12.2188315" id="Fill-183" fill="#FCC7AD"></path>
                            <path d="M174.950257,13.0994152 C171.26085,12.703928 167.754562,11.7621687 165.102828,15.0363548 C164.686014,15.5507466 165.421978,16.2865769 165.843151,15.7670152 C168.294326,12.7401164 171.586976,13.7723466 174.950257,14.1333687 C175.619077,14.2048838 175.613845,13.1709303 174.950257,13.0994152" id="Fill-185" fill="#FCC7AD"></path>
                            <path d="M184.919418,22.4919349 C184.921162,22.7176814 184.958657,22.9330884 184.985689,23.15625 C185.065041,23.8076407 186.113178,23.816257 186.032082,23.15625 C186.00505,22.9330884 185.967555,22.7176814 185.965811,22.4919349 C185.960579,21.8276198 184.914186,21.8258965 184.919418,22.4919349" id="Fill-187" fill="#263234"></path>
                            <path d="M175.740023,22.8377923 C175.741766,23.0635388 175.779262,23.2789458 175.807166,23.5021074 C175.886518,24.1534981 176.933782,24.1621144 176.853559,23.5021074 C176.826527,23.2789458 176.788159,23.0626772 176.786415,22.8377923 C176.781184,22.1734772 175.734791,22.171754 175.740023,22.8377923" id="Fill-189" fill="#263234"></path>
                            <path d="M176.86411,32.1953299 C178.881033,33.0733287 181.987076,33.199988 183.860991,31.8239683 C184.395523,31.4319276 183.874071,30.5341113 183.332563,30.9313217 C181.772565,32.0764252 179.080719,32.0367903 177.391667,31.3026834 C176.781271,31.0364403 176.248482,31.9273636 176.86411,32.1953299" id="Fill-191" fill="#263234"></path>
                            <path d="M187.540545,28.8447174 C186.913581,29.0273826 185.770397,29.9424314 185.546294,30.2112593 C185.013506,30.848864 185.021354,31.2210872 184.645524,32.1930035 C184.460661,32.671207 183.618315,33.1649198 183.092503,33.3269058 C181.811543,33.7215314 180.255906,33.6767267 178.933963,33.5983186 C178.240727,33.5569605 177.357397,33.6215826 176.723457,33.3613709 C175.474762,32.8504256 175.47389,32.3394802 174.89663,31.6613791 C174.247866,30.8979767 173.688046,30.5042128 172.727108,30.0380721 C170.834881,29.1195767 169.669897,27.9417314 169.068221,26.0263326 C169.046421,25.9574023 169.022877,25.8738244 168.976662,25.8324663 C168.848478,25.6635872 168.170067,25.6506628 167.941605,25.7247628 C167.488168,25.8712395 167.286737,32.8909221 169.227796,35.1208151 C170.07363,36.0927314 174.204266,37.6643407 175.487842,38.0934314 C180.16173,39.657286 182.582386,38.8551105 185.56635,37.0077802 C188.272148,35.331914 188.393355,31.9689802 188.52241,29.1859221 C188.534618,29.0135965 188.444803,28.7973279 188.18146,28.7387372 C187.932942,28.6827314 187.540545,28.8447174 187.540545,28.8447174" id="Fill-193" fill="#FCC7AD"></path>
                            <path d="M175.130324,32.6152012 C175.536673,29.9010733 179.128417,30.2379698 181.253467,30.1681779 C182.062678,30.1423291 183.083783,30.0277326 183.886017,30.144914 C185.513158,30.3818616 185.008274,31.9405465 184.894043,33.1933535 C184.806843,34.1506221 186.318881,34.1445907 186.40608,33.1933535 C186.50636,32.0853 186.767958,30.017393 185.875036,29.1264698 C184.898403,28.151107 182.477747,28.6336186 181.253467,28.6749767 C179.448439,28.7352907 177.069639,28.5948453 175.352683,29.2160791 C174.007196,29.7028988 173.736006,30.9660453 173.544167,32.2490093 C173.403776,33.1890453 174.862622,34.4918267 175.004757,33.5423128 L175.130324,32.6152012 Z" id="Fill-195" fill="#FCC7AD"></path>
                            <path d="M179.96466,21.6387509 C179.944604,22.5615544 179.948092,23.4559242 180.282066,24.3321998 C180.438153,24.7440579 181.840319,28.0854509 180.751198,27.823516 C180.097203,27.6658381 179.818165,28.6627416 180.473032,28.8204195 C181.633656,29.099587 182.374851,28.2362358 182.337356,27.1204277 C182.31294,26.3906288 182.005126,25.6444591 181.71824,24.9818672 C181.211611,23.8100533 180.982277,22.9449788 181.011053,21.6387509 C181.025877,20.9735742 179.979484,20.9735742 179.96466,21.6387509" id="Fill-197" fill="#263234"></path>
                            <path d="M179.276569,28.3954647 C179.661119,28.64706 180.120659,28.7590716 180.567992,28.8452344 C181.226348,28.9727553 181.508002,27.9767135 180.846159,27.8483309 C180.484281,27.7785391 180.116299,27.707024 179.804126,27.5028181 C179.240817,27.134903 178.716749,28.0292728 179.276569,28.3954647" id="Fill-199" fill="#263234"></path>
                            <path d="M164.499495,24.63084 C165.190986,24.4395586 165.854574,24.5601865 166.44753,24.957397 C167.006478,25.3304819 167.530547,24.4352505 166.975086,24.0647505 C166.16326,23.5202016 165.163954,23.3737249 164.221329,23.6339365 C163.573437,23.8131551 163.848987,24.8100586 164.499495,24.63084" id="Fill-201" fill="#263234"></path>
                            <path d="M180.517766,49.6079683 C180.317207,45.9641438 180.103568,44.8466124 177.72564,43.6679055 C174.732084,42.1850438 171.381011,41.1683229 168.241832,39.9775531 C167.872979,39.609638 167.206775,39.5234752 166.886753,40.1102438 C164.827103,43.8833124 159.322204,43.492995 156.040018,45.9176159 C154.191391,47.2832962 152.737776,49.0927148 151.808231,51.1769927 C148.924546,57.6417869 151.423681,63.1251869 152.524138,69.664081 C152.541578,69.7674764 152.582561,69.8441613 152.624417,69.9208462 C152.319219,70.4834892 152.256436,73.2260508 153.798121,72.9572229 C158.238315,72.1808962 162.601774,71.0737043 167.06028,70.4119741 C168.165969,70.2474031 167.695964,68.5861845 166.596379,68.7498938" id="Fill-203" fill="#DB0063"></path>
                            <path d="M194.577363,68.3441533 C196.419015,68.2536823 199.804968,67.5609335 201.543724,66.6458847 C203.073202,65.8411242 201.944841,64.1161451 201.943097,63.7956195 C201.90473,58.3553009 202.488966,52.8167567 198.93995,48.2484056 C195.846114,44.2659614 190.330752,42.4798067 185.288881,40.6678033 C184.773533,40.4825533 184.559022,40.9676498 183.761148,41.8163533 C182.871714,42.8778788 181.582906,44.0634788 181.582031,45.22323 C181.581162,46.9533788 181.737249,48.3759265 181.701498,49.7933044" id="Fill-205" fill="#DB0063"></path>
                            <path d="M166.140065,44.2270158 C169.248724,46.2182379 172.691357,47.6261379 175.937791,49.3743809 C176.529875,49.6923216 177.058303,48.7996751 176.466219,48.4808728 C173.219785,46.7334914 169.777152,45.3247298 166.667621,43.3343693 C166.101697,42.971624 165.576756,43.8659937 166.140065,44.2270158" id="Fill-207" fill="#B20062"></path>
                            <path d="M167.697969,70.0960151 C168.25343,68.9827919 167.909864,67.6800105 166.880911,66.9708907 C166.328067,66.5900512 165.803998,67.4852826 166.353354,67.8635372 C166.892247,68.2357605 167.084086,68.993993 166.794583,69.5747302 C166.497233,70.1692535 167.399747,70.6931233 167.697969,70.0960151" id="Fill-209" fill="#B20062"></path>
                            <path d="M167.172942,67.3731848 C166.86164,64.8296592 166.50761,62.2869952 166.010574,59.7710417 C165.881518,59.1187894 164.872621,59.3945103 165.001676,60.045901 C165.480401,62.4713836 165.826583,64.9209917 166.126549,67.3731848 C166.206772,68.0262987 167.254037,68.0340534 167.172942,67.3731848" id="Fill-211" fill="#B20062"></path>
                            <path d="M195.201972,67.9175613 C195.435667,65.5360217 195.521994,63.1544822 195.462699,60.7626031 C195.446131,60.0991497 194.399738,60.0965648 194.416306,60.7626031 C194.475601,63.1544822 194.388402,65.5360217 194.155579,67.9175613 C194.091052,68.5792915 195.137445,68.5749834 195.201972,67.9175613" id="Fill-213" fill="#B20062"></path>
                            <path d="M197.654892,65.9536528 C198.641989,65.6787935 199.629959,65.4022109 200.617056,65.1273516 C201.264948,64.9464098 200.989397,63.9486447 200.339762,64.1304481 C199.351792,64.4053074 198.363823,64.6810284 197.376726,64.9567493 C196.729706,65.1376912 197.004384,66.1354563 197.654892,65.9536528" id="Fill-215" fill="#B20062"></path>
                            <path d="M153.684326,69.9647892 C155.766648,69.4357497 157.899546,69.1359031 160.006284,68.7214601 C160.666383,68.5913543 160.387345,67.5944508 159.728117,67.723695 C157.62138,68.1389997 155.488482,68.4388462 153.40616,68.9678857 C152.75478,69.1324566 153.03033,70.1302217 153.684326,69.9647892" id="Fill-217" fill="#B20062"></path>
                            <path d="M176.974853,49.3134638 C177.13094,49.0403278 178.06659,46.967251 178.538339,47.199029 C179.140015,47.4937057 179.671059,46.6027824 179.066767,46.3063824 C177.514618,45.5464266 176.646984,47.7806278 176.071467,48.792179 C175.740982,49.3720545 176.644368,49.894201 176.974853,49.3134638" id="Fill-219" fill="#B20062"></path>
                            <path d="M185.16253,48.2254863 C186.218514,46.5582363 187.075685,44.7841444 188.011334,43.0505491 C188.327868,42.4637805 187.425354,41.941634 187.107948,42.5292642 C186.172299,44.2619979 185.315129,46.0360898 184.259144,47.7042014 C183.900754,48.2694293 184.805012,48.7881293 185.16253,48.2254863" id="Fill-221" fill="#B20062"></path>
                            <path d="M185.129307,47.7130762 C184.730805,46.7187576 184.234641,44.7266738 182.734811,45.2436506 C182.103487,45.4607808 182.374677,46.4602692 183.012977,46.2405541 C183.278935,46.1492215 183.295503,46.1819634 183.462926,46.4671622 C183.741964,46.9410576 183.916363,47.479575 184.120409,47.9879355 C184.36544,48.5988297 185.377825,48.3334483 185.129307,47.7130762" id="Fill-223" fill="#B20062"></path>
                            <path d="M172.186123,20.974005 C171.049915,23.7165666 172.210539,26.4358643 175.379366,26.7874085 C178.741775,27.161355 180.030582,24.2533608 179.671321,21.3470899 C179.604177,20.8034027 178.731311,20.7965097 178.799327,21.3470899 C179.071389,23.5511341 178.415649,26.0989678 175.708108,25.9507678 C174.666075,25.8939003 173.439179,25.4260364 172.881975,24.5032329 C172.286403,23.5149457 172.621248,22.1837306 173.026726,21.2040597 C173.239492,20.6905294 172.396274,20.4673678 172.186123,20.974005" id="Fill-225" fill="#F7BA4A"></path>
                            <path d="M171.791371,21.8962053 C174.041116,20.5830844 176.688491,19.9515112 178.948699,21.5868809 C179.401264,21.9142995 179.837261,21.1672681 179.388184,20.8424344 C176.889921,19.0347391 173.844918,19.6956077 171.351014,21.1517588 C170.868802,21.4335112 171.306543,22.1788193 171.791371,21.8962053" id="Fill-227" fill="#F7BA4A"></path>
                            <path d="M188.631322,20.9436757 C189.106559,23.1873548 188.431636,25.5361524 185.707526,25.6438559 C183.188335,25.7438048 182.466324,23.3097059 182.545675,21.2366292 C182.566603,20.6808792 181.694609,20.6826024 181.673681,21.2366292 C181.567298,24.0015931 182.861337,26.8415187 186.074635,26.479635 C189.231254,26.1237827 190.040465,23.397592 189.471925,20.713621 C189.357693,20.1716571 188.517091,20.4017117 188.631322,20.9436757" id="Fill-229" fill="#F7BA4A"></path>
                            <path d="M189.984047,20.4506522 C187.319233,19.1599336 184.254173,18.7592766 181.857933,20.7944417 C181.430656,21.1563255 182.050644,21.7629115 182.474433,21.4036127 C184.552395,19.6389987 187.264297,20.0904917 189.54369,21.1950987 C190.045958,21.4380778 190.488931,20.6953545 189.984047,20.4506522" id="Fill-231" fill="#F7BA4A"></path>
                            <path d="M179.893069,21.7969458 C180.522649,21.5539667 181.195828,21.5263947 181.823664,21.7969458 C182.332909,22.0157993 182.777626,21.2739377 182.264021,21.0524993 C181.424291,20.6914772 180.522649,20.6337481 179.661119,20.9654749 C179.144026,21.1653726 179.369,21.9985667 179.893069,21.7969458" id="Fill-233" fill="#F7BA4A"></path>
                        </g>
                        <g id="Group-237" transform="translate(36.100000, 180.319048)">
                            <mask id="mask-4" fill="white">
                                <use xlink:href="#path-3"></use>
                            </mask>
                            <g id="Clip-236"></g>
                            <path d="M1.35509011,2.493085 C13.918638,2.509235 26.4787093,2.834135 39.041388,2.85028619 C40.3842231,2.852185 40.3859614,0.572185 39.041388,0.570285 C26.4787093,0.554135 13.918638,0.229235 1.35509011,0.214033813 C0.0131241489,0.212135 0.0105167021,2.491185 1.35509011,2.493085" id="Fill-235" fill="#6194E5" mask="url(#mask-4)"></path>
                        </g>
                        <g id="Group-240" transform="translate(141.550000, 180.319048)">
                            <mask id="mask-6" fill="white">
                                <use xlink:href="#path-5"></use>
                            </mask>
                            <g id="Clip-239"></g>
                            <path d="M1.35509011,2.493085 C13.918638,2.509235 26.4787093,2.834135 39.041388,2.85028619 C40.3842231,2.852185 40.3859614,0.572185 39.041388,0.570285 C26.4787093,0.554135 13.918638,0.229235 1.35509011,0.214033813 C0.0131241489,0.212135 0.0105167021,2.491185 1.35509011,2.493085" id="Fill-238" fill="#6194E5" mask="url(#mask-6)"></path>
                        </g>
                        <g id="Group-243" transform="translate(144.400000, 0.769048)">
                            <mask id="mask-8" fill="white">
                                <use xlink:href="#path-7"></use>
                            </mask>
                            <g id="Clip-242"></g>
                            <path d="M12.0294067,4.14694 C10.7987133,1.70860667 8.48362667,0.08246 5.66225333,0.607366667 C2.84442667,1.13227333 0.342253333,4.01926 0.610026667,6.9692 C0.613573333,7.00466667 0.623326667,7.03392667 0.628646667,7.06762 C0.632193333,7.15096667 0.6384,7.23431333 0.657906667,7.32298 C1.37078667,10.6683733 4.87666667,13.1341933 8.29476667,12.3885067 C12.0967933,11.5585867 13.73092,7.51804667 12.0294067,4.14694" id="Fill-241" fill="#9EC3EF" mask="url(#mask-8)"></path>
                        </g>
                    </g>
                </g>
            </g>
        </g>
    </g>
</svg>