<svg height="50" viewBox="0 0 42 50" width="42" xmlns="http://www.w3.org/2000/svg"><path d="m866.132689 498.021481h23.735304c.942126 0 1.705515.7385 1.705515 1.651386s-.763389 1.651386-1.705515 1.651386h-23.735304c-.942808 0-1.705514-.7385-1.705514-1.651386s.762706-1.651386 1.705514-1.651386zm23.735304 15.205961h-23.735304c-.942808 0-1.705514.7385-1.705514 1.651386 0 .912225.762706 1.651386 1.705514 1.651386h23.735304c.942126 0 1.705515-.739161 1.705515-1.651386 0-.912886-.763389-1.651386-1.705515-1.651386zm9.132007-24.274051v33.93664c0 1.579385-.654235 2.524639-1.202047 3.040532-1.051279.99017-2.359067 1.069437-2.7527 1.069437h-.070949-32.729506c-3.552245 0-5.079704-2.780273-5.23934-4.649642l-.005458-40.960314c0-1.749808.739511-2.769044 1.358954-3.314001 1.207504-1.066135 2.749972-1.076043 3.205003-1.051602l25.214326-.024441h.002047c.113928 0 .227174.01189.337692.033028.337691.066055.639909.228552.873223.456443l.000682.001321 10.509381 10.29606c.000682.000661.001364.001321.002046.001321l.004093.003964c.017738.017835.030017.038972.047073.056807.057305.060771.113246.122203.160318.190901.017737.026422.030017.056147.04639.083229.039568.064735.079136.129469.109153.200148.012962.031707.019784.065395.031381.097762.02456.068698.050484.136735.064128.209396.022513.105689.03411.21402.03411.323011zm-10.514156-1.663936 4.7195.006605-4.7195-4.62454zm7.103127 3.31334-8.810688-.01255c-.940762-.001321-1.703468-.739821-1.703468-1.651386v-8.634766l-23.562706.023119h-.001364c-.045026 0-.090051-.001321-.135077-.004624-.011598-.001981-.025242-.001981-.04025-.001981-.176691 0-.51643.046899-.687664.204771-.206708.187598-.236725.622903-.236725.864666v40.823579c.048437.336883.339738 1.483605 1.833769 1.483605h32.779989c.367709-.011229.564184-.144001.564184-.807197zm-5.720978 15.021006h-23.735304c-.942808 0-1.705514.7385-1.705514 1.651386s.762706 1.651386 1.705514 1.651386h23.735304c.942126 0 1.705515-.7385 1.705515-1.651386s-.763389-1.651386-1.705515-1.651386z" fill="#bbb" fill-rule="evenodd" transform="translate(-857 -477)"/></svg>