<?xml version="1.0" encoding="UTF-8"?>
<svg width="24px" height="24px" viewBox="0 0 24 24" version="1.1" xmlns="http://www.w3.org/2000/svg" xmlns:xlink="http://www.w3.org/1999/xlink">
    <title>7B18EDA1-3654-4ECA-8130-60A9DA03A12E</title>
    <g id="UI-Kit" stroke="none" stroke-width="1" fill="none" fill-rule="evenodd">
        <g id="Icons" transform="translate(-154.000000, -354.000000)" fill="#4E4E4E">
            <g id="icon/gray/add-member" transform="translate(154.000000, 354.000000)">
                <path d="M17.2500003,10.5 C20.9782138,10.5 24.0000003,13.5217864 24.0000003,17.25 C24.0000003,20.9782136 20.9782138,24 17.2500003,24 C13.5217867,24 10.5000003,20.9782136 10.5000003,17.25 C10.5000003,13.5217864 13.5217867,10.5 17.2500003,10.5 Z M17.2500003,12 C14.3502138,12 12.0000003,14.3502136 12.0000003,17.25 C12.0000003,20.1497864 14.3502138,22.5 17.2500003,22.5 C20.1497867,22.5 22.5000003,20.1497864 22.5000003,17.25 C22.5000003,14.3502136 20.1497867,12 17.2500003,12 Z M17.2500003,13.5 C17.6642138,13.5 18.0000003,13.8357864 18.0000003,14.25 L18.0000003,14.25 L18,16.5 L20.2500003,16.5 C20.629696,16.5 20.9434912,16.7821539 20.9931536,17.1482294 L21.0000003,17.25 C21.0000003,17.6642136 20.6642138,18 20.2500003,18 L20.2500003,18 L18,18 L18.0000003,20.25 C18.0000003,20.6296958 17.7178464,20.943491 17.3517708,20.9931534 L17.2500003,21 C16.8357867,21 16.5000003,20.6642136 16.5000003,20.25 L16.5000003,20.25 L16.5,18 L14.2500003,18 C13.8703045,18 13.5565093,17.7178461 13.5068469,17.3517706 L13.5000003,17.25 C13.5000003,16.8357864 13.8357867,16.5 14.2500003,16.5 L14.2500003,16.5 L16.5,16.5 L16.5000003,14.25 C16.5000003,13.8703042 16.7821541,13.556509 17.1482297,13.5068466 Z M7.50882809,9.75199575 C8.51885416,9.75311307 9.51750737,9.95701832 10.4441429,10.3520869 C10.8251714,10.5145373 11.0023639,10.9551141 10.8399134,11.3361426 C10.6774629,11.7171711 10.2368861,11.8943636 9.85585765,11.7319131 C9.11500493,11.4160526 8.31589426,11.25289 7.50739748,11.2519957 C4.19180454,11.2493328 1.50266702,13.9346226 1.50000025,17.2506032 C1.49966686,17.6648166 1.16361046,18.0003329 0.749397036,18 C0.335183607,17.9996666 -0.000332652134,17.6636102 2.47513526e-07,17.2493968 C0.00333375111,13.1050488 3.36452442,9.74866745 7.50882809,9.75199575 Z M7.50000025,0 C10.1922138,0 12.3750003,2.18278644 12.3750003,4.875 C12.3750003,7.56721356 10.1922138,9.75 7.50000025,9.75 C4.80778669,9.75 2.62500025,7.56721356 2.62500025,4.875 C2.62500025,2.18278644 4.80778669,0 7.50000025,0 Z M7.50000025,1.5 C5.63621382,1.5 4.12500025,3.01121356 4.12500025,4.875 C4.12500025,6.73878644 5.63621382,8.25 7.50000025,8.25 C9.36378669,8.25 10.8750003,6.73878644 10.8750003,4.875 C10.8750003,3.01121356 9.36378669,1.5 7.50000025,1.5 Z" id="Combined-Shape"></path>
            </g>
        </g>
    </g>
</svg>