<?xml version="1.0" encoding="UTF-8"?>
<svg width="22px" height="22px" viewBox="0 0 22 22" version="1.1" xmlns="http://www.w3.org/2000/svg" xmlns:xlink="http://www.w3.org/1999/xlink">
    <!-- Generator: sketchtool 57.1 (101010) - https://sketch.com -->
    <title>76EBC07C-C17E-41CE-BFCC-C4F3AE198547</title>
    <desc>Created with sketchtool.</desc>
    <g id="UI-Kit" stroke="none" stroke-width="1" fill="none" fill-rule="evenodd">
        <g id="Icons" transform="translate(-366.000000, -660.000000)" fill="#4E4E4E">
            <g id="icon/gray/business" transform="translate(361.000000, 655.000000)">
                <path d="M16,5.22916667 C18.395762,5.22916667 20.3541667,7.065171 20.3541667,9.35416667 L20.3541667,9.35416667 L20.3531667,9.81216667 L24.4027778,9.8125 C25.714809,9.8125 26.7708333,10.9005251 26.7708333,12.2314815 L26.7708333,24.3518519 C26.7708333,25.6828083 25.714809,26.7708333 24.4027778,26.7708333 L7.59722222,26.7708333 C6.285191,26.7708333 5.22916667,25.6828083 5.22916667,24.3518519 L5.22916667,12.2314815 C5.22916667,10.9005251 6.285191,9.8125 7.59722222,9.8125 L11.6451667,9.81216667 L11.6458333,9.35416667 C11.6458333,7.13453451 13.4873451,5.34085563 15.7834506,5.23418605 Z M15.3121667,17.6041667 L6.60416667,17.6041667 L6.60416667,24.3518519 C6.60416667,24.932451 7.05392012,25.3958333 7.59722222,25.3958333 L24.4027778,25.3958333 C24.9460799,25.3958333 25.3958333,24.932451 25.3958333,24.3518519 L25.3951667,17.6041667 L16.6871667,17.6041667 L16.6875,18.6666667 C16.6875,19.0118446 16.4331163,19.2976081 16.1015937,19.3467124 L16,19.3541667 C15.654822,19.3541667 15.3690586,19.099783 15.3199543,18.7682604 L15.3125,18.6666667 L15.3121667,17.6041667 Z M24.4027778,11.1875 L7.59722222,11.1875 C7.05392012,11.1875 6.60416667,11.6508823 6.60416667,12.2314815 L6.60416667,16.2291667 L15.3121667,16.2291667 L15.3125,15 C15.3125,14.654822 15.5668837,14.3690586 15.8984063,14.3199543 L16,14.3125 C16.345178,14.3125 16.6309414,14.5668837 16.6800457,14.8984063 L16.6875,15 L16.6871667,16.2291667 L25.3951667,16.2291667 L25.3958333,12.2314815 C25.3958333,11.6508823 24.9460799,11.1875 24.4027778,11.1875 Z M16,6.60416667 C14.3445028,6.60416667 13.0208333,7.84510678 13.0208333,9.35416667 L13.0208333,9.35416667 L13.0201667,9.81216667 L18.9781667,9.81216667 L18.9791667,9.35416667 C18.9791667,7.89900177 17.7483567,6.69314724 16.1760598,6.60887085 Z" id="Combined-Shape"></path>
            </g>
        </g>
    </g>
</svg>