<?xml version="1.0" encoding="UTF-8"?>
<svg width="22px" height="22px" viewBox="0 0 22 22" version="1.1" xmlns="http://www.w3.org/2000/svg" xmlns:xlink="http://www.w3.org/1999/xlink">
    <!-- Generator: sketchtool 57.1 (101010) - https://sketch.com -->
    <title>DA943AA3-2E9B-4668-B334-C16353DF4EC1</title>
    <desc>Created with sketchtool.</desc>
    <g id="UI-Kit" stroke="none" stroke-width="1" fill="none" fill-rule="evenodd">
        <g id="Icons" transform="translate(-434.000000, -362.000000)" fill="#4E4E4E">
            <g id="icon/gray/messages-icon/gray/messages/off" transform="translate(429.000000, 357.000000)">
                <path d="M16.6247582,5.87494726 C18.4036787,5.87162188 20.147662,6.36813466 21.6594831,7.30815985 C26.1145818,10.0794773 27.4797643,15.9378142 24.7085068,20.3928164 C22.0607667,24.6492554 16.5951788,26.0852024 12.2277896,23.7879821 L11.9817781,23.6539577 L6.94754762,26.052099 C6.3402747,26.3413838 5.70754698,25.7514615 5.91095168,25.1437592 L5.94784108,25.0525782 L8.34533896,20.0172883 C7.54419346,18.594005 7.12249909,16.9858579 7.12500072,15.3489639 C7.13223881,10.109487 11.3851544,5.86845123 16.6247582,5.87494726 Z M16.6265169,7.37494784 C12.2121556,7.36890302 8.63109347,10.9396047 8.62499912,15.3511462 C8.62271451,16.8460446 9.04073094,18.3126313 9.831001,19.5830076 C9.94671289,19.7690169 9.97440865,19.9945579 9.91077093,20.2005153 L9.87132559,20.3015884 L8.21094904,23.7887562 L11.6974524,22.127901 C11.9282253,22.0179684 12.1990981,22.0331418 12.4161498,22.1681599 C16.1677022,24.5018327 21.1010743,23.352197 23.4348265,19.6005169 C25.7684993,15.8489645 24.6188636,10.9155924 20.8673084,8.5819178 C19.5937919,7.7900664 18.124813,7.37195005 16.6265169,7.37494784 Z M12.875,14.3125 C13.4617136,14.3125 13.9375,14.7882864 13.9375,15.375 C13.9375,15.9617136 13.4617136,16.4375 12.875,16.4375 C12.2882864,16.4375 11.8125,15.9617136 11.8125,15.375 C11.8125,14.7884322 12.2880501,14.3127364 12.875,14.3125 Z M16.625,14.3125 C17.2117136,14.3125 17.6875,14.7882864 17.6875,15.375 C17.6875,15.9617136 17.2117136,16.4375 16.625,16.4375 C16.0382864,16.4375 15.5625,15.9617136 15.5625,15.375 C15.5625,14.7884322 16.0380501,14.3127364 16.625,14.3125 Z M20.375,14.3125 C20.9617136,14.3125 21.4375,14.7882864 21.4375,15.375 C21.4375,15.9617136 20.9617136,16.4375 20.375,16.4375 C19.7882864,16.4375 19.3125,15.9617136 19.3125,15.375 C19.3125,14.7884322 19.7880501,14.3127364 20.375,14.3125 Z" id="Combined-Shape"></path>
            </g>
        </g>
    </g>
</svg>