<?xml version="1.0" encoding="UTF-8"?>
<svg width="19px" height="19px" viewBox="0 0 19 19" version="1.1" xmlns="http://www.w3.org/2000/svg" xmlns:xlink="http://www.w3.org/1999/xlink">
    <!-- Generator: sketchtool 57.1 (101010) - https://sketch.com -->
    <title>0C6C1E3F-6E58-4D79-A141-4622E3F82A7F</title>
    <desc>Created with sketchtool.</desc>
    <g id="UI-Kit" stroke="none" stroke-width="1" fill="none" fill-rule="evenodd">
        <g id="Icons" transform="translate(-638.000000, -586.000000)" fill="#4E4E4E">
            <g id="icon/gray/donation-copy-11-icon/gray/close" transform="translate(632.000000, 580.000000)">
                <path d="M23.4666369,6.96663691 C23.7888194,6.64445436 24.3111806,6.64445436 24.6333631,6.96663691 C24.9555456,7.28881945 24.9555456,7.81118055 24.6333631,8.13336309 L24.6333631,8.13336309 L16.967,15.8 L24.6333631,23.4666369 C24.9555456,23.7888194 24.9555456,24.3111806 24.6333631,24.6333631 C24.3111806,24.9555456 23.7888194,24.9555456 23.4666369,24.6333631 L15.8,16.967 L8.13336309,24.6333631 C7.8380291,24.9286971 7.3744895,24.9533083 7.05112124,24.7071966 L6.96663691,24.6333631 C6.64445436,24.3111806 6.64445436,23.7888194 6.96663691,23.4666369 L6.96663691,23.4666369 L14.633,15.8 L6.96663691,8.13336309 C6.64445436,7.81118055 6.64445436,7.28881945 6.96663691,6.96663691 C7.28881945,6.64445436 7.81118055,6.64445436 8.13336309,6.96663691 L15.8,14.633 Z" id="Combined-Shape"></path>
            </g>
        </g>
    </g>
</svg>