<?xml version="1.0" encoding="UTF-8"?>
<svg width="24px" height="25px" viewBox="0 0 24 25" version="1.1" xmlns="http://www.w3.org/2000/svg" xmlns:xlink="http://www.w3.org/1999/xlink">
    <!-- Generator: sketchtool 56.3 (101010) - https://sketch.com -->
    <title>0F4AFCB0-A947-42D4-81BE-FE2A4A690B64</title>
    <desc>Created with sketchtool.</desc>
    <g id="UI-Kit" stroke="none" stroke-width="1" fill="none" fill-rule="evenodd">
        <g id="Icons" transform="translate(-772.000000, -584.000000)" fill="#4E4E4E">
            <g id="icon/gray/landing-page-copy-7-icon/gray/compose" transform="translate(768.000000, 580.000000)">
                <path d="M16.8704945,18.6934829 C16.7557977,18.8079427 16.6071161,18.882178 16.4467041,18.9050775 L12.7199739,19.4370832 C12.2249687,19.5077471 11.8007382,19.0833989 11.8715395,18.5884133 L12.4036427,14.8683811 C12.4266518,14.7075206 12.5012827,14.5584842 12.6163047,14.4436999 L22.2001857,4.87962035 C23.375441,3.70679322 25.2791201,3.70679322 26.4543754,4.87962035 C27.6304884,6.05330329 27.6304884,7.95572038 26.4543754,9.12940332 L16.8704945,18.6934829 Z M25.3948127,8.06764686 C25.9836759,7.48000026 25.9836759,6.52902341 25.3948127,5.94137681 C24.8050918,5.3528744 23.8494693,5.3528744 23.2597484,5.94137681 L13.8530799,15.3286101 L13.4980335,17.8108051 L15.987616,17.4554072 L25.3948127,8.06764686 Z M22.0714286,18.2771211 C22.0714286,17.8629076 22.407215,17.5271211 22.8214286,17.5271211 C23.2356421,17.5271211 23.5714286,17.8629076 23.5714286,18.2771211 L23.5714286,25.7913257 C23.5714286,27.035455 22.5606286,28.0441666 21.3154762,28.0441666 L6.25595238,28.0441666 C5.01079995,28.0441666 4,27.035455 4,25.7913257 L4,10.7629166 C4,9.51878719 5.01079995,8.51007566 6.25595238,8.51007566 L13.7857143,8.51007566 C14.1999278,8.51007566 14.5357143,8.8458621 14.5357143,9.26007566 C14.5357143,9.67428923 14.1999278,10.0100757 13.7857143,10.0100757 L6.25595238,10.0100757 C5.83853338,10.0100757 5.5,10.3479096 5.5,10.7629166 L5.5,25.7913257 C5.5,26.2063326 5.83853338,26.5441666 6.25595238,26.5441666 L21.3154762,26.5441666 C21.7328952,26.5441666 22.0714286,26.2063326 22.0714286,25.7913257 L22.0714286,18.2771211 Z" id="Combined-Shape"></path>
            </g>
        </g>
    </g>
</svg>