<?xml version="1.0" encoding="UTF-8"?>
<svg width="24px" height="24px" viewBox="0 0 24 24" version="1.1" xmlns="http://www.w3.org/2000/svg" xmlns:xlink="http://www.w3.org/1999/xlink">
    <!-- Generator: sketchtool 56.3 (101010) - https://sketch.com -->
    <title>E4160A87-6028-4791-B5F5-49A3D5DB4DD9</title>
    <desc>Created with sketchtool.</desc>
    <g id="UI-Kit" stroke="none" stroke-width="1" fill="none" fill-rule="evenodd">
        <g id="Icons" transform="translate(-298.000000, -659.000000)" fill="#4E4E4E">
            <g id="icon/gray/edit" transform="translate(294.000000, 655.000000)">
                <path d="M12.6084625,24.6707513 C12.55721,24.7268627 12.4963336,24.7760707 12.426348,24.8157396 C12.3952945,24.8335079 12.3632415,24.8488759 12.3304592,24.8618434 L5.04405214,27.9402556 C4.42522914,28.2017003 3.80120853,27.5802488 4.06009795,26.9603525 L7.11359933,19.6489131 C7.12643781,19.6160673 7.14167986,19.5839442 7.15932545,19.5528143 C7.19930025,19.4816201 7.24913301,19.4197774 7.30607125,19.3678295 L17.8388917,8.83891899 C17.8541802,8.82037634 17.8704956,8.80239614 17.8878378,8.78505393 C17.9052478,8.76764391 17.9233008,8.75126877 17.9419204,8.7359285 L20.9661089,5.71286266 C20.1321293,5.32112257 19.1075324,5.47026966 18.4181647,6.15904712 L15.2321647,9.34104712 C14.9390876,9.63375631 14.464214,9.63345802 14.1715048,9.34038088 C13.8787956,9.04730374 13.8790939,8.5724301 14.172171,8.27972092 L17.358065,5.09782686 C18.6560731,3.80093007 20.6683114,3.6524066 22.1291015,4.65584455 C23.4009238,3.81052513 25.0896804,3.78351336 26.422597,4.67001558 C28.1111297,5.86986116 28.5066327,8.21117759 27.3078938,9.89689642 C27.1873977,10.0675992 27.0518661,10.2283459 26.903498,10.3767141 L23.2031928,14.0767609 C23.1993478,14.0807778 23.1954496,14.0847625 23.191498,14.0887141 C23.1875337,14.0926783 23.1835362,14.0965889 23.1795061,14.1004459 L12.6084625,24.6707513 Z M10.73616,23.9070363 L8.07303364,21.24391 L6.15196654,25.8437984 L10.73616,23.9070363 Z M12.0541864,23.1037424 L21.6003596,13.5582359 L18.4204415,10.3783179 L8.87292141,19.9224774 L12.0541864,23.1037424 Z M22.6610568,12.4976127 L25.8428471,9.31604467 C25.9309696,9.22792209 26.0113414,9.13259742 26.0839514,9.02974118 C26.804021,8.01714332 26.5667589,6.61258912 25.5729464,5.90595675 C24.6197647,5.27227308 23.3501995,5.41331089 22.5474046,6.25280745 L19.4812884,9.31784439 L22.6610568,12.4976127 Z" id="Combined-Shape"></path>
            </g>
        </g>
    </g>
</svg>