<?xml version="1.0" encoding="UTF-8"?>
<svg width="22px" height="4px" viewBox="0 0 22 4" version="1.1" xmlns="http://www.w3.org/2000/svg" xmlns:xlink="http://www.w3.org/1999/xlink">
    <!-- Generator: sketchtool 57.1 (101010) - https://sketch.com -->
    <title>AFB0AFBF-108F-41EB-8698-EA5BA6BA0A9C</title>
    <desc>Created with sketchtool.</desc>
    <g id="UI-Kit" stroke="none" stroke-width="1" fill="none" fill-rule="evenodd">
        <g id="Icons" transform="translate(-366.000000, -520.000000)" fill="#4E4E4E">
            <g id="icon/gray/ellipsis" transform="translate(361.000000, 506.000000)">
                <path d="M25.1666667,14 C26.1791887,14 27,14.8208113 27,15.8333333 C27,16.8458554 26.1791887,17.6666667 25.1666667,17.6666667 C24.1541446,17.6666667 23.3333333,16.8458554 23.3333333,15.8333333 C23.3333333,14.8208113 24.1541446,14 25.1666667,14 Z M16,14 C17.012522,14 17.8333333,14.8208113 17.8333333,15.8333333 C17.8333333,16.8458554 17.012522,17.6666667 16,17.6666667 C14.987478,17.6666667 14.1666667,16.8458554 14.1666667,15.8333333 C14.1666667,14.8208113 14.987478,14 16,14 Z M6.83333333,14 C7.84585537,14 8.66666667,14.8208113 8.66666667,15.8333333 C8.66666667,16.8458554 7.84585537,17.6666667 6.83333333,17.6666667 C5.82081129,17.6666667 5,16.8458554 5,15.8333333 C5,14.8208113 5.82081129,14 6.83333333,14 Z" id="Combined-Shape"></path>
            </g>
        </g>
    </g>
</svg>