<?xml version="1.0" encoding="UTF-8"?>
<svg width="3px" height="21px" viewBox="0 0 3 21" version="1.1" xmlns="http://www.w3.org/2000/svg" xmlns:xlink="http://www.w3.org/1999/xlink">
    <!-- Generator: sketchtool 57.1 (101010) - https://sketch.com -->
    <title>D0F3AC3C-686D-410D-AE5D-3881B0E3102D</title>
    <desc>Created with sketchtool.</desc>
    <g id="UI-Kit" stroke="none" stroke-width="1" fill="none" fill-rule="evenodd">
        <g id="Icons" transform="translate(-241.000000, -512.000000)" fill="#4E4E4E">
            <g id="icon/gray/exclamation" transform="translate(226.000000, 506.000000)">
                <path d="M16.6153846,23.5576923 C17.3257787,23.5576923 17.8269231,24.1841228 17.8269231,24.8846154 C17.8269231,25.585108 17.3257787,26.2115385 16.6153846,26.2115385 C15.9049905,26.2115385 15.4038462,25.585108 15.4038462,24.8846154 C15.4038462,24.1842726 15.9047762,23.5579602 16.6153846,23.5576923 Z M16.6153846,6.25 C17.0295982,6.25 17.3653846,6.58578644 17.3653846,7 L17.3653846,7 L17.3653846,20.5 C17.3653846,20.9142136 17.0295982,21.25 16.6153846,21.25 C16.2011711,21.25 15.8653846,20.9142136 15.8653846,20.5 L15.8653846,20.5 L15.8653846,7 C15.8653846,6.58578644 16.2011711,6.25 16.6153846,6.25 Z" id="Combined-Shape"></path>
            </g>
        </g>
    </g>
</svg>