<?xml version="1.0" encoding="UTF-8"?>
<svg width="24px" height="21px" viewBox="0 0 24 21" version="1.1" xmlns="http://www.w3.org/2000/svg" xmlns:xlink="http://www.w3.org/1999/xlink">
    <!-- Generator: sketchtool 64 (101010) - https://sketch.com -->
    <title>DF320E3E-3092-4567-8B3B-74A097891F31</title>
    <desc>Created with sketchtool.</desc>
    <g id="UI-Kit" stroke="none" stroke-width="1" fill="none" fill-rule="evenodd">
        <g id="Icons" transform="translate(-389.000000, -1005.000000)" fill="#F24040">
            <g id="icon/heart/active" transform="translate(389.000000, 1005.000000)">
                <path d="M0.671626061,3.51993739 L0.588034534,3.69372224 C-0.531972677,6.12365201 -0.0225485439,8.98502407 1.86459953,10.87108 L11.3565123,20.771108 C11.6491476,21.076318 12.1370885,21.0762942 12.429694,20.7710555 L21.9336871,10.8567326 C23.859789,8.92974304 24.3398332,5.97054403 23.1145299,3.51993739 L23.0028043,3.30667943 C22.7073433,2.76989388 22.3459368,2.28904962 21.9226998,1.86581256 L21.7880799,1.73503107 C19.2935966,-0.619035727 15.3619253,-0.575443979 12.9196853,1.86569394 L11.893078,2.89156794 L10.8664214,1.8656447 C10.4442692,1.44349247 9.96398073,1.08287472 9.43989977,0.793637281 L9.21265429,0.674077309 C6.06843864,-0.89915265 2.24392582,0.375337873 0.671626061,3.51993739 Z" id="Path"></path>
            </g>
        </g>
    </g>
</svg>