<?xml version="1.0" encoding="UTF-8"?>
<svg width="24px" height="24px" viewBox="0 0 24 24" version="1.1" xmlns="http://www.w3.org/2000/svg" xmlns:xlink="http://www.w3.org/1999/xlink">
    <!-- Generator: sketchtool 58 (101010) - https://sketch.com -->
    <title>10EDB1D5-E4B0-46D9-9B50-3F3E1ACF303D</title>
    <desc>Created with sketchtool.</desc>
    <g id="UI-Kit" stroke="none" stroke-width="1" fill="none" fill-rule="evenodd">
        <g id="Icons" transform="translate(-775.000000, -589.000000)" fill="#4E4E4E">
            <g id="icon/gray/find-user" transform="translate(771.000000, 585.000000)">
                <path d="M19.75,13.75 C23.0632136,13.75 25.75,16.4367864 25.75,19.75 C25.75,21.1364384 25.2795262,22.4131853 24.4895506,23.4292688 L27.7803301,26.7196699 C28.0732233,27.0125631 28.0732233,27.4874369 27.7803301,27.7803301 C27.4874369,28.0732233 27.0125631,28.0732233 26.7196699,27.7803301 L26.7196699,27.7803301 L23.4292688,24.4895506 C22.4131853,25.2795262 21.1364384,25.75 19.75,25.75 C16.4367864,25.75 13.75,23.0632136 13.75,19.75 C13.75,16.4367864 16.4367864,13.75 19.75,13.75 Z M19.75,15.25 C17.2652136,15.25 15.25,17.2652136 15.25,19.75 C15.25,22.2347864 17.2652136,24.25 19.75,24.25 C22.2347864,24.25 24.25,22.2347864 24.25,19.75 C24.25,17.2652136 22.2347864,15.25 19.75,15.25 Z M11.5,4 C14.1922136,4 16.375,6.18278644 16.375,8.875 C16.375,11.5581602 14.2068695,13.7353136 11.5271429,13.749926 C12.2290524,13.7524406 12.925176,13.8520311 13.5953187,14.0468016 C13.9930733,14.1624052 14.2218019,14.5785642 14.1061984,14.9763187 C13.9905948,15.3740733 13.5744358,15.6028019 13.1766813,15.4871984 C12.6378447,15.3305907 12.0770467,15.2508919 11.5113974,15.2499962 C8.1943547,15.2473324 5.50266649,17.9340722 5.49999999,21.2506031 C5.4996667,21.6648165 5.16361037,22.0003328 4.74939694,22 C4.33518352,21.9996667 3.99966718,21.6636104 3.99999999,21.2493969 C4.0032678,17.1856367 7.2365867,13.8786443 11.2702263,13.7536576 L11.4689997,13.75 L11.2828618,13.7452497 C8.69139242,13.6316394 6.625,11.494451 6.625,8.875 C6.625,6.18278644 8.80778644,4 11.5,4 Z M11.5131856,13.7499962 L11.4689997,13.75 L11.4799997,13.75 L11.5131856,13.7499962 Z M11.5,5.5 C9.63621356,5.5 8.125,7.01121356 8.125,8.875 C8.125,10.7387864 9.63621356,12.25 11.5,12.25 C13.3637864,12.25 14.875,10.7387864 14.875,8.875 C14.875,7.01121356 13.3637864,5.5 11.5,5.5 Z" id="Combined-Shape"></path>
            </g>
        </g>
    </g>
</svg>