<?xml version="1.0" encoding="UTF-8"?>
<svg width="24px" height="24px" viewBox="0 0 24 24" version="1.1" xmlns="http://www.w3.org/2000/svg" xmlns:xlink="http://www.w3.org/1999/xlink">
    <!-- Generator: sketchtool 56.3 (101010) - https://sketch.com -->
    <title>C3C4C6B9-578E-4D9E-8264-4D7854A80000</title>
    <desc>Created with sketchtool.</desc>
    <g id="UI-Kit" stroke="none" stroke-width="1" fill="none" fill-rule="evenodd">
        <g id="Icons" transform="translate(-433.000000, -585.000000)" fill="#4E4E4E">
            <g id="icon/gray/messages/off-copy-4-icon/gray/give-hand" transform="translate(429.000000, 580.000000)">
                <g id="streamline-icon-love-it-hand-give@24x24" transform="translate(4.000000, 4.000000)">
                    <path d="M9,20.5 L6,20.5 C5.58578644,20.5 5.25,20.1642136 5.25,19.75 C5.25,19.3357864 5.58578644,19 6,19 L8.12200648,19 C7.81317861,18.1260426 6.97980052,17.5 6,17.5 L1.5,17.5 L1.5,22 L14.8720065,22 C14.5631786,21.1260426 13.7298005,20.5 12.75,20.5 L9,20.5 Z M1.5,16 L6,16 C7.81436081,16 9.32758985,17.2882288 9.67500075,19 L12.75,19 C14.8212136,19 16.5,20.6787864 16.5,22.75 C16.5,23.1642136 16.1642136,23.5 15.75,23.5 L1.5,23.5 L1.5,24.25 C1.5,24.6642136 1.16421356,25 0.75,25 C0.335786438,25 0,24.6642136 0,24.25 L0,15.25 C0,14.8357864 0.335786438,14.5 0.75,14.5 C1.16421356,14.5 1.5,14.8357864 1.5,15.25 L1.5,16 Z M15.7494918,2.83984805 L16.2636699,2.32566991 C18.0335631,0.555776695 20.9034369,0.555776695 22.6733301,2.32566991 C23.0186862,2.67102599 23.3060123,3.06958494 23.5218204,3.5035898 C24.3941185,5.24818603 24.0517152,7.35594495 22.6834945,8.7239255 L16.2914945,15.3939255 C15.9962671,15.7019929 15.5038567,15.7020298 15.2085832,15.3940066 L8.82766991,8.73733009 C7.44872485,7.35838503 7.10671332,5.25091956 7.97817961,3.5055898 C9.09760843,1.26673216 11.820442,0.358997399 14.0584102,1.47917961 C14.4932936,1.69662129 14.8899526,1.98249349 15.2358214,2.32716169 L15.7494918,2.83984805 Z M15.7499288,13.7911245 L21.6116699,7.67466991 C22.534586,6.75175388 22.7636911,5.3414332 22.1794433,4.17293344 C22.0354484,3.88335271 21.8436681,3.61732823 21.6126699,3.38633009 C20.4285631,2.2022233 18.5084369,2.2022233 17.3243301,3.38633009 L16.2803301,4.43033009 C15.9876354,4.72302476 15.5131538,4.72325222 15.2201786,4.43083831 L14.176593,3.3892516 C13.9444223,3.15788704 13.6786754,2.96636319 13.3873026,2.82067672 C11.8902338,2.07134087 10.0687297,2.67859154 9.32000463,4.17604146 C8.73693909,5.34377659 8.96582494,6.75416477 9.89941679,7.68799339 L15.7499288,13.7911245 Z" id="Combined-Shape"></path>
                </g>
            </g>
        </g>
    </g>
</svg>