<?xml version="1.0" encoding="UTF-8"?>
<svg width="30px" height="22px" viewBox="0 0 30 22" version="1.1" xmlns="http://www.w3.org/2000/svg" xmlns:xlink="http://www.w3.org/1999/xlink">
    <!-- Generator: sketchtool 57.1 (101010) - https://sketch.com -->
    <title>86BFC13B-1F61-4FE1-A0E6-8F9B9D2CD6C1</title>
    <desc>Created with sketchtool.</desc>
    <g id="UI-Kit" stroke="none" stroke-width="1" fill="none" fill-rule="evenodd">
        <g id="Icons" transform="translate(-295.000000, -585.000000)" fill="#4E4E4E">
            <g id="icon/gray/invite-copy-10-icon/gray/group" transform="translate(294.000000, 580.000000)">
                <path d="M22.9063685,8.83974359 C25.6113149,8.83974359 27.8126185,10.9786621 27.8126185,13.6282051 C27.8126185,16.1298229 25.850253,18.1762413 23.3544188,18.3969487 C26.2535319,18.5663289 28.9174338,20.366625 29.9908704,23.1954136 C30.2999568,24.0159497 30.4589491,24.8774305 30.4589491,25.7440684 C30.4589491,26.1582819 30.1231626,26.4940684 29.7089491,26.4940684 C29.2947355,26.4940684 28.9589491,26.1582819 28.9589491,25.7440684 C28.9589491,25.0592682 28.8329964,24.3768083 28.5878027,23.725883 C27.4337415,20.6846324 23.9478728,19.1224811 20.8034549,20.2494115 C20.413527,20.3891581 19.9841409,20.1863461 19.8443944,19.7964182 C19.7046478,19.4064903 19.9074598,18.9771043 20.2973877,18.8373577 C21.0094776,18.5821512 21.735891,18.438028 22.4565179,18.3960606 C19.9621772,18.1751012 18.0001185,16.1287939 18.0001185,13.6282051 C18.0001185,10.9790399 20.2022615,8.83974359 22.9063685,8.83974359 Z M10.3125,16.9166667 C15.3129279,16.9166667 19.375,20.8636194 19.375,25.7435897 C19.375,26.1578033 19.0392136,26.4935897 18.625,26.4935897 C18.2107864,26.4935897 17.875,26.1578033 17.875,25.7435897 C17.875,21.7018507 14.4939981,18.4166667 10.3125,18.4166667 C6.13100193,18.4166667 2.75,21.7018507 2.75,25.7435897 C2.75,26.1578033 2.41421356,26.4935897 2,26.4935897 C1.58578644,26.4935897 1.25,26.1578033 1.25,25.7435897 C1.25,20.8636194 5.31207215,16.9166667 10.3125,16.9166667 Z M22.9063685,10.3397436 C21.0211249,10.3397436 19.5001185,11.8173421 19.5001185,13.6282051 C19.5001185,15.4390682 21.0211249,16.9166667 22.9063685,16.9166667 C24.7923851,16.9166667 26.3126185,15.4395168 26.3126185,13.6282051 C26.3126185,11.8168935 24.7923851,10.3397436 22.9063685,10.3397436 Z M10.3125,5.25 C13.5272797,5.25 16.1423611,7.79096979 16.1423611,10.9358974 C16.1423611,14.0808251 13.5272797,16.6217949 10.3125,16.6217949 C7.09772029,16.6217949 4.48263889,14.0808251 4.48263889,10.9358974 C4.48263889,7.79096979 7.09772029,5.25 10.3125,5.25 Z M10.3125,6.75 C7.91665008,6.75 5.98263889,8.62920115 5.98263889,10.9358974 C5.98263889,13.2425937 7.91665008,15.1217949 10.3125,15.1217949 C12.7083499,15.1217949 14.6423611,13.2425937 14.6423611,10.9358974 C14.6423611,8.62920115 12.7083499,6.75 10.3125,6.75 Z" id="Combined-Shape"></path>
            </g>
        </g>
    </g>
</svg>