<?xml version="1.0" encoding="UTF-8"?>
<svg width="28px" height="28px" viewBox="0 0 28 28" version="1.1" xmlns="http://www.w3.org/2000/svg" xmlns:xlink="http://www.w3.org/1999/xlink">
    <title>ico_addmoney</title>
    <g id="Give-|-P2P" stroke="none" stroke-width="1" fill="none" fill-rule="evenodd">
        <g id="10-P2P---multi-recipients,-reload" transform="translate(-474.000000, -177.000000)">
            <g id="Group-2" transform="translate(439.000000, 57.000000)">
                <g id="ico_addmoney" transform="translate(35.000000, 120.000000)">
                    <path d="M14,0 C21.7317333,0 28,6.26826667 28,14 C28,21.7317333 21.7317333,28 14,28 C6.26826667,28 0,21.7317333 0,14 C0,6.26826667 6.26826667,0 14,0 Z" id="Stroke-5" fill="#FFFFFF"></path>
                    <path d="M14.5,20.375 L14.6225625,20.3816027 C15.186146,20.4426934 15.625,20.9202007 15.625,21.5 C15.625,22.1212136 15.1212136,22.625 14.5,22.625 C13.8787864,22.625 13.375,22.1212136 13.375,21.5 C13.375,20.9202007 13.813854,20.4426934 14.3774375,20.3816027 L14.5,20.375 Z" id="Stroke-1" fill="#263238" fill-rule="nonzero"></path>
                    <path d="M14.5,6.25 C14.8796958,6.25 15.193491,6.53215388 15.2431534,6.89822944 L15.25,7 L15.25,17 C15.25,17.4142136 14.9142136,17.75 14.5,17.75 C14.1203042,17.75 13.806509,17.4678461 13.7568466,17.1017706 L13.75,17 L13.75,7 C13.75,6.58578644 14.0857864,6.25 14.5,6.25 Z" id="Stroke-3" fill="#263238" fill-rule="nonzero"></path>
                </g>
            </g>
        </g>
    </g>
</svg>