<?xml version="1.0" encoding="UTF-8"?>
<svg width="24px" height="24px" viewBox="0 0 24 24" version="1.1" xmlns="http://www.w3.org/2000/svg" xmlns:xlink="http://www.w3.org/1999/xlink">
    <!-- Generator: sketchtool 56.3 (101010) - https://sketch.com -->
    <title>5153813E-8D13-4B36-805C-97C3C6F4F930</title>
    <desc>Created with sketchtool.</desc>
    <g id="UI-Kit-v1.5" stroke="none" stroke-width="1" fill="none" fill-rule="evenodd" stroke-linecap="round" stroke-linejoin="round">
        <g id="Icons" transform="translate(-498.000000, -898.000000)" stroke="#000000" stroke-width="1.5">
            <g id="icon-sort" transform="translate(498.000000, 899.000000)">
                <path d="M23.2,1.054 C23.227,0.64 22.913,0.283 22.5,0.256 C22.484,0.255 22.468,0.254 22.452,0.254 L1.5,0.254 C1.086,0.254 0.75,0.59 0.75,1.004 C0.75,1.021 0.751,1.037 0.752,1.054 C1.113,6.087 4.78,10.264 9.724,11.274 L9.724,21.149 C9.724,21.563 10.06,21.899 10.474,21.899 C10.649,21.899 10.819,21.837 10.954,21.725 L13.954,19.225 C14.125,19.083 14.224,18.872 14.224,18.649 L14.224,11.274 C19.169,10.266 22.838,6.088 23.2,1.054 Z" id="Path"></path>
            </g>
        </g>
    </g>
</svg>