<?xml version="1.0" encoding="UTF-8"?>
<svg width="23px" height="17px" viewBox="0 0 23 17" version="1.1" xmlns="http://www.w3.org/2000/svg" xmlns:xlink="http://www.w3.org/1999/xlink">
    <title>A5D59E90-2FB4-487B-B3E4-7BEC18B11376</title>
    <g id="Manage-|-Giving-Group" stroke="none" stroke-width="1" fill="none" fill-rule="evenodd">
        <g id="Manage-gg:-pics-and-videos" transform="translate(-545.000000, -809.000000)" fill="#FFFFFF">
            <g id="Group-4" transform="translate(516.000000, 683.000000)">
                <g id="icon/normal/upload" transform="translate(29.000000, 126.000000)">
                    <path d="M21.6132812,11.7083333 C21.9498298,11.7083333 22.2226562,11.9811598 22.2226562,12.3177083 L22.2226562,12.3177083 L22.2226562,13.671875 C22.2226562,15.5060324 20.720561,16.9895833 18.8710938,16.9895833 L18.8710938,16.9895833 L3.7890625,16.9895833 C1.93959528,16.9895833 0.4375,15.5060324 0.4375,13.671875 L0.4375,13.671875 L0.4375,12.3177083 C0.4375,11.9811598 0.710326481,11.7083333 1.046875,11.7083333 C1.38342352,11.7083333 1.65625,11.9811598 1.65625,12.3177083 L1.65625,12.3177083 L1.65625,13.671875 C1.65625,14.8295231 2.60932659,15.7708333 3.7890625,15.7708333 L3.7890625,15.7708333 L18.8710938,15.7708333 C20.0508297,15.7708333 21.0039062,14.8295231 21.0039062,13.671875 L21.0039062,13.671875 L21.0039062,12.3177083 C21.0039062,11.9811598 21.2767327,11.7083333 21.6132812,11.7083333 Z M10.9018695,0.238313813 C11.1392182,0.00389539567 11.5209381,0.00389539567 11.7582867,0.238313813 L11.7582867,0.238313813 L15.871568,4.30081381 C16.1110172,4.53730688 16.1134136,4.92313435 15.8769206,5.16258358 C15.6404275,5.40203281 15.2546,5.40442926 15.0151508,5.16793619 L15.0151508,5.16793619 L11.9385,2.1295 L11.9394531,12.3177083 C11.9394531,12.620602 11.7184637,12.8718808 11.4289219,12.9191076 L11.3300781,12.9270833 C10.9935296,12.9270833 10.7207031,12.6542569 10.7207031,12.3177083 L10.7207031,12.3177083 L10.7205,2.1295 L7.64500545,5.16793619 C7.43216169,5.37815225 7.10366105,5.3996161 6.86719197,5.23361774 L6.78323569,5.16258358 C6.54674262,4.92313435 6.54913906,4.53730688 6.7885883,4.30081381 L6.7885883,4.30081381 Z" id="Combined-Shape"></path>
                </g>
            </g>
        </g>
    </g>
</svg>