<?xml version="1.0" encoding="UTF-8"?>
<svg width="18px" height="8px" viewBox="0 0 18 8" version="1.1" xmlns="http://www.w3.org/2000/svg" xmlns:xlink="http://www.w3.org/1999/xlink">
    <!-- Generator: sketchtool 63 (101010) - https://sketch.com -->
    <title>4CE014C8-D932-49A6-9726-44495FE2095A</title>
    <desc>Created with sketchtool.</desc>
    <g id="P2P-claim-gift" stroke="none" stroke-width="1" fill="none" fill-rule="evenodd" stroke-linecap="round" stroke-linejoin="round">
        <g transform="translate(-919.000000, -831.000000)" id="input/field/hint-text/default" stroke="#4E4E4E" stroke-width="1.5">
            <g transform="translate(485.000000, 787.000000)">
                <g id="icon/icon-password-unhide" transform="translate(434.000000, 44.000000)">
                    <g id="icon-password-unhide" transform="translate(0.593750, 0.937500)">
                        <path d="M8.19533909,0.30674 C5.44204394,0.278973333 2.59449061,1.42924833 0.804268182,2.60729 C0.414940909,2.865765 0.414940909,3.257765 0.804268182,3.51624 C2.55555788,4.66937333 5.39491485,5.84619 8.19533909,5.818015 C10.9957633,5.84619 13.8358033,4.66937333 15.5884591,3.51624 C15.9777864,3.257765 15.9777864,2.865765 15.5884591,2.60729 C13.7961876,1.42924833 10.9486342,0.278973333 8.19533909,0.30674 Z" id="Stroke-1"></path>
                        <path d="M10.7567027,3.06258167 C10.7560197,3.90824 9.60921182,4.59383167 8.19465606,4.59342352 C6.7801003,4.593015 5.63329242,3.90742333 5.63397515,3.061765 C5.63465848,2.21610667 6.78078333,1.53092315 8.19533909,1.53092315 C9.60989485,1.530515 10.7560197,2.21569833 10.7567027,3.06135667 L10.7567027,3.06258167 Z" id="Stroke-3"></path>
                    </g>
                </g>
            </g>
        </g>
    </g>
</svg>