<?xml version="1.0" encoding="UTF-8"?>
<svg width="22px" height="22px" viewBox="0 0 22 22" version="1.1" xmlns="http://www.w3.org/2000/svg" xmlns:xlink="http://www.w3.org/1999/xlink">
    <title>BD22F8B6-5834-4B27-B8B1-EA3CC9A88D98</title>
    <g id="UI-Kit" stroke="none" stroke-width="1" fill="none" fill-rule="evenodd">
        <g id="Icons" transform="translate(-279.000000, -430.000000)" fill="#4E4E4E">
            <g id="icon/gray/donation" transform="translate(279.000000, 430.000000)">
                <path d="M12.020689,9.70503757 C13.0691236,8.70531073 14.7290821,8.74522806 15.7251266,9.78982931 L15.7251266,9.78982931 L16.347018,10.4326676 L16.9650465,9.79190548 C17.0070244,9.74876355 17.0070244,9.74876355 17.0519934,9.70503757 C18.1002779,8.70545383 19.7599112,8.74521666 20.7597505,9.79328232 C21.785895,10.8663249 21.7879355,12.5568634 20.759969,13.6361959 L20.759969,13.6361959 L19.6533913,14.7783913 L20.2248063,20.7107061 C20.2755752,21.2378263 19.7836442,21.638205 19.2914567,21.5092763 L19.1931765,21.4763139 L16.3043478,20.289124 L13.4155191,21.4763139 C12.8930565,21.6910246 12.3297397,21.272971 12.3838889,20.7107115 L12.3838889,20.7107115 L12.9623913,14.6983913 L11.932266,13.6326394 C10.9515058,12.6051765 10.9088641,11.0134789 11.8056326,9.93560253 L11.9337421,9.79190548 C11.9757201,9.74876355 11.9757201,9.74876355 12.020689,9.70503757 Z M14.3323913,16.1143913 L13.996264,19.6159253 L16.0192635,18.7845557 C16.2019088,18.7094959 16.4067869,18.7094959 16.5894322,18.7845557 L16.5894322,18.7845557 L18.6124223,19.6159214 L18.2823913,16.1963913 L17.3244325,17.1869219 C17.3130149,17.1993694 17.3054032,17.2076677 17.2996514,17.2138566 L17.2566712,17.2566894 C16.7287003,17.7584632 15.8939756,17.7378912 15.3965528,17.2144568 L15.3965528,17.2144568 L14.3323913,16.1143913 Z M11.6956522,0.467391304 C12.3052451,0.467391304 12.8841383,0.738472022 13.2748668,1.20734668 L13.2748668,1.20734668 L15.8361581,4.28663681 C16.1446551,4.65546213 16.3134783,5.1214284 16.3134783,5.6026087 L16.3134783,5.6026087 L16.3134783,7.73913043 C16.3134783,8.153344 15.9776918,8.48913043 15.5634783,8.48913043 C15.1492647,8.48913043 14.8134783,8.153344 14.8134783,7.73913043 L14.8134783,7.73913043 L14.8134783,5.6026087 C14.8134783,5.47291112 14.7681052,5.34767754 14.6842636,5.24743593 L14.6842636,5.24743593 L12.1220949,2.16709482 C12.0168262,2.04077242 11.8601208,1.9673913 11.6956522,1.9673913 L11.6956522,1.9673913 L2.52173913,1.9673913 C2.21595269,1.9673913 1.9673913,2.21595269 1.9673913,2.52173913 L1.9673913,2.52173913 L1.9673913,16.8695652 C1.9673913,17.1753517 2.21595269,17.423913 2.52173913,17.423913 L2.52173913,17.423913 L10.3478261,17.423913 C10.7620396,17.423913 11.0978261,17.7596995 11.0978261,18.173913 C11.0978261,18.5881266 10.7620396,18.923913 10.3478261,18.923913 L10.3478261,18.923913 L2.52173913,18.923913 C1.38752557,18.923913 0.467391304,18.0037788 0.467391304,16.8695652 L0.467391304,16.8695652 L0.467391304,2.52173913 C0.467391304,1.38752557 1.38752557,0.467391304 2.52173913,0.467391304 L2.52173913,0.467391304 Z M19.6746028,10.8288762 C19.2463803,10.3797903 18.5358948,10.3627051 18.0889641,10.7888666 L18.0889641,10.7888666 L18.0459074,10.8319711 L16.8876465,12.0328407 C16.5930253,12.3383001 16.103865,12.3386666 15.8087864,12.0336489 L15.8087864,12.0336489 L14.6432984,10.8288762 C14.215076,10.3797903 13.5045905,10.3627051 13.0576597,10.7888666 C13.0364538,10.8094973 13.0364538,10.8094973 13.0172993,10.8291612 C12.5452481,11.323691 12.5452481,12.102396 13.013882,12.5933693 L13.013882,12.5933693 L16.3478074,16.0404199 L19.6777661,12.5975412 C20.1491687,12.1025686 20.1481626,11.3238631 19.6746028,10.8288762 Z M9.04347826,13.5108696 C9.45769182,13.5108696 9.79347826,13.846656 9.79347826,14.2608696 C9.79347826,14.6750831 9.45769182,15.0108696 9.04347826,15.0108696 L9.04347826,15.0108696 L3.82608696,15.0108696 C3.41187339,15.0108696 3.07608696,14.6750831 3.07608696,14.2608696 C3.07608696,13.846656 3.41187339,13.5108696 3.82608696,13.5108696 L3.82608696,13.5108696 Z M9.04347826,9.59782609 C9.45769182,9.59782609 9.79347826,9.93361252 9.79347826,10.3478261 C9.79347826,10.7620396 9.45769182,11.0978261 9.04347826,11.0978261 L9.04347826,11.0978261 L3.82608696,11.0978261 C3.41187339,11.0978261 3.07608696,10.7620396 3.07608696,10.3478261 C3.07608696,9.93361252 3.41187339,9.59782609 3.82608696,9.59782609 L3.82608696,9.59782609 Z M12.3043478,5.68478261 C12.7185614,5.68478261 13.0543478,6.02056905 13.0543478,6.43478261 C13.0543478,6.84899617 12.7185614,7.18478261 12.3043478,7.18478261 L12.3043478,7.18478261 L3.82608696,7.18478261 C3.41187339,7.18478261 3.07608696,6.84899617 3.07608696,6.43478261 C3.07608696,6.02056905 3.41187339,5.68478261 3.82608696,5.68478261 L3.82608696,5.68478261 Z" id="Combined-Shape"></path>
            </g>
        </g>
    </g>
</svg>