<?xml version="1.0" encoding="UTF-8"?>
<svg width="32px" height="32px" viewBox="0 0 32 32" version="1.1" xmlns="http://www.w3.org/2000/svg" xmlns:xlink="http://www.w3.org/1999/xlink">
    <title>BF30298B-548B-442A-BB96-5305B3FE9221</title>
    <g id="UI-Kit" stroke="none" stroke-width="1" fill="none" fill-rule="evenodd">
        <g id="Icons" transform="translate(-894.000000, -425.000000)">
            <g id="icon/normal/add" transform="translate(894.000000, 425.000000)">
                <rect id="Rectangle" x="0" y="0" width="32" height="32"></rect>
                <path d="M16,5 C22.0751322,5 27,9.92486775 27,16 C27,22.0751322 22.0751322,27 16,27 C9.92486775,27 5,22.0751322 5,16 C5,9.92486775 9.92486775,5 16,5 Z M16,6.375 C10.6842593,6.375 6.375,10.6842593 6.375,16 C6.375,21.3157407 10.6842593,25.625 16,25.625 C21.3157407,25.625 25.625,21.3157407 25.625,16 C25.625,10.6842593 21.3157407,6.375 16,6.375 Z M16,11.1875 C16.3685282,11.1875 16.6693317,11.4774644 16.6867072,11.84169 L16.6875,11.875 L16.687,15.312 L20.125,15.3125 C20.5046958,15.3125 20.8125,15.6203042 20.8125,16 C20.8125,16.3685282 20.5225356,16.6693317 20.15831,16.6867072 L20.125,16.6875 L16.687,16.687 L16.6875,20.125 C16.6875,20.5046958 16.3796958,20.8125 16,20.8125 C15.6314718,20.8125 15.3306683,20.5225356 15.3132928,20.15831 L15.3125,20.125 L15.312,16.687 L11.875,16.6875 C11.4953042,16.6875 11.1875,16.3796958 11.1875,16 C11.1875,15.6314718 11.4774644,15.3306683 11.84169,15.3132928 L11.875,15.3125 L15.312,15.312 L15.3125,11.875 C15.3125,11.4953042 15.6203042,11.1875 16,11.1875 Z" id="Combined-Shape" fill="#4E4E4E"></path>
            </g>
        </g>
    </g>
</svg>