<?xml version="1.0" encoding="UTF-8"?>
<svg width="27px" height="27px" viewBox="0 0 27 27" version="1.1" xmlns="http://www.w3.org/2000/svg" xmlns:xlink="http://www.w3.org/1999/xlink">
    <title>32FE53E6-C196-4C79-B313-2C822FAD13BE</title>
    <g id="UI-Kit" stroke="none" stroke-width="1" fill="none" fill-rule="evenodd">
        <g id="footer" transform="translate(-1203.000000, -762.000000)" fill="#4E4E4E">
            <g id="icon/social/instagram" transform="translate(1203.000000, 762.000000)">
                <path d="M23.5593018,8.47790904 C23.7459169,8.32210301 23.7714444,8.04482109 23.6165187,7.85820595 C23.556661,7.78602463 23.4747968,7.73496955 23.3832498,7.71208278 L22.6878443,7.53603077 C22.4519346,7.47705335 22.3084522,7.23762261 22.3674296,7.00259317 C22.3744717,6.97354459 22.3850348,6.94625653 22.3973585,6.91984873 L22.7846729,6.13641727 C22.8903041,5.91723252 22.7978768,5.65403476 22.5795723,5.54840355 C22.4845042,5.50263003 22.3762322,5.49294717 22.2741221,5.52023523 L20.513602,6.01318087 C20.3806827,6.05191231 20.2372003,6.02550451 20.1262875,5.94276006 C19.3648626,5.37147128 18.4379487,5.0625 17.4855073,5.0625 C15.0551093,5.0625 13.084207,7.03340228 13.084207,9.46380031 L13.084207,9.46380031 L13.084207,9.78069393 C13.0850873,9.89248696 13.0014626,9.98755504 12.8905498,10.0007589 C10.4170191,10.2912448 8.04911949,9.03247288 5.49636532,6.09240427 C5.38369203,5.96740734 5.2102808,5.91635226 5.04743269,5.96036526 C4.90130952,6.02726503 4.80360065,6.1689869 4.79215727,6.33007449 C4.43917298,7.77810229 4.58177511,9.30271271 5.1970769,10.660954 C5.25165302,10.769226 5.20852028,10.9021452 5.10024829,10.9567214 C5.05887607,10.9769674 5.01310254,10.9848897 4.96820928,10.9778476 L3.98231801,10.7841904 C3.74200702,10.745459 3.51666044,10.9091873 3.477929,11.1486181 C3.47000666,11.2005534 3.47088692,11.2524887 3.48056978,11.3035438 C3.63461529,12.6723482 4.40220206,13.8959097 5.56678612,14.6309269 C5.67593837,14.6837425 5.72171189,14.8157815 5.66889629,14.9249337 C5.64688979,14.969827 5.61167939,15.0059176 5.56678612,15.0270439 L5.10024829,15.2118985 C4.87490171,15.3025653 4.76486921,15.558721 4.85553599,15.7840675 C4.85993729,15.7963912 4.86521885,15.8078346 4.87138067,15.8192779 C5.39513541,16.9653765 6.44792644,17.7813776 7.68821287,18.0023229 C7.80264668,18.0436951 7.8616241,18.1704526 7.82025188,18.2840061 C7.79824538,18.3456243 7.74983107,18.3931584 7.68821287,18.4160451 C6.49105919,18.9107513 5.20675976,19.1598649 3.91189721,19.146661 C3.66894543,19.0982467 3.43215547,19.2558132 3.38374117,19.498765 C3.33532687,19.7417168 3.49289342,19.9785067 3.7358452,20.026921 L3.7358452,20.026921 C5.97874783,21.0902752 8.41970898,21.6694863 10.9011621,21.725823 C13.0833268,21.7592728 15.2276403,21.1466118 17.0629825,19.9653028 C20.1298086,17.9178179 21.9669113,14.4715998 21.9572285,10.7841904 L21.9572285,10.0183641 C21.9581087,9.88896591 22.0162059,9.76660977 22.1156753,9.68386532 L23.5593018,8.47790904 Z" id="Path"></path>
            </g>
        </g>
    </g>
</svg>