<?xml version="1.0" encoding="UTF-8"?>
<svg width="45px" height="45px" viewBox="0 0 45 45" version="1.1" xmlns="http://www.w3.org/2000/svg" xmlns:xlink="http://www.w3.org/1999/xlink">
    <title>F4934FF1-7A25-41D8-9B20-A404132E0FC4@3x</title>
    <g id="Claim-Charity" stroke="none" stroke-width="1" fill="none" fill-rule="evenodd">
        <g id="claim_charity-(1)" transform="translate(-193.000000, -437.000000)">
            <g id="block-01" transform="translate(193.000000, 181.000000)">
                <g id="content01" transform="translate(0.000000, 181.000000)">
                    <g id="charitableimpactforcharities/section-3/icon-2" transform="translate(0.000000, 75.000000)">
                        <rect id="Rectangle" fill="#FCC7AD" x="0" y="0" width="44.8" height="44.8"></rect>
                        <g id="streamline-icon-content-pen-double@40x40" transform="translate(14.000000, 14.000000)" stroke="#DB0163" stroke-linecap="round" stroke-linejoin="round" stroke-width="1.5">
                            <path d="M14.155,8.17826087 L17.9847391,4.35430435 C18.9694348,3.40347826 18.9966957,1.83473913 18.0458696,0.850043478 C17.0950435,-0.134652174 15.5263043,-0.161913043 14.5416087,0.788913043 C14.5209565,0.80873913 14.5003043,0.829391304 14.4804783,0.850043478 L10.6565217,4.6673913" id="Path"></path>
                            <path d="M4.04782609,11.276087 L3.5216087,11.8023043 C3.03752174,12.2863913 3.03752174,13.0703478 3.5216087,13.5544348 L5.27704348,15.3073913 C5.76113043,15.7914783 6.54508696,15.7914783 7.02917391,15.3073913 L7.34308696,14.9934783" id="Path"></path>
                            <path d="M17.9847391,4.35430435 C18.952913,5.32165217 18.952913,6.89121739 17.9847391,7.8593913 C17.9847391,7.8593913 17.9847391,7.8593913 17.9847391,7.8593913 L16.8579565,8.98617391" id="Path"></path>
                            <path d="M4.38982609,14.4201739 C3.63147826,13.7023043 2.43695652,13.7262609 1.70752174,14.4738696 C0.959913043,15.2214783 0.123913043,18.7108696 0.123913043,18.7108696 C0.123913043,18.7108696 3.58852174,17.850087 4.33695652,17.1024783 C5.08456522,16.3730435 5.10852174,15.1785217 4.38982609,14.4201739 Z" id="Path"></path>
                            <path d="M4.3576087,0.850043478 L16.1863478,12.6787826 L12.6812609,16.1830435 L0.946695652,4.44847826 C0.0470869565,3.58769565 -0.106565217,2.20565217 0.582391304,1.16808696 C1.37378261,0.0512173913 2.92104348,-0.212304348 4.03708696,0.579913043 C4.15191304,0.660869565 4.25847826,0.750913043 4.3576087,0.850043478 Z" id="Path"></path>
                            <path d="M0.852521739,4.35430435 C-0.115652174,5.32165217 -0.115652174,6.89121739 0.852521739,7.8593913 C0.852521739,7.8593913 0.852521739,7.8593913 0.852521739,7.8593913 L1.9826087,8.99195652" id="Path"></path>
                            <line x1="5.24730435" y1="8.74908696" x2="8.7523913" y2="5.24482609" id="Path"></line>
                            <polygon id="Path" points="18.7108696 18.7108696 16.1863478 12.6787826 12.6812609 16.1830435"></polygon>
                        </g>
                    </g>
                </g>
            </g>
        </g>
    </g>
</svg>