<?xml version="1.0" encoding="UTF-8"?>
<svg width="28px" height="28px" viewBox="0 0 28 28" version="1.1" xmlns="http://www.w3.org/2000/svg" xmlns:xlink="http://www.w3.org/1999/xlink">
    <title>0030ACE0-661B-471E-B5E1-D8A08E1451ED</title>
    <g id="UI-Kit" stroke="none" stroke-width="1" fill="none" fill-rule="evenodd">
        <g id="Icons" transform="translate(-524.000000, -632.000000)" fill="#4E4E4E">
            <g id="icon/normal/dragdrop" transform="translate(524.000000, 632.000000)">
                <path d="M14.1034473,0.00880409031 L14.1657735,0.0228464454 C14.1898153,0.0296358581 14.2132529,0.0378653113 14.2359873,0.0474357631 C14.2821599,0.0668007322 14.3266768,0.0922966256 14.3680792,0.12380752 L14.4304128,0.178282829 L18.0825867,3.83045674 C18.3202972,4.06816718 18.3202972,4.45357195 18.0825867,4.69128239 C17.8646855,4.90918362 17.52268,4.92734206 17.2840947,4.7457577 L17.2217611,4.69128239 L14.608,2.077 L14.608,13.391 L25.922,13.391 L23.3087176,10.7782389 C23.0908164,10.5603377 23.0726579,10.2183322 23.2542423,9.9797469 L23.3087176,9.91741326 C23.5266188,9.69951203 23.8686243,9.68135359 24.1072096,9.86293795 L24.1695433,9.91741326 L27.8217172,13.5695872 C27.8672974,13.6151674 27.9056825,13.6679428 27.9350226,13.7260635 C27.9571889,13.770078 27.9735084,13.8156363 27.9842851,13.8622171 C27.9945443,13.9061443 28,13.9524351 28,14 C28,14.0624938 27.9905822,14.1227879 27.9730885,14.1795405 C27.9525235,14.2462662 27.9202327,14.3102144 27.8761925,14.3680792 L27.8217172,14.4304128 L24.1695433,18.0825867 C23.9318328,18.3202972 23.546428,18.3202972 23.3087176,18.0825867 C23.0908164,17.8646855 23.0726579,17.52268 23.2542423,17.2840947 L23.3087176,17.2217611 L25.921,14.608 L14.608,14.608 L14.608,25.922 L17.2217611,23.3087176 C17.4594715,23.0710072 17.8448763,23.0710072 18.0825867,23.3087176 C18.300488,23.5266188 18.3186464,23.8686243 18.137062,24.1072096 L18.0825867,24.1695433 L14.4304128,27.8217172 C14.3848326,27.8672974 14.3320572,27.9056825 14.2739365,27.9350226 C14.229922,27.9571889 14.1843637,27.9735084 14.1377829,27.9842851 C14.0938557,27.9945443 14.0475649,28 14,28 L13.9403165,27.9970847 C13.9018839,27.9933204 13.863741,27.9859108 13.8264486,27.9748557 C13.8050554,27.968544 13.7842553,27.9610857 13.7640127,27.9525642 C13.7178401,27.9331993 13.6733232,27.9077034 13.6319208,27.8761925 L13.5695872,27.8217172 L9.91741326,24.1695433 C9.67970283,23.9318328 9.67970283,23.546428 9.91741326,23.3087176 C10.1353145,23.0908164 10.47732,23.0726579 10.7159053,23.2542423 L10.7782389,23.3087176 L13.391,25.921 L13.391,14.608 L2.078,14.608 L4.69128239,17.2217611 C4.90918362,17.4396623 4.92734206,17.7816678 4.7457577,18.0202531 L4.69128239,18.0825867 C4.47338115,18.300488 4.13137565,18.3186464 3.89279037,18.137062 L3.83045674,18.0825867 L0.178282829,14.4304128 L0.117442952,14.3594877 C0.0977100141,14.3325677 0.080136456,14.3039655 0.0649774123,14.2739365 C0.0428110794,14.229922 0.0264916201,14.1843637 0.0157148915,14.1377829 C0.00545568971,14.0938557 0,14.0475649 0,14 C0.00185456532,13.8644253 0.0431033588,13.7379587 0.12380752,13.6319208 L0.178282829,13.5695872 L3.83045674,9.91741326 C4.06816718,9.67970283 4.45357195,9.67970283 4.69128239,9.91741326 C4.90918362,10.1353145 4.92734206,10.47732 4.7457577,10.7159053 L4.69128239,10.7782389 L2.077,13.391 L13.391,13.391 L13.391,2.078 L10.7782389,4.69128239 C10.5603377,4.90918362 10.2183322,4.92734206 9.9797469,4.7457577 L9.91741326,4.69128239 C9.69951203,4.47338115 9.68135359,4.13137565 9.86293795,3.89279037 L9.91741326,3.83045674 L13.5695872,0.178282829 L13.6405123,0.117442952 C13.6674323,0.0977100141 13.6960345,0.080136456 13.7260635,0.0649774123 C13.7521453,0.0518269927 13.7784128,0.0408944916 13.8051832,0.031875766 C13.8065366,0.0313874991 13.8075529,0.0310480716 13.8085704,0.0307112558 C13.8260245,0.0249680314 13.8440429,0.0199195823 13.8622171,0.0157148915 C13.878235,0.0119389408 13.8950084,0.00877469219 13.9120092,0.00631309146 C13.9196388,0.00525558464 13.9266163,0.00437247548 13.9336043,0.00361011059 C13.9547893,0.00124819174 13.9772489,0 14,0 C14.0403843,0.000509495967 14.072086,0.0034238129 14.1034473,0.00880409031 Z" id="Combined-Shape"></path>
            </g>
        </g>
    </g>
</svg>