<?xml version="1.0" encoding="UTF-8"?>
<svg width="19px" height="19px" viewBox="0 0 19 19" version="1.1" xmlns="http://www.w3.org/2000/svg" xmlns:xlink="http://www.w3.org/1999/xlink">
    <title>BB3CCDA1-EE46-4D92-9B60-A25812692D5D</title>
    <g id="UI-Kit" stroke="none" stroke-width="1" fill="none" fill-rule="evenodd">
        <g id="Icons" transform="translate(-715.000000, -643.000000)" fill="#4E4E4E">
            <g id="icon/gray/delete" transform="translate(715.000000, 643.000000)">
                <path d="M18.022017,2.48579545 C18.3652338,2.48579545 18.6434659,2.76402759 18.6434659,3.10724432 C18.6434659,3.44036644 18.3813597,3.71227037 18.0521268,3.72797655 L18.022017,3.72869318 L16.729,3.728 L15.6293834,16.9332386 C15.5534221,17.8489796 14.8242836,18.5645732 13.9230274,18.6373622 L13.7713068,18.6434659 L4.87298769,18.6434659 C3.9030423,18.6434659 3.09509247,17.8998541 3.01493278,16.9334987 L3.01493278,16.9334987 L1.914,3.728 L0.621448864,3.72869318 C0.278232133,3.72869318 0,3.45046105 0,3.10724432 C0,2.7741222 0.262106223,2.50221827 0.591339105,2.48651208 L0.621448864,2.48579545 L5.593,2.485 L5.59303977,1.86434659 C5.59303977,0.883727362 6.35013401,0.0799369674 7.31168877,0.00560912759 L7.45738636,0 L11.1860795,0 C12.2157297,0 13.0504261,0.8346964 13.0504261,1.86434659 L13.0504261,1.86434659 L13.05,2.485 L18.022017,2.48579545 Z M15.4822443,3.72855114 L3.16107955,3.72855114 L4.25355476,16.8304924 C4.27944595,17.1426204 4.5330111,17.3850032 4.84283487,17.3998473 L4.84283487,17.3998473 L4.87298769,17.4005682 L13.7713068,17.4005682 C14.0946874,17.4005682 14.3640134,17.152689 14.3907583,16.8302693 L14.3907583,16.8302693 L15.4822443,3.72855114 Z M7.45738636,6.8359375 C7.79050848,6.8359375 8.06241242,7.09804372 8.0781186,7.42727661 L8.07883523,13.671875 C8.07883523,14.0150917 7.80060309,14.2933239 7.45738636,14.2933239 C7.12426424,14.2933239 6.85236031,14.0312176 6.83665413,13.7019848 L6.8359375,13.671875 L6.8359375,7.45738636 C6.8359375,7.11416963 7.11416963,6.8359375 7.45738636,6.8359375 Z M11.1860795,6.8359375 C11.5192017,6.8359375 11.7911056,7.09804372 11.8068118,7.42727661 L11.8075284,7.45738636 L11.8075284,13.671875 C11.8075284,14.0150917 11.5292963,14.2933239 11.1860795,14.2933239 C10.8529574,14.2933239 10.5810535,14.0312176 10.5653473,13.7019848 L10.5646307,13.671875 L10.5646307,7.45738636 C10.5646307,7.11416963 10.8428628,6.8359375 11.1860795,6.8359375 Z M11.1860795,1.24289773 L7.45738636,1.24289773 C7.11416963,1.24289773 6.8359375,1.52112986 6.8359375,1.86434659 L6.8359375,1.86434659 L6.83579545,2.48579545 L11.8075284,2.48579545 L11.8075284,1.86434659 C11.8075284,1.53122447 11.5454222,1.25932054 11.2161893,1.24361436 L11.2161893,1.24361436 L11.1860795,1.24289773 Z" id="Combined-Shape"></path>
            </g>
        </g>
    </g>
</svg>