<?xml version="1.0" encoding="UTF-8"?>
<svg width="25px" height="23px" viewBox="0 0 25 23" version="1.1" xmlns="http://www.w3.org/2000/svg" xmlns:xlink="http://www.w3.org/1999/xlink">
    <title>3BCE616D-7799-4970-B3F0-8C5BA2E35286</title>
    <g id="UI-Kit" stroke="none" stroke-width="1" fill="none" fill-rule="evenodd">
        <g id="Icons" transform="translate(-340.000000, -574.000000)" fill="#4E4E4E">
            <g id="icon/gray/landing-page" transform="translate(340.000000, 574.000000)">
                <path d="M22.4337748,-1.27897692e-13 C23.8505904,-1.27897692e-13 25,1.13245375 25,2.52836879 L25,20.4716312 C25,21.8675462 23.8505904,23 22.4337748,23 L2.56622517,23 C1.14940958,23 -6.03961325e-13,21.8675462 -6.03961325e-13,20.4716312 L-6.03961325e-13,2.52836879 C-6.03961325e-13,1.13245375 1.14940958,-1.27897692e-13 2.56622517,-1.27897692e-13 L22.4337748,-1.27897692e-13 Z M23.178,6.687 L1.821,6.687 L1.82119205,20.4716312 C1.82119205,20.8765672 2.15522618,21.2056738 2.56622517,21.2056738 L22.4337748,21.2056738 C22.8447738,21.2056738 23.1788079,20.8765672 23.1788079,20.4716312 L23.178,6.687 Z M10.8454746,17.9432624 C11.3483829,17.9432624 11.7560706,18.344936 11.7560706,18.8404255 C11.7560706,19.335915 11.3483829,19.7375887 10.8454746,19.7375887 L10.8454746,19.7375887 L4.2218543,19.7375887 C3.71894601,19.7375887 3.31125828,19.335915 3.31125828,18.8404255 C3.31125828,18.344936 3.71894601,17.9432624 4.2218543,17.9432624 L4.2218543,17.9432624 Z M19.9503311,8.15602837 C20.9101931,8.15602837 21.6887417,8.92309205 21.6887417,9.86879433 L21.6887417,18.0248227 C21.6887417,18.970525 20.9101931,19.7375887 19.9503311,19.7375887 L14.9834437,19.7375887 C14.0235818,19.7375887 13.2450331,18.970525 13.2450331,18.0248227 L13.2450331,9.86879433 C13.2450331,8.92309205 14.0235818,8.15602837 14.9834437,8.15602837 L19.9503311,8.15602837 Z M19.867,14.843 L15.066,14.843 L15.0662252,17.9432624 L19.8675497,17.9432624 L19.867,14.843 Z M10.0165563,8.15602837 C10.9764182,8.15602837 11.7549669,8.92309205 11.7549669,9.86879433 L11.7549669,14.7624113 C11.7549669,15.7081136 10.9764182,16.4751773 10.0165563,16.4751773 L5.04966887,16.4751773 C4.08980693,16.4751773 3.31125828,15.7081136 3.31125828,14.7624113 L3.31125828,9.86879433 C3.31125828,8.92309205 4.08980693,8.15602837 5.04966887,8.15602837 L10.0165563,8.15602837 Z M9.93377483,9.95035461 L5.13245033,9.95035461 L5.13245033,14.6808511 L9.93377483,14.6808511 L9.93377483,9.95035461 Z M19.8675497,9.95035461 L15.0662252,9.95035461 L15.066,13.049 L19.867,13.049 L19.8675497,9.95035461 Z M22.4337748,1.79432624 L2.56622517,1.79432624 C2.15522618,1.79432624 1.82119205,2.12343277 1.82119205,2.52836879 L1.821,4.893 L23.178,4.893 L23.1788079,2.52836879 C23.1788079,2.12343277 22.8447738,1.79432624 22.4337748,1.79432624 Z" id="Combined-Shape"></path>
            </g>
        </g>
    </g>
</svg>