<?xml version="1.0" encoding="UTF-8"?>
<svg width="24px" height="24px" viewBox="0 0 24 24" version="1.1" xmlns="http://www.w3.org/2000/svg" xmlns:xlink="http://www.w3.org/1999/xlink">
    <title>F9287840-D9CA-4C21-9C93-FB57F90C41E5</title>
    <g id="UI-Kit" stroke="none" stroke-width="1" fill="none" fill-rule="evenodd">
        <g id="Icons" transform="translate(-464.000000, -573.000000)" fill="#4E4E4E">
            <g id="icon/gray/calendar" transform="translate(464.000000, 573.000000)">
                <path d="M17.25,0 C17.6642136,0 18,0.335786438 18,0.75 L18,0.75 L18,3 L21.75,3 C22.9922136,3 24,4.00778644 24,5.25 L24,21.75 C24,22.9922136 22.9922136,24 21.75,24 L2.25,24 C1.00778644,24 0,22.9922136 0,21.75 L0,5.25 C0,4.00778644 1.00778644,3 2.25,3 L6,3 L6,0.75 C6,0.370304234 6.28215388,0.0565090391 6.64822944,0.006846616 L6.75,0 C7.16421356,0 7.5,0.335786438 7.5,0.75 L7.5,0.75 L7.5,3 L16.5,3 L16.5,0.75 C16.5,0.370304234 16.7821539,0.0565090391 17.1482294,0.006846616 Z M22.5,10.5 L1.5,10.5 L1.5,21.75 C1.5,22.1637864 1.83621356,22.5 2.25,22.5 L21.75,22.5 C22.1637864,22.5 22.5,22.1637864 22.5,21.75 L22.5,10.5 Z M5.625,18 C6.24621356,18 6.75,18.5037864 6.75,19.125 C6.75,19.7462136 6.24621356,20.25 5.625,20.25 C5.00378644,20.25 4.5,19.7462136 4.5,19.125 C4.5,18.503935 5.00354556,18.0002409 5.62455442,18 L5.62455442,18 Z M12,18 C12.6212136,18 13.125,18.5037864 13.125,19.125 C13.125,19.7462136 12.6212136,20.25 12,20.25 C11.3787864,20.25 10.875,19.7462136 10.875,19.125 C10.875,18.503935 11.3785456,18.0002409 11.9995544,18 L11.9995544,18 Z M18.375,18 C18.9962136,18 19.5,18.5037864 19.5,19.125 C19.5,19.7462136 18.9962136,20.25 18.375,20.25 C17.7537864,20.25 17.25,19.7462136 17.25,19.125 C17.25,18.503935 17.7535456,18.0002409 18.3745544,18 L18.3745544,18 Z M5.625,12.75 C6.24621356,12.75 6.75,13.2537864 6.75,13.875 C6.75,14.4962136 6.24621356,15 5.625,15 C5.00378644,15 4.5,14.4962136 4.5,13.875 C4.5,13.253935 5.00354556,12.7502409 5.62455442,12.75 L5.62455442,12.75 Z M12,12.75 C12.6212136,12.75 13.125,13.2537864 13.125,13.875 C13.125,14.4962136 12.6212136,15 12,15 C11.3787864,15 10.875,14.4962136 10.875,13.875 C10.875,13.253935 11.3785456,12.7502409 11.9995544,12.75 L11.9995544,12.75 Z M18.375,12.75 C18.9962136,12.75 19.5,13.2537864 19.5,13.875 C19.5,14.4962136 18.9962136,15 18.375,15 C17.7537864,15 17.25,14.4962136 17.25,13.875 C17.25,13.253935 17.7535456,12.7502409 18.3745544,12.75 L18.3745544,12.75 Z M6,4.5 L2.25,4.5 C1.83621356,4.5 1.5,4.83621356 1.5,5.25 L1.5,9 L22.5,9 L22.5,5.25 C22.5,4.83621356 22.1637864,4.5 21.75,4.5 L18,4.5 L18,6 C18,6.37969577 17.7178461,6.69349096 17.3517706,6.74315338 L17.25,6.75 C16.8357864,6.75 16.5,6.41421356 16.5,6 L16.5,6 L16.5,4.5 L7.5,4.5 L7.5,6 C7.5,6.37969577 7.21784612,6.69349096 6.85177056,6.74315338 L6.75,6.75 C6.33578644,6.75 6,6.41421356 6,6 L6,6 L6,4.5 Z" id="Combined-Shape"></path>
            </g>
        </g>
    </g>
</svg>