<?xml version="1.0" encoding="UTF-8"?>
<svg width="24px" height="24px" viewBox="0 0 24 24" version="1.1" xmlns="http://www.w3.org/2000/svg" xmlns:xlink="http://www.w3.org/1999/xlink">
    <!-- Generator: sketchtool 56.3 (101010) - https://sketch.com -->
    <title>EF17D529-8E48-46B2-9D7D-D94D06EF220D</title>
    <desc>Created with sketchtool.</desc>
    <g id="UI-Kit-v1.5" stroke="none" stroke-width="1" fill="none" fill-rule="evenodd" stroke-linecap="round" stroke-linejoin="round">
        <g id="Icons" transform="translate(-162.000000, -901.000000)" stroke="#000000" stroke-width="1.5">
            <g id="icon-emoji" transform="translate(163.000000, 902.000000)">
                <circle id="Oval" cx="11.3055556" cy="11.3055556" r="10.5989583"></circle>
                <path d="M7.77256944,8.12586806 C7.96769088,8.12586806 8.12586806,8.28404523 8.12586806,8.47916667 C8.12586806,8.6742881 7.96769088,8.83246528 7.77256944,8.83246528 C7.57744801,8.83246528 7.41927083,8.6742881 7.41927083,8.47916667 C7.41927083,8.28404523 7.57744801,8.12586806 7.77256944,8.12586806" id="Shape"></path>
                <path d="M14.8385417,8.12586806 C15.0336631,8.12586806 15.1918403,8.28404523 15.1918403,8.47916667 C15.1918403,8.6742881 15.0336631,8.83246528 14.8385417,8.83246528 C14.6434202,8.83246528 14.4852431,8.6742881 14.4852431,8.47916667 C14.4852431,8.28404523 14.6434202,8.12586806 14.8385417,8.12586806" id="Shape"></path>
                <path d="M17.0035556,14.1319444 C15.9301092,16.2982925 13.7213873,17.6688562 11.3036713,17.6688562 C8.88595524,17.6688562 6.67723335,16.2982925 5.60378704,14.1319444" id="Shape"></path>
            </g>
        </g>
    </g>
</svg>