<?xml version="1.0" encoding="UTF-8"?>
<svg width="27px" height="27px" viewBox="0 0 27 27" version="1.1" xmlns="http://www.w3.org/2000/svg" xmlns:xlink="http://www.w3.org/1999/xlink">
    <title>439FFDEE-D758-4333-840B-706A17691248</title>
    <g id="UI-Kit" stroke="none" stroke-width="1" fill="none" fill-rule="evenodd">
        <g id="footer" transform="translate(-1249.000000, -762.000000)" fill="#4E4E4E">
            <g id="icon/social/twitter" transform="translate(1249.000000, 762.000000)">
                <path d="M18.140625,3.375 L8.859375,3.375 C5.832,3.3800625 3.3800625,5.832 3.375,8.859375 L3.375,18.140625 C3.3800625,21.168 5.832,23.6199375 8.859375,23.625 L18.140625,23.625 C21.168,23.6199375 23.6199375,21.168 23.625,18.140625 L23.625,8.859375 C23.6199375,5.832 21.168,3.3800625 18.140625,3.375 Z M13.5,18.140625 C10.9366875,18.140625 8.859375,16.0633125 8.859375,13.5 C8.859375,10.9366875 10.9366875,8.859375 13.5,8.859375 C16.0633125,8.859375 18.140625,10.9366875 18.140625,13.5 C18.140625,16.0633125 16.0633125,18.140625 13.5,18.140625 Z M18.984375,8.859375 C18.28575,8.859375 17.71875,8.292375 17.71875,7.59375 C17.71875,6.895125 18.28575,6.328125 18.984375,6.328125 C19.683,6.328125 20.25,6.895125 20.25,7.59375 C20.25,8.292375 19.683,8.859375 18.984375,8.859375 Z" id="Shape"></path>
            </g>
        </g>
    </g>
</svg>