<?xml version="1.0" encoding="UTF-8"?>
<svg width="27px" height="27px" viewBox="0 0 27 27" version="1.1" xmlns="http://www.w3.org/2000/svg" xmlns:xlink="http://www.w3.org/1999/xlink">
    <title>2D488847-1837-4AE4-9CDC-65A74631CD93</title>
    <g id="UI-Kit" stroke="none" stroke-width="1" fill="none" fill-rule="evenodd">
        <g id="footer" transform="translate(-1111.000000, -762.000000)" fill="#4E4E4E">
            <g id="icon/social/facebook" transform="translate(1111.000000, 762.000000)">
                <path d="M19.8703125,15.66 C19.8441563,15.872625 19.66275,16.0329375 19.4484375,16.03125 L17.71875,16.03125 C17.485875,16.03125 17.296875,16.22025 17.296875,16.453125 L17.296875,23.203125 C17.296875,23.436 17.485875,23.625 17.71875,23.625 L22.78125,23.625 C23.247,23.625 23.625,23.247 23.625,22.78125 L23.625,4.21875 C23.625,3.753 23.247,3.375 22.78125,3.375 L4.21875,3.375 C3.753,3.375 3.375,3.753 3.375,4.21875 L3.375,22.78125 C3.375,23.247 3.753,23.625 4.21875,23.625 L13.5,23.625 C13.732875,23.625 13.921875,23.436 13.921875,23.203125 L13.921875,16.453125 C13.921875,16.22025 13.732875,16.03125 13.5,16.03125 L11.8125,16.03125 C11.579625,16.03125 11.390625,15.84225 11.390625,15.609375 L11.390625,13.078125 C11.390625,12.84525 11.579625,12.65625 11.8125,12.65625 L13.5,12.65625 C13.732875,12.65625 13.921875,12.46725 13.921875,12.234375 L13.921875,11.1290625 C13.921875,8.478 16.07175,6.328125 18.7228125,6.328125 L19.828125,6.328125 C20.061,6.328125 20.25,6.517125 20.25,6.75 L20.25,9.28125 C20.25,9.514125 20.061,9.703125 19.828125,9.703125 L18.7228125,9.703125 C17.9355938,9.703125 17.296875,10.3418437 17.296875,11.1290625 L17.296875,11.1290625 L17.296875,12.234375 C17.296875,12.46725 17.485875,12.65625 17.71875,12.65625 L19.7690625,12.65625 C20.0019375,12.6545625 20.192625,12.841875 20.1943125,13.07475 C20.1943125,13.0924688 20.1934687,13.1110312 20.1909375,13.12875 L19.8703125,15.66 Z" id="Path"></path>
            </g>
        </g>
    </g>
</svg>