<?xml version="1.0" encoding="UTF-8"?>
<svg width="20px" height="18px" viewBox="0 0 20 18" version="1.1" xmlns="http://www.w3.org/2000/svg" xmlns:xlink="http://www.w3.org/1999/xlink">
    <!-- Generator: sketchtool 56.3 (101010) - https://sketch.com -->
    <title>5B95C778-7BB3-43B9-8A99-041EAFAFC992</title>
    <desc>Created with sketchtool.</desc>
    <g id="UI-Kit-v1.5" stroke="none" stroke-width="1" fill="none" fill-rule="evenodd" stroke-linecap="round" stroke-linejoin="round">
        <g id="Icons" transform="translate(-432.000000, -904.000000)" stroke="#000000" stroke-width="1.5">
            <g id="icon-mute" transform="translate(433.000000, 905.000000)">
                <path d="M7.816,12.735 L11.1,14.825 C11.763,15.322 12.703,15.188 13.2,14.525 C13.395,14.265 13.5,13.95 13.5,13.625 L13.5,8.375" id="Path"></path>
                <path d="M13.5,1.625 C13.5,0.797 12.828,0.125 12,0.125 C11.675,0.125 11.36,0.23 11.1,0.425 L4.5,4.625 L1.5,4.625 C0.672,4.625 0,5.297 0,6.125 L0,9.125 C0,9.953 0.672,10.625 1.5,10.625 L2.125,10.625" id="Path"></path>
                <path d="M0,15.875 L18,0.875" id="Path"></path>
            </g>
        </g>
    </g>
</svg>