<?xml version="1.0" encoding="UTF-8"?>
<svg width="25px" height="15px" viewBox="0 0 25 15" version="1.1" xmlns="http://www.w3.org/2000/svg" xmlns:xlink="http://www.w3.org/1999/xlink">
    <!-- Generator: sketchtool 56.3 (101010) - https://sketch.com -->
    <title>2CD31B67-D0D9-4731-AFE5-AEA8E7924FB4</title>
    <desc>Created with sketchtool.</desc>
    <g id="UI-Kit-v1.5" stroke="none" stroke-width="1" fill="none" fill-rule="evenodd" stroke-linecap="round" stroke-linejoin="round">
        <g id="Icons" transform="translate(-564.000000, -749.000000)" stroke="#263238" stroke-width="1.5">
            <g id="icon-password-unhide" transform="translate(564.000000, 749.000000)">
                <path d="M12.2166545,0.7512 C8.11236364,0.6832 3.86756364,3.5002 1.19890909,6.3852 C0.618545455,7.0182 0.618545455,7.9782 1.19890909,8.6112 C3.80952727,11.4352 8.04210909,14.3172 12.2166545,14.2482 C16.3912,14.3172 20.6248,11.4352 23.2374545,8.6112 C23.8178182,7.9782 23.8178182,7.0182 23.2374545,6.3852 C20.5657455,3.5002 16.3209455,0.6832 12.2166545,0.7512 Z" id="Stroke-1"></path>
                <path d="M16.0348364,7.5002 C16.0338182,9.5712 14.3242909,11.2502 12.2156364,11.2491996 C10.1069818,11.2482 8.39745455,9.5692 8.39847227,7.4982 C8.39949091,5.4272 10.108,3.74919955 12.2166545,3.74919955 C14.3253091,3.7482 16.0338182,5.4262 16.0348364,7.4972 L16.0348364,7.5002 Z" id="Stroke-3"></path>
            </g>
        </g>
    </g>
</svg>