<?xml version="1.0" encoding="UTF-8"?>
<svg width="22px" height="21px" viewBox="0 0 22 21" version="1.1" xmlns="http://www.w3.org/2000/svg" xmlns:xlink="http://www.w3.org/1999/xlink">
    <title>4D12077E-7F13-42F5-BD39-220FBCF4DFFF</title>
    <g id="UI-Kit" stroke="none" stroke-width="1" fill="none" fill-rule="evenodd">
        <g id="Icons" transform="translate(-837.000000, -356.000000)" fill="#4E4E4E">
            <g id="icon/gray/public" transform="translate(837.000000, 356.000000)">
                <path d="M11.0140779,0.250008692 C16.9379917,0.257324133 21.75,4.88137787 21.75,10.6 C21.75,16.3231515 16.9303661,20.95 11,20.95 C5.06963388,20.95 0.25,16.3231515 0.25,10.6 C0.25,4.87684853 5.06963388,0.25 11,0.25 L10.9857686,0.250122952 L10.9857686,0.250122952 Z M19.2793377,14.5501423 L15.415069,14.5494962 C14.9230823,16.2546543 14.08286,17.8558106 12.9371408,19.2553389 C15.7214672,18.6888094 18.0407424,16.9217849 19.2793377,14.5501423 Z M6.58142205,14.5496926 L2.72066232,14.5501423 C3.9591091,16.9215005 6.27797666,18.6883856 9.0636345,19.2558757 C7.91419946,17.8530091 7.0728557,16.2502157 6.58142205,14.5496926 Z M13.8419393,14.5496875 L8.15484299,14.5499255 C8.71983425,16.2621918 9.68710233,17.8443498 11.0006842,19.1661873 C12.3108613,17.8459934 13.2766299,16.2666916 13.8419393,14.5496875 Z M6.2472372,8.14908009 L2.10943511,8.14947325 C1.87536219,8.92791861 1.75,9.75014212 1.75,10.6 C1.75,11.4494962 1.87525552,12.2713816 2.10913636,13.049533 L6.24349694,13.0498744 C6.11334222,12.2516823 6.05870394,11.4393417 6.08367549,10.6226521 C6.05846605,9.78835893 6.11439045,8.96062823 6.2472372,8.14908009 Z M14.2301237,8.14930227 L7.77356356,8.14921602 C7.62324038,8.95644638 7.5580036,9.78469337 7.58299118,10.6226521 C7.55821922,11.442467 7.62212118,12.2553657 7.76969096,13.0497002 L14.2266227,13.0497833 C14.3768135,12.2428691 14.4419861,11.4149604 14.4170088,10.5773479 C14.4417911,9.75718985 14.3778253,8.94395377 14.2301237,8.14930227 Z M19.8905649,8.14947325 L15.7563401,8.14912662 C15.8866122,8.94763992 15.9413065,9.76031754 15.9163245,10.5773479 C15.9415236,11.4112991 15.8856554,12.2386933 15.7529261,13.0499221 L19.8908636,13.049533 C20.1247445,12.2713816 20.25,11.4494962 20.25,10.6 C20.25,9.75014212 20.1246378,8.92791861 19.8905649,8.14947325 Z M9.0628592,1.94466115 L8.87695184,1.98410238 C6.17491404,2.5910709 3.93198443,4.3311729 2.7211852,6.64885667 L6.58521836,6.64950803 C7.07724487,4.94472232 7.917363,3.34391694 9.0628592,1.94466115 Z M10.9993158,2.03381267 C9.68842585,3.35533157 8.72346052,4.93355695 8.15838838,6.64931725 L13.8448271,6.64907492 C13.2797893,4.93719242 12.312642,3.35539293 10.9993158,2.03381267 Z M12.9363655,1.94412428 L13.0473275,2.08073042 C14.1392968,3.44983647 14.9426137,5.00380824 15.4182899,6.64931091 L19.2788148,6.64885667 C18.0402383,4.27800225 15.7216313,2.51153452 12.9363655,1.94412428 Z" id="Combined-Shape"></path>
            </g>
        </g>
    </g>
</svg>