<?xml version="1.0" encoding="UTF-8"?>
<svg width="26px" height="21px" viewBox="0 0 26 21" version="1.1" xmlns="http://www.w3.org/2000/svg" xmlns:xlink="http://www.w3.org/1999/xlink">
    <!-- Generator: sketchtool 56.3 (101010) - https://sketch.com -->
    <title>8C177A18-7A8F-44C3-913D-9ED2DCBE2C65</title>
    <desc>Created with sketchtool.</desc>
    <g id="UI-Kit-v1.5" stroke="none" stroke-width="1" fill="none" fill-rule="evenodd" stroke-linecap="round" stroke-linejoin="round">
        <g id="Icons" transform="translate(-703.000000, -669.000000)" stroke="#263238" stroke-width="1.5">
            <g id="icon-camera" transform="translate(704.000000, 670.000000)">
                <path d="M17.3233878,2.73809524 L15.9908195,3.55271368e-14 L7.99540976,3.55271368e-14 L6.66284147,2.73809524 L2.66513659,2.73809524 C1.19398119,2.73809524 -9.29034627e-13,3.9647619 -9.29034627e-13,5.47619048 L-9.29034627e-13,16.4285714 C-9.29034627e-13,17.94 1.19398119,19.1666667 2.66513659,19.1666667 L21.3210927,19.1666667 C22.7922481,19.1666667 23.9862293,17.94 23.9862293,16.4285714 L23.9862293,5.47619048 C23.9862293,3.9647619 22.7922481,2.73809524 21.3210927,2.73809524 L17.3233878,2.73809524 Z" id="Stroke-1"></path>
                <path d="M11.9931146,4.55357143 C15.0663184,4.55357143 17.5551388,7.11052381 17.5551388,10.2678571 C17.5551388,13.4251905 15.0663184,15.9821429 11.9931146,15.9821429 C8.91991088,15.9821429 6.43109046,13.4251905 6.43109046,10.2678571 C6.43109046,7.11052381 8.91991088,4.55357143 11.9931146,4.55357143 Z" id="Stroke-3"></path>
            </g>
        </g>
    </g>
</svg>