<?xml version="1.0" encoding="UTF-8"?>
<svg width="17px" height="21px" viewBox="0 0 17 21" version="1.1" xmlns="http://www.w3.org/2000/svg" xmlns:xlink="http://www.w3.org/1999/xlink">
    <!-- Generator: sketchtool 56.3 (101010) - https://sketch.com -->
    <title>B2454F02-573D-4482-A30C-88D83069B574</title>
    <desc>Created with sketchtool.</desc>
    <g id="UI-Kit-v1.5" stroke="none" stroke-width="1" fill="none" fill-rule="evenodd" stroke-linecap="round" stroke-linejoin="round">
        <g id="Icons" transform="translate(-233.000000, -823.000000)" stroke="#000000" stroke-width="1.5">
            <g id="icon-privacy-only-me" transform="translate(234.000000, 824.000000)">
                <path d="M1.35416667,7.5 L13.5416667,7.5 C14.2891667,7.5 14.8958333,8.06 14.8958333,8.75 L14.8958333,17.5 C14.8958333,18.19 14.2891667,18.75 13.5416667,18.75 L1.35416667,18.75 C0.606666667,18.75 1.0125234e-13,18.19 1.0125234e-13,17.5 L1.0125234e-13,8.75 C1.0125234e-13,8.06 0.606666667,7.5 1.35416667,7.5 Z" id="Stroke-1"></path>
                <path d="M2.70833333,7.5 L2.70833333,4.375 C2.70833333,1.95916667 4.83076389,0 7.44791667,0 C10.0650694,0 12.1875,1.95916667 12.1875,4.375 L12.1875,7.5" id="Stroke-3"></path>
                <path d="M7.44791667,11.25 C8.57006944,11.25 9.47916667,12.0891667 9.47916667,13.125 C9.47916667,14.1608333 8.57006944,15 7.44791667,15 C6.32576389,15 5.41666667,14.1608333 5.41666667,13.125 C5.41666667,12.0891667 6.32576389,11.25 7.44791667,11.25 Z" id="Stroke-5"></path>
            </g>
        </g>
    </g>
</svg>