<?xml version="1.0" encoding="UTF-8"?>
<svg width="24px" height="24px" viewBox="0 0 24 24" version="1.1" xmlns="http://www.w3.org/2000/svg" xmlns:xlink="http://www.w3.org/1999/xlink">
    <!-- Generator: sketchtool 56.3 (101010) - https://sketch.com -->
    <title>027E91AF-6084-497A-BF47-DD58F8566D1D</title>
    <desc>Created with sketchtool.</desc>
    <g id="UI-Kit-v1.5" stroke="none" stroke-width="1" fill="none" fill-rule="evenodd" stroke-linecap="round" stroke-linejoin="round">
        <g id="Icons" transform="translate(-773.000000, -744.000000)" stroke="#263238" stroke-width="1.5">
            <g id="icon-support" transform="translate(774.000000, 745.000000)">
                <path d="M4.125,16.5 L3.4375,16.5 C1.91871694,16.5 0.6875,15.2687831 0.6875,13.75 L0.6875,11 C0.6875,9.48121694 1.91871694,8.25 3.4375,8.25 L4.125,8.25 C4.50469577,8.25 4.8125,8.55780423 4.8125,8.9375 L4.8125,15.8125 C4.8125,16.1921958 4.50469577,16.5 4.125,16.5 Z" id="Shape"></path>
                <path d="M18.5625,16.5 L17.875,16.5 C17.4953042,16.5 17.1875,16.1921958 17.1875,15.8125 L17.1875,8.9375 C17.1875,8.55780423 17.4953042,8.25 17.875,8.25 L18.5625,8.25 C20.0812831,8.25 21.3125,9.48121694 21.3125,11 L21.3125,13.75 C21.3125,15.2687831 20.0812831,16.5 18.5625,16.5 Z" id="Shape"></path>
                <path d="M3.4375,8.25 C3.4375,4.07334658 6.82334658,0.6875 11,0.6875 L11,0.6875 C13.0056997,0.6875 14.9292512,1.48426111 16.347495,2.90250497 C17.7657389,4.32074883 18.5625,6.2443003 18.5625,8.25" id="Shape"></path>
                <path d="M13.75,19.9375 L15.8125,19.9375 C17.3312831,19.9375 18.5625,18.7062831 18.5625,17.1875 L18.5625,17.1875 L18.5625,16.5" id="Shape"></path>
                <path d="M12.375,21.3125 L11,21.3125 C10.2406085,21.3125 9.625,20.6968915 9.625,19.9375 L9.625,19.9375 C9.625,19.1781085 10.2406085,18.5625 11,18.5625 L12.375,18.5625 C13.1343915,18.5625 13.75,19.1781085 13.75,19.9375 L13.75,19.9375 C13.75,20.6968915 13.1343915,21.3125 12.375,21.3125 Z" id="Shape"></path>
                <path d="M8.25,7.5625 C8.25026705,6.16406009 9.29999928,4.98850928 10.6894964,4.83061092 C12.0789936,4.67271255 13.3657264,5.58275434 13.6797639,6.9454776 C13.9938014,8.30820087 13.2351285,9.68960333 11.9166667,10.15575 C11.3670408,10.350072 10.9996944,10.8698672 11,11.4528333 L11,11.6875" id="Shape"></path>
                <path d="M11,14.4375 C10.8101521,14.4375 10.65625,14.5914021 10.65625,14.78125 C10.65625,14.9710979 10.8101521,15.125 11,15.125 C11.1898479,15.125 11.34375,14.9710979 11.34375,14.78125 C11.34375,14.5914021 11.1898479,14.4375 11,14.4375 L11,14.4375" id="Shape"></path>
            </g>
        </g>
    </g>
</svg>