<?xml version="1.0" encoding="UTF-8"?>
<svg width="22px" height="22px" viewBox="0 0 22 22" version="1.1" xmlns="http://www.w3.org/2000/svg" xmlns:xlink="http://www.w3.org/1999/xlink">
    <!-- Generator: sketchtool 56.3 (101010) - https://sketch.com -->
    <title>A38B9AE5-7C9A-4949-9D2C-EA3F25C9B6FF</title>
    <desc>Created with sketchtool.</desc>
    <g id="UI-Kit-v1.5" stroke="none" stroke-width="1" fill="none" fill-rule="evenodd" stroke-linecap="round" stroke-linejoin="round">
        <g id="Icons" transform="translate(-499.000000, -588.000000)" stroke-width="1.5">
            <g id="icon-message" transform="translate(500.000000, 589.000000)">
                <path d="M10.625,0.624981914 C5.79916667,0.618333333 1.88166667,4.52416667 1.875,9.35 C1.8725,10.9858333 2.33,12.59 3.19416667,13.9791667 L0.625,19.375 L6.02,16.805 C10.1233333,19.3575 15.5191667,18.1 18.0716667,13.9966667 C20.6241667,9.89333333 19.3666667,4.4975 15.2633333,1.945 C13.8708333,1.07916667 12.2641667,0.621666667 10.625,0.624981914 Z" id="Stroke-1" stroke="#263238"></path>
                <path d="M6.875,9.0625 L6.875,9.0625" id="Stroke-3" stroke="#000000"></path>
                <path d="M6.875,9.0625 C6.7025,9.0625 6.5625,9.2025 6.5625,9.375 C6.5625,9.5475 6.7025,9.6875 6.875,9.6875 C7.0475,9.6875 7.1875,9.5475 7.1875,9.375 C7.1875,9.2025 7.0475,9.0625 6.875,9.0625" id="Stroke-5" stroke="#263238"></path>
                <path d="M10.625,9.0625 L10.625,9.0625" id="Stroke-7" stroke="#000000"></path>
                <path d="M10.625,9.0625 C10.4525,9.0625 10.3125,9.2025 10.3125,9.375 C10.3125,9.5475 10.4525,9.6875 10.625,9.6875 C10.7975,9.6875 10.9375,9.5475 10.9375,9.375 C10.9375,9.2025 10.7975,9.0625 10.625,9.0625" id="Stroke-9" stroke="#000000"></path>
                <path d="M14.375,9.0625 L14.375,9.0625" id="Stroke-11" stroke="#000000"></path>
                <path d="M14.375,9.0625 C14.2025,9.0625 14.0625,9.2025 14.0625,9.375 C14.0625,9.5475 14.2025,9.6875 14.375,9.6875 C14.5475,9.6875 14.6875,9.5475 14.6875,9.375 C14.6875,9.2025 14.5475,9.0625 14.375,9.0625" id="Stroke-13" stroke="#263238"></path>
            </g>
        </g>
    </g>
</svg>