<?xml version="1.0" encoding="UTF-8"?>
<svg width="25px" height="24px" viewBox="0 0 25 24" version="1.1" xmlns="http://www.w3.org/2000/svg" xmlns:xlink="http://www.w3.org/1999/xlink">
    <title>B2565609-F146-4231-A28C-F843ACAC289B</title>
    <g id="UI-Kit" stroke="none" stroke-width="1" fill="none" fill-rule="evenodd">
        <g id="navigation" transform="translate(-924.000000, -1685.000000)" fill="#4E4E4E">
            <g id="Notifications-tool-tip-v1" transform="translate(900.000000, 1411.000000)">
                <path d="M43.701186,274.682476 C44.627397,273.770686 46.1269627,273.772778 47.0505597,274.687149 C47.9741567,275.601519 47.9720377,277.081914 47.04556,277.993966 L47.04556,277.993966 L46.4900638,278.540075 L48.3355221,280.363677 C49.2181244,281.26582 49.219941,282.691243 48.3501657,283.595477 L48.3501657,283.595477 L48.3066872,283.639523 C47.3936105,284.540927 45.9172263,284.553592 44.9786398,283.6585 L44.9786398,283.6585 L43.141113,281.844432 L42.0254574,282.946181 L43.8628624,284.758491 L43.8916163,284.788393 L43.9071539,284.806489 C44.4725485,285.394949 44.689437,286.232569 44.4762043,287.018932 C44.257504,287.825459 43.6195679,288.455536 42.8027004,288.671821 C41.9858329,288.888105 41.1141356,288.657738 40.5149797,288.066519 L40.5149797,288.066519 L38.6811957,286.250538 L36.1218247,288.774341 L36.142815,288.823224 C37.2269783,291.402606 36.4376209,294.416378 34.1588445,296.145771 L34.1588445,296.145771 L34.0840091,296.201707 C31.5719332,298.050912 28.0659316,297.8005 25.8496453,295.613578 C23.633359,293.426656 23.3780521,289.965594 25.2500193,287.484761 C26.9909488,285.177587 30.0813788,284.36809 32.7230794,285.448797 L32.7230794,285.448797 L32.7730543,285.469628 Z M45.9454237,275.791781 C45.6368103,275.486809 45.135741,275.486111 44.8270183,275.789471 L44.8270183,275.789471 L33.489318,286.960769 C33.2423031,287.204159 32.862416,287.258827 32.5550838,287.095212 C30.4846529,285.992971 27.9070694,286.554594 26.5012475,288.414266 C25.0954256,290.273938 25.2871576,292.868407 26.9515585,294.507759 C28.6159594,296.147111 31.2489189,296.334823 33.1354537,294.948629 C35.0219885,293.562435 35.5907089,291.022182 34.4711777,288.982469 C34.3048405,288.679414 34.3604113,288.304665 34.6077937,288.061183 L34.6077937,288.061183 L38.126463,284.597987 C38.4354139,284.293907 38.9360945,284.294434 39.2443854,284.599164 L39.2443854,284.599164 L41.6379868,286.965119 C41.8376717,287.161799 42.1286687,287.238562 42.4013619,287.166492 C42.6740552,287.094422 42.8870161,286.884468 42.9600243,286.615718 C43.0330326,286.346968 42.9549966,286.060252 42.7553116,285.863572 L42.7553116,285.863572 L42.7407031,285.848798 L42.7265318,285.833686 L42.7168795,285.822524 L40.3566201,283.498828 C40.0578383,283.204663 40.048042,282.733405 40.3273485,282.427628 L40.3273485,282.427628 L40.3562429,282.397615 L42.5907032,280.194706 C42.8992431,279.890523 43.3996212,279.890465 43.7082338,280.194577 L43.7082338,280.194577 L46.0972456,282.54891 C46.4072722,282.843977 46.9000749,282.839757 47.204851,282.539426 C47.5096272,282.239095 47.5139095,281.75348 47.2238553,281.457384 L47.2238553,281.457384 L44.8261034,279.092528 C44.5173612,278.788022 44.5179447,278.294426 44.8274059,277.990629 L44.8274059,277.990629 L45.9438422,276.894628 C46.2533291,276.590515 46.2540371,276.096754 45.9454237,275.791781 Z M28.9407952,288.786915 C29.7761086,288.331265 30.7903966,288.342114 31.6171875,288.819462 C32.4632061,289.307911 32.984375,290.210602 32.984375,291.1875 C32.984375,292.164398 32.4632061,293.067089 31.6171875,293.555538 C30.7711689,294.043987 29.7288311,294.043987 28.8828125,293.555538 C28.0367939,293.067089 27.515625,292.164398 27.515625,291.1875 C27.515625,290.210602 28.0367939,289.307911 28.8828125,288.819462 L28.8828125,288.819462 Z M30.8359375,290.172626 C30.4733581,289.963291 30.0266419,289.963291 29.6640625,290.172626 C29.3014831,290.381962 29.078125,290.768829 29.078125,291.1875 C29.078125,291.606171 29.3014831,291.993038 29.6640625,292.202374 C30.0266419,292.411709 30.4733581,292.411709 30.8359375,292.202374 C31.1985169,291.993038 31.421875,291.606171 31.421875,291.1875 C31.421875,290.768829 31.1985169,290.381962 30.8359375,290.172626 Z" id="icon/gray/key"></path>
            </g>
        </g>
    </g>
</svg>