<?xml version="1.0" encoding="UTF-8"?>
<svg width="24px" height="24px" viewBox="0 0 24 24" version="1.1" xmlns="http://www.w3.org/2000/svg" xmlns:xlink="http://www.w3.org/1999/xlink">
    <!-- Generator: Sketch 56.3 (81716) - https://sketch.com -->
    <title>icon-refine-search</title>
    <desc>Created with Sketch.</desc>
    <g id="Page-1" stroke="none" stroke-width="1" fill="none" fill-rule="evenodd" stroke-linecap="round" stroke-linejoin="round">
        <g id="Icons" transform="translate(-499.000000, -822.000000)" stroke="#263238" stroke-width="1.5">
            <path d="M512,825.25 L500,825.25 L512,825.25 Z M509.75,834.25 L521.75,834.25 L509.75,834.25 Z M514.25,827.5 C513.007,827.5 512,826.493 512,825.25 C512,824.007 513.007,823 514.25,823 C515.493,823 516.5,824.007 516.5,825.25 C516.5,826.493 515.493,827.5 514.25,827.5 Z M507.5,832 C508.743,832 509.75,833.007 509.75,834.25 C509.75,835.493 508.743,836.5 507.5,836.5 C506.257,836.5 505.25,835.493 505.25,834.25 C505.25,833.007 506.257,832 507.5,832 Z M512,842.6655 L500,842.6655 L512,842.6655 Z M514.25,844.9155 C513.007,844.9155 512,843.9085 512,842.6655 C512,841.4225 513.007,840.4155 514.25,840.4155 C515.493,840.4155 516.5,841.4225 516.5,842.6655 C516.5,843.9085 515.493,844.9155 514.25,844.9155 Z M521.75,825.25 L516.5,825.25 L521.75,825.25 Z M500,834.25 L505.25,834.25 L500,834.25 Z M521.75,842.6655 L516.5,842.6655 L521.75,842.6655 Z" id="icon-refine-search"></path>
        </g>
    </g>
</svg>