<?xml version="1.0" encoding="UTF-8"?>
<svg width="45px" height="45px" viewBox="0 0 45 45" version="1.1" xmlns="http://www.w3.org/2000/svg" xmlns:xlink="http://www.w3.org/1999/xlink">
    <title>642B2C80-8C82-4710-869E-DA50CA9202E0@3x</title>
    <g id="Claim-Charity" stroke="none" stroke-width="1" fill="none" fill-rule="evenodd">
        <g id="claim_charity-(1)" transform="translate(-193.000000, -512.000000)">
            <g id="block-01" transform="translate(193.000000, 181.000000)">
                <g id="content01" transform="translate(0.000000, 181.000000)">
                    <g id="charitableimpactforcharities/section-3/icon-2" transform="translate(0.000000, 150.000000)">
                        <rect id="Rectangle" fill="#F7BA4A" x="0" y="0" width="44.8" height="44.8"></rect>
                        <g id="icon/give" transform="translate(13.000000, 14.000000)" stroke="#DB0163" stroke-linecap="round" stroke-linejoin="round" stroke-width="1.584">
                            <g id="icon-give">
                                <path d="M8.2549944,13.1686632 L2.0085624,12.7132632 C1.3006224,12.6594072 0.6812784,13.1654952 0.6249744,13.8426552 C0.6067584,14.0675832 0.6522984,14.2925112 0.7591104,14.4936792 C0.9040104,14.7716712 1.1540664,14.9870952 1.4579424,15.0955992 L10.0972944,18.1946952 C10.6296984,18.3855672 11.2142664,18.3958632 11.7532944,18.2239992 L18.3714984,16.1141112" id="Stroke-1"></path>
                                <path d="M14.025906,13.734072 L9.232614,13.734072 C8.757342,13.734072 8.335062,13.443408 8.185194,13.011768 C7.991442,12.459744 8.303598,11.860992 8.881542,11.675664 C8.902242,11.67012 8.921286,11.663784 8.941986,11.65824 L13.85865,10.3752 C14.377806,10.238976 14.920974,10.212048 15.45255,10.296 L18.372906,10.761696" id="Stroke-3"></path>
                                <path d="M4.8378384,10.7555184 L1.9323864,7.9035264 C0.5703264,6.6006864 0.2325024,4.6095984 1.0936224,2.9614464 C2.1981744,0.8468064 4.8866904,-0.0101376 7.0974504,1.0463904 C7.5280104,1.2523104 7.9213104,1.5231744 8.2616184,1.8494784 L9.4969944,3.0303504 L10.7323704,1.8494784 C12.4794504,0.1775664 15.3128664,0.1767744 17.0616024,1.8478944 C17.4019104,2.1734064 17.6850864,2.5496064 17.9003664,2.9614464 C18.7614864,4.6095984 18.4244904,6.5998944 17.0624304,7.9035264 L17.1005184,7.9391664" id="Stroke-5"></path>
                            </g>
                        </g>
                    </g>
                </g>
            </g>
        </g>
    </g>
</svg>