<?xml version="1.0" encoding="UTF-8"?>
<svg width="27px" height="27px" viewBox="0 0 27 27" version="1.1" xmlns="http://www.w3.org/2000/svg" xmlns:xlink="http://www.w3.org/1999/xlink">
    <title>5153D1AA-124E-4708-9973-DBC32B5EA60F</title>
    <g id="UI-Kit" stroke="none" stroke-width="1" fill="none" fill-rule="evenodd">
        <g id="footer" transform="translate(-1157.000000, -762.000000)" fill="#4E4E4E">
            <g id="icon/social/linkedin" transform="translate(1157.000000, 762.000000)">
                <path d="M21.6,3.375 L5.4,3.375 C4.28625,3.375 3.375,4.28625 3.375,5.4 L3.375,21.6 C3.375,22.71375 4.28625,23.625 5.4,23.625 L21.6,23.625 C22.71375,23.625 23.625,22.71375 23.625,21.6 L23.625,5.4 C23.625,4.28625 22.71375,3.375 21.6,3.375 Z M9.45,20.5875 L6.4125,20.5875 L6.4125,11.475 L9.45,11.475 L9.45,20.5875 Z M7.93125,9.75375 C6.91875,9.75375 6.10875,8.94375 6.10875,7.93125 C6.10875,6.91875 6.91875,6.10875 7.93125,6.10875 C8.94375,6.10875 9.75375,6.91875 9.75375,7.93125 C9.75375,8.94375 8.94375,9.75375 7.93125,9.75375 Z M20.5875,20.5875 L17.55,20.5875 L17.55,15.22125 C17.55,14.4112897 16.84125,13.7025 16.03125,13.7025 C15.22125,13.7025 14.5125,14.4112897 14.5125,15.22125 L14.5125,20.5875 L11.475,20.5875 L11.475,11.475 L14.5125,11.475 L14.5125,12.69 C15.01875,11.88 16.1325,11.2725 17.04375,11.2725 C18.9675,11.2725 20.5875,12.8925 20.5875,14.81625 L20.5875,20.5875 Z" id="Shape"></path>
            </g>
        </g>
    </g>
</svg>