<?xml version="1.0" encoding="UTF-8"?>
<svg width="24px" height="21px" viewBox="0 0 24 21" version="1.1" xmlns="http://www.w3.org/2000/svg" xmlns:xlink="http://www.w3.org/1999/xlink">
    <!-- Generator: sketchtool 64 (101010) - https://sketch.com -->
    <title>7A47AE40-2A7D-402A-8A40-9861CFC1D57A</title>
    <desc>Created with sketchtool.</desc>
    <g id="UI-Kit" stroke="none" stroke-width="1" fill="none" fill-rule="evenodd">
        <g id="Icons" transform="translate(-1092.000000, -356.000000)" fill="#4E4E4E">
            <g id="icon/gray/heart" transform="translate(1092.000000, 356.000000)">
                <path d="M0.671626061,3.51993739 L0.588034534,3.69372224 C-0.531972677,6.12365201 -0.0225485439,8.98502407 1.86459953,10.87108 L11.3565123,20.771108 C11.6491476,21.076318 12.1370885,21.0762942 12.429694,20.7710555 L21.9336871,10.8567326 C23.859789,8.92974304 24.3398332,5.97054403 23.1145299,3.51993739 L23.0028043,3.30667943 C22.7073433,2.76989388 22.3459368,2.28904962 21.9226998,1.86581256 L21.7880799,1.73503107 C19.2935966,-0.619035727 15.3619253,-0.575443979 12.9196853,1.86569394 L11.893078,2.89156794 L10.8664214,1.8656447 C10.4442692,1.44349247 9.96398073,1.08287472 9.43989977,0.793637281 L9.21265429,0.674077309 C6.06843864,-0.89915265 2.24392582,0.375337873 0.671626061,3.51993739 Z M8.54710325,2.00348538 C9.01753883,2.23913476 9.44572711,2.54746506 9.81533197,2.91706993 L11.3676172,4.46836398 C11.6578755,4.75843689 12.1282805,4.75843689 12.4185388,4.46836398 L13.9706561,2.91723778 C15.8767711,1.01198294 18.9663554,1.01198294 20.8714424,2.91706993 C21.1957474,3.24137491 21.4726387,3.60977336 21.693418,4.01064331 L21.7913998,4.197728 L21.866106,4.35408641 C22.6780444,6.13459558 22.3365298,8.24436347 20.9959125,9.68751768 L11.8924833,19.1822585 L2.92664176,9.83084004 C1.46917311,8.373976 1.07870499,6.18076504 1.9331766,4.32675905 L2.00653955,4.17427088 C3.18334286,1.82086751 6.02556432,0.836002093 8.40781532,1.93648933 L8.54710325,2.00348538 Z" id="Path"></path>
            </g>
        </g>
    </g>
</svg>