<?xml version="1.0" encoding="UTF-8"?>
<svg width="22px" height="22px" viewBox="0 0 22 22" version="1.1" xmlns="http://www.w3.org/2000/svg" xmlns:xlink="http://www.w3.org/1999/xlink">
    <!-- Generator: sketchtool 56.3 (101010) - https://sketch.com -->
    <title>E51DD4D7-D1D8-447D-B672-05706BB2304F</title>
    <desc>Created with sketchtool.</desc>
    <g id="UI-Kit" stroke="none" stroke-width="1" fill="none" fill-rule="evenodd">
        <g id="Icons" transform="translate(-163.000000, -585.000000)" fill="#4E4E4E">
            <g id="icon/gray/legal" transform="translate(158.000000, 580.000000)">
                <path d="M7.5,5.25 L24.5,5.25 C25.7426407,5.25 26.75,6.25735931 26.75,7.5 L26.75,24.5 C26.75,25.7426407 25.7426407,26.75 24.5,26.75 L7.5,26.75 C6.25735931,26.75 5.25,25.7426407 5.25,24.5 L5.25,7.5 C5.25,6.25735931 6.25735931,5.25 7.5,5.25 Z M7.5,6.75 C7.08578644,6.75 6.75,7.08578644 6.75,7.5 L6.75,24.5 C6.75,24.9142136 7.08578644,25.25 7.5,25.25 L24.5,25.25 C24.9142136,25.25 25.25,24.9142136 25.25,24.5 L25.25,7.5 C25.25,7.08578644 24.9142136,6.75 24.5,6.75 L7.5,6.75 Z M14.4210526,10.9605263 C14.0068391,10.9605263 13.6710526,10.6247399 13.6710526,10.2105263 C13.6710526,9.79631275 14.0068391,9.46052632 14.4210526,9.46052632 L22.8421053,9.46052632 C23.2563188,9.46052632 23.5921053,9.79631275 23.5921053,10.2105263 C23.5921053,10.6247399 23.2563188,10.9605263 22.8421053,10.9605263 L14.4210526,10.9605263 Z M10.2105263,19.3815789 C9.79631275,19.3815789 9.46052632,19.0457925 9.46052632,18.6315789 C9.46052632,18.2173654 9.79631275,17.8815789 10.2105263,17.8815789 L21.7894737,17.8815789 C22.2036872,17.8815789 22.5394737,18.2173654 22.5394737,18.6315789 C22.5394737,19.0457925 22.2036872,19.3815789 21.7894737,19.3815789 L10.2105263,19.3815789 Z M10.2105263,15.1710526 C9.79631275,15.1710526 9.46052632,14.8352662 9.46052632,14.4210526 C9.46052632,14.0068391 9.79631275,13.6710526 10.2105263,13.6710526 L21.7894737,13.6710526 C22.2036872,13.6710526 22.5394737,14.0068391 22.5394737,14.4210526 C22.5394737,14.8352662 22.2036872,15.1710526 21.7894737,15.1710526 L10.2105263,15.1710526 Z M10.2105263,23.5921053 C9.79631275,23.5921053 9.46052632,23.2563188 9.46052632,22.8421053 C9.46052632,22.4278917 9.79631275,22.0921053 10.2105263,22.0921053 L16.5263158,22.0921053 C16.9405294,22.0921053 17.2763158,22.4278917 17.2763158,22.8421053 C17.2763158,23.2563188 16.9405294,23.5921053 16.5263158,23.5921053 L10.2105263,23.5921053 Z" id="Combined-Shape"></path>
            </g>
        </g>
    </g>
</svg>