<?xml version="1.0" encoding="UTF-8"?>
<svg width="16px" height="23px" viewBox="0 0 16 23" version="1.1" xmlns="http://www.w3.org/2000/svg" xmlns:xlink="http://www.w3.org/1999/xlink">
    <!-- Generator: sketchtool 57.1 (101010) - https://sketch.com -->
    <title>D2821229-7CFC-43AC-89E2-03FE409A5330</title>
    <desc>Created with sketchtool.</desc>
    <g id="UI-Kit" stroke="none" stroke-width="1" fill="none" fill-rule="evenodd">
        <g id="Icons" transform="translate(-234.000000, -436.000000)" fill="#4E4E4E">
            <g id="icon/gray/location" transform="translate(226.000000, 431.000000)">
                <path d="M16,5.25 C20.2764356,5.25 23.75,8.64805213 23.75,12.8478261 C23.75,15.7020677 22.6052276,17.6513006 20.0355202,20.2782065 L19.9838261,20.3305478 C19.7731801,20.5436714 18.9861839,21.3396913 18.7533439,21.5833249 C18.3940649,21.9593643 17.981496,22.7787243 17.5808994,23.8763603 C17.3549358,24.4955014 17.1462646,25.162735 16.9606802,25.8304824 C16.8493354,26.2311095 16.7708536,26.5412428 16.7302069,26.7146444 C16.5492508,27.4866164 15.4502888,27.4863481 15.2697096,26.7142878 C15.2292123,26.5411432 15.1510116,26.2314648 15.0400556,25.8314244 C14.8551195,25.1646563 14.6471565,24.4984019 14.4219356,23.8801741 C14.0223026,22.7831876 13.6106162,21.9645828 13.2526744,21.5901536 C12.9873566,21.312907 12.0052378,20.3218795 11.967531,20.2833599 C9.3971624,17.6575862 8.25,15.7042209 8.25,12.8478261 C8.25,8.64805213 11.7235644,5.25 16,5.25 Z M16,6.75 C12.5447023,6.75 9.75,9.48394787 9.75,12.8478261 C9.75,15.213762 10.7187878,16.8633946 13.0394398,19.2340689 L13.0923451,19.2875955 C13.3056922,19.503261 14.0948631,20.3006753 14.3366649,20.5533488 C14.8797461,21.1214449 15.3645431,22.085424 15.8313248,23.3667326 C15.8889774,23.5249882 15.9454259,23.6857344 16.0006194,23.8483662 C16.0564221,23.6841547 16.1135033,23.5218574 16.1718107,23.362095 C16.6394952,22.0806377 17.1251706,21.1160885 17.668862,20.5470339 C17.9458596,20.2571957 18.94527,19.2476651 18.9632504,19.2292844 C21.2834023,16.8574888 22.25,15.2116385 22.25,12.8478261 C22.25,9.48394787 19.4552977,6.75 16,6.75 Z M16,9.35869565 C17.9571023,9.35869565 19.55,10.9169652 19.55,12.8478261 C19.55,14.778687 17.9571023,16.3369565 16,16.3369565 C14.0428977,16.3369565 12.45,14.778687 12.45,12.8478261 C12.45,10.9169652 14.0428977,9.35869565 16,9.35869565 Z M16,10.8586957 C14.8640356,10.8586957 13.95,11.7528609 13.95,12.8478261 C13.95,13.9427913 14.8640356,14.8369565 16,14.8369565 C17.1359644,14.8369565 18.05,13.9427913 18.05,12.8478261 C18.05,11.7528609 17.1359644,10.8586957 16,10.8586957 Z" id="Combined-Shape"></path>
            </g>
        </g>
    </g>
</svg>