<?xml version="1.0" encoding="UTF-8"?>
<svg width="24px" height="23px" viewBox="0 0 24 23" version="1.1" xmlns="http://www.w3.org/2000/svg" xmlns:xlink="http://www.w3.org/1999/xlink">
    <!-- Generator: sketchtool 56.3 (101010) - https://sketch.com -->
    <title>2EB591BC-A8D1-441C-AEFA-374D5BFFCE69</title>
    <desc>Created with sketchtool.</desc>
    <g id="UI-Kit" stroke="none" stroke-width="1" fill="none" fill-rule="evenodd">
        <g id="Icons" transform="translate(-704.000000, -660.000000)" fill="#4E4E4E" fill-rule="nonzero">
            <g id="icon/gray/logout" transform="translate(700.000000, 655.000000)">
                <path d="M25.4415853,15.504 L22.9719154,13.0343301 C22.6790222,12.7414369 22.6790222,12.2665631 22.9719154,11.9736699 C23.2648087,11.6807767 23.7396824,11.6807767 24.0325756,11.9736699 L27.7825756,15.7236699 C28.0754688,16.0165631 28.0754688,16.4914369 27.7825756,16.7843301 L24.0325756,20.5343301 C23.7396824,20.8272233 23.2648087,20.8272233 22.9719154,20.5343301 C22.6790222,20.2414369 22.6790222,19.7665631 22.9719154,19.4736699 L25.4415853,17.004 L11.5022455,17.004 C11.088032,17.004 10.7522455,16.6682136 10.7522455,16.254 C10.7522455,15.8397864 11.088032,15.504 11.5022455,15.504 L25.4415853,15.504 Z M19.0022455,20.75 C19.0022455,20.3357864 19.338032,20 19.7522455,20 C20.1664591,20 20.5022455,20.3357864 20.5022455,20.75 L20.501468,25.2158582 C20.5562753,26.4185734 19.6277884,27.4397207 18.3882455,27.5 L6.07731942,27.4990405 C4.87514215,27.4381707 3.94823301,26.4181947 4.00224552,25.25 L4.00302303,7.28414178 C3.94821433,6.08139533 4.87573339,5.06027775 6.11524552,5 L18.4252258,5.00091225 C19.6277884,5.06027927 20.5562753,6.08142665 20.5022455,7.25 L20.5022455,11.75 C20.5022455,12.1642136 20.1664591,12.5 19.7522455,12.5 C19.338032,12.5 19.0022455,12.1642136 19.0022455,11.75 L19.003023,7.21585822 C19.0202211,6.83845565 18.7285849,6.51771493 18.3882455,6.5 L6.1522258,6.49908775 C5.77527509,6.51769671 5.4842531,6.83808655 5.50224552,7.25 L5.50146801,25.2841418 C5.4842644,25.6616653 5.7752088,25.9818222 6.11524552,26 L18.3512652,26.0009122 C18.7285849,25.9822851 19.0202211,25.6615444 19.0022455,25.25 L19.0022455,20.75 Z" id="Combined-Shape"></path>
            </g>
        </g>
    </g>
</svg>