<?xml version="1.0" encoding="UTF-8"?>
<svg width="27px" height="21px" viewBox="0 0 27 21" version="1.1" xmlns="http://www.w3.org/2000/svg" xmlns:xlink="http://www.w3.org/1999/xlink">
    <!-- Generator: sketchtool 57.1 (101010) - https://sketch.com -->
    <title>0091D26A-4410-4408-AF7B-515038939C55</title>
    <desc>Created with sketchtool.</desc>
    <g id="UI-Kit" stroke="none" stroke-width="1" fill="none" fill-rule="evenodd">
        <g id="Icons" transform="translate(-568.000000, -363.000000)" fill="#4E4E4E">
            <g id="icon/gray/mail" transform="translate(565.000000, 357.000000)">
                <path d="M27.75,10.5 L27.75,22.5 C27.75,23.7417864 26.7417864,24.75 25.5,24.75 L7.5,24.75 C6.25821356,24.75 5.25,23.7417864 5.25,22.5 L5.25,10.5 C5.25,10.0857864 4.91421356,9.75 4.5,9.75 C4.08578644,9.75 3.75,10.0857864 3.75,10.5 L3.75,22.5 C3.75,24.5702136 5.42978644,26.25 7.5,26.25 L25.5,26.25 C27.5702136,26.25 29.25,24.5702136 29.25,22.5 L29.25,10.5 C29.25,10.0857864 28.9142136,9.75 28.5,9.75 C28.0857864,9.75 27.75,10.0857864 27.75,10.5 Z" id="Stroke-1"></path>
                <path d="M29.25,10.5 C29.25,8.42978644 27.5702136,6.75 25.5,6.75 L7.5,6.75 C5.42978644,6.75 3.75,8.42978644 3.75,10.5 C3.75,10.7587077 3.8833326,10.9991503 4.10277549,11.1361703 L14.5127755,17.6361703 C15.7275818,18.3960494 17.2724182,18.3960494 18.4877344,17.6358517 L28.8972245,11.1361703 C29.1166674,10.9991503 29.25,10.7587077 29.25,10.5 Z M17.6927755,16.3638297 C16.9635818,16.8199506 16.0364182,16.8199506 15.3077344,16.3641483 L5.28450877,10.1056498 C5.47117479,9.05161086 6.39273279,8.25 7.5,8.25 L25.5,8.25 C26.6072672,8.25 27.5288252,9.05161085 27.7154912,10.1056498 L17.6927755,16.3638297 Z" id="Stroke-3"></path>
            </g>
        </g>
    </g>
</svg>