<?xml version="1.0" encoding="UTF-8"?>
<svg width="22px" height="22px" viewBox="0 0 22 22" version="1.1" xmlns="http://www.w3.org/2000/svg" xmlns:xlink="http://www.w3.org/1999/xlink">
    <!-- Generator: Sketch 58 (84663) - https://sketch.com -->
    <title>icon/gray/messages</title>
    <desc>Created with Sketch.</desc>
    <g id="UI-Kit" stroke="none" stroke-width="1" fill="none" fill-rule="evenodd">
        <g id="Icons" transform="translate(-820.000000, -683.000000)" fill="#4E4E4E">
            <g id="icon/gray/messages" transform="translate(820.000000, 683.000000)">
                <path d="M11.6247582,0.874947262 C13.4036787,0.871621884 15.147662,1.36813466 16.6594831,2.30815985 C21.1145818,5.07947734 22.4797643,10.9378142 19.7085068,15.3928164 C17.0607667,19.6492554 11.5951788,21.0852024 7.22778963,18.7879821 L6.9817781,18.6539577 L1.94754762,21.052099 C1.3402747,21.3413838 0.707546983,20.7514615 0.910951683,20.1437592 L0.94784108,20.0525782 L3.34533896,15.0172883 C2.54419346,13.594005 2.12249909,11.9858579 2.12500072,10.3489639 C2.13223881,5.10948699 6.38515437,0.868451228 11.6247582,0.874947262 Z M11.6265169,2.37494784 C7.21215558,2.36890302 3.63109347,5.93960469 3.62499912,10.3511462 C3.62271451,11.8460446 4.04073094,13.3126313 4.831001,14.5830076 C4.94671289,14.7690169 4.97440865,14.9945579 4.91077093,15.2005153 L4.87132559,15.3015884 L3.21094904,18.7887562 L6.69745238,17.127901 C6.92822526,17.0179684 7.19909813,17.0331418 7.41614975,17.1681599 C11.1677022,19.5018327 16.1010743,18.352197 18.4348265,14.6005169 C20.7684993,10.8489645 19.6188636,5.91559239 15.8673084,3.5819178 C14.5937919,2.7900664 13.124813,2.37195005 11.6265169,2.37494784 Z M7.875,9.3125 C8.46171356,9.3125 8.9375,9.78828644 8.9375,10.375 C8.9375,10.9617136 8.46171356,11.4375 7.875,11.4375 C7.28828644,11.4375 6.8125,10.9617136 6.8125,10.375 C6.8125,9.78843218 7.28805009,9.31273639 7.875,9.3125 Z M11.625,9.3125 C12.2117136,9.3125 12.6875,9.78828644 12.6875,10.375 C12.6875,10.9617136 12.2117136,11.4375 11.625,11.4375 C11.0382864,11.4375 10.5625,10.9617136 10.5625,10.375 C10.5625,9.78843218 11.0380501,9.31273639 11.625,9.3125 Z M15.375,9.3125 C15.9617136,9.3125 16.4375,9.78828644 16.4375,10.375 C16.4375,10.9617136 15.9617136,11.4375 15.375,11.4375 C14.7882864,11.4375 14.3125,10.9617136 14.3125,10.375 C14.3125,9.78843218 14.7880501,9.31273639 15.375,9.3125 Z" id="Combined-Shape"></path>
            </g>
        </g>
    </g>
</svg>