<?xml version="1.0" encoding="UTF-8"?>
<svg width="19px" height="24px" viewBox="0 0 19 24" version="1.1" xmlns="http://www.w3.org/2000/svg" xmlns:xlink="http://www.w3.org/1999/xlink">
    <!-- Generator: Sketch 58 (84663) - https://sketch.com -->
    <title>icon/gray/notifications</title>
    <desc>Created with Sketch.</desc>
    <g id="UI-Kit" stroke="none" stroke-width="1" fill="none" fill-rule="evenodd">
        <g id="Icons" transform="translate(-865.000000, -682.000000)" fill="#4E4E4E">
            <g id="icon/gray/notifications" transform="translate(865.000000, 682.000000)">
                <path d="M11.599031,20.7020209 C11.9974051,20.8154712 12.2283815,21.2303868 12.1149312,21.6287609 C11.8566146,22.5358246 11.1644548,23.2485749 10.2738279,23.5175255 C8.82432524,23.9547857 7.3105533,23.1032438 6.8899012,21.6291473 C6.77623748,21.2308341 7.00699149,20.8157948 7.40530473,20.7021311 C7.80361796,20.5884673 8.21865729,20.8192213 8.33232102,21.2175346 C8.5255124,21.8945376 9.2008535,22.2744371 9.84040813,22.0815077 C10.2382119,21.9613793 10.5528299,21.637402 10.672291,21.217921 C10.7857413,20.819547 11.200657,20.5885706 11.599031,20.7020209 Z M9.5,0.25 C9.87969577,0.25 10.193491,0.532153882 10.2431534,0.898229443 L10.25,1 L10.25014,2.47459558 C14.2283974,2.86247787 17.3333333,6.30390969 17.3333333,10.4822654 C17.3333333,13.4106218 17.5900027,15.4850621 18.0084069,16.8428173 C18.1455893,17.2879852 18.2864624,17.608847 18.4182191,17.8239693 C18.4756301,17.9177055 18.4991182,17.9452347 18.4778183,17.9276294 C19.0196619,18.3754874 18.7029731,19.2557208 18,19.2557208 L1,19.2557208 C0.379705268,19.2557208 0.0275416938,18.5456006 0.402954422,18.0518083 C0.522335648,17.8947824 0.746764276,17.4369377 0.987354745,16.5974036 C1.40985779,15.1230903 1.66666667,13.1102847 1.66666667,10.4822654 C1.66666667,6.30390969 4.77160258,2.86247787 8.74986001,2.47459558 L8.75,1 C8.75,0.585786438 9.08578644,0.25 9.5,0.25 Z M9.5,3.9382151 C6.00732461,3.9382151 3.16666667,6.86337774 3.16666667,10.4822654 C3.16666667,13.2443063 2.89222554,15.3953093 2.42931192,17.0106342 C2.34998693,17.2874366 2.26945817,17.5353164 2.18951845,17.7557208 L16.7343914,17.7557208 C16.680447,17.6109111 16.6271602,17.4540595 16.5749265,17.2845569 C16.107914,15.7690641 15.8333333,13.5498616 15.8333333,10.4822654 C15.8333333,6.86337774 12.9926754,3.9382151 9.5,3.9382151 Z" id="Combined-Shape"></path>
            </g>
        </g>
    </g>
</svg>