<?xml version="1.0" encoding="UTF-8"?>
<svg width="24px" height="16px" viewBox="0 0 24 16" version="1.1" xmlns="http://www.w3.org/2000/svg" xmlns:xlink="http://www.w3.org/1999/xlink">
    <!-- Generator: sketchtool 57.1 (101010) - https://sketch.com -->
    <title>B50F4726-5E90-4C63-8AA9-22FF71BC26C2</title>
    <desc>Created with sketchtool.</desc>
    <g id="UI-Kit" stroke="none" stroke-width="1" fill="none" fill-rule="evenodd" stroke-linecap="round" stroke-linejoin="round">
        <g id="Icons" transform="translate(-563.000000, -514.000000)" stroke="#4E4E4E" stroke-width="1.5">
            <g id="icon/gray/show-input/icon/password-unhide" transform="translate(564.000000, 515.000000)">
                <g id="icon-password-unhide" transform="translate(0.000000, 0.000000)">
                    <path d="M11.4022109,0.70112 C7.57153939,0.637653333 3.60972606,3.26685333 1.11898182,5.95952 C0.577309091,6.55032 0.577309091,7.44632 1.11898182,8.03712 C3.55555879,10.6728533 7.50596848,13.36272 11.4022109,13.29832 C15.2984533,13.36272 19.2498133,10.6728533 21.6882909,8.03712 C22.2299636,7.44632 22.2299636,6.55032 21.6882909,5.95952 C19.1946958,3.26685333 15.2328824,0.637653333 11.4022109,0.70112 Z" id="Stroke-1"></path>
                    <path d="M14.9658473,7.00018667 C14.964897,8.93312 13.3693382,10.5001867 11.4012606,10.4992529 C9.43318303,10.49832 7.83762424,8.93125333 7.83857412,6.99832 C7.83952485,5.06538667 9.43413333,3.49925292 11.4022109,3.49925292 C13.3702885,3.49832 14.964897,5.06445333 14.9658473,6.99738667 L14.9658473,7.00018667 Z" id="Stroke-3"></path>
                </g>
            </g>
        </g>
    </g>
</svg>