<?xml version="1.0" encoding="UTF-8"?>
<svg width="22px" height="22px" viewBox="0 0 22 22" version="1.1" xmlns="http://www.w3.org/2000/svg" xmlns:xlink="http://www.w3.org/1999/xlink">
    <!-- Generator: sketchtool 57.1 (101010) - https://sketch.com -->
    <title>828E21D3-48B7-40A6-BDC5-2C117C06D7E2</title>
    <desc>Created with sketchtool.</desc>
    <g id="UI-Kit" stroke="none" stroke-width="1" fill="none" fill-rule="evenodd">
        <g id="Icons" transform="translate(-502.000000, -362.000000)" fill="#4E4E4E">
            <g id="icon/gray/phone" transform="translate(497.000000, 357.000000)">
                <path d="M18.2862083,25.8482382 L18.2968751,25.8553484 C20.551871,27.2899832 23.4836247,26.9681529 25.3622904,25.0897376 L26.04995,24.4030582 C26.9830518,23.4687859 26.9830518,21.9575095 26.051028,21.0230214 L23.1514528,18.1256093 C22.2172715,17.1941429 20.7062503,17.1941429 19.7726434,18.1250359 C19.4250502,18.4730639 18.862532,18.4735111 18.515674,18.1271811 L18.5142649,18.1257719 L13.8760763,13.4873128 C13.5288408,13.1396412 13.5288408,12.5768031 13.8763934,12.2288142 C14.8088112,11.2978166 14.8100137,9.78568951 13.8781717,8.85267587 L10.978562,5.94989759 C10.0441768,5.01693184 8.53258785,5.01693184 7.59889591,5.94920448 L6.91018289,6.63871442 C5.03179628,8.51685039 4.70993851,11.4474709 6.13604797,13.6887867 C9.38439444,18.4981075 13.501829,22.6156804 18.2823121,25.8456234 L18.2862083,25.8482382 Z M7.97111464,7.69910284 L8.65945948,7.00996077 C9.00683962,6.66310963 9.56992504,6.66310963 9.91801564,7.01067111 L12.8151109,9.91093532 L12.8172138,9.9130381 C13.1631663,10.2594258 13.1627191,10.8216966 12.8158047,11.1680831 C11.8826159,12.1024423 11.8826159,13.614002 12.8150681,14.5476248 L17.4536247,19.186452 C18.3889046,20.1203112 19.9010609,20.119109 20.8328642,19.1861341 C21.1799343,18.8400752 21.7435875,18.8400752 22.0917632,19.1872388 L24.9898662,22.0831789 C25.3369493,22.4311813 25.3369493,22.9943026 24.9893356,23.3423528 L24.3020439,24.0286641 C22.9201248,25.4103987 20.7639011,25.647096 19.1154054,24.598467 L19.1181818,24.6001116 C14.5045544,21.4828871 10.5268866,17.5063946 7.40556674,12.8899547 C6.3531873,11.2327 6.59041778,9.07961562 7.97111464,7.69910284 Z" id="icon-phone"></path>
            </g>
        </g>
    </g>
</svg>