<?xml version="1.0" encoding="UTF-8"?>
<svg width="17px" height="21px" viewBox="0 0 17 21" version="1.1" xmlns="http://www.w3.org/2000/svg" xmlns:xlink="http://www.w3.org/1999/xlink">
    <!-- Generator: sketchtool 56.3 (101010) - https://sketch.com -->
    <title>08BF186D-1B83-4A15-918E-FF7A2BF7A923</title>
    <desc>Created with sketchtool.</desc>
    <g id="UI-Kit" stroke="none" stroke-width="1" fill="none" fill-rule="evenodd">
        <g id="Icons" transform="translate(-234.000000, -586.000000)" fill="#4E4E4E">
            <g id="icon/gray/donation-copy-9-icon/gray/privacy" transform="translate(226.000000, 580.000000)">
                <path d="M10.9583333,13.75 L10.9583333,11.375 C10.9583333,8.53095082 13.4293634,6.25 16.4479167,6.25 C19.4664699,6.25 21.9375,8.53095082 21.9375,11.375 L21.9375,13.75 L22.5416667,13.75 C23.6905672,13.75 24.6458333,14.6317842 24.6458333,15.75 L24.6458333,24.5 C24.6458333,25.6182158 23.6905672,26.5 22.5416667,26.5 L10.3541667,26.5 C9.20526617,26.5 8.25,25.6182158 8.25,24.5 L8.25,15.75 C8.25,14.6317842 9.20526617,13.75 10.3541667,13.75 L10.9583333,13.75 Z M12.4583333,13.75 L20.4375,13.75 L20.4375,11.375 C20.4375,9.38738251 18.6636689,7.75 16.4479167,7.75 C14.2321644,7.75 12.4583333,9.38738251 12.4583333,11.375 L12.4583333,13.75 Z M10.3541667,15.25 C10.0080672,15.25 9.75,15.4882158 9.75,15.75 L9.75,24.5 C9.75,24.7617842 10.0080672,25 10.3541667,25 L22.5416667,25 C22.8877662,25 23.1458333,24.7617842 23.1458333,24.5 L23.1458333,15.75 C23.1458333,15.4882158 22.8877662,15.25 22.5416667,15.25 L10.3541667,15.25 Z M16.4479167,17.5 C17.9714699,17.5 19.2291667,18.6609508 19.2291667,20.125 C19.2291667,21.5890492 17.9714699,22.75 16.4479167,22.75 C14.9243634,22.75 13.6666667,21.5890492 13.6666667,20.125 C13.6666667,18.6609508 14.9243634,17.5 16.4479167,17.5 Z M16.4479167,19 C15.7271644,19 15.1666667,19.5173825 15.1666667,20.125 C15.1666667,20.7326175 15.7271644,21.25 16.4479167,21.25 C17.1686689,21.25 17.7291667,20.7326175 17.7291667,20.125 C17.7291667,19.5173825 17.1686689,19 16.4479167,19 Z" id="Combined-Shape"></path>
            </g>
        </g>
    </g>
</svg>