<?xml version="1.0" encoding="UTF-8"?>
<svg width="45px" height="45px" viewBox="0 0 45 45" version="1.1" xmlns="http://www.w3.org/2000/svg" xmlns:xlink="http://www.w3.org/1999/xlink">
    <title>67A5E771-5E41-47D6-9467-489FDF34128B@3x</title>
    <g id="Claim-Charity" stroke="none" stroke-width="1" fill="none" fill-rule="evenodd">
        <g id="claim_charity-(1)" transform="translate(-193.000000, -587.000000)">
            <g id="block-01" transform="translate(193.000000, 181.000000)">
                <g id="content01" transform="translate(0.000000, 181.000000)">
                    <g id="fees/section-2/processingfee" transform="translate(0.000000, 225.000000)">
                        <rect id="Rectangle" fill="#009EA1" x="0" y="0" width="44.8" height="44.8"></rect>
                        <g id="streamline-icon-common-file-text-download@40x40" transform="translate(15.000000, 14.000000)" stroke="#8CE7B1" stroke-linecap="round" stroke-linejoin="round" stroke-width="1.25">
                            <path d="M13.875,8.875 C16.6366667,8.875 18.875,11.1133333 18.875,13.875 C18.875,16.6366667 16.6366667,18.875 13.875,18.875 C11.1133333,18.875 8.875,16.6366667 8.875,13.875 C8.875,11.1133333 11.1133333,8.875 13.875,8.875 Z" id="Path"></path>
                            <line x1="13.875" y1="11.375" x2="13.875" y2="16.375" id="Path"></line>
                            <line x1="13.875" y1="16.375" x2="12" y2="14.5" id="Path"></line>
                            <line x1="13.875" y1="16.375" x2="15.75" y2="14.5" id="Path"></line>
                            <line x1="2.625" y1="5.125" x2="11.375" y2="5.125" id="Path"></line>
                            <line x1="2.625" y1="8.875" x2="7.625" y2="8.875" id="Path"></line>
                            <line x1="2.625" y1="12.625" x2="5.75" y2="12.625" id="Path"></line>
                            <path d="M5.75,16.375 L1.375,16.375 C0.685,16.375 0.125,15.815 0.125,15.125 L0.125,1.375 C0.125,0.685 0.685,0.125 1.375,0.125 L10.2325,0.125 C10.5641667,0.125 10.8816667,0.256666667 11.1158333,0.490833333 L13.5091667,2.88416667 C13.7433333,3.11833333 13.875,3.43583333 13.875,3.7675 L13.875,5.75" id="Path"></path>
                        </g>
                    </g>
                </g>
            </g>
        </g>
    </g>
</svg>