<?xml version="1.0" encoding="UTF-8"?>
<svg width="23px" height="24px" viewBox="0 0 23 24" version="1.1" xmlns="http://www.w3.org/2000/svg" xmlns:xlink="http://www.w3.org/1999/xlink">
    <title>7C449B49-BF78-46B6-B00D-3909FB02B6ED</title>
    <g id="UI-Kit" stroke="none" stroke-width="1" fill="none" fill-rule="evenodd">
        <g id="matching" transform="translate(-69.000000, -1678.000000)">
            <g id="information/info" transform="translate(52.000000, 1668.000000)">
                <g id="Group-2-Copy" transform="translate(17.000000, 10.223958)">
                    <path d="M11.5,0 C17.8510667,0 23,5.14893333 23,11.5 C23,17.8510667 17.8510667,23 11.5,23 C5.14893333,23 0,17.8510667 0,11.5 C0,5.14893333 5.14893333,0 11.5,0 Z" id="Stroke-5" fill="#FFFFFF"></path>
                    <g id="Group" transform="translate(9.823529, 4.411765)" fill="#90459A" fill-rule="nonzero">
                        <path d="M1.5,11.5 L1.62256254,11.5066027 C2.18614604,11.5676934 2.625,12.0452007 2.625,12.625 C2.625,13.2462136 2.12121356,13.75 1.5,13.75 C0.878786438,13.75 0.375,13.2462136 0.375,12.625 C0.375,12.0452007 0.813853963,11.5676934 1.37743746,11.5066027 L1.5,11.5 Z M1.5,0.25 C1.87969577,0.25 2.19349096,0.532153882 2.24315338,0.898229443 L2.25,1 L2.25,9.25 C2.25,9.66421356 1.91421356,10 1.5,10 C1.12030423,10 0.806509039,9.71784612 0.756846616,9.35177056 L0.75,9.25 L0.75,1 C0.75,0.585786438 1.08578644,0.25 1.5,0.25 Z" id="Combined-Shape"></path>
                    </g>
                </g>
            </g>
        </g>
    </g>
</svg>