<?xml version="1.0" encoding="UTF-8"?>
<svg width="23px" height="21px" viewBox="0 0 23 21" version="1.1" xmlns="http://www.w3.org/2000/svg" xmlns:xlink="http://www.w3.org/1999/xlink">
    <!-- Generator: sketchtool 58 (101010) - https://sketch.com -->
    <title>D7EABF2F-C421-4655-861F-629449612615</title>
    <desc>Created with sketchtool.</desc>
    <g id="UI-Kit" stroke="none" stroke-width="1" fill="none" fill-rule="evenodd">
        <g id="Icons" transform="translate(-569.000000, -513.000000)" fill="#4E4E4E">
            <g id="icon/gray/share" transform="translate(564.000000, 507.000000)">
                <path d="M23,6 C25.4852136,6 27.5,8.01478644 27.5,10.5 C27.5,12.9852136 25.4852136,15 23,15 C21.3582404,15 19.9217785,14.1207331 19.1358458,12.8074309 L13.9079556,14.8400998 C13.9683027,15.1339673 14,15.4382832 14,15.75 C14,16.2075135 13.9317175,16.649084 13.8047878,17.0650759 L19.3660934,19.8453439 C20.1847665,18.7266029 21.5075569,18 23,18 C25.4852136,18 27.5,20.0147864 27.5,22.5 C27.5,24.9852136 25.4852136,27 23,27 C20.5147864,27 18.5,24.9852136 18.5,22.5 C18.5,22.0428525 18.5681733,21.6016225 18.6949076,21.1859225 L13.1331851,18.4056417 C12.3144566,19.5238238 10.9920048,20.25 9.5,20.25 C7.01478644,20.25 5,18.2352136 5,15.75 C5,13.2647864 7.01478644,11.25 9.5,11.25 C11.14217,11.25 12.5789397,12.1297066 13.3647435,13.4435541 L18.5922507,11.4109042 C18.5317695,11.1167259 18.5,10.8120718 18.5,10.5 C18.5,8.01478644 20.5147864,6 23,6 Z M23,19.5 C21.3432136,19.5 20,20.8432136 20,22.5 C20,24.1567864 21.3432136,25.5 23,25.5 C24.6567864,25.5 26,24.1567864 26,22.5 C26,20.8432136 24.6567864,19.5 23,19.5 Z M9.5,12.75 C7.84321356,12.75 6.5,14.0932136 6.5,15.75 C6.5,17.4067864 7.84321356,18.75 9.5,18.75 C11.1567864,18.75 12.5,17.4067864 12.5,15.75 C12.5,14.0932136 11.1567864,12.75 9.5,12.75 Z M23,7.5 C21.3432136,7.5 20,8.84321356 20,10.5 C20,12.1567864 21.3432136,13.5 23,13.5 C24.6567864,13.5 26,12.1567864 26,10.5 C26,8.84321356 24.6567864,7.5 23,7.5 Z" id="Combined-Shape"></path>
            </g>
        </g>
    </g>
</svg>