<?xml version="1.0" encoding="UTF-8"?>
<svg width="24px" height="24px" viewBox="0 0 24 24" version="1.1" xmlns="http://www.w3.org/2000/svg" xmlns:xlink="http://www.w3.org/1999/xlink">
    <!-- Generator: sketchtool 56.3 (101010) - https://sketch.com -->
    <title>9FC09790-8C6D-4D21-A82A-66E090189569</title>
    <desc>Created with sketchtool.</desc>
    <g id="UI-Kit" stroke="none" stroke-width="1" fill="none" fill-rule="evenodd">
        <g id="Icons" transform="translate(-772.000000, -510.000000)" fill="#4E4E4E">
            <g id="icon/gray/support" transform="translate(768.000000, 506.000000)">
                <path d="M19.3638616,25.6875 C19.0607062,26.4910071 18.2845928,27.0625 17.375,27.0625 L16,27.0625 C14.8263949,27.0625 13.875,26.1111051 13.875,24.9375 C13.875,23.7638949 14.8263949,22.8125 16,22.8125 L17.375,22.8125 C18.2845928,22.8125 19.0607062,23.3839929 19.3638616,24.1875 L20.8125,24.1875 C21.896621,24.1875 22.7792747,23.3249163 22.8115837,22.2486262 C22.0470993,22.2154399 21.4375,21.5851597 21.4375,20.8125 L21.4375,13.9375 C21.4375,13.1783872 22.0259108,12.556705 22.7715184,12.5036675 C22.6026825,10.9714097 21.9175986,9.53326866 20.8171649,8.43283505 C19.5395734,7.15524347 17.8067873,6.4375 16,6.4375 C12.4897873,6.4375 9.59964248,9.09232651 9.2279177,12.5036275 C9.97379252,12.5563916 10.5625,13.1781958 10.5625,13.9375 L10.5625,20.8125 C10.5625,21.6064093 9.91890933,22.25 9.125,22.25 L8.4375,22.25 C6.50450338,22.25 4.9375,20.6829966 4.9375,18.75 L4.9375,16 C4.9375,14.3148546 6.12841982,12.9078633 7.71452978,12.574756 C8.05820304,8.29968669 11.6364611,4.9375 16,4.9375 C18.2046121,4.9375 20.318929,5.81327874 21.8778251,7.37217488 C23.2767527,8.7711025 24.1255679,10.6173088 24.2850419,12.5746661 C25.8713658,12.9076101 27.0625,14.3147029 27.0625,16 L27.0625,18.75 C27.0625,20.4255593 25.885091,21.82612 24.3125,22.1694551 L24.3125,22.1875 C24.3125,24.1204966 22.7454966,25.6875 20.8125,25.6875 L19.3638616,25.6875 Z M9.0625,20.75 L9.0625,14 L8.4375,14 C7.3329305,14 6.4375,14.8954305 6.4375,16 L6.4375,18.75 C6.4375,19.8545695 7.3329305,20.75 8.4375,20.75 L9.0625,20.75 Z M22.9375,20.75 L23.5625,20.75 C24.6670695,20.75 25.5625,19.8545695 25.5625,18.75 L25.5625,16 C25.5625,14.8954305 24.6670695,14 23.5625,14 L22.9375,14 L22.9375,20.75 Z M17.375,25.5625 C17.720178,25.5625 18,25.282678 18,24.9375 C18,24.592322 17.720178,24.3125 17.375,24.3125 L16,24.3125 C15.654822,24.3125 15.375,24.592322 15.375,24.9375 C15.375,25.282678 15.654822,25.5625 16,25.5625 L17.375,25.5625 Z M14,12.5626432 C13.9999209,12.9768568 13.6640703,13.3125791 13.2498568,13.3125 C12.8356432,13.3124209 12.4999209,12.9765703 12.5,12.5623568 C12.5003399,10.7825242 13.8363627,9.28636859 15.6048137,9.08540703 C17.3732646,8.88444547 19.0109246,10.0426805 19.4106087,11.7770555 C19.8102928,13.5114306 18.844709,15.2695792 17.1666666,15.8628568 C16.9168366,15.951185 16.749861,16.1874555 16.75,16.4528333 L16.75,16.6875 C16.75,17.1017136 16.4142136,17.4375 16,17.4375 C15.5857864,17.4375 15.25,17.1017136 15.25,16.6875 L15.2500001,16.4532265 C15.2495278,15.5522788 15.817245,14.748959 16.6666667,14.4486432 C17.625548,14.1096275 18.1773101,13.1049711 17.9489192,12.1138997 C17.7205283,11.1228282 16.7847226,10.4609796 15.7741792,10.5758148 C14.7636358,10.69065 14.0001942,11.545596 14,12.5626432 Z M14.90625,19.78125 C14.90625,19.1773502 15.3956766,18.687762 16,18.6875 C16.6040614,18.6875 17.09375,19.1771886 17.09375,19.78125 C17.09375,20.3853114 16.6040614,20.875 16,20.875 C15.3959386,20.875 14.90625,20.3853114 14.90625,19.78125 Z" id="Combined-Shape"></path>
            </g>
        </g>
    </g>
</svg>