<?xml version="1.0" encoding="UTF-8"?>
<svg width="24px" height="18px" viewBox="0 0 24 18" version="1.1" xmlns="http://www.w3.org/2000/svg" xmlns:xlink="http://www.w3.org/1999/xlink">
    <!-- Generator: sketchtool 56.3 (101010) - https://sketch.com -->
    <title>9205E7C2-A75E-4C5D-BB6E-3003227CF0EE</title>
    <desc>Created with sketchtool.</desc>
    <g id="UI-Kit" stroke="none" stroke-width="1" fill="none" fill-rule="evenodd">
        <g id="Icons" transform="translate(-636.000000, -662.000000)" fill="#4E4E4E">
            <g id="icon/gray/switch" transform="translate(632.000000, 655.000000)">
                <path d="M25.4393398,20.5 L23.7196699,18.7803301 C23.4267767,18.4874369 23.4267767,18.0125631 23.7196699,17.7196699 C24.0125631,17.4267767 24.4874369,17.4267767 24.7803301,17.7196699 L27.7803301,20.7196699 C28.0732233,21.0125631 28.0732233,21.4874369 27.7803301,21.7803301 L24.7803301,24.7803301 C24.4874369,25.0732233 24.0125631,25.0732233 23.7196699,24.7803301 C23.4267767,24.4874369 23.4267767,24.0125631 23.7196699,23.7196699 L25.4399975,21.9993424 L21.946271,21.998073 C20.0996833,21.8654451 18.4024876,20.9348227 17.2981307,19.4494967 C17.0509851,19.1170935 17.1201,18.6472763 17.4525033,18.4001307 C17.7849065,18.1529851 18.2547237,18.2221 18.5018693,18.5545033 C19.3457017,19.6894318 20.6426332,20.4005776 22,20.5 L25.4393398,20.5 Z M25.4393398,11.5 L22,11.5 C20.6355193,11.5 19.3445593,12.36064 18.1834888,13.8383662 C17.7599348,14.3774348 17.3862856,14.9586669 17.0679785,15.5399235 C16.8781415,15.8865822 16.7506944,16.1523231 16.6893588,16.2954395 C16.6100694,16.4804481 16.4621259,16.7889259 16.247666,17.1805485 C15.892145,17.8297606 15.4747786,18.4789973 14.9959888,19.0883662 C13.5789343,20.89189 11.9167693,22 10,22 L4.75,22 C4.33578644,22 4,21.6642136 4,21.25 C4,20.8357864 4.33578644,20.5 4.75,20.5 L10,20.5 C11.3644807,20.5 12.6554407,19.63936 13.8165112,18.1616338 C14.2400652,17.6225652 14.6137144,17.0413331 14.9320215,16.4600765 C15.1218585,16.1134178 15.2493056,15.8476769 15.3106412,15.7045605 C15.3899306,15.5195519 15.5378741,15.2110741 15.752334,14.8194515 C16.107855,14.1702394 16.5252214,13.5210027 17.0040112,12.9116338 C18.4210657,11.10811 20.0832307,10 22,10 L25.4393398,10 L23.7196699,8.28033009 C23.4267767,7.98743687 23.4267767,7.51256313 23.7196699,7.21966991 C24.0125631,6.9267767 24.4874369,6.9267767 24.7803301,7.21966991 L27.7803301,10.2196699 C28.0732233,10.5125631 28.0732233,10.9874369 27.7803301,11.2803301 L24.7803301,14.2803301 C24.4874369,14.5732233 24.0125631,14.5732233 23.7196699,14.2803301 C23.4267767,13.9874369 23.4267767,13.5125631 23.7196699,13.2196699 L25.4393398,11.5 Z M14.7020328,12.5547232 C14.9490569,12.8872167 14.8797703,13.3570086 14.5472768,13.6040328 C14.2147833,13.8510569 13.7449914,13.7817703 13.4979672,13.4492768 C12.6541663,12.3135242 11.3570793,11.6011344 10,11.5 L4.75,11.5 C4.33578644,11.5 4,11.1642136 4,10.75 C4,10.3357864 4.33578644,10 4.75,10 L10.0546426,10.0019932 C11.9013124,10.1368942 13.5980678,11.0687909 14.7020328,12.5547232 Z" id="Combined-Shape"></path>
            </g>
        </g>
    </g>
</svg>