<?xml version="1.0" encoding="UTF-8"?>
<svg width="16px" height="16px" viewBox="0 0 16 16" version="1.1" xmlns="http://www.w3.org/2000/svg" xmlns:xlink="http://www.w3.org/1999/xlink">
    <!-- Generator: sketchtool 58 (101010) - https://sketch.com -->
    <title>3BFFCDEC-0AA5-4B1B-80A4-B07D56703B86</title>
    <desc>Created with sketchtool.</desc>
    <g id="UI-Kit" stroke="none" stroke-width="1" fill="none" fill-rule="evenodd">
        <g id="Icons" transform="translate(-303.000000, -998.000000)" fill="#000000" fill-rule="nonzero">
            <path d="M311,998 C306.582,998 303,1001.582 303,1006 C303,1010.418 306.582,1014 311,1014 C315.418,1014 319,1010.418 319,1006 C318.995333,1001.584 315.416,998.004667 311,998 Z M311,1010.66667 C310.448,1010.66667 310,1010.21867 310,1009.66667 C310,1009.11467 310.448,1008.66667 311,1008.66667 C311.552,1008.66667 312,1009.11467 312,1009.66667 C312,1010.21867 311.552,1010.66667 311,1010.66667 Z M312.066667,1006.61333 C311.823333,1006.71933 311.666667,1006.95933 311.666667,1007.22467 C311.666667,1007.59267 311.368,1007.89133 311,1007.89133 C310.632,1007.89133 310.333333,1007.59267 310.333333,1007.22467 C310.333333,1006.42933 310.804667,1005.70933 311.533333,1005.39133 C312.208,1005.09667 312.516667,1004.31067 312.222,1003.636 C311.927333,1002.96133 311.141333,1002.65267 310.466667,1002.94733 C309.980667,1003.15933 309.666667,1003.63933 309.666667,1004.17 C309.666667,1004.538 309.368,1004.83667 309,1004.83667 C308.632,1004.83667 308.333333,1004.538 308.333333,1004.17 C308.333333,1002.69733 309.527333,1001.50333 311,1001.50333 C312.472667,1001.50333 313.666667,1002.69733 313.666667,1004.17 C313.666667,1005.23 313.038667,1006.19 312.066667,1006.61333 L312.066667,1006.61333 Z" id="icon/tooltip"></path>
        </g>
    </g>
</svg>