<?xml version="1.0" encoding="UTF-8"?>
<svg width="24px" height="22px" viewBox="0 0 24 22" version="1.1" xmlns="http://www.w3.org/2000/svg" xmlns:xlink="http://www.w3.org/1999/xlink">
    <!-- Generator: sketchtool 56.3 (101010) - https://sketch.com -->
    <title>BAC9E1B4-6241-463A-A652-93E3DB659D71</title>
    <desc>Created with sketchtool.</desc>
    <g id="UI-Kit" stroke="none" stroke-width="1" fill="none" fill-rule="evenodd">
        <g id="Icons" transform="translate(-501.000000, -511.000000)" fill="#4E4E4E">
            <g id="icon/gray/transaction" transform="translate(497.000000, 506.000000)">
                <g id="cash-payment-bill-1" transform="translate(4.000000, 5.000000)">
                    <path d="M10.9869653,8.88227393 C11.4527828,8.54956871 11.7291938,8.01224635 11.7290002,7.43974608 L11.7290002,6.86 C11.7280693,6.28230895 11.4467671,5.74231186 10.9748838,5.41116565 C10.5030004,5.0800194 9.89952452,4.99911967 9.35708513,5.19428955 L5.15780096,6.69367455 C4.0219286,7.0989478 2.96635038,7.70161356 2.03980791,8.47387887 L0.270246238,9.94651381 C-0.0481382935,10.2114745 -0.0914468769,10.6843692 0.173513809,11.0027538 C0.438474496,11.3211383 0.91136923,11.3644469 1.22975376,11.0994862 L2.99975376,9.62648619 C3.79114298,8.96687026 4.69224633,8.45239949 5.66203419,8.10638429 L9.86319904,6.60632545 C9.9481787,6.57575209 10.0408116,6.58817011 10.1132451,6.63900069 C10.1856787,6.68983127 10.2288583,6.77272027 10.229001,6.8612096 L10.2290001,7.44 C10.2290299,7.52813214 10.186601,7.61061057 10.1150901,7.66168653 L6.96403471,9.91272607 C6.80241148,10.0281859 6.69318943,10.203044 6.66033252,10.3989354 L6.29233252,12.5929354 C6.23643184,12.9282323 6.05164797,13.2268159 5.77885048,13.425967 L3.51168038,14.4404065 C3.13358982,14.6095821 2.96423082,15.0532291 3.13340648,15.4313196 C3.30258214,15.8094102 3.74622906,15.9787692 4.12431962,15.8095935 L6.45531962,14.7665935 L6.56479211,14.706193 C7.20779404,14.2778718 7.64473579,13.6024182 7.77178917,12.8403369 L8.08835774,10.9529707 L10.9869653,8.88227393 Z" id="Shape"></path>
                    <path d="M1.19289504,21.3552636 L3.49289504,19.6722636 C3.86070955,19.3988213 4.30079053,19.2520414 4.75339539,19.25 L11.25,19.25 C11.6642136,19.25 12,18.9142136 12,18.5 C12,18.0857864 11.6642136,17.75 11.25,17.75 L4.75,17.75 C3.97391146,17.7535058 3.22259923,18.0040906 2.60250848,18.4651268 L0.307104963,20.1447364 C-0.0271728748,20.3893406 -0.0998677423,20.8586172 0.144736432,21.192895 C0.389340607,21.5271729 0.858617199,21.5998677 1.19289504,21.3552636 Z" id="Shape"></path>
                    <path d="M11.25,19.2500497 L14.842,19.2500497 C15.5884359,19.2573379 16.2642369,18.7868276 16.5188984,18.0773918 L18.3580241,12.7445094 C18.4930629,12.3529262 18.2850926,11.9260148 17.8935094,11.7909759 C17.5019262,11.6559371 17.0750148,11.8639074 16.9399759,12.2554906 L15.1039759,17.5794906 C15.0681274,17.6791823 14.9646782,17.7512063 14.849287,17.7500851 L11.25,17.7500497 C10.8357864,17.7500497 10.5,18.0858362 10.5,18.5000497 C10.5,18.9142633 10.8357864,19.2500497 11.25,19.2500497 Z" id="Shape"></path>
                    <path d="M12.7322717,8.79832949 C13.3200168,9.57028949 14.2473734,10.0070156 15.2168454,9.96840593 C16.7009373,9.969 18,8.99481169 18,7.672 C18,6.3491947 16.7011025,5.376 15.187,5.376 C14.4231367,5.376 13.875,4.96448428 13.875,4.578 C13.875,4.19221869 14.423414,3.781 15.187,3.781 C15.6976095,3.76092086 16.157068,3.97729662 16.4479523,4.35990975 C16.6986397,4.68965008 17.1691694,4.75373512 17.4989097,4.50304769 C17.8286501,4.25236026 17.8927351,3.78183058 17.6420477,3.45209025 C17.0545444,2.67932098 16.1265694,2.24230372 15.1566276,2.28161524 C13.6734587,2.281 12.375,3.25462658 12.375,4.578 C12.375,5.90156999 13.6729355,6.876 15.187,6.876 C15.9513032,6.876 16.5,7.28710928 16.5,7.672 C16.5,8.05726565 15.9509596,8.469 15.187,8.469 C14.6766564,8.48873011 14.2170318,8.2722761 13.9257283,7.88967051 C13.6748091,7.56010654 13.2042345,7.49635241 12.8746705,7.74727166 C12.5451065,7.99819091 12.4813524,8.46876553 12.7322717,8.79832949 Z" id="Shape"></path>
                    <path d="M14.437,9.219 L14.437,10.25 C14.437,10.6642136 14.7727864,11 15.187,11 C15.6012136,11 15.937,10.6642136 15.937,10.25 L15.937,9.219 C15.937,8.80478644 15.6012136,8.469 15.187,8.469 C14.7727864,8.469 14.437,8.80478644 14.437,9.219 Z" id="Shape"></path>
                    <path d="M14.437,2 L14.437,3.031 C14.437,3.44521356 14.7727864,3.781 15.187,3.781 C15.6012136,3.781 15.937,3.44521356 15.937,3.031 L15.937,2 C15.937,1.58578644 15.6012136,1.25 15.187,1.25 C14.7727864,1.25 14.437,1.58578644 14.437,2 Z" id="Shape"></path>
                    <path d="M13.5,14.75 L11.25,14.75 C10.0073593,14.75 9,15.7573593 9,17 C9,18.2426407 10.0073593,19.25 11.25,19.25 C11.6642136,19.25 12,18.9142136 12,18.5 C12,18.0857864 11.6642136,17.75 11.25,17.75 C10.8357864,17.75 10.5,17.4142136 10.5,17 C10.5,16.5857864 10.8357864,16.25 11.25,16.25 L13.5,16.25 C13.9142136,16.25 14.25,15.9142136 14.25,15.5 C14.25,15.0857864 13.9142136,14.75 13.5,14.75 Z" id="Shape"></path>
                    <path d="M18,11.75 L13.5,11.75 C12.2573593,11.75 11.25,12.7573593 11.25,14 C11.25,15.2426407 12.2573593,16.25 13.5,16.25 L16.614,16.25 C17.0282136,16.25 17.364,15.9142136 17.364,15.5 C17.364,15.0857864 17.0282136,14.75 16.614,14.75 L13.5,14.75 C13.0857864,14.75 12.75,14.4142136 12.75,14 C12.75,13.5857864 13.0857864,13.25 13.5,13.25 L18,13.25 C18.4142136,13.25 18.75,12.9142136 18.75,12.5 C18.75,12.0857864 18.4142136,11.75 18,11.75 Z" id="Shape"></path>
                    <path d="M18.75,2 L21.75,2 C22.1642136,2 22.5,2.33578644 22.5,2.75 L22.5,11 C22.5,11.4142136 22.1642136,11.75 21.75,11.75 L10.5,11.75 C10.0857864,11.75 9.75,12.0857864 9.75,12.5 C9.75,12.9142136 10.0857864,13.25 10.5,13.25 L21.75,13.25 C22.9926407,13.25 24,12.2426407 24,11 L24,2.75 C24,1.50735931 22.9926407,0.5 21.75,0.5 L18.75,0.5 C18.3357864,0.5 18,0.835786438 18,1.25 C18,1.66421356 18.3357864,2 18.75,2 Z" id="Shape"></path>
                    <path d="M6,4.25 L6,2.75 C6,2.33578644 6.33578644,2 6.75,2 L12,2 C12.4142136,2 12.75,1.66421356 12.75,1.25 C12.75,0.835786438 12.4142136,0.5 12,0.5 L6.75,0.5 C5.50735931,0.5 4.5,1.50735931 4.5,2.75 L4.5,4.25 C4.5,4.66421356 4.83578644,5 5.25,5 C5.66421356,5 6,4.66421356 6,4.25 Z" id="Shape"></path>
                </g>
            </g>
        </g>
    </g>
</svg>