<?xml version="1.0" encoding="UTF-8"?>
<svg width="22px" height="24px" viewBox="0 0 22 24" version="1.1" xmlns="http://www.w3.org/2000/svg" xmlns:xlink="http://www.w3.org/1999/xlink">
    <!-- Generator: sketchtool 57.1 (101010) - https://sketch.com -->
    <title>81B5EDCE-B56D-4C34-BD00-A83010F37695</title>
    <desc>Created with sketchtool.</desc>
    <g id="UI-Kit" stroke="none" stroke-width="1" fill="none" fill-rule="evenodd">
        <g id="Icons" transform="translate(-299.000000, -361.000000)" fill="#4E4E4E">
            <g id="icon/gray/user" transform="translate(294.000000, 357.000000)">
                <path d="M16.1422857,17.4265083 C21.7003812,17.4265083 26.3218095,21.7861962 26.3218095,27.0899667 C26.3218095,27.5041802 25.9860231,27.8399667 25.5718095,27.8399667 C25.157596,27.8399667 24.8218095,27.5041802 24.8218095,27.0899667 C24.8218095,22.6348079 20.8908766,18.9265083 16.1422857,18.9265083 C11.3333745,18.9265083 7.46466667,22.6023981 7.46466667,27.0899667 C7.46466667,27.5041802 7.12888023,27.8399667 6.71466667,27.8399667 C6.3004531,27.8399667 5.96466667,27.5041802 5.96466667,27.0899667 C5.96466667,21.7563347 10.5216133,17.4265083 16.1422857,17.4265083 Z M16.1426667,4.96836667 C19.2895082,4.96836667 21.8450476,7.57416508 21.8450476,10.7017 C21.8450476,13.8641304 19.255702,16.4350333 16.1426667,16.4350333 C12.9964746,16.4350333 10.4402857,13.8289202 10.440726,10.7273952 C10.3317928,7.54968372 12.931276,4.96836667 16.1426667,4.96836667 Z M16.1426667,6.46836667 C13.7661296,6.46836667 11.8604759,8.36070287 11.9402857,10.7017 C11.9402857,13.0069177 13.8314652,14.9350333 16.1426667,14.9350333 C18.4296656,14.9350333 20.3450476,13.0332937 20.3450476,10.7017 C20.3450476,8.39612381 18.4544718,6.46836667 16.1426667,6.46836667 Z" id="Combined-Shape"></path>
            </g>
        </g>
    </g>
</svg>