<?xml version="1.0" encoding="UTF-8"?>
<svg width="27px" height="22px" viewBox="0 0 27 22" version="1.1" xmlns="http://www.w3.org/2000/svg" xmlns:xlink="http://www.w3.org/1999/xlink">
    <!-- Generator: sketchtool 57.1 (101010) - https://sketch.com -->
    <title>963A11AD-6FC1-446D-9561-407D69623FCE</title>
    <desc>Created with sketchtool.</desc>
    <g id="UI-Kit" stroke="none" stroke-width="1" fill="none" fill-rule="evenodd">
        <g id="Icons" transform="translate(-635.000000, -362.000000)" fill="#4E4E4E">
            <g id="icon/gray/website" transform="translate(632.000000, 357.000000)">
                <path d="M16.7777778,5.25 C17.0721585,5.25 17.3612005,5.2824719 17.643783,5.34554631 C20.9978301,5.7967495 23.9293069,7.82851056 25.565058,10.8046073 L26.2222222,10.8055556 C27.8642136,10.8055556 29.1944444,12.1357864 29.1944444,13.7777778 L29.1944444,18.2222222 C29.1944444,19.8642136 27.8642136,21.1944444 26.2222222,21.1944444 L25.5650493,21.1954087 C23.7535415,24.4912657 20.3529804,26.6288007 16.5487116,26.7450096 L16.2216704,26.75 C16.1079368,26.75 15.9945295,26.7481915 15.8814796,26.744597 L15.87845,26.7443738 L15.6666667,26.75 C15.37224,26.75 15.0831536,26.7175179 14.800529,26.6544241 C11.4466143,26.2032505 8.51513756,24.1714894 6.87938643,21.1953927 L6.22222222,21.1944444 C4.58023088,21.1944444 3.25,19.8642136 3.25,18.2222222 L3.25,13.7777778 C3.25,12.1357864 4.58023088,10.8055556 6.22222222,10.8055556 L6.87939515,10.8045913 C8.74266029,7.414567 12.287079,5.25 16.2227741,5.25 C16.3364797,5.25 16.4498592,5.25180766 16.5628814,5.25540031 L16.5659945,5.2556262 L16.7777778,5.25 Z M15.472,21.194 L11.6931963,21.1954507 C12.4979537,23.4099762 13.7590434,24.8574889 15.0975753,25.1811308 C15.2213189,25.1961317 15.3464219,25.2090236 15.4721211,25.2193404 L15.472,21.194 Z M16.972,21.194 L16.9729111,24.8858937 C18.0284941,24.2919732 18.9859712,22.9975167 19.6404167,21.1954573 L16.972,21.194 Z M23.810099,21.1948463 L21.2252225,21.1946931 C20.7867267,22.5650453 20.1834313,23.742618 19.4580589,24.6563315 C21.2185215,23.9866232 22.7413201,22.7805053 23.810099,21.1948463 Z M10.1083713,21.1950043 L8.63499877,21.1958173 C9.33744412,22.2377022 10.23592,23.1156973 11.2689521,23.7852874 C10.8104093,23.0346263 10.4183784,22.1629438 10.1083713,21.1950043 Z M26.2222222,12.3055556 L6.22222222,12.3055556 C5.40865801,12.3055556 4.75,12.9642136 4.75,13.7777778 L4.75,18.2222222 C4.75,19.0357864 5.40865801,19.6944444 6.22222222,19.6944444 L26.2222222,19.6944444 C27.0357864,19.6944444 27.6944444,19.0357864 27.6944444,18.2222222 L27.6944444,13.7777778 C27.6944444,12.9642136 27.0357864,12.3055556 26.2222222,12.3055556 Z M18.6263462,13.0501709 C18.9947052,13.1422607 19.2306988,13.4920966 19.1900921,13.859287 L19.1720513,13.9596795 L18.0609402,18.4041239 C17.8885352,19.0937442 16.9641304,19.1651931 16.6655528,18.5655555 L16.6218209,18.459393 L16.2222222,17.2605971 L15.8226236,18.459393 C15.5978349,19.1337591 14.6706731,19.134099 14.4189651,18.5133278 L14.3835042,18.4041239 L13.2723931,13.9596795 C13.1719316,13.5578333 13.4162521,13.1506324 13.8180983,13.0501709 C14.1864573,12.9580812 14.5593157,13.1557041 14.6962817,13.4988047 L14.7276069,13.5958761 L15.214057,15.5416764 L15.5107097,14.6517181 C15.7259714,14.0059332 16.6006282,13.9700562 16.8891559,14.5440872 L16.9337347,14.6517181 L17.2303875,15.5416764 L17.7168376,13.5958761 C17.8172991,13.1940299 18.2245,12.9497094 18.6263462,13.0501709 Z M25.2930128,13.0501709 C25.6613718,13.1422607 25.8973655,13.4920966 25.8567588,13.859287 L25.838718,13.9596795 L24.7276069,18.4041239 C24.5552018,19.0937442 23.6307971,19.1651931 23.3322195,18.5655555 L23.2884875,18.459393 L22.8888889,17.2605971 L22.4892903,18.459393 C22.2645016,19.1337591 21.3373398,19.134099 21.0856318,18.5133278 L21.0501709,18.4041239 L19.9390598,13.9596795 C19.8385982,13.5578333 20.0829188,13.1506324 20.4847649,13.0501709 C20.8531239,12.9580812 21.2259824,13.1557041 21.3629484,13.4988047 L21.3942735,13.5958761 L21.8807236,15.5416764 L22.1773764,14.6517181 C22.392638,14.0059332 23.2672948,13.9700562 23.5558226,14.5440872 L23.6004014,14.6517181 L23.8970541,15.5416764 L24.3835042,13.5958761 C24.4839658,13.1940299 24.8911666,12.9497094 25.2930128,13.0501709 Z M11.0501709,13.5958761 C11.1506324,13.1940299 11.5578333,12.9497094 11.9596795,13.0501709 C12.3615257,13.1506324 12.6058462,13.5578333 12.5053847,13.9596795 L12.5053847,13.9596795 L11.3942735,18.4041239 C11.2122904,19.1320564 10.1924311,19.1712239 9.95515419,18.459393 L9.95515419,18.459393 L9.55555556,17.2605971 L9.15595692,18.459393 C8.91867997,19.1712239 7.89882068,19.1320564 7.71683757,18.4041239 L7.71683757,18.4041239 L6.60572646,13.9596795 C6.50526491,13.5578333 6.74958543,13.1506324 7.15143161,13.0501709 C7.5532778,12.9497094 7.96047866,13.1940299 8.06094021,13.5958761 L8.06094021,13.5958761 L8.5473903,15.5416764 L8.84404308,14.6517181 C9.07196716,13.9679458 10.039144,13.9679458 10.267068,14.6517181 L10.267068,14.6517181 L10.5637208,15.5416764 Z M12.9861669,7.34394385 L12.7829805,7.42375278 C11.1087428,8.10729514 9.66176416,9.28085733 8.63434543,10.8051537 L11.2192219,10.8053069 C11.6576737,9.43509239 12.2608919,8.2576186 12.9861669,7.34394385 Z M16.9728156,6.78070002 L16.972,10.805 L20.7512481,10.8045493 C19.9466725,8.59052389 18.6859706,7.14316488 17.347776,6.81908865 C17.223288,6.80388843 17.0983491,6.79101007 16.9728156,6.78070002 Z M15.4725295,7.11354606 C14.4165528,7.70721255 13.4586791,9.00191648 12.8040278,10.8045427 L15.472,10.805 L15.4725295,7.11354606 Z M21.1735775,8.21347179 L21.2868006,8.40243561 C21.6979291,9.10932487 22.051548,9.91661872 22.3360732,10.8049957 L23.8094457,10.8041827 C23.1065663,9.76165406 22.2074142,8.88321791 21.1735775,8.21347179 Z" id="Combined-Shape"></path>
            </g>
        </g>
    </g>
</svg>