<?xml version="1.0" encoding="UTF-8"?>
<svg width="45px" height="45px" viewBox="0 0 45 45" version="1.1" xmlns="http://www.w3.org/2000/svg" xmlns:xlink="http://www.w3.org/1999/xlink">
    <title>1739B839-2A4D-4CDE-8086-FD0848A640E7@3x</title>
    <g id="Claim-Charity" stroke="none" stroke-width="1" fill="none" fill-rule="evenodd">
        <g id="claim_charity-(1)" transform="translate(-193.000000, -362.000000)">
            <g id="block-01" transform="translate(193.000000, 181.000000)">
                <g id="content01" transform="translate(0.000000, 181.000000)">
                    <g id="fees/section-2/wedontsetorbenefitfromprocessingfee">
                        <rect id="Rectangle" fill="#055CE5" x="0" y="0" width="44.8" height="44.8"></rect>
                        <g id="streamline-icon-calendar-favorite-heart-1@24x24" transform="translate(14.000000, 14.000000)" stroke="#82E3E0" stroke-linecap="round" stroke-linejoin="round" stroke-width="1.5">
                            <path d="M13.65625,18.40625 L9.60766667,14.1835 C8.87854167,13.454375 8.69804167,12.3405 9.15958333,11.4182083 L9.15958333,11.4182083 C9.75095833,10.2354583 11.1894167,9.75570833 12.3721667,10.3470833 C12.6025417,10.461875 12.813125,10.613875 12.9952083,10.7959583 L13.65625,11.457 L14.3172917,10.7959583 C15.2530417,9.86020833 16.769875,9.86020833 17.7048333,10.7959583 C17.8869167,10.9780417 18.038125,11.1878333 18.1537083,11.4182083 L18.1537083,11.4182083 C18.6144583,12.3405 18.4339583,13.454375 17.7048333,14.1835 L13.65625,18.40625 Z" id="Path"></path>
                            <path d="M6.53125,13.65625 L1.78125,13.65625 C1.12575,13.65625 0.59375,13.12425 0.59375,12.46875 L0.59375,12.46875 L0.59375,2.980625 C0.59375,2.325125 1.12575,1.793125 1.78125,1.793125 L12.46875,1.793125 C13.12425,1.793125 13.65625,2.325125 13.65625,2.980625 L13.65625,2.980625 L13.65625,6.53125" id="Path"></path>
                            <line x1="0.59375" y1="5.34375" x2="13.65625" y2="5.34375" id="Path"></line>
                            <line x1="4.15070833" y1="2.96875" x2="4.15070833" y2="0.59375" id="Path"></line>
                            <line x1="10.0882083" y1="2.96875" x2="10.0882083" y2="0.59375" id="Path"></line>
                        </g>
                    </g>
                </g>
            </g>
        </g>
    </g>
</svg>